g Dal_Unbrella_out_10
v 1.782028 -0.06586226 -1.74999
v 1.802044 0.1336008 -1.773591
v 1.850366 0.1601748 -1.830569
v 7.504152E-07 0.08746408 -4.650027
v 0.895376 0.2045286 -4.501359
v 7.530589E-07 0.2045286 -4.589545
v 0.9071758 0.08746411 -4.560679
v 7.504152E-07 -0.08388159 -4.650027
v 1.756344 0.2045286 -4.240187
v 0.9071758 -0.08388159 -4.560679
v 1.779489 0.08746413 -4.296065
v 2.549816 0.2045287 -3.816068
v 1.779489 -0.08388152 -4.296065
v 2.583418 0.08746421 -3.866357
v 2.583418 -0.08388146 -3.866357
v 0.895376 0.2045286 -4.501359
v 7.690043E-07 0.2045286 -4.224758
v 7.530589E-07 0.2045286 -4.589545
v 0.82421 0.2045287 -4.14358
v 7.736249E-07 0.1601744 -4.119049
v 1.756344 0.2045286 -4.240187
v 0.8035868 0.1601744 -4.039903
v 1.616745 0.2045287 -3.903167
v 2.549816 0.2045287 -3.816068
v 1.576292 0.1601745 -3.805505
v 2.347151 0.2045288 -3.512758
v 2.288421 0.1601745 -3.424864
v 1.00882 0.1601747 -2.294107
v 0.9828166 0.1336008 -2.224847
v 0.2403249 0.1336007 -2.437749
v 0.2982444 0.1601747 -2.497848
v 0.2982444 0.1601747 -2.497848
v 0.2403249 0.1336007 -2.437749
v 0.1927222 0.1336007 -2.586511
v 0.2553967 0.1601747 -2.631747
v 1.850366 0.1601748 -1.830569
v 1.802044 0.1336008 -1.773591
v 0.9828166 0.1336008 -2.224847
v 1.00882 0.1601747 -2.294107
v 0.2553967 0.1601747 -2.631747
v 0.1927222 0.1336007 -2.586511
v 0.04590595 0.1336007 -2.693584
v 0.04590594 0.1601747 -2.784529
v 1.779489 -0.08388152 -4.296065
v 2.549816 -0.2009459 -3.816068
v 2.583418 -0.08388146 -3.866357
v 1.756344 -0.200946 -4.240187
v 0.9071758 -0.08388159 -4.560679
v 0.895376 -0.200946 -4.501359
v 7.504152E-07 -0.08388159 -4.650027
v 7.530589E-07 -0.200946 -4.589545
v 0.895376 -0.200946 -4.501359
v 7.530589E-07 -0.200946 -4.589545
v 7.690043E-07 -0.200946 -4.224758
v 0.82421 -0.200946 -4.14358
v 7.736249E-07 -0.1565917 -4.119049
v 1.756344 -0.200946 -4.240187
v 0.8035868 -0.1565917 -4.039903
v 1.616745 -0.2009459 -3.903167
v 2.549816 -0.2009459 -3.816068
v 1.576292 -0.1565917 -3.805505
v 2.347151 -0.2009459 -3.512758
v 2.288421 -0.1565916 -3.424864
v 0.9828166 0.1336008 -2.224847
v 0.9720448 -0.06586234 -2.196159
v 0.2163342 -0.06586237 -2.412856
v 0.2403249 0.1336007 -2.437749
v 1.802044 0.1336008 -1.773591
v 1.782028 -0.06586226 -1.74999
v 0.9720448 -0.06586234 -2.196159
v 0.9828166 0.1336008 -2.224847
v 0.1927222 0.1336007 -2.586511
v 0.2403249 0.1336007 -2.437749
v 0.2163342 -0.06586237 -2.412856
v 0.1667622 -0.06586239 -2.567773
v 0.1927222 0.1336007 -2.586511
v 0.1667622 -0.06586239 -2.567773
v 0.04590595 -0.06586241 -2.655914
v 0.04590595 0.1336007 -2.693584
v 1.00882 -0.1565914 -2.294107
v 0.2982444 -0.1565915 -2.497848
v 0.2403249 -0.1300175 -2.437749
v 0.9828166 -0.1300175 -2.224847
v 0.9828166 -0.1300175 -2.224847
v 0.2403249 -0.1300175 -2.437749
v 0.2163342 -0.06586237 -2.412856
v 0.9720448 -0.06586234 -2.196159
v 0.2982444 -0.1565915 -2.497848
v 0.2553967 -0.1565915 -2.631747
v 0.1927222 -0.1300175 -2.586511
v 0.2403249 -0.1300175 -2.437749
v 0.2403249 -0.1300175 -2.437749
v 0.1927222 -0.1300175 -2.586511
v 0.1667622 -0.06586239 -2.567773
v 0.2163342 -0.06586237 -2.412856
v 1.850366 -0.1565914 -1.830569
v 1.00882 -0.1565914 -2.294107
v 0.9828166 -0.1300175 -2.224847
v 1.802044 -0.1300174 -1.773591
v 1.802044 -0.1300174 -1.773591
v 0.9828166 -0.1300175 -2.224847
v 0.9720448 -0.06586234 -2.196159
v 1.782028 -0.06586226 -1.74999
v 0.2553967 -0.1565915 -2.631747
v 0.04590594 -0.1565915 -2.784529
v 0.04590595 -0.1300175 -2.693584
v 0.1927222 -0.1300175 -2.586511
v 0.1927222 -0.1300175 -2.586511
v 0.04590595 -0.1300175 -2.693584
v 0.04590595 -0.06586241 -2.655914
v 0.1667622 -0.06586239 -2.567773
v 0.04590594 0.1601747 -2.784529
v 7.736249E-07 0.1601744 -4.119049
v 0.8035868 0.1601744 -4.039903
v 1.576292 0.1601745 -3.805505
v 2.288421 0.1601745 -3.424864
v 1.00882 0.1601747 -2.294107
v 1.850366 0.1601748 -1.830569
v 0.2553967 0.1601747 -2.631747
v 0.2982444 0.1601747 -2.497848
v 0.8035868 -0.1565917 -4.039903
v 7.736249E-07 -0.1565917 -4.119049
v 0.04590594 -0.1565915 -2.784529
v 1.576292 -0.1565917 -3.805505
v 2.288421 -0.1565916 -3.424864
v 1.00882 -0.1565914 -2.294107
v 1.850366 -0.1565914 -1.830569
v 0.2553967 -0.1565915 -2.631747
v 0.2982444 -0.1565915 -2.497848
v 1.850366 0.1601748 -1.830569
v 2.288421 0.1601745 -3.424864
v 2.288421 -0.1565916 -3.424864
v 1.850366 -0.1565914 -1.830569
v 2.583418 -0.08388146 -3.866357
v 2.549816 -0.2009459 -3.816068
v 2.347151 -0.2009459 -3.512758
v 2.288421 -0.1565916 -3.424864
v 2.288421 0.1601745 -3.424864
v 2.583418 0.08746421 -3.866357
v 2.288421 0.1601745 -3.424864
v 2.549816 0.2045287 -3.816068
v 2.583418 0.08746421 -3.866357
v 2.347151 0.2045288 -3.512758
v 1.850366 0.1601748 -1.830569
v 1.850366 -0.1565914 -1.830569
v 1.802044 -0.1300174 -1.773591
v 1.782028 -0.06586226 -1.74999
v 7.690043E-07 -0.200946 -4.224758
v 7.530589E-07 -0.200946 -4.589545
v 7.504152E-07 -0.08388159 -4.650027
v 7.736249E-07 -0.1565917 -4.119049
v 7.736249E-07 0.1601744 -4.119049
v 7.504152E-07 0.08746408 -4.650027
v 7.530589E-07 0.2045286 -4.589545
v 7.690043E-07 0.2045286 -4.224758
v 0.04590594 0.1601747 -2.784529
v 0.04590594 -0.1565915 -2.784529
v 0.04590595 -0.1300175 -2.693584
v 0.04590595 -0.06586241 -2.655914
v 0.04590595 0.1336007 -2.693584
vt 0.6948242 0.309082
vt 0.6972656 0.3071289
vt 0.703125 0.302002
vt 0.9985352 0.4958496
vt 0.9829102 0.4020996
vt 0.9921875 0.4958496
vt 0.9892578 0.4008789
vt 0.9985352 0.4958496
vt 0.9555664 0.3117676
vt 0.9892578 0.4008789
vt 0.9614258 0.3093262
vt 0.9111328 0.2287598
vt 0.9614258 0.3093262
vt 0.9165039 0.2252197
vt 0.9165039 0.2252197
vt 0.9829102 0.4020996
vt 0.9541016 0.4958496
vt 0.9921875 0.4958496
vt 0.9453125 0.4094238
vt 0.9428711 0.4958496
vt 0.9555664 0.3117676
vt 0.9345703 0.4116211
vt 0.9204102 0.326416
vt 0.9111328 0.2287598
vt 0.9101563 0.3308105
vt 0.8793945 0.25
vt 0.8701172 0.2561035
vt 0.7514648 0.3901367
vt 0.7441406 0.3928223
vt 0.7666016 0.4707031
vt 0.7729492 0.4645996
vt 0.7729492 0.4645996
vt 0.7666016 0.4707031
vt 0.7822266 0.4758301
vt 0.7871094 0.4692383
vt 0.703125 0.302002
vt 0.6972656 0.3071289
vt 0.7441406 0.3928223
vt 0.7514648 0.3901367
vt 0.7871094 0.4692383
vt 0.7822266 0.4758301
vt 0.793457 0.4912109
vt 0.8032227 0.4912109
vt 0.9614258 0.3093262
vt 0.9111328 0.2287598
vt 0.9165039 0.2252197
vt 0.9555664 0.3117676
vt 0.9892578 0.4008789
vt 0.9829102 0.4020996
vt 0.9985352 0.4958496
vt 0.9921875 0.4958496
vt 0.9829102 0.4020996
vt 0.9921875 0.4958496
vt 0.9541016 0.4958496
vt 0.9453125 0.4094238
vt 0.9428711 0.4958496
vt 0.9555664 0.3117676
vt 0.9345703 0.4116211
vt 0.9204102 0.326416
vt 0.9111328 0.2287598
vt 0.9101563 0.3308105
vt 0.8793945 0.25
vt 0.8701172 0.2561035
vt 0.7441406 0.3928223
vt 0.7412109 0.394043
vt 0.7641602 0.4731445
vt 0.7666016 0.4707031
vt 0.6972656 0.3071289
vt 0.6948242 0.309082
vt 0.7412109 0.394043
vt 0.7441406 0.3928223
vt 0.7822266 0.4758301
vt 0.7666016 0.4707031
vt 0.7641602 0.4731445
vt 0.7802734 0.4785156
vt 0.7822266 0.4758301
vt 0.7802734 0.4785156
vt 0.7895508 0.4912109
vt 0.793457 0.4912109
vt 0.7514648 0.3901367
vt 0.7729492 0.4645996
vt 0.7666016 0.4707031
vt 0.7441406 0.3928223
vt 0.7441406 0.3928223
vt 0.7666016 0.4707031
vt 0.7641602 0.4731445
vt 0.7412109 0.394043
vt 0.7729492 0.4645996
vt 0.7871094 0.4692383
vt 0.7822266 0.4758301
vt 0.7666016 0.4707031
vt 0.7666016 0.4707031
vt 0.7822266 0.4758301
vt 0.7802734 0.4785156
vt 0.7641602 0.4731445
vt 0.703125 0.302002
vt 0.7514648 0.3901367
vt 0.7441406 0.3928223
vt 0.6972656 0.3071289
vt 0.6972656 0.3071289
vt 0.7441406 0.3928223
vt 0.7412109 0.394043
vt 0.6948242 0.309082
vt 0.7871094 0.4692383
vt 0.8032227 0.4912109
vt 0.793457 0.4912109
vt 0.7822266 0.4758301
vt 0.7822266 0.4758301
vt 0.793457 0.4912109
vt 0.7895508 0.4912109
vt 0.7802734 0.4785156
vt 0.8032227 0.4912109
vt 0.9428711 0.4958496
vt 0.9345703 0.4116211
vt 0.9101563 0.3308105
vt 0.8701172 0.2561035
vt 0.7514648 0.3901367
vt 0.703125 0.302002
vt 0.7871094 0.4692383
vt 0.7729492 0.4645996
vt 0.9345703 0.4116211
vt 0.9428711 0.4958496
vt 0.8032227 0.4912109
vt 0.9101563 0.3308105
vt 0.8701172 0.2561035
vt 0.7514648 0.3901367
vt 0.703125 0.302002
vt 0.7871094 0.4692383
vt 0.7729492 0.4645996
vt 0.703125 0.302002
vt 0.8701172 0.2561035
vt 0.8701172 0.2561035
vt 0.703125 0.302002
vt 0.9165039 0.2252197
vt 0.9111328 0.2287598
vt 0.8793945 0.25
vt 0.8701172 0.2561035
vt 0.8701172 0.2561035
vt 0.9165039 0.2252197
vt 0.8701172 0.2561035
vt 0.9111328 0.2287598
vt 0.9165039 0.2252197
vt 0.8793945 0.25
vt 0.703125 0.302002
vt 0.703125 0.302002
vt 0.6972656 0.3071289
vt 0.6948242 0.309082
vt 0.9541016 0.4958496
vt 0.9921875 0.4958496
vt 0.9985352 0.4958496
vt 0.9428711 0.4958496
vt 0.9428711 0.4958496
vt 0.9985352 0.4958496
vt 0.9921875 0.4958496
vt 0.9541016 0.4958496
vt 0.8032227 0.4912109
vt 0.8032227 0.4912109
vt 0.793457 0.4912109
vt 0.7895508 0.4912109
vt 0.793457 0.4912109
vn 0.7626953 0 0.6469727
vn 0.7626953 0 0.6469727
vn 0.7626953 0 0.6469727
vn 0.09533691 0.2318115 -0.9682617
vn 0.1733398 0.4589844 -0.871582
vn 0.0871582 0.4572754 -0.8852539
vn 0.1896973 0.2329102 -0.9536133
vn 0.09533691 -0.2318115 -0.9682617
vn 0.3400879 0.4589844 -0.8208008
vn 0.1896973 -0.2329102 -0.9536133
vn 0.3720703 0.2329102 -0.8984375
vn 0.4191895 0.4572754 -0.7841797
vn 0.3720703 -0.2329102 -0.8984375
vn 0.4584961 0.2318115 -0.8579102
vn 0.4584961 -0.2318115 -0.8579102
vn 0 1 0
vn -0.01826477 0.9824219 0.1854248
vn 0 1 0
vn -0.03616333 0.9824219 0.1818848
vn -0.03808594 0.9213867 0.3867188
vn 0 1 0
vn -0.07550049 0.921875 0.3793945
vn -0.07098389 0.9824219 0.1712646
vn 0 1 0
vn -0.1480713 0.921875 0.3574219
vn -0.08782959 0.9824219 0.1643066
vn -0.1831055 0.9213867 0.3425293
vn -0.09344482 0.940918 0.3259277
vn -0.09344482 0.940918 0.3259277
vn -0.09344482 0.940918 0.3259277
vn -0.09344482 0.940918 0.3259277
vn -0.3239746 0.9404297 0.1036377
vn -0.3239746 0.9404297 0.1036377
vn -0.3239746 0.9404297 0.1036377
vn -0.3239746 0.9404297 0.1036377
vn -0.1645508 0.9399414 0.2988281
vn -0.1645508 0.9399414 0.2988281
vn -0.1645508 0.9399414 0.2988281
vn -0.1645508 0.9399414 0.2988281
vn -0.2004395 0.9404297 0.2749023
vn -0.2004395 0.9404297 0.2749023
vn -0.2004395 0.9404297 0.2749023
vn -0.2004395 0.9404297 0.2749023
vn 0.3720703 -0.2329102 -0.8984375
vn 0.4191895 -0.4572754 -0.7841797
vn 0.4584961 -0.2318115 -0.8579102
vn 0.3400879 -0.4589844 -0.8208008
vn 0.1896973 -0.2329102 -0.9536133
vn 0.1733398 -0.4589844 -0.871582
vn 0.09533691 -0.2318115 -0.9682617
vn 0.0871582 -0.4572754 -0.8852539
vn 0 -1 0
vn 0 -1 0
vn -0.01826477 -0.9824219 0.1854248
vn -0.03616333 -0.9824219 0.1818848
vn -0.03808594 -0.9213867 0.3867188
vn 0 -1 0
vn -0.07550049 -0.921875 0.3793945
vn -0.07098389 -0.9824219 0.1712646
vn 0 -1 0
vn -0.1480713 -0.921875 0.3574219
vn -0.08782959 -0.9824219 0.1643066
vn -0.1831055 -0.9213867 0.3425293
vn -0.2724609 0.1513672 0.9501953
vn -0.2724609 0.1513672 0.9501953
vn -0.2724609 0.1513672 0.9501953
vn -0.2724609 0.1513672 0.9501953
vn -0.4770508 0.1502686 0.8657227
vn -0.4770508 0.1502686 0.8657227
vn -0.4770508 0.1502686 0.8657227
vn -0.4770508 0.1502686 0.8657227
vn -0.9414063 0.1508789 0.3012695
vn -0.9414063 0.1508789 0.3012695
vn -0.9414063 0.1508789 0.3012695
vn -0.9414063 0.1508789 0.3012695
vn -0.5825195 0.1508789 0.7988281
vn -0.5825195 0.1508789 0.7988281
vn -0.5825195 0.1508789 0.7988281
vn -0.5825195 0.1508789 0.7988281
vn -0.09344482 -0.940918 0.3259277
vn -0.09344482 -0.940918 0.3259277
vn -0.09344482 -0.940918 0.3259277
vn -0.09344482 -0.940918 0.3259277
vn -0.2489014 -0.4299316 0.8676758
vn -0.2489014 -0.4299316 0.8676758
vn -0.2489014 -0.4299316 0.8676758
vn -0.2489014 -0.4299316 0.8676758
vn -0.3239746 -0.9404297 0.1036377
vn -0.3239746 -0.9404297 0.1036377
vn -0.3239746 -0.9404297 0.1036377
vn -0.3239746 -0.9404297 0.1036377
vn -0.8603516 -0.4287109 0.2753906
vn -0.8603516 -0.4287109 0.2753906
vn -0.8603516 -0.4287109 0.2753906
vn -0.8603516 -0.4287109 0.2753906
vn -0.1645508 -0.9399414 0.2988281
vn -0.1645508 -0.9399414 0.2988281
vn -0.1645508 -0.9399414 0.2988281
vn -0.1645508 -0.9399414 0.2988281
vn -0.4362793 -0.4274902 0.7919922
vn -0.4362793 -0.4274902 0.7919922
vn -0.4362793 -0.4274902 0.7919922
vn -0.4362793 -0.4274902 0.7919922
vn -0.2004395 -0.9404297 0.2749023
vn -0.2004395 -0.9404297 0.2749023
vn -0.2004395 -0.9404297 0.2749023
vn -0.2004395 -0.9404297 0.2749023
vn -0.5322266 -0.4287109 0.7299805
vn -0.5322266 -0.4287109 0.7299805
vn -0.5322266 -0.4287109 0.7299805
vn -0.5322266 -0.4287109 0.7299805
vn 0 1 0
vn 0 1 0
vn 0 1 0
vn 0 1 0
vn 0 1 0
vn 0 1 0
vn 0 1 0
vn 0 1 0
vn 0 1 0
vn 0 -1 0
vn 0 -1 0
vn 0 -1 0
vn 0 -1 0
vn 0 -1 0
vn 0 -1 0
vn 0 -1 0
vn 0 -1 0
vn 0 -1 0
vn 0.9643555 0 0.2648926
vn 0.9643555 0 0.2648926
vn 0.9643555 0 0.2648926
vn 0.9643555 0 0.2648926
vn 0.831543 0 0.5556641
vn 0.831543 0 0.5556641
vn 0.831543 0 0.5556641
vn 0.831543 0 0.5556641
vn 0.831543 0 0.5556641
vn 0.831543 0 0.5556641
vn 0.831543 0 0.5556641
vn 0.831543 0 0.5556641
vn 0.831543 0 0.5556641
vn 0.831543 0 0.5556641
vn 0.7626953 0 0.6469727
vn 0.7626953 0 0.6469727
vn 0.7626953 0 0.6469727
vn 0.7626953 0 0.6469727
vn -1 0 0
vn -1 0 0
vn -1 0 0
vn -0.9995117 0 0.03436279
vn -0.9995117 0 0.03436279
vn -1 0 0
vn -1 0 0
vn -1 0 0
vn -0.9995117 0 0.03436279
vn -0.9995117 0 0.03436279
vn -1 0 0
vn -1 0 0
vn -1 0 0
g Dal_Unbrella_out_10_0
f 3/3/3 2/2/2 1/1/1
f 6/6/6 5/5/5 4/4/4
f 5/5/5 7/7/7 4/4/4
f 4/4/4 7/7/7 8/8/8
f 5/5/5 9/9/9 7/7/7
f 7/7/7 10/10/10 8/8/8
f 9/9/9 11/11/11 7/7/7
f 7/7/7 11/11/11 10/10/10
f 9/9/9 12/12/12 11/11/11
f 11/11/11 13/13/13 10/10/10
f 12/12/12 14/14/14 11/11/11
f 11/11/11 14/14/14 13/13/13
f 14/14/14 15/15/15 13/13/13
f 18/18/18 17/17/17 16/16/16
f 17/17/17 19/19/19 16/16/16
f 17/17/17 20/20/20 19/19/19
f 16/16/16 19/19/19 21/21/21
f 20/20/20 22/22/22 19/19/19
f 19/19/19 23/23/23 21/21/21
f 19/19/19 22/22/22 23/23/23
f 21/21/21 23/23/23 24/24/24
f 22/22/22 25/25/25 23/23/23
f 23/23/23 26/26/26 24/24/24
f 23/23/23 25/25/25 26/26/26
f 25/25/25 27/27/27 26/26/26
f 30/30/30 29/29/29 28/28/28
f 31/31/31 30/30/30 28/28/28
f 34/34/34 33/33/33 32/32/32
f 35/35/35 34/34/34 32/32/32
f 38/38/38 37/37/37 36/36/36
f 39/39/39 38/38/38 36/36/36
f 42/42/42 41/41/41 40/40/40
f 43/43/43 42/42/42 40/40/40
f 46/46/46 45/45/45 44/44/44
f 45/45/45 47/47/47 44/44/44
f 44/44/44 47/47/47 48/48/48
f 47/47/47 49/49/49 48/48/48
f 48/48/48 49/49/49 50/50/50
f 49/49/49 51/51/51 50/50/50
f 54/54/54 53/53/53 52/52/52
f 55/55/55 54/54/54 52/52/52
f 56/56/56 54/54/54 55/55/55
f 55/55/55 52/52/52 57/57/57
f 58/58/58 56/56/56 55/55/55
f 59/59/59 55/55/55 57/57/57
f 58/58/58 55/55/55 59/59/59
f 59/59/59 57/57/57 60/60/60
f 61/61/61 58/58/58 59/59/59
f 62/62/62 59/59/59 60/60/60
f 61/61/61 59/59/59 62/62/62
f 63/63/63 61/61/61 62/62/62
f 66/66/66 65/65/65 64/64/64
f 67/67/67 66/66/66 64/64/64
f 70/70/70 69/69/69 68/68/68
f 71/71/71 70/70/70 68/68/68
f 74/74/74 73/73/73 72/72/72
f 75/75/75 74/74/74 72/72/72
f 78/78/78 77/77/77 76/76/76
f 79/79/79 78/78/78 76/76/76
f 82/82/82 81/81/81 80/80/80
f 83/83/83 82/82/82 80/80/80
f 86/86/86 85/85/85 84/84/84
f 87/87/87 86/86/86 84/84/84
f 90/90/90 89/89/89 88/88/88
f 91/91/91 90/90/90 88/88/88
f 94/94/94 93/93/93 92/92/92
f 95/95/95 94/94/94 92/92/92
f 98/98/98 97/97/97 96/96/96
f 99/99/99 98/98/98 96/96/96
f 102/102/102 101/101/101 100/100/100
f 103/103/103 102/102/102 100/100/100
f 106/106/106 105/105/105 104/104/104
f 107/107/107 106/106/106 104/104/104
f 110/110/110 109/109/109 108/108/108
f 111/111/111 110/110/110 108/108/108
f 114/114/114 113/113/113 112/112/112
f 112/112/112 115/115/115 114/114/114
f 112/112/112 116/116/116 115/115/115
f 112/112/112 117/117/117 116/116/116
f 117/117/117 118/118/118 116/116/116
f 112/112/112 119/119/119 117/117/117
f 119/119/119 120/120/120 117/117/117
f 123/123/123 122/122/122 121/121/121
f 121/121/121 124/124/124 123/123/123
f 124/124/124 125/125/125 123/123/123
f 125/125/125 126/126/126 123/123/123
f 125/125/125 127/127/127 126/126/126
f 126/126/126 128/128/128 123/123/123
f 126/126/126 129/129/129 128/128/128
f 132/132/132 131/131/131 130/130/130
f 133/133/133 132/132/132 130/130/130
f 136/136/136 135/135/135 134/134/134
f 134/134/134 137/137/137 136/136/136
f 134/134/134 138/138/138 137/137/137
f 134/134/134 139/139/139 138/138/138
f 142/142/142 141/141/141 140/140/140
f 141/141/141 143/143/143 140/140/140
f 146/146/146 145/145/145 144/144/144
f 144/144/144 147/147/147 146/146/146
f 150/150/150 149/149/149 148/148/148
f 148/148/148 151/151/151 150/150/150
f 151/151/151 152/152/152 150/150/150
f 152/152/152 153/153/153 150/150/150
f 152/152/152 154/154/154 153/153/153
f 152/152/152 155/155/155 154/154/154
f 152/152/152 151/151/151 156/156/156
f 151/151/151 157/157/157 156/156/156
f 156/156/156 157/157/157 158/158/158
f 158/158/158 159/159/159 156/156/156
f 159/159/159 160/160/160 156/156/156
