g Dal_Unbrella_out_03
v -2.436826 0.1601751 0.1539987
v -2.423306 0.1336011 0.06360226
v -2.417706 -0.06586197 0.02615878
v -4.296067 0.08746512 1.779483
v -4.501359 0.2045295 0.8953694
v -4.240189 0.2045296 1.756337
v -4.560679 0.08746502 0.9071689
v -4.296067 -0.08388053 1.779483
v -4.589545 0.2045293 3.610084E-07
v -4.560679 -0.0838807 0.9071689
v -4.650027 0.08746484 3.90175E-07
v -4.501358 0.2045292 -0.8953756
v -4.650027 -0.08388083 4.180907E-07
v -4.560678 0.08746471 -0.907175
v -4.240186 0.204529 -1.756343
v -4.560678 -0.08388099 -0.907175
v -4.296064 0.08746454 -1.779488
v -4.296064 -0.08388111 -1.779488
v -4.501359 0.2045295 0.8953694
v -3.90317 0.2045296 1.61674
v -4.240189 0.2045296 1.756337
v -4.143581 0.2045295 0.8242034
v -3.805508 0.1601754 1.576287
v -4.589545 0.2045293 3.610084E-07
v -4.039904 0.1601752 0.8035809
v -4.224757 0.2045293 2.92909E-07
v -4.501358 0.2045292 -0.8953756
v -4.119049 0.1601751 2.955145E-07
v -4.143579 0.2045292 -0.8242091
v -4.240186 0.204529 -1.756343
v -4.039902 0.160175 -0.8035864
v -3.903167 0.2045291 -1.616745
v -3.805505 0.1601748 -1.576292
v -4.039902 0.160175 -0.8035864
v -3.805505 0.1601748 -1.576292
v -2.383838 0.1601749 -1.061616
v -2.604115 0.1601751 -0.2398599
v -4.119049 0.1601751 2.955145E-07
v -2.604115 0.1601751 -0.0132904
v -2.436826 0.1601751 0.1539987
v -4.039904 0.1601752 0.8035809
v -3.805508 0.1601754 1.576287
v -2.383838 0.1601749 -1.061616
v -2.312651 0.133601 -1.035845
v -2.530635 0.1336011 -0.2229277
v -2.604115 0.1601751 -0.2398599
v -2.604115 0.1601751 -0.2398599
v -2.530635 0.1336011 -0.2229277
v -2.530635 0.1336011 -0.04372653
v -2.604115 0.1601751 -0.0132904
v -2.604115 0.1601751 -0.0132904
v -2.530635 0.1336011 -0.04372653
v -2.423306 0.1336011 0.06360226
v -2.436826 0.1601751 0.1539987
v -4.296067 -0.08388053 1.779483
v -4.240189 -0.200945 1.756337
v -4.501359 -0.2009452 0.8953695
v -4.560679 -0.0838807 0.9071689
v -4.589545 -0.2009453 4.270686E-07
v -4.650027 -0.08388083 4.180907E-07
v -4.501358 -0.2009455 -0.8953755
v -4.560678 -0.08388099 -0.907175
v -4.240186 -0.2009456 -1.756343
v -4.296064 -0.08388111 -1.779488
v -4.501359 -0.2009452 0.8953695
v -4.240189 -0.200945 1.756337
v -3.90317 -0.200945 1.61674
v -4.143581 -0.2009452 0.8242035
v -3.805508 -0.1565908 1.576287
v -4.589545 -0.2009453 4.270686E-07
v -4.039904 -0.1565909 0.8035809
v -4.224757 -0.2009453 3.589692E-07
v -4.501358 -0.2009455 -0.8953755
v -4.119049 -0.1565911 3.471223E-07
v -4.143579 -0.2009454 -0.824209
v -4.240186 -0.2009456 -1.756343
v -4.039902 -0.1565912 -0.8035864
v -3.903167 -0.2009456 -1.616745
v -3.805505 -0.1565913 -1.576292
v -2.530635 0.1336011 -0.2229277
v -2.312651 0.133601 -1.035845
v -2.283165 -0.06586214 -1.02517
v -2.500198 -0.06586201 -0.215914
v -2.423306 0.1336011 0.06360226
v -2.530635 0.1336011 -0.04372653
v -2.500198 -0.06586199 -0.0563336
v -2.417706 -0.06586197 0.02615878
v -2.383838 -0.1565913 -1.061616
v -3.805505 -0.1565913 -1.576292
v -4.039902 -0.1565912 -0.8035864
v -2.604115 -0.1565911 -0.2398598
v -4.119049 -0.1565911 3.471223E-07
v -2.604115 -0.1565911 -0.01329035
v -2.436826 -0.156591 0.1539988
v -4.039904 -0.1565909 0.8035809
v -3.805508 -0.1565908 1.576287
v -2.383838 -0.1565913 -1.061616
v -2.604115 -0.1565911 -0.2398598
v -2.530635 -0.1300171 -0.2229276
v -2.312651 -0.1300173 -1.035845
v -2.312651 -0.1300173 -1.035845
v -2.530635 -0.1300171 -0.2229276
v -2.500198 -0.06586201 -0.215914
v -2.283165 -0.06586214 -1.02517
v -2.604115 -0.1565911 -0.2398598
v -2.604115 -0.1565911 -0.01329035
v -2.530635 -0.1300171 -0.04372649
v -2.530635 -0.1300171 -0.2229276
v -2.530635 -0.1300171 -0.2229276
v -2.530635 -0.1300171 -0.04372649
v -2.500198 -0.06586199 -0.0563336
v -2.500198 -0.06586201 -0.215914
v -2.604115 -0.1565911 -0.01329035
v -2.436826 -0.156591 0.1539988
v -2.423306 -0.1300171 0.06360231
v -2.530635 -0.1300171 -0.04372649
v -2.530635 -0.1300171 -0.04372649
v -2.423306 -0.1300171 0.06360231
v -2.417706 -0.06586197 0.02615878
v -2.500198 -0.06586199 -0.0563336
v -2.530635 0.1336011 -0.04372653
v -2.530635 0.1336011 -0.2229277
v -2.500198 -0.06586201 -0.215914
v -2.500198 -0.06586199 -0.0563336
v -4.240186 0.204529 -1.756343
v -4.296064 0.08746454 -1.779488
v -4.296064 -0.08388111 -1.779488
v -4.240186 -0.2009456 -1.756343
v -3.903167 0.2045291 -1.616745
v -3.903167 -0.2009456 -1.616745
v -3.805505 0.1601748 -1.576292
v -3.805505 -0.1565913 -1.576292
v -2.383838 0.1601749 -1.061616
v -2.383838 -0.1565913 -1.061616
v -2.312651 0.133601 -1.035845
v -2.312651 -0.1300173 -1.035845
v -2.283165 -0.06586214 -1.02517
v -3.805508 0.1601754 1.576287
v -2.436826 0.1601751 0.1539987
v -2.436826 -0.156591 0.1539988
v -3.805508 -0.1565908 1.576287
v -2.423306 -0.1300171 0.06360231
v -2.436826 -0.156591 0.1539988
v -2.436826 0.1601751 0.1539987
v -2.417706 -0.06586197 0.02615878
v -3.90317 0.2045296 1.61674
v -3.805508 0.1601754 1.576287
v -3.805508 -0.1565908 1.576287
v -3.90317 -0.200945 1.61674
v -4.240189 0.2045296 1.756337
v -4.240189 -0.200945 1.756337
v -4.296067 0.08746512 1.779483
v -4.296067 -0.08388053 1.779483
vt 0.4951172 0.7514648
vt 0.5043945 0.75
vt 0.5083008 0.7490234
vt 0.324707 0.9462891
vt 0.4174805 0.9677734
vt 0.3271484 0.9404297
vt 0.4162598 0.9736328
vt 0.324707 0.9462891
vt 0.5112305 0.9770508
vt 0.4162598 0.9736328
vt 0.5112305 0.9833984
vt 0.6049805 0.9677734
vt 0.5112305 0.9833984
vt 0.6064453 0.9736328
vt 0.6953125 0.9404297
vt 0.6064453 0.9736328
vt 0.6977539 0.9462891
vt 0.6977539 0.9462891
vt 0.4174805 0.9677734
vt 0.3417969 0.9047852
vt 0.3271484 0.9404297
vt 0.4248047 0.9301758
vt 0.3459473 0.8945313
vt 0.5112305 0.9770508
vt 0.427002 0.9194336
vt 0.5112305 0.9384766
vt 0.6049805 0.9677734
vt 0.5112305 0.9277344
vt 0.5976563 0.9301758
vt 0.6953125 0.9404297
vt 0.5952148 0.9194336
vt 0.6806641 0.9047852
vt 0.6762695 0.8945313
vt 0.5952148 0.9194336
vt 0.6762695 0.8945313
vt 0.6225586 0.7456055
vt 0.5361328 0.7685547
vt 0.5112305 0.9277344
vt 0.5126953 0.7685547
vt 0.4951172 0.7514648
vt 0.427002 0.9194336
vt 0.3459473 0.8945313
vt 0.6225586 0.7456055
vt 0.6196289 0.7382813
vt 0.534668 0.7612305
vt 0.5361328 0.7685547
vt 0.5361328 0.7685547
vt 0.534668 0.7612305
vt 0.515625 0.7612305
vt 0.5126953 0.7685547
vt 0.5126953 0.7685547
vt 0.515625 0.7612305
vt 0.5043945 0.75
vt 0.4951172 0.7514648
vt 0.324707 0.9462891
vt 0.3271484 0.9404297
vt 0.4174805 0.9677734
vt 0.4162598 0.9736328
vt 0.5112305 0.9770508
vt 0.5112305 0.9833984
vt 0.6049805 0.9677734
vt 0.6064453 0.9736328
vt 0.6953125 0.9404297
vt 0.6977539 0.9462891
vt 0.4174805 0.9677734
vt 0.3271484 0.9404297
vt 0.3417969 0.9047852
vt 0.4248047 0.9301758
vt 0.3459473 0.8945313
vt 0.5112305 0.9770508
vt 0.427002 0.9194336
vt 0.5112305 0.9384766
vt 0.6049805 0.9677734
vt 0.5112305 0.9277344
vt 0.5976563 0.9301758
vt 0.6953125 0.9404297
vt 0.5952148 0.9194336
vt 0.6806641 0.9047852
vt 0.6762695 0.8945313
vt 0.534668 0.7612305
vt 0.6196289 0.7382813
vt 0.6186523 0.7353516
vt 0.5336914 0.7578125
vt 0.5043945 0.75
vt 0.515625 0.7612305
vt 0.5170898 0.7578125
vt 0.5083008 0.7490234
vt 0.6225586 0.7456055
vt 0.6762695 0.8945313
vt 0.5952148 0.9194336
vt 0.5361328 0.7685547
vt 0.5112305 0.9277344
vt 0.5126953 0.7685547
vt 0.4951172 0.7514648
vt 0.427002 0.9194336
vt 0.3459473 0.8945313
vt 0.6225586 0.7456055
vt 0.5361328 0.7685547
vt 0.534668 0.7612305
vt 0.6196289 0.7382813
vt 0.6196289 0.7382813
vt 0.534668 0.7612305
vt 0.5336914 0.7578125
vt 0.6186523 0.7353516
vt 0.5361328 0.7685547
vt 0.5126953 0.7685547
vt 0.515625 0.7612305
vt 0.534668 0.7612305
vt 0.534668 0.7612305
vt 0.515625 0.7612305
vt 0.5170898 0.7578125
vt 0.5336914 0.7578125
vt 0.5126953 0.7685547
vt 0.4951172 0.7514648
vt 0.5043945 0.75
vt 0.515625 0.7612305
vt 0.515625 0.7612305
vt 0.5043945 0.75
vt 0.5083008 0.7490234
vt 0.5170898 0.7578125
vt 0.515625 0.7612305
vt 0.534668 0.7612305
vt 0.5336914 0.7578125
vt 0.5170898 0.7578125
vt 0.6953125 0.9404297
vt 0.6977539 0.9462891
vt 0.6977539 0.9462891
vt 0.6953125 0.9404297
vt 0.6806641 0.9047852
vt 0.6806641 0.9047852
vt 0.6762695 0.8945313
vt 0.6762695 0.8945313
vt 0.6225586 0.7456055
vt 0.6225586 0.7456055
vt 0.6196289 0.7382813
vt 0.6196289 0.7382813
vt 0.6186523 0.7353516
vt 0.3459473 0.8945313
vt 0.4951172 0.7514648
vt 0.4951172 0.7514648
vt 0.3459473 0.8945313
vt 0.5043945 0.75
vt 0.4951172 0.7514648
vt 0.4951172 0.7514648
vt 0.5083008 0.7490234
vt 0.3417969 0.9047852
vt 0.3459473 0.8945313
vt 0.3459473 0.8945313
vt 0.3417969 0.9047852
vt 0.3271484 0.9404297
vt 0.3271484 0.9404297
vt 0.324707 0.9462891
vt 0.324707 0.9462891
vn 0.9887695 0 0.1479492
vn 0.9887695 0 0.1479492
vn 0.9887695 0 0.1479492
vn -0.9306641 0.2318115 0.2824707
vn -0.871582 0.4589844 0.1733398
vn -0.8510742 0.4572754 0.2580566
vn -0.9536133 0.2329102 0.1896973
vn -0.9306641 -0.2318115 0.2824707
vn -0.8886719 0.4589844 0
vn -0.9536133 -0.2329102 0.1896973
vn -0.9726563 0.2329102 0
vn -0.871582 0.4589844 -0.1733398
vn -0.9726563 -0.2329102 0
vn -0.9536133 0.2329102 -0.1896973
vn -0.8510742 0.4572754 -0.2580566
vn -0.9536133 -0.2329102 -0.1896973
vn -0.9306641 0.2318115 -0.2824707
vn -0.9306641 -0.2318115 -0.2824707
vn 0 1 0
vn 0.1782227 0.9824219 -0.05407715
vn 0 1 0
vn 0.1818848 0.9824219 -0.03616333
vn 0.3718262 0.9213867 -0.112793
vn 0 1 0
vn 0.3793945 0.921875 -0.07550049
vn 0.1854248 0.9824219 0
vn 0 1 0
vn 0.3869629 0.921875 0
vn 0.1818848 0.9824219 0.03616333
vn 0 1 0
vn 0.3793945 0.921875 0.07550049
vn 0.1782227 0.9824219 0.05407715
vn 0.3718262 0.9213867 0.112793
vn 0 1 0
vn 0 1 0
vn 0 1 0
vn 0 1 0
vn 0 1 0
vn 0 1 0
vn 0 1 0
vn 0 1 0
vn 0 1 0
vn 0.3210449 0.9433594 0.08605957
vn 0.3210449 0.9433594 0.08605957
vn 0.3210449 0.9433594 0.08605957
vn 0.3210449 0.9433594 0.08605957
vn 0.3400879 0.9404297 0
vn 0.3400879 0.9404297 0
vn 0.3400879 0.9404297 0
vn 0.3400879 0.9404297 0
vn 0.2404785 0.9404297 -0.2404785
vn 0.2404785 0.9404297 -0.2404785
vn 0.2404785 0.9404297 -0.2404785
vn 0.2404785 0.9404297 -0.2404785
vn -0.9306641 -0.2318115 0.2824707
vn -0.8510742 -0.4572754 0.2580566
vn -0.871582 -0.4589844 0.1733398
vn -0.9536133 -0.2329102 0.1896973
vn -0.8886719 -0.4589844 0
vn -0.9726563 -0.2329102 0
vn -0.871582 -0.4589844 -0.1733398
vn -0.9536133 -0.2329102 -0.1896973
vn -0.8510742 -0.4572754 -0.2580566
vn -0.9306641 -0.2318115 -0.2824707
vn 0 -1 0
vn 0 -1 0
vn 0.1782227 -0.9824219 -0.05407715
vn 0.1818848 -0.9824219 -0.03616333
vn 0.3718262 -0.9213867 -0.112793
vn 0 -1 0
vn 0.3793945 -0.921875 -0.07550049
vn 0.1854248 -0.9824219 0
vn 0 -1 0
vn 0.3869629 -0.921875 0
vn 0.1818848 -0.9824219 0.03616333
vn 0 -1 0
vn 0.3793945 -0.921875 0.07550049
vn 0.1782227 -0.9824219 0.05407715
vn 0.3718262 -0.9213867 0.112793
vn 0.9541016 0.1546631 0.2558594
vn 0.9541016 0.1546631 0.2558594
vn 0.9541016 0.1546631 0.2558594
vn 0.9541016 0.1546631 0.2558594
vn 0.6992188 0.1508789 -0.6992188
vn 0.6992188 0.1508789 -0.6992188
vn 0.6992188 0.1508789 -0.6992188
vn 0.6992188 0.1508789 -0.6992188
vn 0 -1 0
vn 0 -1 0
vn 0 -1 0
vn 0 -1 0
vn 0 -1 0
vn 0 -1 0
vn 0 -1 0
vn 0 -1 0
vn 0 -1 0
vn 0.3210449 -0.9433594 0.08605957
vn 0.3210449 -0.9433594 0.08605957
vn 0.3210449 -0.9433594 0.08605957
vn 0.3210449 -0.9433594 0.08605957
vn 0.8686523 -0.4377441 0.2329102
vn 0.8686523 -0.4377441 0.2329102
vn 0.8686523 -0.4377441 0.2329102
vn 0.8686523 -0.4377441 0.2329102
vn 0.3400879 -0.9404297 0
vn 0.3400879 -0.9404297 0
vn 0.3400879 -0.9404297 0
vn 0.3400879 -0.9404297 0
vn 0.9033203 -0.4287109 0
vn 0.9033203 -0.4287109 0
vn 0.9033203 -0.4287109 0
vn 0.9033203 -0.4287109 0
vn 0.2404785 -0.9404297 -0.2404785
vn 0.2404785 -0.9404297 -0.2404785
vn 0.2404785 -0.9404297 -0.2404785
vn 0.2404785 -0.9404297 -0.2404785
vn 0.6386719 -0.4287109 -0.6386719
vn 0.6386719 -0.4287109 -0.6386719
vn 0.6386719 -0.4287109 -0.6386719
vn 0.6386719 -0.4287109 -0.6386719
vn 0.9887695 0.1508789 0
vn 0.9887695 0.1508789 0
vn 0.9887695 0.1508789 0
vn 0.9887695 0.1508789 0
vn 0.3825684 0 -0.9238281
vn 0.3825684 0 -0.9238281
vn 0.3825684 0 -0.9238281
vn 0.3825684 0 -0.9238281
vn 0.3825684 0 -0.9238281
vn 0.3825684 0 -0.9238281
vn 0.340332 0 -0.9404297
vn 0.340332 0 -0.9404297
vn 0.340332 0 -0.9404297
vn 0.340332 0 -0.9404297
vn 0.340332 0 -0.9404297
vn 0.340332 0 -0.9404297
vn 0.340332 0 -0.9404297
vn 0.7207031 0 0.6933594
vn 0.7207031 0 0.6933594
vn 0.7207031 0 0.6933594
vn 0.7207031 0 0.6933594
vn 0.9887695 0 0.1479492
vn 0.9887695 0 0.1479492
vn 0.9887695 0 0.1479492
vn 0.9887695 0 0.1479492
vn 0.3825684 0 0.9238281
vn 0.3825684 0 0.9238281
vn 0.3825684 0 0.9238281
vn 0.3825684 0 0.9238281
vn 0.3825684 0 0.9238281
vn 0.3825684 0 0.9238281
vn 0.3825684 0 0.9238281
vn 0.3825684 0 0.9238281
g Dal_Unbrella_out_03_0
f 3/3/3 2/2/2 1/1/1
f 6/6/6 5/5/5 4/4/4
f 5/5/5 7/7/7 4/4/4
f 4/4/4 7/7/7 8/8/8
f 5/5/5 9/9/9 7/7/7
f 7/7/7 10/10/10 8/8/8
f 9/9/9 11/11/11 7/7/7
f 7/7/7 11/11/11 10/10/10
f 9/9/9 12/12/12 11/11/11
f 11/11/11 13/13/13 10/10/10
f 12/12/12 14/14/14 11/11/11
f 11/11/11 14/14/14 13/13/13
f 12/12/12 15/15/15 14/14/14
f 14/14/14 16/16/16 13/13/13
f 15/15/15 17/17/17 14/14/14
f 14/14/14 17/17/17 16/16/16
f 17/17/17 18/18/18 16/16/16
f 21/21/21 20/20/20 19/19/19
f 20/20/20 22/22/22 19/19/19
f 20/20/20 23/23/23 22/22/22
f 19/19/19 22/22/22 24/24/24
f 23/23/23 25/25/25 22/22/22
f 22/22/22 26/26/26 24/24/24
f 22/22/22 25/25/25 26/26/26
f 24/24/24 26/26/26 27/27/27
f 25/25/25 28/28/28 26/26/26
f 26/26/26 29/29/29 27/27/27
f 26/26/26 28/28/28 29/29/29
f 27/27/27 29/29/29 30/30/30
f 28/28/28 31/31/31 29/29/29
f 29/29/29 32/32/32 30/30/30
f 29/29/29 31/31/31 32/32/32
f 31/31/31 33/33/33 32/32/32
f 36/36/36 35/35/35 34/34/34
f 34/34/34 37/37/37 36/36/36
f 34/34/34 38/38/38 37/37/37
f 38/38/38 39/39/39 37/37/37
f 38/38/38 40/40/40 39/39/39
f 38/38/38 41/41/41 40/40/40
f 41/41/41 42/42/42 40/40/40
f 45/45/45 44/44/44 43/43/43
f 46/46/46 45/45/45 43/43/43
f 49/49/49 48/48/48 47/47/47
f 50/50/50 49/49/49 47/47/47
f 53/53/53 52/52/52 51/51/51
f 54/54/54 53/53/53 51/51/51
f 57/57/57 56/56/56 55/55/55
f 58/58/58 57/57/57 55/55/55
f 59/59/59 57/57/57 58/58/58
f 60/60/60 59/59/59 58/58/58
f 61/61/61 59/59/59 60/60/60
f 62/62/62 61/61/61 60/60/60
f 63/63/63 61/61/61 62/62/62
f 64/64/64 63/63/63 62/62/62
f 67/67/67 66/66/66 65/65/65
f 68/68/68 67/67/67 65/65/65
f 69/69/69 67/67/67 68/68/68
f 68/68/68 65/65/65 70/70/70
f 71/71/71 69/69/69 68/68/68
f 72/72/72 68/68/68 70/70/70
f 71/71/71 68/68/68 72/72/72
f 72/72/72 70/70/70 73/73/73
f 74/74/74 71/71/71 72/72/72
f 75/75/75 72/72/72 73/73/73
f 74/74/74 72/72/72 75/75/75
f 75/75/75 73/73/73 76/76/76
f 77/77/77 74/74/74 75/75/75
f 78/78/78 75/75/75 76/76/76
f 77/77/77 75/75/75 78/78/78
f 79/79/79 77/77/77 78/78/78
f 82/82/82 81/81/81 80/80/80
f 83/83/83 82/82/82 80/80/80
f 86/86/86 85/85/85 84/84/84
f 87/87/87 86/86/86 84/84/84
f 90/90/90 89/89/89 88/88/88
f 88/88/88 91/91/91 90/90/90
f 91/91/91 92/92/92 90/90/90
f 91/91/91 93/93/93 92/92/92
f 93/93/93 94/94/94 92/92/92
f 94/94/94 95/95/95 92/92/92
f 94/94/94 96/96/96 95/95/95
f 99/99/99 98/98/98 97/97/97
f 100/100/100 99/99/99 97/97/97
f 103/103/103 102/102/102 101/101/101
f 104/104/104 103/103/103 101/101/101
f 107/107/107 106/106/106 105/105/105
f 108/108/108 107/107/107 105/105/105
f 111/111/111 110/110/110 109/109/109
f 112/112/112 111/111/111 109/109/109
f 115/115/115 114/114/114 113/113/113
f 116/116/116 115/115/115 113/113/113
f 119/119/119 118/118/118 117/117/117
f 120/120/120 119/119/119 117/117/117
f 123/123/123 122/122/122 121/121/121
f 124/124/124 123/123/123 121/121/121
f 127/127/127 126/126/126 125/125/125
f 128/128/128 127/127/127 125/125/125
f 128/128/128 125/125/125 129/129/129
f 130/130/130 128/128/128 129/129/129
f 130/130/130 129/129/129 131/131/131
f 131/131/131 132/132/132 130/130/130
f 132/132/132 131/131/131 133/133/133
f 134/134/134 132/132/132 133/133/133
f 134/134/134 133/133/133 135/135/135
f 136/136/136 134/134/134 135/135/135
f 135/135/135 137/137/137 136/136/136
f 140/140/140 139/139/139 138/138/138
f 141/141/141 140/140/140 138/138/138
f 144/144/144 143/143/143 142/142/142
f 142/142/142 145/145/145 144/144/144
f 148/148/148 147/147/147 146/146/146
f 146/146/146 149/149/149 148/148/148
f 146/146/146 150/150/150 149/149/149
f 150/150/150 151/151/151 149/149/149
f 150/150/150 152/152/152 151/151/151
f 152/152/152 153/153/153 151/151/151
