g Dal_Unbrella_out_01
v -0.9201223 0.1601747 -2.292824
v -0.8919164 0.1336008 -2.224472
v -0.8802329 -0.06586234 -2.196159
v -1.616744 -0.2009459 -3.903167
v -1.756342 -0.200946 -4.240187
v -1.779488 -0.08388152 -4.296065
v -1.756342 0.2045286 -4.240187
v -1.616744 0.2045287 -3.903167
v -1.576291 0.1601745 -3.805505
v -1.779488 0.08746413 -4.296065
v -0.8953754 0.2045286 -4.501359
v -1.756342 0.2045286 -4.240187
v -0.9071743 0.08746411 -4.560678
v -1.779488 -0.08388152 -4.296065
v 7.530589E-07 0.2045286 -4.589545
v -0.9071743 -0.08388159 -4.560678
v 7.504152E-07 0.08746408 -4.650027
v 7.504152E-07 -0.08388159 -4.650027
v -0.8953754 0.2045286 -4.501359
v -1.616744 0.2045287 -3.903167
v -1.756342 0.2045286 -4.240187
v -0.8242084 0.2045287 -4.14358
v 7.530589E-07 0.2045286 -4.589545
v -1.576291 0.1601745 -3.805505
v 7.690043E-07 0.2045286 -4.224758
v -0.8035862 0.1601744 -4.039903
v 7.736249E-07 0.1601744 -4.119049
v -0.148552 0.1336007 -2.437629
v -0.1245223 -0.06586237 -2.412856
v -0.8802329 -0.06586234 -2.196159
v -0.8919164 0.1336008 -2.224472
v -0.2065641 0.1601747 -2.497434
v -0.148552 0.1336007 -2.437629
v -0.8919164 0.1336008 -2.224472
v -0.9201223 0.1601747 -2.292824
v 0.04590594 0.1601747 -2.784529
v 0.04590595 0.1336007 -2.693584
v -0.1009103 0.1336007 -2.586511
v -0.1635848 0.1601747 -2.631747
v -0.1635848 0.1601747 -2.631747
v -0.1009103 0.1336007 -2.586511
v -0.148552 0.1336007 -2.437629
v -0.2065641 0.1601747 -2.497434
v -0.8035862 0.1601744 -4.039903
v 7.736249E-07 0.1601744 -4.119049
v 0.04590594 0.1601747 -2.784529
v -1.576291 0.1601745 -3.805505
v -0.9201223 0.1601747 -2.292824
v -0.1635848 0.1601747 -2.631747
v -0.2065641 0.1601747 -2.497434
v -0.9071743 -0.08388159 -4.560678
v 7.530589E-07 -0.200946 -4.589545
v 7.504152E-07 -0.08388159 -4.650027
v -0.8953754 -0.200946 -4.501359
v -1.779488 -0.08388152 -4.296065
v -1.756342 -0.200946 -4.240187
v -0.8953754 -0.200946 -4.501359
v -1.756342 -0.200946 -4.240187
v -1.616744 -0.2009459 -3.903167
v -0.8242084 -0.200946 -4.14358
v 7.530589E-07 -0.200946 -4.589545
v -1.576291 -0.1565917 -3.805505
v 7.690043E-07 -0.200946 -4.224758
v -0.8035862 -0.1565917 -4.039903
v 7.736249E-07 -0.1565917 -4.119049
v -0.1009103 0.1336007 -2.586511
v 0.04590595 0.1336007 -2.693584
v 0.04590595 -0.06586241 -2.655914
v -0.07495033 -0.06586239 -2.567773
v -0.2065641 -0.1565915 -2.497434
v -0.9201223 -0.1565914 -2.292824
v -0.8919164 -0.1300175 -2.224472
v -0.148552 -0.1300175 -2.437629
v -0.148552 -0.1300175 -2.437629
v -0.8919164 -0.1300175 -2.224472
v -0.8802329 -0.06586234 -2.196159
v -0.1245223 -0.06586237 -2.412856
v 0.04590594 -0.1565915 -2.784529
v -0.1635848 -0.1565915 -2.631747
v -0.1009103 -0.1300175 -2.586511
v 0.04590595 -0.1300175 -2.693584
v 0.04590595 -0.1300175 -2.693584
v -0.1009103 -0.1300175 -2.586511
v -0.07495033 -0.06586239 -2.567773
v 0.04590595 -0.06586241 -2.655914
v -0.1635848 -0.1565915 -2.631747
v -0.2065641 -0.1565915 -2.497434
v -0.148552 -0.1300175 -2.437629
v -0.1009103 -0.1300175 -2.586511
v -0.1009103 -0.1300175 -2.586511
v -0.148552 -0.1300175 -2.437629
v -0.1245223 -0.06586237 -2.412856
v -0.07495033 -0.06586239 -2.567773
v 0.04590594 -0.1565915 -2.784529
v 7.736249E-07 -0.1565917 -4.119049
v -0.8035862 -0.1565917 -4.039903
v -1.576291 -0.1565917 -3.805505
v -0.9201223 -0.1565914 -2.292824
v -0.1635848 -0.1565915 -2.631747
v -0.2065641 -0.1565915 -2.497434
v -0.148552 0.1336007 -2.437629
v -0.1009103 0.1336007 -2.586511
v -0.07495033 -0.06586239 -2.567773
v -0.1245223 -0.06586237 -2.412856
v -0.9201223 0.1601747 -2.292824
v -1.576291 -0.1565917 -3.805505
v -1.576291 0.1601745 -3.805505
v -0.9201223 -0.1565914 -2.292824
v -0.8919164 -0.1300175 -2.224472
v -0.9201223 0.1601747 -2.292824
v -0.8802329 -0.06586234 -2.196159
v -1.779488 -0.08388152 -4.296065
v -1.576291 -0.1565917 -3.805505
v -1.616744 -0.2009459 -3.903167
v -1.576291 0.1601745 -3.805505
v -1.779488 0.08746413 -4.296065
v -1.756342 0.2045286 -4.240187
v 7.504152E-07 -0.08388159 -4.650027
v 7.530589E-07 -0.200946 -4.589545
v 7.690043E-07 -0.200946 -4.224758
v 7.736249E-07 -0.1565917 -4.119049
v 7.736249E-07 0.1601744 -4.119049
v 7.504152E-07 0.08746408 -4.650027
v 7.530589E-07 0.2045286 -4.589545
v 7.690043E-07 0.2045286 -4.224758
v 0.04590594 0.1601747 -2.784529
v 0.04590594 -0.1565915 -2.784529
v 0.04590595 -0.1300175 -2.693584
v 0.04590595 -0.06586241 -2.655914
v 0.04590595 0.1336007 -2.693584
vt 0.7514648 0.5922852
vt 0.7441406 0.5893555
vt 0.7412109 0.5883789
vt 0.9204102 0.6655273
vt 0.9555664 0.6801758
vt 0.9614258 0.6826172
vt 0.9555664 0.6801758
vt 0.9204102 0.6655273
vt 0.9101563 0.6611328
vt 0.9614258 0.6826172
vt 0.9829102 0.5898438
vt 0.9555664 0.6801758
vt 0.9892578 0.5908203
vt 0.9614258 0.6826172
vt 0.9921875 0.4958496
vt 0.9892578 0.5908203
vt 0.9985352 0.4958496
vt 0.9985352 0.4958496
vt 0.9829102 0.5898438
vt 0.9204102 0.6655273
vt 0.9555664 0.6801758
vt 0.9453125 0.5820313
vt 0.9921875 0.4958496
vt 0.9101563 0.6611328
vt 0.9541016 0.4958496
vt 0.9345703 0.5800781
vt 0.9428711 0.4958496
vt 0.7666016 0.5112305
vt 0.7641602 0.5087891
vt 0.7412109 0.5883789
vt 0.7441406 0.5893555
vt 0.7729492 0.5175781
vt 0.7666016 0.5112305
vt 0.7441406 0.5893555
vt 0.7514648 0.5922852
vt 0.8032227 0.4912109
vt 0.793457 0.4912109
vt 0.7822266 0.5063477
vt 0.7871094 0.5131836
vt 0.7871094 0.5131836
vt 0.7822266 0.5063477
vt 0.7666016 0.5112305
vt 0.7729492 0.5175781
vt 0.9345703 0.5800781
vt 0.9428711 0.4958496
vt 0.8032227 0.4912109
vt 0.9101563 0.6611328
vt 0.7514648 0.5922852
vt 0.7871094 0.5131836
vt 0.7729492 0.5175781
vt 0.9892578 0.5908203
vt 0.9921875 0.4958496
vt 0.9985352 0.4958496
vt 0.9829102 0.5898438
vt 0.9614258 0.6826172
vt 0.9555664 0.6801758
vt 0.9829102 0.5898438
vt 0.9555664 0.6801758
vt 0.9204102 0.6655273
vt 0.9453125 0.5820313
vt 0.9921875 0.4958496
vt 0.9101563 0.6611328
vt 0.9541016 0.4958496
vt 0.9345703 0.5800781
vt 0.9428711 0.4958496
vt 0.7822266 0.5063477
vt 0.793457 0.4912109
vt 0.7895508 0.4912109
vt 0.7802734 0.5039063
vt 0.7729492 0.5175781
vt 0.7514648 0.5922852
vt 0.7441406 0.5893555
vt 0.7666016 0.5112305
vt 0.7666016 0.5112305
vt 0.7441406 0.5893555
vt 0.7412109 0.5883789
vt 0.7641602 0.5087891
vt 0.8032227 0.4912109
vt 0.7871094 0.5131836
vt 0.7822266 0.5063477
vt 0.793457 0.4912109
vt 0.793457 0.4912109
vt 0.7822266 0.5063477
vt 0.7802734 0.5039063
vt 0.7895508 0.4912109
vt 0.7871094 0.5131836
vt 0.7729492 0.5175781
vt 0.7666016 0.5112305
vt 0.7822266 0.5063477
vt 0.7822266 0.5063477
vt 0.7666016 0.5112305
vt 0.7641602 0.5087891
vt 0.7802734 0.5039063
vt 0.8032227 0.4912109
vt 0.9428711 0.4958496
vt 0.9345703 0.5800781
vt 0.9101563 0.6611328
vt 0.7514648 0.5922852
vt 0.7871094 0.5131836
vt 0.7729492 0.5175781
vt 0.7666016 0.5112305
vt 0.7822266 0.5063477
vt 0.7802734 0.5039063
vt 0.7641602 0.5087891
vt 0.7514648 0.5922852
vt 0.9101563 0.6611328
vt 0.9101563 0.6611328
vt 0.7514648 0.5922852
vt 0.7441406 0.5893555
vt 0.7514648 0.5922852
vt 0.7412109 0.5883789
vt 0.9614258 0.6826172
vt 0.9101563 0.6611328
vt 0.9204102 0.6655273
vt 0.9101563 0.6611328
vt 0.9614258 0.6826172
vt 0.9555664 0.6801758
vt 0.9985352 0.4958496
vt 0.9921875 0.4958496
vt 0.9541016 0.4958496
vt 0.9428711 0.4958496
vt 0.9428711 0.4958496
vt 0.9985352 0.4958496
vt 0.9921875 0.4958496
vt 0.9541016 0.4958496
vt 0.8032227 0.4912109
vt 0.8032227 0.4912109
vt 0.793457 0.4912109
vt 0.7895508 0.4912109
vt 0.793457 0.4912109
vn -0.9243164 0 0.3813477
vn -0.9243164 0 0.3813477
vn -0.9243164 0 0.3813477
vn -0.9238281 0 0.3825684
vn -0.9238281 0 0.3825684
vn -0.9238281 0 0.3825684
vn -0.9238281 0 0.3825684
vn -0.9238281 0 0.3825684
vn -0.9238281 0 0.3825684
vn -0.2824707 0.2318115 -0.9306641
vn -0.1733398 0.4589844 -0.871582
vn -0.2580566 0.4572754 -0.8510742
vn -0.1896973 0.2329102 -0.9536133
vn -0.2824707 -0.2318115 -0.9306641
vn -0.0871582 0.4572754 -0.8852539
vn -0.1896973 -0.2329102 -0.9536133
vn -0.09533691 0.2318115 -0.9682617
vn -0.09533691 -0.2318115 -0.9682617
vn 0 1 0
vn 0.05407715 0.9824219 0.1782227
vn 0 1 0
vn 0.03616333 0.9824219 0.1818848
vn 0 1 0
vn 0.112793 0.9213867 0.3718262
vn 0.01826477 0.9824219 0.1854248
vn 0.07550049 0.921875 0.3793945
vn 0.03808594 0.9213867 0.3867188
vn 0.2724609 0.1508789 0.9501953
vn 0.2724609 0.1508789 0.9501953
vn 0.2724609 0.1508789 0.9501953
vn 0.2724609 0.1508789 0.9501953
vn 0.09375 0.9404297 0.3269043
vn 0.09375 0.9404297 0.3269043
vn 0.09375 0.9404297 0.3269043
vn 0.09375 0.9404297 0.3269043
vn 0.2004395 0.9404297 0.2749023
vn 0.2004395 0.9404297 0.2749023
vn 0.2004395 0.9404297 0.2749023
vn 0.2004395 0.9404297 0.2749023
vn 0.3239746 0.9404297 0.1036377
vn 0.3239746 0.9404297 0.1036377
vn 0.3239746 0.9404297 0.1036377
vn 0.3239746 0.9404297 0.1036377
vn 0 1 0
vn 0 1 0
vn 0 1 0
vn 0 1 0
vn 0 1 0
vn 0 1 0
vn 0 1 0
vn -0.1896973 -0.2329102 -0.9536133
vn -0.0871582 -0.4572754 -0.8852539
vn -0.09533691 -0.2318115 -0.9682617
vn -0.1733398 -0.4589844 -0.871582
vn -0.2824707 -0.2318115 -0.9306641
vn -0.2580566 -0.4572754 -0.8510742
vn 0 -1 0
vn 0 -1 0
vn 0.05407715 -0.9824219 0.1782227
vn 0.03616333 -0.9824219 0.1818848
vn 0 -1 0
vn 0.112793 -0.9213867 0.3718262
vn 0.01826477 -0.9824219 0.1854248
vn 0.07550049 -0.921875 0.3793945
vn 0.03808594 -0.9213867 0.3867188
vn 0.5825195 0.1508789 0.7988281
vn 0.5825195 0.1508789 0.7988281
vn 0.5825195 0.1508789 0.7988281
vn 0.5825195 0.1508789 0.7988281
vn 0.09375 -0.9404297 0.3269043
vn 0.09375 -0.9404297 0.3269043
vn 0.09375 -0.9404297 0.3269043
vn 0.09375 -0.9404297 0.3269043
vn 0.2490234 -0.4287109 0.8686523
vn 0.2490234 -0.4287109 0.8686523
vn 0.2490234 -0.4287109 0.8686523
vn 0.2490234 -0.4287109 0.8686523
vn 0.2004395 -0.9404297 0.2746582
vn 0.2004395 -0.9404297 0.2746582
vn 0.2004395 -0.9404297 0.2746582
vn 0.2004395 -0.9404297 0.2746582
vn 0.5322266 -0.4287109 0.7299805
vn 0.5322266 -0.4287109 0.7299805
vn 0.5322266 -0.4287109 0.7299805
vn 0.5322266 -0.4287109 0.7299805
vn 0.3239746 -0.9404297 0.1036377
vn 0.3239746 -0.9404297 0.1036377
vn 0.3239746 -0.9404297 0.1036377
vn 0.3239746 -0.9404297 0.1036377
vn 0.8603516 -0.4287109 0.2753906
vn 0.8603516 -0.4287109 0.2753906
vn 0.8603516 -0.4287109 0.2753906
vn 0.8603516 -0.4287109 0.2753906
vn 0 -1 0
vn 0 -1 0
vn 0 -1 0
vn 0 -1 0
vn 0 -1 0
vn 0 -1 0
vn 0 -1 0
vn 0.9414063 0.1508789 0.3012695
vn 0.9414063 0.1508789 0.3012695
vn 0.9414063 0.1508789 0.3012695
vn 0.9414063 0.1508789 0.3012695
vn -0.9174805 0 0.3979492
vn -0.9174805 0 0.3979492
vn -0.9174805 0 0.3979492
vn -0.9174805 0 0.3979492
vn -0.9243164 0 0.3813477
vn -0.9243164 0 0.3813477
vn -0.9243164 0 0.3813477
vn -0.9238281 0 0.3825684
vn -0.9238281 0 0.3825684
vn -0.9238281 0 0.3825684
vn -0.9238281 0 0.3825684
vn -0.9238281 0 0.3825684
vn -0.9238281 0 0.3825684
vn 1 0 0
vn 1 0 0
vn 1 0 0
vn 0.9995117 0 -0.03436279
vn 0.9995117 0 -0.03436279
vn 1 0 0
vn 1 0 0
vn 1 0 0
vn 0.9995117 0 -0.03436279
vn 0.9995117 0 -0.03436279
vn 1 0 0
vn 1 0 0
vn 1 0 0
g Dal_Unbrella_out_01_0
f 3/3/3 2/2/2 1/1/1
f 6/6/6 5/5/5 4/4/4
f 9/9/9 8/8/8 7/7/7
f 12/12/12 11/11/11 10/10/10
f 11/11/11 13/13/13 10/10/10
f 10/10/10 13/13/13 14/14/14
f 11/11/11 15/15/15 13/13/13
f 13/13/13 16/16/16 14/14/14
f 15/15/15 17/17/17 13/13/13
f 13/13/13 17/17/17 16/16/16
f 17/17/17 18/18/18 16/16/16
f 21/21/21 20/20/20 19/19/19
f 20/20/20 22/22/22 19/19/19
f 19/19/19 22/22/22 23/23/23
f 20/20/20 24/24/24 22/22/22
f 22/22/22 25/25/25 23/23/23
f 24/24/24 26/26/26 22/22/22
f 22/22/22 26/26/26 25/25/25
f 26/26/26 27/27/27 25/25/25
f 30/30/30 29/29/29 28/28/28
f 31/31/31 30/30/30 28/28/28
f 34/34/34 33/33/33 32/32/32
f 35/35/35 34/34/34 32/32/32
f 38/38/38 37/37/37 36/36/36
f 39/39/39 38/38/38 36/36/36
f 42/42/42 41/41/41 40/40/40
f 43/43/43 42/42/42 40/40/40
f 46/46/46 45/45/45 44/44/44
f 44/44/44 47/47/47 46/46/46
f 47/47/47 48/48/48 46/46/46
f 48/48/48 49/49/49 46/46/46
f 48/48/48 50/50/50 49/49/49
f 53/53/53 52/52/52 51/51/51
f 52/52/52 54/54/54 51/51/51
f 51/51/51 54/54/54 55/55/55
f 54/54/54 56/56/56 55/55/55
f 59/59/59 58/58/58 57/57/57
f 60/60/60 59/59/59 57/57/57
f 60/60/60 57/57/57 61/61/61
f 62/62/62 59/59/59 60/60/60
f 63/63/63 60/60/60 61/61/61
f 64/64/64 62/62/62 60/60/60
f 64/64/64 60/60/60 63/63/63
f 65/65/65 64/64/64 63/63/63
f 68/68/68 67/67/67 66/66/66
f 69/69/69 68/68/68 66/66/66
f 72/72/72 71/71/71 70/70/70
f 73/73/73 72/72/72 70/70/70
f 76/76/76 75/75/75 74/74/74
f 77/77/77 76/76/76 74/74/74
f 80/80/80 79/79/79 78/78/78
f 81/81/81 80/80/80 78/78/78
f 84/84/84 83/83/83 82/82/82
f 85/85/85 84/84/84 82/82/82
f 88/88/88 87/87/87 86/86/86
f 89/89/89 88/88/88 86/86/86
f 92/92/92 91/91/91 90/90/90
f 93/93/93 92/92/92 90/90/90
f 96/96/96 95/95/95 94/94/94
f 94/94/94 97/97/97 96/96/96
f 94/94/94 98/98/98 97/97/97
f 94/94/94 99/99/99 98/98/98
f 99/99/99 100/100/100 98/98/98
f 103/103/103 102/102/102 101/101/101
f 104/104/104 103/103/103 101/101/101
f 107/107/107 106/106/106 105/105/105
f 106/106/106 108/108/108 105/105/105
f 110/110/110 108/108/108 109/109/109
f 109/109/109 111/111/111 110/110/110
f 114/114/114 113/113/113 112/112/112
f 113/113/113 115/115/115 112/112/112
f 115/115/115 116/116/116 112/112/112
f 115/115/115 117/117/117 116/116/116
f 120/120/120 119/119/119 118/118/118
f 118/118/118 121/121/121 120/120/120
f 118/118/118 122/122/122 121/121/121
f 118/118/118 123/123/123 122/122/122
f 123/123/123 124/124/124 122/122/122
f 124/124/124 125/125/125 122/122/122
f 121/121/121 122/122/122 126/126/126
f 127/127/127 121/121/121 126/126/126
f 128/128/128 127/127/127 126/126/126
f 126/126/126 129/129/129 128/128/128
f 126/126/126 130/130/130 129/129/129
