g Dal_Unbrella_out_04
v -2.417706 -0.06586197 0.02615878
v -2.423306 0.1336011 0.06360226
v -2.436826 0.1601751 0.1539987
v -0.7065229 0.1601751 0.1475081
v -0.7529659 0.1336011 0.08622882
v -0.7722034 -0.06586197 0.06084619
v -2.288424 -0.1565905 3.424862
v -2.347152 -0.2009447 3.512756
v -2.549818 -0.2009447 3.816065
v -2.583421 0.08746547 3.866354
v -2.549818 0.20453 3.816065
v -2.288424 0.1601757 3.424862
v -2.549818 0.20453 3.816065
v -2.347152 0.2045299 3.512756
v -2.288424 0.1601757 3.424862
v -2.583421 0.08746547 3.866354
v -3.245302 0.2045299 3.245295
v -2.549818 0.20453 3.816065
v -3.288069 0.08746538 3.288063
v -2.583421 -0.08388019 3.866354
v -3.816071 0.2045297 2.54981
v -3.288069 -0.08388029 3.288063
v -3.866359 0.08746526 2.583412
v -4.240189 0.2045296 1.756337
v -3.866359 -0.08388041 2.583412
v -4.296067 0.08746512 1.779483
v -4.296067 -0.08388053 1.779483
v -3.245302 0.2045299 3.245295
v -2.347152 0.2045299 3.512756
v -2.549818 0.20453 3.816065
v -2.987358 0.2045298 2.987352
v -2.288424 0.1601757 3.424862
v -3.816071 0.2045297 2.54981
v -2.91261 0.1601756 2.912605
v -3.51276 0.2045297 2.347146
v -4.240189 0.2045296 1.756337
v -3.424867 0.1601755 2.288417
v -3.90317 0.2045296 1.61674
v -3.805508 0.1601754 1.576287
v -0.9111748 0.1601751 0.2221117
v -0.9126244 0.1336012 0.1444305
v -0.7529659 0.1336011 0.08622882
v -0.7065229 0.1601751 0.1475081
v -1.106061 0.1601751 0.1591984
v -1.070709 0.1336011 0.09339737
v -0.9126244 0.1336012 0.1444305
v -0.9111748 0.1601751 0.2221117
v -2.436826 0.1601751 0.1539987
v -2.423306 0.1336011 0.06360226
v -1.717217 0.1336011 -0.3116472
v -1.702136 0.1601751 -0.2364504
v -1.702136 0.1601751 -0.2364504
v -1.717217 0.1336011 -0.3116472
v -1.559711 0.1336011 -0.2970149
v -1.588386 0.1601751 -0.2258829
v -1.588386 0.1601751 -0.2258829
v -1.559711 0.1336011 -0.2970149
v -1.070709 0.1336011 0.09339737
v -1.106061 0.1601751 0.1591984
v -2.436826 0.1601751 0.1539987
v -1.702136 0.1601751 -0.2364504
v -1.588386 0.1601751 -0.2258829
v -1.106061 0.1601751 0.1591984
v -3.805508 0.1601754 1.576287
v -0.9111748 0.1601751 0.2221117
v -2.288424 0.1601757 3.424862
v -0.7065229 0.1601751 0.1475081
v -3.424867 0.1601755 2.288417
v -2.91261 0.1601756 2.912605
v -3.866359 -0.08388041 2.583412
v -4.240189 -0.200945 1.756337
v -4.296067 -0.08388053 1.779483
v -3.816071 -0.2009449 2.54981
v -3.288069 -0.08388029 3.288063
v -3.245302 -0.2009448 3.245295
v -2.583421 -0.08388019 3.866354
v -2.549818 -0.2009447 3.816065
v -3.245302 -0.2009448 3.245295
v -2.549818 -0.2009447 3.816065
v -2.347152 -0.2009447 3.512756
v -2.987358 -0.2009448 2.987352
v -2.288424 -0.1565905 3.424862
v -3.816071 -0.2009449 2.54981
v -2.91261 -0.1565906 2.912605
v -3.51276 -0.2009449 2.347146
v -4.240189 -0.200945 1.756337
v -3.424867 -0.1565907 2.288417
v -3.90317 -0.200945 1.61674
v -3.805508 -0.1565908 1.576287
v -1.559711 0.1336011 -0.2970149
v -1.547833 -0.06586203 -0.3264787
v -1.056066 -0.06586197 0.06614175
v -1.070709 0.1336011 0.09339737
v -1.070709 0.1336011 0.09339737
v -1.056066 -0.06586197 0.06614175
v -0.9132242 -0.06586196 0.1122539
v -0.9126244 0.1336012 0.1444305
v -0.7529659 0.1336011 0.08622882
v -0.9126244 0.1336012 0.1444305
v -0.9132242 -0.06586196 0.1122539
v -0.7722034 -0.06586197 0.06084619
v -0.9111748 -0.156591 0.2221117
v -0.7065229 -0.156591 0.1475081
v -0.7529659 -0.1300171 0.08622886
v -0.9126244 -0.1300171 0.1444305
v -0.9126244 -0.1300171 0.1444305
v -0.7529659 -0.1300171 0.08622886
v -0.7722034 -0.06586197 0.06084619
v -0.9132242 -0.06586196 0.1122539
v -1.106061 -0.156591 0.1591984
v -0.9111748 -0.156591 0.2221117
v -0.9126244 -0.1300171 0.1444305
v -1.070709 -0.1300171 0.09339742
v -1.070709 -0.1300171 0.09339742
v -0.9126244 -0.1300171 0.1444305
v -0.9132242 -0.06586196 0.1122539
v -1.056066 -0.06586197 0.06614175
v -2.436826 -0.156591 0.1539988
v -1.702136 -0.1565911 -0.2364503
v -1.717217 -0.1300172 -0.3116472
v -2.423306 -0.1300171 0.06360231
v -2.423306 -0.1300171 0.06360231
v -1.717217 -0.1300172 -0.3116472
v -1.723464 -0.06586203 -0.3427948
v -2.417706 -0.06586197 0.02615878
v -1.702136 -0.1565911 -0.2364503
v -1.588386 -0.1565911 -0.2258828
v -1.559711 -0.1300172 -0.2970149
v -1.717217 -0.1300172 -0.3116472
v -1.717217 -0.1300172 -0.3116472
v -1.559711 -0.1300172 -0.2970149
v -1.547833 -0.06586203 -0.3264787
v -1.723464 -0.06586203 -0.3427948
v -1.588386 -0.1565911 -0.2258828
v -1.106061 -0.156591 0.1591984
v -1.070709 -0.1300171 0.09339742
v -1.559711 -0.1300172 -0.2970149
v -1.559711 -0.1300172 -0.2970149
v -1.070709 -0.1300171 0.09339742
v -1.056066 -0.06586197 0.06614175
v -1.547833 -0.06586203 -0.3264787
v -2.288424 -0.1565905 3.424862
v -0.7065229 -0.156591 0.1475081
v -0.9111748 -0.156591 0.2221117
v -3.805508 -0.1565908 1.576287
v -1.106061 -0.156591 0.1591984
v -3.424867 -0.1565907 2.288417
v -2.91261 -0.1565906 2.912605
v -2.436826 -0.156591 0.1539988
v -1.588386 -0.1565911 -0.2258828
v -1.702136 -0.1565911 -0.2364503
v -1.717217 0.1336011 -0.3116472
v -1.723464 -0.06586203 -0.3427948
v -1.547833 -0.06586203 -0.3264787
v -1.559711 0.1336011 -0.2970149
v -1.717217 0.1336011 -0.3116472
v -2.423306 0.1336011 0.06360226
v -2.417706 -0.06586197 0.02615878
v -1.723464 -0.06586203 -0.3427948
v -3.805508 0.1601754 1.576287
v -3.805508 -0.1565908 1.576287
v -2.436826 -0.156591 0.1539988
v -2.436826 0.1601751 0.1539987
v -3.90317 -0.200945 1.61674
v -3.805508 -0.1565908 1.576287
v -3.805508 0.1601754 1.576287
v -3.90317 0.2045296 1.61674
v -4.240189 -0.200945 1.756337
v -4.240189 0.2045296 1.756337
v -4.296067 -0.08388053 1.779483
v -4.296067 0.08746512 1.779483
v -2.436826 0.1601751 0.1539987
v -2.436826 -0.156591 0.1539988
v -2.423306 -0.1300171 0.06360231
v -2.417706 -0.06586197 0.02615878
v -2.288424 0.1601757 3.424862
v -0.7065229 0.1601751 0.1475081
v -0.7065229 -0.156591 0.1475081
v -2.288424 -0.1565905 3.424862
v -0.7529659 -0.1300171 0.08622886
v -0.7065229 -0.156591 0.1475081
v -0.7065229 0.1601751 0.1475081
v -0.7722034 -0.06586197 0.06084619
v -2.549818 -0.2009447 3.816065
v -2.583421 -0.08388019 3.866354
v -2.288424 -0.1565905 3.424862
v -2.288424 0.1601757 3.424862
v -2.583421 0.08746547 3.866354
vt 0.5083008 0.7490234
vt 0.5043945 0.75
vt 0.4951172 0.7514648
vt 0.4958496 0.5698242
vt 0.5019531 0.574707
vt 0.5048828 0.5766602
vt 0.1523438 0.7358398
vt 0.1430664 0.7416992
vt 0.1113281 0.7631836
vt 0.1060791 0.7666016
vt 0.1113281 0.7631836
vt 0.1523438 0.7358398
vt 0.1113281 0.7631836
vt 0.1430664 0.7416992
vt 0.1523438 0.7358398
vt 0.1060791 0.7666016
vt 0.1711426 0.8359375
vt 0.1113281 0.7631836
vt 0.166626 0.840332
vt 0.1060791 0.7666016
vt 0.2440186 0.8959961
vt 0.166626 0.840332
vt 0.2404785 0.9008789
vt 0.3271484 0.9404297
vt 0.2404785 0.9008789
vt 0.324707 0.9462891
vt 0.324707 0.9462891
vt 0.1711426 0.8359375
vt 0.1430664 0.7416992
vt 0.1113281 0.7631836
vt 0.1981201 0.809082
vt 0.1523438 0.7358398
vt 0.2440186 0.8959961
vt 0.2060547 0.8012695
vt 0.2651367 0.8637695
vt 0.3271484 0.9404297
vt 0.2714844 0.8549805
vt 0.3417969 0.9047852
vt 0.3459473 0.8945313
vt 0.4880371 0.5913086
vt 0.4960938 0.5913086
vt 0.5019531 0.574707
vt 0.4958496 0.5698242
vt 0.4946289 0.6118164
vt 0.5014648 0.6079102
vt 0.4960938 0.5913086
vt 0.4880371 0.5913086
vt 0.4951172 0.7514648
vt 0.5043945 0.75
vt 0.5439453 0.6757813
vt 0.5361328 0.6743164
vt 0.5361328 0.6743164
vt 0.5439453 0.6757813
vt 0.5424805 0.6591797
vt 0.534668 0.6621094
vt 0.534668 0.6621094
vt 0.5424805 0.6591797
vt 0.5014648 0.6079102
vt 0.4946289 0.6118164
vt 0.4951172 0.7514648
vt 0.5361328 0.6743164
vt 0.534668 0.6621094
vt 0.4946289 0.6118164
vt 0.3459473 0.8945313
vt 0.4880371 0.5913086
vt 0.1523438 0.7358398
vt 0.4958496 0.5698242
vt 0.2714844 0.8549805
vt 0.2060547 0.8012695
vt 0.2404785 0.9008789
vt 0.3271484 0.9404297
vt 0.324707 0.9462891
vt 0.2440186 0.8959961
vt 0.166626 0.840332
vt 0.1711426 0.8359375
vt 0.1060791 0.7666016
vt 0.1113281 0.7631836
vt 0.1711426 0.8359375
vt 0.1113281 0.7631836
vt 0.1430664 0.7416992
vt 0.1981201 0.809082
vt 0.1523438 0.7358398
vt 0.2440186 0.8959961
vt 0.2060547 0.8012695
vt 0.2651367 0.8637695
vt 0.3271484 0.9404297
vt 0.2714844 0.8549805
vt 0.3417969 0.9047852
vt 0.3459473 0.8945313
vt 0.5424805 0.6591797
vt 0.5454102 0.6582031
vt 0.5043945 0.6064453
vt 0.5014648 0.6079102
vt 0.5014648 0.6079102
vt 0.5043945 0.6064453
vt 0.4995117 0.5917969
vt 0.4960938 0.5913086
vt 0.5019531 0.574707
vt 0.4960938 0.5913086
vt 0.4995117 0.5917969
vt 0.5048828 0.5766602
vt 0.4880371 0.5913086
vt 0.4958496 0.5698242
vt 0.5019531 0.574707
vt 0.4960938 0.5913086
vt 0.4960938 0.5913086
vt 0.5019531 0.574707
vt 0.5048828 0.5766602
vt 0.4995117 0.5917969
vt 0.4946289 0.6118164
vt 0.4880371 0.5913086
vt 0.4960938 0.5913086
vt 0.5014648 0.6079102
vt 0.5014648 0.6079102
vt 0.4960938 0.5913086
vt 0.4995117 0.5917969
vt 0.5043945 0.6064453
vt 0.4951172 0.7514648
vt 0.5361328 0.6743164
vt 0.5439453 0.6757813
vt 0.5043945 0.75
vt 0.5043945 0.75
vt 0.5439453 0.6757813
vt 0.5473633 0.6762695
vt 0.5083008 0.7490234
vt 0.5361328 0.6743164
vt 0.534668 0.6621094
vt 0.5424805 0.6591797
vt 0.5439453 0.6757813
vt 0.5439453 0.6757813
vt 0.5424805 0.6591797
vt 0.5454102 0.6582031
vt 0.5473633 0.6762695
vt 0.534668 0.6621094
vt 0.4946289 0.6118164
vt 0.5014648 0.6079102
vt 0.5424805 0.6591797
vt 0.5424805 0.6591797
vt 0.5014648 0.6079102
vt 0.5043945 0.6064453
vt 0.5454102 0.6582031
vt 0.1523438 0.7358398
vt 0.4958496 0.5698242
vt 0.4880371 0.5913086
vt 0.3459473 0.8945313
vt 0.4946289 0.6118164
vt 0.2714844 0.8549805
vt 0.2060547 0.8012695
vt 0.4951172 0.7514648
vt 0.534668 0.6621094
vt 0.5361328 0.6743164
vt 0.5439453 0.6757813
vt 0.5473633 0.6762695
vt 0.5454102 0.6582031
vt 0.5424805 0.6591797
vt 0.5439453 0.6757813
vt 0.5043945 0.75
vt 0.5083008 0.7490234
vt 0.5473633 0.6762695
vt 0.3459473 0.8945313
vt 0.3459473 0.8945313
vt 0.4951172 0.7514648
vt 0.4951172 0.7514648
vt 0.3417969 0.9047852
vt 0.3459473 0.8945313
vt 0.3459473 0.8945313
vt 0.3417969 0.9047852
vt 0.3271484 0.9404297
vt 0.3271484 0.9404297
vt 0.324707 0.9462891
vt 0.324707 0.9462891
vt 0.4951172 0.7514648
vt 0.4951172 0.7514648
vt 0.5043945 0.75
vt 0.5083008 0.7490234
vt 0.1523438 0.7358398
vt 0.4958496 0.5698242
vt 0.4958496 0.5698242
vt 0.1523438 0.7358398
vt 0.5019531 0.574707
vt 0.4958496 0.5698242
vt 0.4958496 0.5698242
vt 0.5048828 0.5766602
vt 0.1113281 0.7631836
vt 0.1060791 0.7666016
vt 0.1523438 0.7358398
vt 0.1523438 0.7358398
vt 0.1060791 0.7666016
vn -0.9887695 0 -0.1479492
vn -0.9887695 0 -0.1479492
vn -0.9887695 0 -0.1479492
vn 0.796875 0 -0.6040039
vn 0.796875 0 -0.6040039
vn 0.796875 0 -0.6040039
vn 0.831543 0 0.5556641
vn 0.831543 0 0.5556641
vn 0.831543 0 0.5556641
vn 0.831543 0 0.5556641
vn 0.831543 0 0.5556641
vn 0.831543 0 0.5556641
vn 0.831543 0 0.5556641
vn 0.831543 0 0.5556641
vn 0.831543 0 0.5556641
vn -0.6171875 0.2318115 0.7519531
vn -0.628418 0.4589844 0.628418
vn -0.5639648 0.4572754 0.6875
vn -0.6875 0.2329102 0.6875
vn -0.6171875 -0.2318115 0.7519531
vn -0.7387695 0.4589844 0.4936523
vn -0.6875 -0.2329102 0.6875
vn -0.8085938 0.2329102 0.5405273
vn -0.7841797 0.4572754 0.4191895
vn -0.8085938 -0.2329102 0.5405273
vn -0.8579102 0.2318115 0.4584961
vn -0.8579102 -0.2318115 0.4584961
vn 0 1 0
vn 0.1181641 0.9824219 -0.144043
vn 0 1 0
vn 0.1311035 0.9824219 -0.1311035
vn 0.24646 0.9213867 -0.300293
vn 0 1 0
vn 0.2736816 0.921875 -0.2736816
vn 0.1541748 0.9824219 -0.1030273
vn 0 1 0
vn 0.3217773 0.921875 -0.2149658
vn 0.1643066 0.9824219 -0.08782959
vn 0.3425293 0.9213867 -0.1831055
vn -0.1164551 0.9404297 -0.3195801
vn -0.1164551 0.9404297 -0.3195801
vn -0.1164551 0.9404297 -0.3195801
vn -0.1164551 0.9404297 -0.3195801
vn 0.1044922 0.9404297 -0.3237305
vn 0.1044922 0.9404297 -0.3237305
vn 0.1044922 0.9404297 -0.3237305
vn 0.1044922 0.9404297 -0.3237305
vn -0.1595459 0.9404297 -0.300293
vn -0.1595459 0.9404297 -0.300293
vn -0.1595459 0.9404297 -0.300293
vn -0.1595459 0.9404297 -0.300293
vn 0.03146362 0.9404297 -0.338623
vn 0.03146362 0.9404297 -0.338623
vn 0.03146362 0.9404297 -0.338623
vn 0.03146362 0.9404297 -0.338623
vn 0.2121582 0.9404297 -0.2658691
vn 0.2121582 0.9404297 -0.2658691
vn 0.2121582 0.9404297 -0.2658691
vn 0.2121582 0.9404297 -0.2658691
vn 0 1 0
vn 0 1 0
vn 0 1 0
vn 0 1 0
vn 0 1 0
vn 0 1 0
vn 0 1 0
vn 0 1 0
vn 0 1 0
vn 0 1 0
vn -0.8085938 -0.2329102 0.5405273
vn -0.7841797 -0.4572754 0.4191895
vn -0.8579102 -0.2318115 0.4584961
vn -0.7387695 -0.4589844 0.4936523
vn -0.6875 -0.2329102 0.6875
vn -0.628418 -0.4589844 0.628418
vn -0.6171875 -0.2318115 0.7519531
vn -0.5639648 -0.4572754 0.6875
vn 0 -1 0
vn 0 -1 0
vn 0.1181641 -0.9824219 -0.144043
vn 0.1311035 -0.9824219 -0.1311035
vn 0.24646 -0.9213867 -0.300293
vn 0 -1 0
vn 0.2736816 -0.921875 -0.2736816
vn 0.1541748 -0.9824219 -0.1030273
vn 0 -1 0
vn 0.3217773 -0.921875 -0.2149658
vn 0.1643066 -0.9824219 -0.08782959
vn 0.3425293 -0.9213867 -0.1831055
vn 0.6166992 0.1508789 -0.7724609
vn 0.6166992 0.1508789 -0.7724609
vn 0.6166992 0.1508789 -0.7724609
vn 0.6166992 0.1508789 -0.7724609
vn 0.3037109 0.1508789 -0.940918
vn 0.3037109 0.1508789 -0.940918
vn 0.3037109 0.1508789 -0.940918
vn 0.3037109 0.1508789 -0.940918
vn -0.338623 0.1508789 -0.9287109
vn -0.338623 0.1508789 -0.9287109
vn -0.338623 0.1508789 -0.9287109
vn -0.338623 0.1508789 -0.9287109
vn -0.1164551 -0.9404297 -0.3195801
vn -0.1164551 -0.9404297 -0.3195801
vn -0.1164551 -0.9404297 -0.3195801
vn -0.1164551 -0.9404297 -0.3195801
vn -0.3093262 -0.4287109 -0.8486328
vn -0.3093262 -0.4287109 -0.8486328
vn -0.3093262 -0.4287109 -0.8486328
vn -0.3093262 -0.4287109 -0.8486328
vn 0.1044922 -0.9404297 -0.3237305
vn 0.1044922 -0.9404297 -0.3237305
vn 0.1044922 -0.9404297 -0.3237305
vn 0.1044922 -0.9404297 -0.3237305
vn 0.2775879 -0.4287109 -0.8598633
vn 0.2775879 -0.4287109 -0.8598633
vn 0.2775879 -0.4287109 -0.8598633
vn 0.2775879 -0.4287109 -0.8598633
vn -0.1595459 -0.9404297 -0.300293
vn -0.1595459 -0.9404297 -0.300293
vn -0.1595459 -0.9404297 -0.300293
vn -0.1595459 -0.9404297 -0.300293
vn -0.4240723 -0.4287109 -0.7978516
vn -0.4240723 -0.4287109 -0.7978516
vn -0.4240723 -0.4287109 -0.7978516
vn -0.4240723 -0.4287109 -0.7978516
vn 0.03146362 -0.9404297 -0.338623
vn 0.03146362 -0.9404297 -0.338623
vn 0.03146362 -0.9404297 -0.338623
vn 0.03146362 -0.9404297 -0.338623
vn 0.08355713 -0.4287109 -0.8994141
vn 0.08355713 -0.4287109 -0.8994141
vn 0.08355713 -0.4287109 -0.8994141
vn 0.08355713 -0.4287109 -0.8994141
vn 0.2121582 -0.9404297 -0.2658691
vn 0.2121582 -0.9404297 -0.2658691
vn 0.2121582 -0.9404297 -0.2658691
vn 0.2121582 -0.9404297 -0.2658691
vn 0.5634766 -0.4287109 -0.7060547
vn 0.5634766 -0.4287109 -0.7060547
vn 0.5634766 -0.4287109 -0.7060547
vn 0.5634766 -0.4287109 -0.7060547
vn 0 -1 0
vn 0 -1 0
vn 0 -1 0
vn 0 -1 0
vn 0 -1 0
vn 0 -1 0
vn 0 -1 0
vn 0 -1 0
vn 0 -1 0
vn 0 -1 0
vn 0.09143066 0.1508789 -0.984375
vn 0.09143066 0.1508789 -0.984375
vn 0.09143066 0.1508789 -0.984375
vn 0.09143066 0.1508789 -0.984375
vn -0.4638672 0.1508789 -0.8730469
vn -0.4638672 0.1508789 -0.8730469
vn -0.4638672 0.1508789 -0.8730469
vn -0.4638672 0.1508789 -0.8730469
vn -0.7207031 0 -0.6933594
vn -0.7207031 0 -0.6933594
vn -0.7207031 0 -0.6933594
vn -0.7207031 0 -0.6933594
vn -0.3825684 0 -0.9238281
vn -0.3825684 0 -0.9238281
vn -0.3825684 0 -0.9238281
vn -0.3825684 0 -0.9238281
vn -0.3825684 0 -0.9238281
vn -0.3825684 0 -0.9238281
vn -0.3825684 0 -0.9238281
vn -0.3825684 0 -0.9238281
vn -0.9887695 0 -0.1479492
vn -0.9887695 0 -0.1479492
vn -0.9887695 0 -0.1479492
vn -0.9887695 0 -0.1479492
vn 0.9003906 0 0.4345703
vn 0.9003906 0 0.4345703
vn 0.9003906 0 0.4345703
vn 0.9003906 0 0.4345703
vn 0.796875 0 -0.6040039
vn 0.796875 0 -0.6040039
vn 0.796875 0 -0.6040039
vn 0.796875 0 -0.6040039
vn 0.831543 0 0.5556641
vn 0.831543 0 0.5556641
vn 0.831543 0 0.5556641
vn 0.831543 0 0.5556641
vn 0.831543 0 0.5556641
g Dal_Unbrella_out_04_0
f 3/3/3 2/2/2 1/1/1
f 6/6/6 5/5/5 4/4/4
f 9/9/9 8/8/8 7/7/7
f 12/12/12 11/11/11 10/10/10
f 15/15/15 14/14/14 13/13/13
f 18/18/18 17/17/17 16/16/16
f 17/17/17 19/19/19 16/16/16
f 16/16/16 19/19/19 20/20/20
f 17/17/17 21/21/21 19/19/19
f 19/19/19 22/22/22 20/20/20
f 21/21/21 23/23/23 19/19/19
f 19/19/19 23/23/23 22/22/22
f 21/21/21 24/24/24 23/23/23
f 23/23/23 25/25/25 22/22/22
f 24/24/24 26/26/26 23/23/23
f 23/23/23 26/26/26 25/25/25
f 26/26/26 27/27/27 25/25/25
f 30/30/30 29/29/29 28/28/28
f 29/29/29 31/31/31 28/28/28
f 29/29/29 32/32/32 31/31/31
f 28/28/28 31/31/31 33/33/33
f 32/32/32 34/34/34 31/31/31
f 31/31/31 35/35/35 33/33/33
f 31/31/31 34/34/34 35/35/35
f 33/33/33 35/35/35 36/36/36
f 34/34/34 37/37/37 35/35/35
f 35/35/35 38/38/38 36/36/36
f 35/35/35 37/37/37 38/38/38
f 37/37/37 39/39/39 38/38/38
f 42/42/42 41/41/41 40/40/40
f 43/43/43 42/42/42 40/40/40
f 46/46/46 45/45/45 44/44/44
f 47/47/47 46/46/46 44/44/44
f 50/50/50 49/49/49 48/48/48
f 51/51/51 50/50/50 48/48/48
f 54/54/54 53/53/53 52/52/52
f 55/55/55 54/54/54 52/52/52
f 58/58/58 57/57/57 56/56/56
f 59/59/59 58/58/58 56/56/56
f 62/62/62 61/61/61 60/60/60
f 60/60/60 63/63/63 62/62/62
f 60/60/60 64/64/64 63/63/63
f 64/64/64 65/65/65 63/63/63
f 65/65/65 64/64/64 66/66/66
f 66/66/66 67/67/67 65/65/65
f 64/64/64 68/68/68 66/66/66
f 68/68/68 69/69/69 66/66/66
f 72/72/72 71/71/71 70/70/70
f 71/71/71 73/73/73 70/70/70
f 70/70/70 73/73/73 74/74/74
f 73/73/73 75/75/75 74/74/74
f 74/74/74 75/75/75 76/76/76
f 75/75/75 77/77/77 76/76/76
f 80/80/80 79/79/79 78/78/78
f 81/81/81 80/80/80 78/78/78
f 82/82/82 80/80/80 81/81/81
f 81/81/81 78/78/78 83/83/83
f 84/84/84 82/82/82 81/81/81
f 85/85/85 81/81/81 83/83/83
f 84/84/84 81/81/81 85/85/85
f 85/85/85 83/83/83 86/86/86
f 87/87/87 84/84/84 85/85/85
f 88/88/88 85/85/85 86/86/86
f 87/87/87 85/85/85 88/88/88
f 89/89/89 87/87/87 88/88/88
f 92/92/92 91/91/91 90/90/90
f 93/93/93 92/92/92 90/90/90
f 96/96/96 95/95/95 94/94/94
f 97/97/97 96/96/96 94/94/94
f 100/100/100 99/99/99 98/98/98
f 101/101/101 100/100/100 98/98/98
f 104/104/104 103/103/103 102/102/102
f 105/105/105 104/104/104 102/102/102
f 108/108/108 107/107/107 106/106/106
f 109/109/109 108/108/108 106/106/106
f 112/112/112 111/111/111 110/110/110
f 113/113/113 112/112/112 110/110/110
f 116/116/116 115/115/115 114/114/114
f 117/117/117 116/116/116 114/114/114
f 120/120/120 119/119/119 118/118/118
f 121/121/121 120/120/120 118/118/118
f 124/124/124 123/123/123 122/122/122
f 125/125/125 124/124/124 122/122/122
f 128/128/128 127/127/127 126/126/126
f 129/129/129 128/128/128 126/126/126
f 132/132/132 131/131/131 130/130/130
f 133/133/133 132/132/132 130/130/130
f 136/136/136 135/135/135 134/134/134
f 137/137/137 136/136/136 134/134/134
f 140/140/140 139/139/139 138/138/138
f 141/141/141 140/140/140 138/138/138
f 144/144/144 143/143/143 142/142/142
f 142/142/142 145/145/145 144/144/144
f 146/146/146 144/144/144 145/145/145
f 142/142/142 147/147/147 145/145/145
f 142/142/142 148/148/148 147/147/147
f 146/146/146 145/145/145 149/149/149
f 150/150/150 146/146/146 149/149/149
f 149/149/149 151/151/151 150/150/150
f 154/154/154 153/153/153 152/152/152
f 155/155/155 154/154/154 152/152/152
f 158/158/158 157/157/157 156/156/156
f 159/159/159 158/158/158 156/156/156
f 162/162/162 161/161/161 160/160/160
f 163/163/163 162/162/162 160/160/160
f 166/166/166 165/165/165 164/164/164
f 164/164/164 167/167/167 166/166/166
f 164/164/164 168/168/168 167/167/167
f 168/168/168 169/169/169 167/167/167
f 168/168/168 170/170/170 169/169/169
f 170/170/170 171/171/171 169/169/169
f 174/174/174 173/173/173 172/172/172
f 172/172/172 175/175/175 174/174/174
f 178/178/178 177/177/177 176/176/176
f 179/179/179 178/178/178 176/176/176
f 182/182/182 181/181/181 180/180/180
f 180/180/180 183/183/183 182/182/182
f 186/186/186 185/185/185 184/184/184
f 186/186/186 187/187/187 185/185/185
f 187/187/187 188/188/188 185/185/185
