g Dal_Unbrella_out_09
v 1.850366 0.1601748 -1.830569
v 1.802044 0.1336008 -1.773591
v 1.782028 -0.06586226 -1.74999
v 2.583418 0.08746421 -3.866357
v 3.2453 0.2045288 -3.245299
v 2.549816 0.2045287 -3.816068
v 3.288067 0.0874643 -3.288066
v 2.583418 -0.08388146 -3.866357
v 3.816069 0.2045289 -2.549815
v 3.288067 -0.08388136 -3.288066
v 3.866358 0.08746442 -2.583417
v 4.240189 0.204529 -1.756342
v 3.866358 -0.08388124 -2.583417
v 4.296066 0.08746454 -1.779488
v 4.50136 0.2045292 -0.8953749
v 4.296066 -0.08388111 -1.779488
v 4.56068 0.08746471 -0.9071743
v 4.589546 0.2045293 1.457344E-06
v 4.56068 -0.08388099 -0.9071743
v 4.650028 0.08746484 1.496124E-06
v 4.650028 -0.08388083 1.52404E-06
v 3.2453 0.2045288 -3.245299
v 2.347151 0.2045288 -3.512758
v 2.549816 0.2045287 -3.816068
v 2.987356 0.2045288 -2.987355
v 2.288421 0.1601745 -3.424864
v 3.816069 0.2045289 -2.549815
v 2.912609 0.1601746 -2.912608
v 3.512759 0.2045289 -2.34715
v 4.240189 0.204529 -1.756342
v 3.424866 0.1601747 -2.288421
v 3.903169 0.2045291 -1.616744
v 4.50136 0.2045292 -0.8953749
v 3.805507 0.1601748 -1.576291
v 4.143581 0.2045292 -0.8242085
v 4.589546 0.2045293 1.457344E-06
v 4.039904 0.160175 -0.8035858
v 4.224758 0.2045293 1.301926E-06
v 4.119049 0.1601751 1.27652E-06
v 2.469557 0.1601749 -1.073672
v 2.402678 0.133601 -1.039376
v 1.802044 0.1336008 -1.773591
v 1.850366 0.1601748 -1.830569
v 2.583418 -0.08388146 -3.866357
v 2.549816 -0.2009459 -3.816068
v 3.2453 -0.2009458 -3.245299
v 3.288067 -0.08388136 -3.288066
v 3.816069 -0.2009457 -2.549815
v 3.866358 -0.08388124 -2.583417
v 4.240189 -0.2009456 -1.756342
v 4.296066 -0.08388111 -1.779488
v 4.50136 -0.2009455 -0.8953748
v 4.56068 -0.08388099 -0.9071743
v 4.589546 -0.2009453 1.523405E-06
v 4.650028 -0.08388083 1.52404E-06
v 3.2453 -0.2009458 -3.245299
v 2.549816 -0.2009459 -3.816068
v 2.347151 -0.2009459 -3.512758
v 2.987356 -0.2009458 -2.987355
v 2.288421 -0.1565916 -3.424864
v 3.816069 -0.2009457 -2.549815
v 2.912609 -0.1565915 -2.912608
v 3.512759 -0.2009457 -2.34715
v 4.240189 -0.2009456 -1.756342
v 3.424866 -0.1565914 -2.288421
v 3.903169 -0.2009456 -1.616744
v 4.50136 -0.2009455 -0.8953748
v 3.805507 -0.1565913 -1.576291
v 4.143581 -0.2009454 -0.8242084
v 4.589546 -0.2009453 1.523405E-06
v 4.039904 -0.1565912 -0.8035858
v 4.224758 -0.2009453 1.367987E-06
v 4.119049 -0.1565911 1.328128E-06
v 1.802044 0.1336008 -1.773591
v 2.402678 0.133601 -1.039376
v 2.374977 -0.06586214 -1.02517
v 1.782028 -0.06586226 -1.74999
v 2.469557 -0.1565913 -1.073672
v 1.850366 -0.1565914 -1.830569
v 1.802044 -0.1300174 -1.773591
v 2.402678 -0.1300173 -1.039376
v 2.402678 -0.1300173 -1.039376
v 1.802044 -0.1300174 -1.773591
v 1.782028 -0.06586226 -1.74999
v 2.374977 -0.06586214 -1.02517
v 1.850366 0.1601748 -1.830569
v 2.288421 0.1601745 -3.424864
v 2.912609 0.1601746 -2.912608
v 3.424866 0.1601747 -2.288421
v 3.805507 0.1601748 -1.576291
v 2.469557 0.1601749 -1.073672
v 4.039904 0.160175 -0.8035858
v 2.695926 0.1601751 -0.2296064
v 4.119049 0.1601751 1.27652E-06
v 2.695926 0.1601751 -0.01329059
v 2.695926 0.1601751 -0.01329059
v 2.622446 0.1336011 -0.04372655
v 2.622446 0.1336011 -0.2199246
v 2.695926 0.1601751 -0.2296064
v 2.695926 0.1601751 -0.2296064
v 2.622446 0.1336011 -0.2199246
v 2.402678 0.133601 -1.039376
v 2.469557 0.1601749 -1.073672
v 2.622446 0.1336011 -0.04372655
v 2.59201 -0.06586199 -0.05633355
v 2.59201 -0.06586201 -0.2159141
v 2.622446 0.1336011 -0.2199246
v 2.695926 -0.1565911 -0.01329054
v 2.695926 -0.1565911 -0.2296064
v 2.622446 -0.1300171 -0.2199245
v 2.622446 -0.1300171 -0.04372651
v 2.622446 -0.1300171 -0.04372651
v 2.622446 -0.1300171 -0.2199245
v 2.59201 -0.06586201 -0.2159141
v 2.59201 -0.06586199 -0.05633355
v 2.695926 -0.1565911 -0.2296064
v 2.469557 -0.1565913 -1.073672
v 2.402678 -0.1300173 -1.039376
v 2.622446 -0.1300171 -0.2199245
v 2.622446 -0.1300171 -0.2199245
v 2.402678 -0.1300173 -1.039376
v 2.374977 -0.06586214 -1.02517
v 2.59201 -0.06586201 -0.2159141
v 2.402678 0.133601 -1.039376
v 2.622446 0.1336011 -0.2199246
v 2.59201 -0.06586201 -0.2159141
v 2.374977 -0.06586214 -1.02517
v 2.912609 -0.1565915 -2.912608
v 2.288421 -0.1565916 -3.424864
v 1.850366 -0.1565914 -1.830569
v 3.424866 -0.1565914 -2.288421
v 3.805507 -0.1565913 -1.576291
v 2.469557 -0.1565913 -1.073672
v 4.039904 -0.1565912 -0.8035858
v 2.695926 -0.1565911 -0.2296064
v 4.119049 -0.1565911 1.328128E-06
v 2.695926 -0.1565911 -0.01329054
v 2.695926 0.1601751 -0.01329059
v 4.119049 -0.1565911 1.328128E-06
v 2.695926 -0.1565911 -0.01329054
v 4.119049 0.1601751 1.27652E-06
v 4.224758 -0.2009453 1.367987E-06
v 4.224758 0.2045293 1.301926E-06
v 4.589546 -0.2009453 1.523405E-06
v 4.589546 0.2045293 1.457344E-06
v 4.650028 -0.08388083 1.52404E-06
v 4.650028 0.08746484 1.496124E-06
v 2.622446 0.1336011 -0.04372655
v 2.695926 0.1601751 -0.01329059
v 2.695926 -0.1565911 -0.01329054
v 2.622446 -0.1300171 -0.04372651
v 2.59201 -0.06586199 -0.05633355
v 1.850366 0.1601748 -1.830569
v 1.850366 -0.1565914 -1.830569
v 2.288421 -0.1565916 -3.424864
v 2.288421 0.1601745 -3.424864
v 1.802044 -0.1300174 -1.773591
v 1.850366 -0.1565914 -1.830569
v 1.850366 0.1601748 -1.830569
v 1.782028 -0.06586226 -1.74999
v 2.347151 -0.2009459 -3.512758
v 2.549816 -0.2009459 -3.816068
v 2.583418 -0.08388146 -3.866357
v 2.288421 -0.1565916 -3.424864
v 2.288421 0.1601745 -3.424864
v 2.583418 0.08746421 -3.866357
v 2.583418 0.08746421 -3.866357
v 2.549816 0.2045287 -3.816068
v 2.288421 0.1601745 -3.424864
v 2.347151 0.2045288 -3.512758
vt 0.703125 0.302002
vt 0.6972656 0.3071289
vt 0.6948242 0.309082
vt 0.9165039 0.2252197
vt 0.8510742 0.1558838
vt 0.9111328 0.2287598
vt 0.855957 0.1513672
vt 0.9165039 0.2252197
vt 0.7783203 0.0960083
vt 0.855957 0.1513672
vt 0.7817383 0.09075928
vt 0.6953125 0.05157471
vt 0.7817383 0.09075928
vt 0.6977539 0.04571533
vt 0.6049805 0.0242157
vt 0.6977539 0.04571533
vt 0.6064453 0.01799011
vt 0.5112305 0.01496887
vt 0.6064453 0.01799011
vt 0.5112305 0.008628845
vt 0.5112305 0.008628845
vt 0.8510742 0.1558838
vt 0.8793945 0.25
vt 0.9111328 0.2287598
vt 0.8242188 0.1828613
vt 0.8701172 0.2561035
vt 0.7783203 0.0960083
vt 0.8164063 0.1906738
vt 0.7573242 0.1278076
vt 0.6953125 0.05157471
vt 0.7509766 0.1369629
vt 0.6806641 0.08691406
vt 0.6049805 0.0242157
vt 0.6762695 0.09710693
vt 0.5976563 0.06170654
vt 0.5112305 0.01496887
vt 0.5952148 0.0725708
vt 0.5112305 0.05319214
vt 0.5112305 0.06427002
vt 0.6235352 0.2370605
vt 0.6201172 0.2441406
vt 0.6972656 0.3071289
vt 0.703125 0.302002
vt 0.9165039 0.2252197
vt 0.9111328 0.2287598
vt 0.8510742 0.1558838
vt 0.855957 0.1513672
vt 0.7783203 0.0960083
vt 0.7817383 0.09075928
vt 0.6953125 0.05157471
vt 0.6977539 0.04571533
vt 0.6049805 0.0242157
vt 0.6064453 0.01799011
vt 0.5112305 0.01496887
vt 0.5112305 0.008628845
vt 0.8510742 0.1558838
vt 0.9111328 0.2287598
vt 0.8793945 0.25
vt 0.8242188 0.1828613
vt 0.8701172 0.2561035
vt 0.7783203 0.0960083
vt 0.8164063 0.1906738
vt 0.7573242 0.1278076
vt 0.6953125 0.05157471
vt 0.7509766 0.1369629
vt 0.6806641 0.08691406
vt 0.6049805 0.0242157
vt 0.6762695 0.09710693
vt 0.5976563 0.06170654
vt 0.5112305 0.01496887
vt 0.5952148 0.0725708
vt 0.5112305 0.05319214
vt 0.5112305 0.06427002
vt 0.6972656 0.3071289
vt 0.6201172 0.2441406
vt 0.6186523 0.2470703
vt 0.6948242 0.309082
vt 0.6235352 0.2370605
vt 0.703125 0.302002
vt 0.6972656 0.3071289
vt 0.6201172 0.2441406
vt 0.6201172 0.2441406
vt 0.6972656 0.3071289
vt 0.6948242 0.309082
vt 0.6186523 0.2470703
vt 0.703125 0.302002
vt 0.8701172 0.2561035
vt 0.8164063 0.1906738
vt 0.7509766 0.1369629
vt 0.6762695 0.09710693
vt 0.6235352 0.2370605
vt 0.5952148 0.0725708
vt 0.5351563 0.2133789
vt 0.5112305 0.06427002
vt 0.5126953 0.2133789
vt 0.5126953 0.2133789
vt 0.515625 0.2210693
vt 0.5341797 0.2210693
vt 0.5351563 0.2133789
vt 0.5351563 0.2133789
vt 0.5341797 0.2210693
vt 0.6201172 0.2441406
vt 0.6235352 0.2370605
vt 0.515625 0.2210693
vt 0.5170898 0.2242432
vt 0.5336914 0.2242432
vt 0.5341797 0.2210693
vt 0.5126953 0.2133789
vt 0.5351563 0.2133789
vt 0.5341797 0.2210693
vt 0.515625 0.2210693
vt 0.515625 0.2210693
vt 0.5341797 0.2210693
vt 0.5336914 0.2242432
vt 0.5170898 0.2242432
vt 0.5351563 0.2133789
vt 0.6235352 0.2370605
vt 0.6201172 0.2441406
vt 0.5341797 0.2210693
vt 0.5341797 0.2210693
vt 0.6201172 0.2441406
vt 0.6186523 0.2470703
vt 0.5336914 0.2242432
vt 0.6201172 0.2441406
vt 0.5341797 0.2210693
vt 0.5336914 0.2242432
vt 0.6186523 0.2470703
vt 0.8164063 0.1906738
vt 0.8701172 0.2561035
vt 0.703125 0.302002
vt 0.7509766 0.1369629
vt 0.6762695 0.09710693
vt 0.6235352 0.2370605
vt 0.5952148 0.0725708
vt 0.5351563 0.2133789
vt 0.5112305 0.06427002
vt 0.5126953 0.2133789
vt 0.5126953 0.2133789
vt 0.5112305 0.06427002
vt 0.5126953 0.2133789
vt 0.5112305 0.06427002
vt 0.5112305 0.05319214
vt 0.5112305 0.05319214
vt 0.5112305 0.01496887
vt 0.5112305 0.01496887
vt 0.5112305 0.008628845
vt 0.5112305 0.008628845
vt 0.515625 0.2210693
vt 0.5126953 0.2133789
vt 0.5126953 0.2133789
vt 0.515625 0.2210693
vt 0.5170898 0.2242432
vt 0.703125 0.302002
vt 0.703125 0.302002
vt 0.8701172 0.2561035
vt 0.8701172 0.2561035
vt 0.6972656 0.3071289
vt 0.703125 0.302002
vt 0.703125 0.302002
vt 0.6948242 0.309082
vt 0.8793945 0.25
vt 0.9111328 0.2287598
vt 0.9165039 0.2252197
vt 0.8701172 0.2561035
vt 0.8701172 0.2561035
vt 0.9165039 0.2252197
vt 0.9165039 0.2252197
vt 0.9111328 0.2287598
vt 0.8701172 0.2561035
vt 0.8793945 0.25
vn -0.7626953 0 -0.6469727
vn -0.7626953 0 -0.6469727
vn -0.7626953 0 -0.6469727
vn 0.6171875 0.2318115 -0.7519531
vn 0.628418 0.4589844 -0.628418
vn 0.5639648 0.4572754 -0.6875
vn 0.6875 0.2329102 -0.6875
vn 0.6171875 -0.2318115 -0.7519531
vn 0.7387695 0.4589844 -0.4936523
vn 0.6875 -0.2329102 -0.6875
vn 0.8085938 0.2329102 -0.5405273
vn 0.8208008 0.4589844 -0.3400879
vn 0.8085938 -0.2329102 -0.5405273
vn 0.8984375 0.2329102 -0.3720703
vn 0.871582 0.4589844 -0.1733398
vn 0.8984375 -0.2329102 -0.3720703
vn 0.9536133 0.2329102 -0.1896973
vn 0.8852539 0.4572754 -0.0871582
vn 0.9536133 -0.2329102 -0.1896973
vn 0.9682617 0.2318115 -0.09533691
vn 0.9682617 -0.2318115 -0.09533691
vn 0 1 0
vn -0.1181641 0.9824219 0.144043
vn 0 1 0
vn -0.1311035 0.9824219 0.1311035
vn -0.24646 0.9213867 0.300293
vn 0 1 0
vn -0.2736816 0.921875 0.2736816
vn -0.1541748 0.9824219 0.1030273
vn 0 1 0
vn -0.3217773 0.921875 0.2149658
vn -0.1712646 0.9824219 0.07098389
vn 0 1 0
vn -0.3574219 0.921875 0.1480713
vn -0.1818848 0.9824219 0.03616333
vn 0 1 0
vn -0.3793945 0.921875 0.07550049
vn -0.1854248 0.9824219 0.01826477
vn -0.3867188 0.9213867 0.03808594
vn -0.2631836 0.9404297 0.215332
vn -0.2631836 0.9404297 0.215332
vn -0.2631836 0.9404297 0.215332
vn -0.2631836 0.9404297 0.215332
vn 0.6171875 -0.2318115 -0.7519531
vn 0.5639648 -0.4572754 -0.6875
vn 0.628418 -0.4589844 -0.628418
vn 0.6875 -0.2329102 -0.6875
vn 0.7387695 -0.4589844 -0.4936523
vn 0.8085938 -0.2329102 -0.5405273
vn 0.8208008 -0.4589844 -0.3400879
vn 0.8984375 -0.2329102 -0.3720703
vn 0.871582 -0.4589844 -0.1733398
vn 0.9536133 -0.2329102 -0.1896973
vn 0.8852539 -0.4572754 -0.0871582
vn 0.9682617 -0.2318115 -0.09533691
vn 0 -1 0
vn 0 -1 0
vn -0.1181641 -0.9824219 0.144043
vn -0.1311035 -0.9824219 0.1311035
vn -0.24646 -0.9213867 0.300293
vn 0 -1 0
vn -0.2736816 -0.921875 0.2736816
vn -0.1541748 -0.9824219 0.1030273
vn 0 -1 0
vn -0.3217773 -0.921875 0.2149658
vn -0.1712646 -0.9824219 0.07098389
vn 0 -1 0
vn -0.3574219 -0.921875 0.1480713
vn -0.1818848 -0.9824219 0.03616333
vn 0 -1 0
vn -0.3793945 -0.921875 0.07550049
vn -0.1854248 -0.9824219 0.01826477
vn -0.3867188 -0.9213867 0.03808594
vn -0.7651367 0.1508789 0.6259766
vn -0.7651367 0.1508789 0.6259766
vn -0.7651367 0.1508789 0.6259766
vn -0.7651367 0.1508789 0.6259766
vn -0.2631836 -0.9404297 0.215332
vn -0.2631836 -0.9404297 0.215332
vn -0.2631836 -0.9404297 0.215332
vn -0.2631836 -0.9404297 0.215332
vn -0.6992188 -0.4287109 0.5722656
vn -0.6992188 -0.4287109 0.5722656
vn -0.6992188 -0.4287109 0.5722656
vn -0.6992188 -0.4287109 0.5722656
vn 0 1 0
vn 0 1 0
vn 0 1 0
vn 0 1 0
vn 0 1 0
vn 0 1 0
vn 0 1 0
vn 0 1 0
vn 0 1 0
vn 0 1 0
vn -0.3400879 0.9404297 0
vn -0.3400879 0.9404297 0
vn -0.3400879 0.9404297 0
vn -0.3400879 0.9404297 0
vn -0.3283691 0.9404297 0.08807373
vn -0.3283691 0.9404297 0.08807373
vn -0.3283691 0.9404297 0.08807373
vn -0.3283691 0.9404297 0.08807373
vn -0.9887695 0.1508789 0
vn -0.9887695 0.1508789 0
vn -0.9887695 0.1508789 0
vn -0.9887695 0.1508789 0
vn -0.3400879 -0.9404297 0
vn -0.3400879 -0.9404297 0
vn -0.3400879 -0.9404297 0
vn -0.3400879 -0.9404297 0
vn -0.9033203 -0.4287109 0
vn -0.9033203 -0.4287109 0
vn -0.9033203 -0.4287109 0
vn -0.9033203 -0.4287109 0
vn -0.3283691 -0.9404297 0.08807373
vn -0.3283691 -0.9404297 0.08807373
vn -0.3283691 -0.9404297 0.08807373
vn -0.3283691 -0.9404297 0.08807373
vn -0.8725586 -0.4287109 0.2340088
vn -0.8725586 -0.4287109 0.2340088
vn -0.8725586 -0.4287109 0.2340088
vn -0.8725586 -0.4287109 0.2340088
vn -0.9545898 0.1508789 0.2561035
vn -0.9545898 0.1508789 0.2561035
vn -0.9545898 0.1508789 0.2561035
vn -0.9545898 0.1508789 0.2561035
vn 0 -1 0
vn 0 -1 0
vn 0 -1 0
vn 0 -1 0
vn 0 -1 0
vn 0 -1 0
vn 0 -1 0
vn 0 -1 0
vn 0 -1 0
vn 0 -1 0
vn -0.009338379 0 1
vn -0.009338379 0 1
vn -0.009338379 0 1
vn -0.009338379 0 1
vn 0 0 1
vn 0 0 1
vn 0 0 1
vn 0 0 1
vn 0 0 1
vn 0 0 1
vn -0.3825684 0 0.9238281
vn -0.3825684 0 0.9238281
vn -0.3825684 0 0.9238281
vn -0.3825684 0 0.9238281
vn -0.3825684 0 0.9238281
vn -0.9643555 0 -0.2648926
vn -0.9643555 0 -0.2648926
vn -0.9643555 0 -0.2648926
vn -0.9643555 0 -0.2648926
vn -0.7626953 0 -0.6469727
vn -0.7626953 0 -0.6469727
vn -0.7626953 0 -0.6469727
vn -0.7626953 0 -0.6469727
vn -0.831543 0 -0.5556641
vn -0.831543 0 -0.5556641
vn -0.831543 0 -0.5556641
vn -0.831543 0 -0.5556641
vn -0.831543 0 -0.5556641
vn -0.831543 0 -0.5556641
vn -0.831543 0 -0.5556641
vn -0.831543 0 -0.5556641
vn -0.831543 0 -0.5556641
vn -0.831543 0 -0.5556641
g Dal_Unbrella_out_09_0
f 3/3/3 2/2/2 1/1/1
f 6/6/6 5/5/5 4/4/4
f 5/5/5 7/7/7 4/4/4
f 4/4/4 7/7/7 8/8/8
f 5/5/5 9/9/9 7/7/7
f 7/7/7 10/10/10 8/8/8
f 9/9/9 11/11/11 7/7/7
f 7/7/7 11/11/11 10/10/10
f 9/9/9 12/12/12 11/11/11
f 11/11/11 13/13/13 10/10/10
f 12/12/12 14/14/14 11/11/11
f 11/11/11 14/14/14 13/13/13
f 12/12/12 15/15/15 14/14/14
f 14/14/14 16/16/16 13/13/13
f 15/15/15 17/17/17 14/14/14
f 14/14/14 17/17/17 16/16/16
f 15/15/15 18/18/18 17/17/17
f 17/17/17 19/19/19 16/16/16
f 18/18/18 20/20/20 17/17/17
f 17/17/17 20/20/20 19/19/19
f 20/20/20 21/21/21 19/19/19
f 24/24/24 23/23/23 22/22/22
f 23/23/23 25/25/25 22/22/22
f 23/23/23 26/26/26 25/25/25
f 22/22/22 25/25/25 27/27/27
f 26/26/26 28/28/28 25/25/25
f 25/25/25 29/29/29 27/27/27
f 25/25/25 28/28/28 29/29/29
f 27/27/27 29/29/29 30/30/30
f 28/28/28 31/31/31 29/29/29
f 29/29/29 32/32/32 30/30/30
f 29/29/29 31/31/31 32/32/32
f 30/30/30 32/32/32 33/33/33
f 31/31/31 34/34/34 32/32/32
f 32/32/32 35/35/35 33/33/33
f 32/32/32 34/34/34 35/35/35
f 33/33/33 35/35/35 36/36/36
f 34/34/34 37/37/37 35/35/35
f 35/35/35 38/38/38 36/36/36
f 35/35/35 37/37/37 38/38/38
f 37/37/37 39/39/39 38/38/38
f 42/42/42 41/41/41 40/40/40
f 43/43/43 42/42/42 40/40/40
f 46/46/46 45/45/45 44/44/44
f 47/47/47 46/46/46 44/44/44
f 48/48/48 46/46/46 47/47/47
f 49/49/49 48/48/48 47/47/47
f 50/50/50 48/48/48 49/49/49
f 51/51/51 50/50/50 49/49/49
f 52/52/52 50/50/50 51/51/51
f 53/53/53 52/52/52 51/51/51
f 54/54/54 52/52/52 53/53/53
f 55/55/55 54/54/54 53/53/53
f 58/58/58 57/57/57 56/56/56
f 59/59/59 58/58/58 56/56/56
f 60/60/60 58/58/58 59/59/59
f 59/59/59 56/56/56 61/61/61
f 62/62/62 60/60/60 59/59/59
f 63/63/63 59/59/59 61/61/61
f 62/62/62 59/59/59 63/63/63
f 63/63/63 61/61/61 64/64/64
f 65/65/65 62/62/62 63/63/63
f 66/66/66 63/63/63 64/64/64
f 65/65/65 63/63/63 66/66/66
f 66/66/66 64/64/64 67/67/67
f 68/68/68 65/65/65 66/66/66
f 69/69/69 66/66/66 67/67/67
f 68/68/68 66/66/66 69/69/69
f 69/69/69 67/67/67 70/70/70
f 71/71/71 68/68/68 69/69/69
f 72/72/72 69/69/69 70/70/70
f 71/71/71 69/69/69 72/72/72
f 73/73/73 71/71/71 72/72/72
f 76/76/76 75/75/75 74/74/74
f 77/77/77 76/76/76 74/74/74
f 80/80/80 79/79/79 78/78/78
f 81/81/81 80/80/80 78/78/78
f 84/84/84 83/83/83 82/82/82
f 85/85/85 84/84/84 82/82/82
f 88/88/88 87/87/87 86/86/86
f 86/86/86 89/89/89 88/88/88
f 86/86/86 90/90/90 89/89/89
f 86/86/86 91/91/91 90/90/90
f 91/91/91 92/92/92 90/90/90
f 91/91/91 93/93/93 92/92/92
f 93/93/93 94/94/94 92/92/92
f 93/93/93 95/95/95 94/94/94
f 98/98/98 97/97/97 96/96/96
f 99/99/99 98/98/98 96/96/96
f 102/102/102 101/101/101 100/100/100
f 103/103/103 102/102/102 100/100/100
f 106/106/106 105/105/105 104/104/104
f 107/107/107 106/106/106 104/104/104
f 110/110/110 109/109/109 108/108/108
f 111/111/111 110/110/110 108/108/108
f 114/114/114 113/113/113 112/112/112
f 115/115/115 114/114/114 112/112/112
f 118/118/118 117/117/117 116/116/116
f 119/119/119 118/118/118 116/116/116
f 122/122/122 121/121/121 120/120/120
f 123/123/123 122/122/122 120/120/120
f 126/126/126 125/125/125 124/124/124
f 127/127/127 126/126/126 124/124/124
f 130/130/130 129/129/129 128/128/128
f 128/128/128 131/131/131 130/130/130
f 131/131/131 132/132/132 130/130/130
f 132/132/132 133/133/133 130/130/130
f 132/132/132 134/134/134 133/133/133
f 134/134/134 135/135/135 133/133/133
f 134/134/134 136/136/136 135/135/135
f 136/136/136 137/137/137 135/135/135
f 140/140/140 139/139/139 138/138/138
f 139/139/139 141/141/141 138/138/138
f 141/141/141 139/139/139 142/142/142
f 143/143/143 141/141/141 142/142/142
f 143/143/143 142/142/142 144/144/144
f 145/145/145 143/143/143 144/144/144
f 145/145/145 144/144/144 146/146/146
f 146/146/146 147/147/147 145/145/145
f 150/150/150 149/149/149 148/148/148
f 148/148/148 151/151/151 150/150/150
f 148/148/148 152/152/152 151/151/151
f 155/155/155 154/154/154 153/153/153
f 156/156/156 155/155/155 153/153/153
f 159/159/159 158/158/158 157/157/157
f 157/157/157 160/160/160 159/159/159
f 163/163/163 162/162/162 161/161/161
f 161/161/161 164/164/164 163/163/163
f 164/164/164 165/165/165 163/163/163
f 165/165/165 166/166/166 163/163/163
f 169/169/169 168/168/168 167/167/167
f 169/169/169 170/170/170 168/168/168
