g Dal_Unbrella_out_02
v -1.779488 -0.08388152 -4.296065
v -1.756342 -0.200946 -4.240187
v -1.616744 -0.2009459 -3.903167
v -1.576291 0.1601745 -3.805505
v -1.616744 0.2045287 -3.903167
v -1.756342 0.2045286 -4.240187
v -0.8802329 -0.06586234 -2.196159
v -0.8919164 0.1336008 -2.224472
v -0.9201223 0.1601747 -2.292824
v -4.296064 0.08746454 -1.779488
v -3.816067 0.2045289 -2.549814
v -4.240186 0.204529 -1.756343
v -3.866356 0.08746442 -2.583416
v -4.296064 -0.08388111 -1.779488
v -3.245298 0.2045288 -3.245298
v -3.866356 -0.08388124 -2.583416
v -3.288065 0.0874643 -3.288066
v -2.549814 0.2045287 -3.816068
v -3.288065 -0.08388136 -3.288066
v -2.583416 0.08746421 -3.866357
v -1.756342 0.2045286 -4.240187
v -2.583416 -0.08388146 -3.866357
v -1.779488 0.08746413 -4.296065
v -1.779488 -0.08388152 -4.296065
v -3.816067 0.2045289 -2.549814
v -3.903167 0.2045291 -1.616745
v -4.240186 0.204529 -1.756343
v -3.512756 0.2045289 -2.347149
v -3.805505 0.1601748 -1.576292
v -3.245298 0.2045288 -3.245298
v -3.424864 0.1601747 -2.288421
v -2.987355 0.2045288 -2.987355
v -2.549814 0.2045287 -3.816068
v -2.912607 0.1601746 -2.912607
v -2.347149 0.2045288 -3.512758
v -1.756342 0.2045286 -4.240187
v -2.28842 0.1601745 -3.424864
v -1.616744 0.2045287 -3.903167
v -1.576291 0.1601745 -3.805505
v -0.9201223 0.1601747 -2.292824
v -0.8919164 0.1336008 -2.224472
v -1.708119 0.1336008 -1.774877
v -1.751339 0.1601748 -1.834959
v -1.751339 0.1601748 -1.834959
v -1.708119 0.1336008 -1.774877
v -2.312651 0.133601 -1.035845
v -2.383838 0.1601749 -1.061616
v -2.28842 0.1601745 -3.424864
v -1.576291 0.1601745 -3.805505
v -0.9201223 0.1601747 -2.292824
v -2.912607 0.1601746 -2.912607
v -3.424864 0.1601747 -2.288421
v -1.751339 0.1601748 -1.834959
v -3.805505 0.1601748 -1.576292
v -2.383838 0.1601749 -1.061616
v -2.583416 -0.08388146 -3.866357
v -1.756342 -0.200946 -4.240187
v -1.779488 -0.08388152 -4.296065
v -2.549814 -0.2009459 -3.816068
v -3.288065 -0.08388136 -3.288066
v -3.245298 -0.2009458 -3.245298
v -3.866356 -0.08388124 -2.583416
v -3.816067 -0.2009457 -2.549814
v -4.296064 -0.08388111 -1.779488
v -4.240186 -0.2009456 -1.756343
v -3.816067 -0.2009457 -2.549814
v -4.240186 -0.2009456 -1.756343
v -3.903167 -0.2009456 -1.616745
v -3.512756 -0.2009457 -2.347149
v -3.805505 -0.1565913 -1.576292
v -3.245298 -0.2009458 -3.245298
v -3.424864 -0.1565914 -2.288421
v -2.987355 -0.2009458 -2.987355
v -2.549814 -0.2009459 -3.816068
v -2.912607 -0.1565915 -2.912607
v -2.347149 -0.2009459 -3.512758
v -1.756342 -0.200946 -4.240187
v -2.28842 -0.1565916 -3.424864
v -1.616744 -0.2009459 -3.903167
v -1.576291 -0.1565917 -3.805505
v -0.9201223 -0.1565914 -2.292824
v -1.751339 -0.1565914 -1.834959
v -1.708119 -0.1300174 -1.774877
v -0.8919164 -0.1300175 -2.224472
v -0.8919164 -0.1300175 -2.224472
v -1.708119 -0.1300174 -1.774877
v -1.690216 -0.06586226 -1.74999
v -0.8802329 -0.06586234 -2.196159
v -1.751339 -0.1565914 -1.834959
v -2.383838 -0.1565913 -1.061616
v -2.312651 -0.1300173 -1.035845
v -1.708119 -0.1300174 -1.774877
v -1.708119 -0.1300174 -1.774877
v -2.312651 -0.1300173 -1.035845
v -2.283165 -0.06586214 -1.02517
v -1.690216 -0.06586226 -1.74999
v -0.9201223 -0.1565914 -2.292824
v -1.576291 -0.1565917 -3.805505
v -2.28842 -0.1565916 -3.424864
v -2.912607 -0.1565915 -2.912607
v -3.424864 -0.1565914 -2.288421
v -1.751339 -0.1565914 -1.834959
v -3.805505 -0.1565913 -1.576292
v -2.383838 -0.1565913 -1.061616
v -1.708119 0.1336008 -1.774877
v -1.690216 -0.06586226 -1.74999
v -2.283165 -0.06586214 -1.02517
v -2.312651 0.133601 -1.035845
v -1.708119 0.1336008 -1.774877
v -0.8919164 0.1336008 -2.224472
v -0.8802329 -0.06586234 -2.196159
v -1.690216 -0.06586226 -1.74999
v -0.9201223 0.1601747 -2.292824
v -1.576291 0.1601745 -3.805505
v -1.576291 -0.1565917 -3.805505
v -0.9201223 -0.1565914 -2.292824
v -0.9201223 0.1601747 -2.292824
v -0.8919164 -0.1300175 -2.224472
v -0.8802329 -0.06586234 -2.196159
v -1.616744 -0.2009459 -3.903167
v -1.576291 -0.1565917 -3.805505
v -1.779488 -0.08388152 -4.296065
v -1.576291 0.1601745 -3.805505
v -1.779488 0.08746413 -4.296065
v -1.756342 0.2045286 -4.240187
v -4.240186 -0.2009456 -1.756343
v -4.296064 -0.08388111 -1.779488
v -4.296064 0.08746454 -1.779488
v -4.240186 0.204529 -1.756343
v -3.903167 -0.2009456 -1.616745
v -3.903167 0.2045291 -1.616745
v -3.805505 -0.1565913 -1.576292
v -3.805505 0.1601748 -1.576292
v -2.383838 0.1601749 -1.061616
v -2.383838 -0.1565913 -1.061616
v -2.312651 -0.1300173 -1.035845
v -2.312651 0.133601 -1.035845
v -2.283165 -0.06586214 -1.02517
vt 0.9614258 0.6826172
vt 0.9555664 0.6801758
vt 0.9204102 0.6655273
vt 0.9101563 0.6611328
vt 0.9204102 0.6655273
vt 0.9555664 0.6801758
vt 0.7412109 0.5883789
vt 0.7441406 0.5893555
vt 0.7514648 0.5922852
vt 0.6977539 0.9462891
vt 0.7783203 0.8959961
vt 0.6953125 0.9404297
vt 0.7817383 0.9008789
vt 0.6977539 0.9462891
vt 0.8510742 0.8359375
vt 0.7817383 0.9008789
vt 0.855957 0.840332
vt 0.9111328 0.7631836
vt 0.855957 0.840332
vt 0.9165039 0.7666016
vt 0.9555664 0.6801758
vt 0.9165039 0.7666016
vt 0.9614258 0.6826172
vt 0.9614258 0.6826172
vt 0.7783203 0.8959961
vt 0.6806641 0.9047852
vt 0.6953125 0.9404297
vt 0.7573242 0.8637695
vt 0.6762695 0.8945313
vt 0.8510742 0.8359375
vt 0.7509766 0.8549805
vt 0.8242188 0.809082
vt 0.9111328 0.7631836
vt 0.8164063 0.8012695
vt 0.8793945 0.7416992
vt 0.9555664 0.6801758
vt 0.8701172 0.7358398
vt 0.9204102 0.6655273
vt 0.9101563 0.6611328
vt 0.7514648 0.5922852
vt 0.7441406 0.5893555
vt 0.6972656 0.6748047
vt 0.7036133 0.6791992
vt 0.7036133 0.6791992
vt 0.6972656 0.6748047
vt 0.6196289 0.7382813
vt 0.6225586 0.7456055
vt 0.8701172 0.7358398
vt 0.9101563 0.6611328
vt 0.7514648 0.5922852
vt 0.8164063 0.8012695
vt 0.7509766 0.8549805
vt 0.7036133 0.6791992
vt 0.6762695 0.8945313
vt 0.6225586 0.7456055
vt 0.9165039 0.7666016
vt 0.9555664 0.6801758
vt 0.9614258 0.6826172
vt 0.9111328 0.7631836
vt 0.855957 0.840332
vt 0.8510742 0.8359375
vt 0.7817383 0.9008789
vt 0.7783203 0.8959961
vt 0.6977539 0.9462891
vt 0.6953125 0.9404297
vt 0.7783203 0.8959961
vt 0.6953125 0.9404297
vt 0.6806641 0.9047852
vt 0.7573242 0.8637695
vt 0.6762695 0.8945313
vt 0.8510742 0.8359375
vt 0.7509766 0.8549805
vt 0.8242188 0.809082
vt 0.9111328 0.7631836
vt 0.8164063 0.8012695
vt 0.8793945 0.7416992
vt 0.9555664 0.6801758
vt 0.8701172 0.7358398
vt 0.9204102 0.6655273
vt 0.9101563 0.6611328
vt 0.7514648 0.5922852
vt 0.7036133 0.6791992
vt 0.6972656 0.6748047
vt 0.7441406 0.5893555
vt 0.7441406 0.5893555
vt 0.6972656 0.6748047
vt 0.6948242 0.6728516
vt 0.7412109 0.5883789
vt 0.7036133 0.6791992
vt 0.6225586 0.7456055
vt 0.6196289 0.7382813
vt 0.6972656 0.6748047
vt 0.6972656 0.6748047
vt 0.6196289 0.7382813
vt 0.6186523 0.7353516
vt 0.6948242 0.6728516
vt 0.7514648 0.5922852
vt 0.9101563 0.6611328
vt 0.8701172 0.7358398
vt 0.8164063 0.8012695
vt 0.7509766 0.8549805
vt 0.7036133 0.6791992
vt 0.6762695 0.8945313
vt 0.6225586 0.7456055
vt 0.6972656 0.6748047
vt 0.6948242 0.6728516
vt 0.6186523 0.7353516
vt 0.6196289 0.7382813
vt 0.6972656 0.6748047
vt 0.7441406 0.5893555
vt 0.7412109 0.5883789
vt 0.6948242 0.6728516
vt 0.7514648 0.5922852
vt 0.9101563 0.6611328
vt 0.9101563 0.6611328
vt 0.7514648 0.5922852
vt 0.7514648 0.5922852
vt 0.7441406 0.5893555
vt 0.7412109 0.5883789
vt 0.9204102 0.6655273
vt 0.9101563 0.6611328
vt 0.9614258 0.6826172
vt 0.9101563 0.6611328
vt 0.9614258 0.6826172
vt 0.9555664 0.6801758
vt 0.6953125 0.9404297
vt 0.6977539 0.9462891
vt 0.6977539 0.9462891
vt 0.6953125 0.9404297
vt 0.6806641 0.9047852
vt 0.6806641 0.9047852
vt 0.6762695 0.8945313
vt 0.6762695 0.8945313
vt 0.6225586 0.7456055
vt 0.6225586 0.7456055
vt 0.6196289 0.7382813
vt 0.6196289 0.7382813
vt 0.6186523 0.7353516
vn 0.9238281 0 -0.3825684
vn 0.9238281 0 -0.3825684
vn 0.9238281 0 -0.3825684
vn 0.9238281 0 -0.3825684
vn 0.9238281 0 -0.3825684
vn 0.9238281 0 -0.3825684
vn 0.9243164 0 -0.3813477
vn 0.9243164 0 -0.3813477
vn 0.9243164 0 -0.3813477
vn -0.8579102 0.2318115 -0.4584961
vn -0.7387695 0.4589844 -0.4936523
vn -0.7841797 0.4572754 -0.4191895
vn -0.8085938 0.2329102 -0.5405273
vn -0.8579102 -0.2318115 -0.4584961
vn -0.628418 0.4589844 -0.628418
vn -0.8085938 -0.2329102 -0.5405273
vn -0.6875 0.2329102 -0.6875
vn -0.4936523 0.4589844 -0.7387695
vn -0.6875 -0.2329102 -0.6875
vn -0.5405273 0.2329102 -0.8085938
vn -0.4191895 0.4572754 -0.7841797
vn -0.5405273 -0.2329102 -0.8085938
vn -0.4584961 0.2318115 -0.8579102
vn -0.4584961 -0.2318115 -0.8579102
vn 0 1 0
vn 0.1643066 0.9824219 0.08782959
vn 0 1 0
vn 0.1541748 0.9824219 0.1030273
vn 0.3425293 0.9213867 0.1831055
vn 0 1 0
vn 0.3217773 0.921875 0.2149658
vn 0.1311035 0.9824219 0.1311035
vn 0 1 0
vn 0.2736816 0.921875 0.2736816
vn 0.1030273 0.9824219 0.1541748
vn 0 1 0
vn 0.2149658 0.921875 0.3217773
vn 0.08782959 0.9824219 0.1643066
vn 0.1831055 0.9213867 0.3425293
vn 0.1640625 0.9404297 0.2978516
vn 0.1640625 0.9404297 0.2978516
vn 0.1640625 0.9404297 0.2978516
vn 0.1640625 0.9404297 0.2978516
vn 0.2697754 0.9375 0.2207031
vn 0.2697754 0.9375 0.2207031
vn 0.2697754 0.9375 0.2207031
vn 0.2697754 0.9375 0.2207031
vn 0 1 0
vn 0 1 0
vn 0 1 0
vn 0 1 0
vn 0 1 0
vn 0 1 0
vn 0 1 0
vn 0 1 0
vn -0.5405273 -0.2329102 -0.8085938
vn -0.4191895 -0.4572754 -0.7841797
vn -0.4584961 -0.2318115 -0.8579102
vn -0.4936523 -0.4589844 -0.7387695
vn -0.6875 -0.2329102 -0.6875
vn -0.628418 -0.4589844 -0.628418
vn -0.8085938 -0.2329102 -0.5405273
vn -0.7387695 -0.4589844 -0.4936523
vn -0.8579102 -0.2318115 -0.4584961
vn -0.7841797 -0.4572754 -0.4191895
vn 0 -1 0
vn 0 -1 0
vn 0.1643066 -0.9824219 0.08782959
vn 0.1541748 -0.9824219 0.1030273
vn 0.3425293 -0.9213867 0.1831055
vn 0 -1 0
vn 0.3217773 -0.921875 0.2149658
vn 0.1311035 -0.9824219 0.1311035
vn 0 -1 0
vn 0.2736816 -0.921875 0.2736816
vn 0.1030273 -0.9824219 0.1541748
vn 0 -1 0
vn 0.2149658 -0.921875 0.3217773
vn 0.08782959 -0.9824219 0.1643066
vn 0.1831055 -0.9213867 0.3425293
vn 0.1640625 -0.9404297 0.2978516
vn 0.1640625 -0.9404297 0.2978516
vn 0.1640625 -0.9404297 0.2978516
vn 0.1640625 -0.9404297 0.2978516
vn 0.4360352 -0.4287109 0.7915039
vn 0.4360352 -0.4287109 0.7915039
vn 0.4360352 -0.4287109 0.7915039
vn 0.4360352 -0.4287109 0.7915039
vn 0.2697754 -0.9375 0.2207031
vn 0.2697754 -0.9375 0.2207031
vn 0.2697754 -0.9375 0.2207031
vn 0.2697754 -0.9375 0.2207031
vn 0.7026367 -0.4189453 0.574707
vn 0.7026367 -0.4189453 0.574707
vn 0.7026367 -0.4189453 0.574707
vn 0.7026367 -0.4189453 0.574707
vn 0 -1 0
vn 0 -1 0
vn 0 -1 0
vn 0 -1 0
vn 0 -1 0
vn 0 -1 0
vn 0 -1 0
vn 0 -1 0
vn 0.765625 0.1467285 0.6264648
vn 0.765625 0.1467285 0.6264648
vn 0.765625 0.1467285 0.6264648
vn 0.765625 0.1467285 0.6264648
vn 0.4770508 0.1508789 0.8657227
vn 0.4770508 0.1508789 0.8657227
vn 0.4770508 0.1508789 0.8657227
vn 0.4770508 0.1508789 0.8657227
vn 0.9174805 0 -0.3979492
vn 0.9174805 0 -0.3979492
vn 0.9174805 0 -0.3979492
vn 0.9174805 0 -0.3979492
vn 0.9243164 0 -0.3813477
vn 0.9243164 0 -0.3813477
vn 0.9243164 0 -0.3813477
vn 0.9238281 0 -0.3825684
vn 0.9238281 0 -0.3825684
vn 0.9238281 0 -0.3825684
vn 0.9238281 0 -0.3825684
vn 0.9238281 0 -0.3825684
vn 0.9238281 0 -0.3825684
vn -0.3825684 0 0.9238281
vn -0.3825684 0 0.9238281
vn -0.3825684 0 0.9238281
vn -0.3825684 0 0.9238281
vn -0.3825684 0 0.9238281
vn -0.3825684 0 0.9238281
vn -0.340332 0 0.9404297
vn -0.340332 0 0.9404297
vn -0.340332 0 0.9404297
vn -0.340332 0 0.9404297
vn -0.340332 0 0.9404297
vn -0.340332 0 0.9404297
vn -0.340332 0 0.9404297
g Dal_Unbrella_out_02_0
f 3/3/3 2/2/2 1/1/1
f 6/6/6 5/5/5 4/4/4
f 9/9/9 8/8/8 7/7/7
f 12/12/12 11/11/11 10/10/10
f 11/11/11 13/13/13 10/10/10
f 10/10/10 13/13/13 14/14/14
f 11/11/11 15/15/15 13/13/13
f 13/13/13 16/16/16 14/14/14
f 15/15/15 17/17/17 13/13/13
f 13/13/13 17/17/17 16/16/16
f 15/15/15 18/18/18 17/17/17
f 17/17/17 19/19/19 16/16/16
f 18/18/18 20/20/20 17/17/17
f 17/17/17 20/20/20 19/19/19
f 18/18/18 21/21/21 20/20/20
f 20/20/20 22/22/22 19/19/19
f 21/21/21 23/23/23 20/20/20
f 20/20/20 23/23/23 22/22/22
f 23/23/23 24/24/24 22/22/22
f 27/27/27 26/26/26 25/25/25
f 26/26/26 28/28/28 25/25/25
f 26/26/26 29/29/29 28/28/28
f 25/25/25 28/28/28 30/30/30
f 29/29/29 31/31/31 28/28/28
f 28/28/28 32/32/32 30/30/30
f 28/28/28 31/31/31 32/32/32
f 30/30/30 32/32/32 33/33/33
f 31/31/31 34/34/34 32/32/32
f 32/32/32 35/35/35 33/33/33
f 32/32/32 34/34/34 35/35/35
f 33/33/33 35/35/35 36/36/36
f 34/34/34 37/37/37 35/35/35
f 35/35/35 38/38/38 36/36/36
f 35/35/35 37/37/37 38/38/38
f 37/37/37 39/39/39 38/38/38
f 42/42/42 41/41/41 40/40/40
f 43/43/43 42/42/42 40/40/40
f 46/46/46 45/45/45 44/44/44
f 47/47/47 46/46/46 44/44/44
f 50/50/50 49/49/49 48/48/48
f 48/48/48 51/51/51 50/50/50
f 51/51/51 52/52/52 50/50/50
f 52/52/52 53/53/53 50/50/50
f 52/52/52 54/54/54 53/53/53
f 54/54/54 55/55/55 53/53/53
f 58/58/58 57/57/57 56/56/56
f 57/57/57 59/59/59 56/56/56
f 56/56/56 59/59/59 60/60/60
f 59/59/59 61/61/61 60/60/60
f 60/60/60 61/61/61 62/62/62
f 61/61/61 63/63/63 62/62/62
f 62/62/62 63/63/63 64/64/64
f 63/63/63 65/65/65 64/64/64
f 68/68/68 67/67/67 66/66/66
f 69/69/69 68/68/68 66/66/66
f 70/70/70 68/68/68 69/69/69
f 69/69/69 66/66/66 71/71/71
f 72/72/72 70/70/70 69/69/69
f 73/73/73 69/69/69 71/71/71
f 72/72/72 69/69/69 73/73/73
f 73/73/73 71/71/71 74/74/74
f 75/75/75 72/72/72 73/73/73
f 76/76/76 73/73/73 74/74/74
f 75/75/75 73/73/73 76/76/76
f 76/76/76 74/74/74 77/77/77
f 78/78/78 75/75/75 76/76/76
f 79/79/79 76/76/76 77/77/77
f 78/78/78 76/76/76 79/79/79
f 80/80/80 78/78/78 79/79/79
f 83/83/83 82/82/82 81/81/81
f 84/84/84 83/83/83 81/81/81
f 87/87/87 86/86/86 85/85/85
f 88/88/88 87/87/87 85/85/85
f 91/91/91 90/90/90 89/89/89
f 92/92/92 91/91/91 89/89/89
f 95/95/95 94/94/94 93/93/93
f 96/96/96 95/95/95 93/93/93
f 99/99/99 98/98/98 97/97/97
f 97/97/97 100/100/100 99/99/99
f 97/97/97 101/101/101 100/100/100
f 97/97/97 102/102/102 101/101/101
f 102/102/102 103/103/103 101/101/101
f 102/102/102 104/104/104 103/103/103
f 107/107/107 106/106/106 105/105/105
f 108/108/108 107/107/107 105/105/105
f 111/111/111 110/110/110 109/109/109
f 112/112/112 111/111/111 109/109/109
f 115/115/115 114/114/114 113/113/113
f 116/116/116 115/115/115 113/113/113
f 118/118/118 116/116/116 117/117/117
f 117/117/117 119/119/119 118/118/118
f 122/122/122 121/121/121 120/120/120
f 122/122/122 123/123/123 121/121/121
f 122/122/122 124/124/124 123/123/123
f 124/124/124 125/125/125 123/123/123
f 128/128/128 127/127/127 126/126/126
f 129/129/129 128/128/128 126/126/126
f 129/129/129 126/126/126 130/130/130
f 131/131/131 129/129/129 130/130/130
f 131/131/131 130/130/130 132/132/132
f 132/132/132 133/133/133 131/131/131
f 133/133/133 132/132/132 134/134/134
f 132/132/132 135/135/135 134/134/134
f 134/134/134 135/135/135 136/136/136
f 137/137/137 134/134/134 136/136/136
f 136/136/136 138/138/138 137/137/137
