g Dal_Unbrella_in_02
v 0.07615565 0.1798799 -0.4182848
v 0.1243038 0.1590939 -0.3603419
v 0.144248 0.108912 -0.3363412
v -1.012874 0.17988 -0.006646819
v -1.534456 0.1590939 -0.3495253
v -1.512028 0.1798799 -0.4051645
v -1.040525 0.159094 0.04482239
v -0.9107418 0.17988 0.02632342
v -1.543747 0.108912 -0.3264788
v -0.9096088 0.159094 0.0870854
v -0.8194923 0.17988 -0.006940492
v -1.05198 0.108912 0.06614172
v -1.543747 -0.1053281 -0.3264787
v -1.05198 -0.105328 0.06614175
v -0.9091387 -0.105328 0.1122539
v -0.9091387 0.108912 0.1122538
v -0.7681179 -0.105328 0.06084621
v -0.783165 0.159094 0.04099193
v -0.5263214 0.1798799 -0.4147457
v -0.7681179 0.108912 0.06084617
v -0.4843092 -0.1053281 -0.3339355
v -0.4966145 0.1590939 -0.3576043
v -0.2020064 0.1798799 -0.418432
v -0.2519741 0.1590939 -0.360385
v -0.4843092 0.108912 -0.3339355
v -0.2726707 0.108912 -0.3363411
v -0.2726707 -0.1053281 -0.336341
v -0.2020064 0.1798799 -0.418432
v -0.2519741 0.1590939 -0.360385
v 0.1243038 0.1590939 -0.3603419
v 0.07615565 0.1798799 -0.4182848
v 0.4231729 0.1798799 -0.4149349
v 0.4021539 0.1590939 -0.3576597
v 0.144248 0.108912 -0.3363412
v 0.3934479 0.108912 -0.3339356
v 0.3934479 -0.1053281 -0.3339355
v 0.144248 -0.1053281 -0.3363411
v 0.07615565 0.1798799 -0.4182848
v 0.1243038 -0.15551 -0.3603419
v 0.07615565 -0.1762961 -0.4182847
v -0.8194923 0.17988 -0.006940492
v -0.9107418 0.17988 0.02632342
v -1.012874 0.17988 -0.006646819
v -1.512028 0.1798799 -0.4051645
v -0.5263214 0.1798799 -0.4147457
v -0.2020064 0.1798799 -0.418432
v 0.9449281 0.1798797 -2.120548
v 0.07615565 0.1798799 -0.4182848
v 0.4231729 0.1798799 -0.4149349
v -1.012874 -0.176296 -0.006646761
v -1.512028 -0.176296 -0.4051645
v -1.534456 -0.15551 -0.3495252
v -1.040525 -0.1555099 0.04482244
v -1.543747 -0.1053281 -0.3264787
v -0.9107418 -0.176296 0.02632347
v -1.05198 -0.105328 0.06614175
v -0.9096088 -0.1555099 0.08708544
v -0.8194923 -0.176296 -0.006940434
v -0.9091387 -0.105328 0.1122539
v -0.783165 -0.1555099 0.04099198
v -0.5263214 -0.1762961 -0.4147456
v -0.7681179 -0.105328 0.06084621
v -0.4966145 -0.15551 -0.3576042
v -0.2020064 -0.1762961 -0.418432
v -0.4843092 -0.1053281 -0.3339355
v -0.2519741 -0.15551 -0.3603849
v -0.2726707 -0.1053281 -0.336341
v 0.144248 -0.1053281 -0.3363411
v 0.3934479 -0.1053281 -0.3339355
v 0.4021539 -0.15551 -0.3576597
v 0.1243038 -0.15551 -0.3603419
v 0.4231729 -0.1762961 -0.4149349
v 0.07615565 -0.1762961 -0.4182847
v 0.07615565 -0.1762961 -0.4182847
v 0.4231729 -0.1762961 -0.4149349
v 0.9449281 -0.1762963 -2.120548
v -0.2020064 -0.1762961 -0.418432
v -1.512028 -0.176296 -0.4051645
v -0.5263214 -0.1762961 -0.4147456
v -0.8194923 -0.176296 -0.006940434
v -1.012874 -0.176296 -0.006646761
v -0.9107418 -0.176296 0.02632347
v -0.2020064 0.1798799 -0.418432
v 0.07615565 0.1798799 -0.4182848
v 0.07615565 -0.1762961 -0.4182847
v -0.2020064 -0.1762961 -0.418432
v -0.2519741 -0.15551 -0.3603849
v -0.2726707 -0.1053281 -0.336341
vt 0.5551758 0.4882813
vt 0.5488281 0.4833984
vt 0.5463867 0.4812012
vt 0.5117188 0.6025391
vt 0.5478516 0.6572266
vt 0.5537109 0.6547852
vt 0.5063477 0.6054688
vt 0.5083008 0.5917969
vt 0.5454102 0.6582031
vt 0.5019531 0.5917969
vt 0.5117188 0.5820313
vt 0.5043945 0.6064453
vt 0.5454102 0.6582031
vt 0.5043945 0.6064453
vt 0.4995117 0.5917969
vt 0.4995117 0.5917969
vt 0.5048828 0.5766602
vt 0.5068359 0.5786133
vt 0.5546875 0.5512695
vt 0.5048828 0.5766602
vt 0.5463867 0.546875
vt 0.5488281 0.5483398
vt 0.5551758 0.5175781
vt 0.5488281 0.5229492
vt 0.5463867 0.546875
vt 0.5463867 0.5249023
vt 0.5463867 0.5249023
vt 0.5551758 0.5175781
vt 0.5488281 0.5229492
vt 0.5488281 0.4833984
vt 0.5551758 0.4882813
vt 0.5546875 0.4519043
vt 0.5488281 0.4541016
vt 0.5463867 0.4812012
vt 0.5463867 0.4550781
vt 0.5463867 0.4550781
vt 0.5463867 0.4812012
vt 0.5551758 0.4882813
vt 0.5488281 0.4833984
vt 0.5551758 0.4882813
vt 0.5117188 0.5820313
vt 0.5083008 0.5917969
vt 0.5117188 0.6025391
vt 0.5537109 0.6547852
vt 0.5546875 0.5512695
vt 0.5551758 0.5175781
vt 0.7333984 0.3972168
vt 0.5551758 0.4882813
vt 0.5546875 0.4519043
vt 0.5117188 0.6025391
vt 0.5537109 0.6547852
vt 0.5478516 0.6572266
vt 0.5063477 0.6054688
vt 0.5454102 0.6582031
vt 0.5083008 0.5917969
vt 0.5043945 0.6064453
vt 0.5019531 0.5917969
vt 0.5117188 0.5820313
vt 0.4995117 0.5917969
vt 0.5068359 0.5786133
vt 0.5546875 0.5512695
vt 0.5048828 0.5766602
vt 0.5488281 0.5483398
vt 0.5551758 0.5175781
vt 0.5463867 0.546875
vt 0.5488281 0.5229492
vt 0.5463867 0.5249023
vt 0.5463867 0.4812012
vt 0.5463867 0.4550781
vt 0.5488281 0.4541016
vt 0.5488281 0.4833984
vt 0.5546875 0.4519043
vt 0.5551758 0.4882813
vt 0.5551758 0.4882813
vt 0.5546875 0.4519043
vt 0.7333984 0.3972168
vt 0.5551758 0.5175781
vt 0.5537109 0.6547852
vt 0.5546875 0.5512695
vt 0.5117188 0.5820313
vt 0.5117188 0.6025391
vt 0.5083008 0.5917969
vt 0.5551758 0.5175781
vt 0.5551758 0.4882813
vt 0.5551758 0.4882813
vt 0.5551758 0.5175781
vt 0.5488281 0.5229492
vt 0.5463867 0.5249023
vn -0.769043 0 0.6391602
vn -0.769043 0 0.6391602
vn -0.3730469 0.1518555 0.9155273
vn -0.1586914 0.9423828 0.295166
vn -0.395752 0.7729492 0.4958496
vn -0.2121582 0.9404297 0.2658691
vn -0.3269043 0.7231445 0.6083984
vn 0.006038666 0.9462891 0.3234863
vn -0.6074219 0.2282715 0.7607422
vn 0.01302338 0.7158203 0.6982422
vn 0.1972656 0.9453125 0.2602539
vn -0.4619141 0.2174072 0.8598633
vn -0.6074219 -0.2282715 0.7607422
vn -0.4619141 -0.2174072 0.8598633
vn 0.01818848 -0.2203369 0.9750977
vn 0.01818848 0.2203369 0.9750977
vn 0.5893555 -0.2193604 0.7773438
vn 0.4211426 0.7167969 0.5556641
vn 0.1417236 0.9516602 0.2724609
vn 0.5893555 0.2193604 0.7773438
vn 0.4453125 -0.2600098 0.8569336
vn 0.2617188 0.8237305 0.503418
vn 0.003866196 0.9404297 0.3400879
vn 0.006542206 0.8178711 0.5756836
vn 0.4453125 0.2600098 0.8569336
vn 0.3659668 0.1520996 0.9179688
vn 0.3659668 -0.1520996 0.9179688
vn 0.3779297 0 0.9257813
vn 0.7578125 0 0.6523438
vn -0.005584717 0.815918 0.578125
vn -0.003282547 0.9404297 0.3400879
vn -0.003282547 0.9404297 0.3400879
vn -0.006057739 0.7783203 0.6274414
vn -0.3730469 0.1518555 0.9155273
vn -0.009391785 0.2297363 0.9731445
vn -0.009391785 -0.2297363 0.9731445
vn -0.3730469 -0.1518555 0.9155273
vn -0.769043 0 0.6391602
vn -0.769043 0 0.6391602
vn -0.769043 0 0.6391602
vn 0 1 0
vn 0 1 0
vn 0 1 0
vn 0 1 0
vn 0 1 0
vn 0 1 0
vn 0 1 0
vn 0 1 0
vn 0 1 0
vn -0.1586914 -0.9423828 0.295166
vn -0.2121582 -0.9404297 0.2658691
vn -0.395752 -0.7729492 0.4958496
vn -0.3269043 -0.7231445 0.6083984
vn -0.6074219 -0.2282715 0.7607422
vn 0.006034851 -0.9462891 0.3234863
vn -0.4619141 -0.2174072 0.8598633
vn 0.01302338 -0.7158203 0.6982422
vn 0.1972656 -0.9453125 0.2602539
vn 0.01818848 -0.2203369 0.9750977
vn 0.4211426 -0.7167969 0.5556641
vn 0.1417236 -0.9516602 0.2724609
vn 0.5893555 -0.2193604 0.7773438
vn 0.2617188 -0.8237305 0.503418
vn 0.003866196 -0.9404297 0.3400879
vn 0.4453125 -0.2600098 0.8569336
vn 0.006542206 -0.8178711 0.5756836
vn 0.3659668 -0.1520996 0.9179688
vn -0.3730469 -0.1518555 0.9155273
vn -0.009391785 -0.2297363 0.9731445
vn -0.006057739 -0.7783203 0.6274414
vn -0.005584717 -0.815918 0.578125
vn -0.003282547 -0.9404297 0.3400879
vn -0.003282547 -0.9404297 0.3400879
vn 0 -1 0
vn 0 -1 0
vn 0 -1 0
vn 0 -1 0
vn 0 -1 0
vn 0 -1 0
vn 0 -1 0
vn 0 -1 0
vn 0 -1 0
vn 0.3779297 0 0.9257813
vn -0.0005292892 0 1
vn -0.0005292892 0 1
vn 0.3779297 0 0.9257813
vn 0.7578125 0 0.6523438
vn 0.3659668 -0.1520996 0.9179688
g Dal_Unbrella_in_02_0
f 3/3/3 2/2/2 1/1/1
f 6/6/6 5/5/5 4/4/4
f 5/5/5 7/7/7 4/4/4
f 4/4/4 7/7/7 8/8/8
f 5/5/5 9/9/9 7/7/7
f 7/7/7 10/10/10 8/8/8
f 8/8/8 10/10/10 11/11/11
f 9/9/9 12/12/12 7/7/7
f 7/7/7 12/12/12 10/10/10
f 12/12/12 9/9/9 13/13/13
f 14/14/14 12/12/12 13/13/13
f 14/14/14 15/15/15 12/12/12
f 15/15/15 16/16/16 12/12/12
f 12/12/12 16/16/16 10/10/10
f 15/15/15 17/17/17 16/16/16
f 10/10/10 18/18/18 11/11/11
f 10/10/10 16/16/16 18/18/18
f 11/11/11 18/18/18 19/19/19
f 17/17/17 20/20/20 16/16/16
f 16/16/16 20/20/20 18/18/18
f 17/17/17 21/21/21 20/20/20
f 18/18/18 22/22/22 19/19/19
f 18/18/18 20/20/20 22/22/22
f 23/23/23 19/19/19 22/22/22
f 24/24/24 23/23/23 22/22/22
f 20/20/20 25/25/25 22/22/22
f 24/24/24 22/22/22 25/25/25
f 21/21/21 25/25/25 20/20/20
f 26/26/26 24/24/24 25/25/25
f 26/26/26 25/25/25 21/21/21
f 27/27/27 26/26/26 21/21/21
f 28/28/28 26/26/26 27/27/27
f 28/28/28 29/29/29 26/26/26
f 32/32/32 31/31/31 30/30/30
f 33/33/33 32/32/32 30/30/30
f 33/33/33 30/30/30 34/34/34
f 35/35/35 33/33/33 34/34/34
f 36/36/36 35/35/35 34/34/34
f 37/37/37 36/36/36 34/34/34
f 37/37/37 34/34/34 38/38/38
f 39/39/39 37/37/37 38/38/38
f 38/38/38 40/40/40 39/39/39
f 43/43/43 42/42/42 41/41/41
f 44/44/44 43/43/43 41/41/41
f 44/44/44 41/41/41 45/45/45
f 44/44/44 45/45/45 46/46/46
f 46/46/46 47/47/47 44/44/44
f 47/47/47 46/46/46 48/48/48
f 48/48/48 49/49/49 47/47/47
f 52/52/52 51/51/51 50/50/50
f 53/53/53 52/52/52 50/50/50
f 54/54/54 52/52/52 53/53/53
f 53/53/53 50/50/50 55/55/55
f 56/56/56 54/54/54 53/53/53
f 57/57/57 53/53/53 55/55/55
f 56/56/56 53/53/53 57/57/57
f 57/57/57 55/55/55 58/58/58
f 59/59/59 56/56/56 57/57/57
f 60/60/60 57/57/57 58/58/58
f 59/59/59 57/57/57 60/60/60
f 60/60/60 58/58/58 61/61/61
f 62/62/62 59/59/59 60/60/60
f 63/63/63 60/60/60 61/61/61
f 62/62/62 60/60/60 63/63/63
f 61/61/61 64/64/64 63/63/63
f 65/65/65 62/62/62 63/63/63
f 64/64/64 66/66/66 63/63/63
f 63/63/63 66/66/66 65/65/65
f 66/66/66 67/67/67 65/65/65
f 70/70/70 69/69/69 68/68/68
f 71/71/71 70/70/70 68/68/68
f 72/72/72 70/70/70 71/71/71
f 73/73/73 72/72/72 71/71/71
f 76/76/76 75/75/75 74/74/74
f 74/74/74 77/77/77 76/76/76
f 78/78/78 76/76/76 77/77/77
f 77/77/77 79/79/79 78/78/78
f 79/79/79 80/80/80 78/78/78
f 80/80/80 81/81/81 78/78/78
f 80/80/80 82/82/82 81/81/81
f 85/85/85 84/84/84 83/83/83
f 86/86/86 85/85/85 83/83/83
f 87/87/87 86/86/86 83/83/83
f 83/83/83 88/88/88 87/87/87
