g Dal_Circle_in_02
v -1.217096 -0.1974487 -1.821515
v -1.217096 0.1074639 -1.821515
v -1.54907 0.1074639 -1.549071
v -1.54907 -0.1974486 -1.549071
v -1.821514 0.107464 -1.217097
v -1.821514 -0.1974486 -1.217097
v -2.023958 0.107464 -0.8383512
v -2.023958 -0.1974485 -0.8383512
v -2.148623 0.1074641 -0.4273877
v -2.148623 -0.1974484 -0.4273877
v -2.190718 0.1074642 1.119595E-08
v -2.190718 -0.1974484 6.087251E-08
v -2.148624 0.1074642 0.4273844
v -2.148624 -0.1974483 0.4273845
v -1.217096 0.1074639 -1.821515
v -1.188992 0.1617502 -1.779452
v -1.5133 0.1617503 -1.5133
v -1.54907 0.1074639 -1.549071
v -1.779451 0.1617503 -1.188992
v -1.821514 0.107464 -1.217097
v -1.977221 0.1617504 -0.818992
v -2.023958 0.107464 -0.8383512
v -2.099007 0.1617504 -0.4175184
v -2.148623 0.1074641 -0.4273877
v -2.140129 0.1617505 1.402807E-10
v -2.190718 0.1074642 1.119595E-08
v -2.099007 0.1617506 0.4175152
v -2.148624 0.1074642 0.4273844
v -1.188992 0.1617502 -1.779452
v -1.117701 0.1976042 -1.672757
v -1.422562 0.1976042 -1.422563
v -1.5133 0.1617503 -1.5133
v -1.672756 0.1976043 -1.1177
v -1.779451 0.1617503 -1.188992
v -1.858667 0.1976044 -0.7698855
v -1.977221 0.1617504 -0.818992
v -1.97315 0.1976044 -0.3924842
v -2.099007 0.1617504 -0.4175184
v -2.011806 0.1976045 -1.87608E-08
v -2.140129 0.1617505 1.402807E-10
v -1.973152 0.1976045 0.3924811
v -2.099007 0.1617506 0.4175152
v -1.422562 0.1976042 -1.422563
v -1.117701 0.1976042 -1.672757
v 0.08556365 0.1976044 -0.2065738
v -1.672756 0.1976043 -1.1177
v -1.858667 0.1976044 -0.7698855
v -1.97315 0.1976044 -0.3924842
v -2.011806 0.1976045 -1.87608E-08
v -1.973152 0.1976045 0.3924811
v 0.09317397 -0.1974484 -0.2249443
v -1.217096 -0.1974487 -1.821515
v -1.54907 -0.1974486 -1.549071
v -1.821514 -0.1974486 -1.217097
v -2.023958 -0.1974485 -0.8383512
v -2.148623 -0.1974484 -0.4273877
v -2.190718 -0.1974484 6.087251E-08
v -2.148624 -0.1974483 0.4273845
v 0.08556365 0.1976044 -0.2065738
v 0.09317397 -0.1974484 -0.2249443
v -2.148624 -0.1974483 0.4273845
v -1.973152 0.1976045 0.3924811
v -2.148624 -0.1974483 0.4273845
v -2.099007 0.1617506 0.4175152
v -1.973152 0.1976045 0.3924811
v -2.148624 0.1074642 0.4273844
v -1.217096 0.1074639 -1.821515
v -1.217096 -0.1974487 -1.821515
v 0.09317397 -0.1974484 -0.2249443
v 0.08556365 0.1976044 -0.2065738
v -1.188992 0.1617502 -1.779452
v -1.117701 0.1976042 -1.672757
vt 0.373291 0.6894531
vt 0.373291 0.6894531
vt 0.338623 0.6611328
vt 0.338623 0.6611328
vt 0.3100586 0.6264648
vt 0.3100586 0.6264648
vt 0.2890625 0.5869141
vt 0.2890625 0.5869141
vt 0.2758789 0.5439453
vt 0.2758789 0.5439453
vt 0.2714844 0.4992676
vt 0.2714844 0.4992676
vt 0.2758789 0.4545898
vt 0.2758789 0.4545898
vt 0.373291 0.6894531
vt 0.3762207 0.6850586
vt 0.3422852 0.6572266
vt 0.338623 0.6611328
vt 0.3144531 0.6235352
vt 0.3100586 0.6264648
vt 0.2939453 0.5844727
vt 0.2890625 0.5869141
vt 0.2810059 0.5429688
vt 0.2758789 0.5439453
vt 0.2768555 0.4992676
vt 0.2714844 0.4992676
vt 0.2810059 0.4555664
vt 0.2758789 0.4545898
vt 0.3762207 0.6850586
vt 0.3835449 0.6738281
vt 0.3518066 0.6479492
vt 0.3422852 0.6572266
vt 0.3256836 0.6157227
vt 0.3144531 0.6235352
vt 0.3061523 0.5795898
vt 0.2939453 0.5844727
vt 0.2941895 0.5400391
vt 0.2810059 0.5429688
vt 0.2902832 0.4992676
vt 0.2768555 0.4992676
vt 0.2941895 0.458252
vt 0.2810059 0.4555664
vt 0.3518066 0.6479492
vt 0.3835449 0.6738281
vt 0.5092773 0.5205078
vt 0.3256836 0.6157227
vt 0.3061523 0.5795898
vt 0.2941895 0.5400391
vt 0.2902832 0.4992676
vt 0.2941895 0.458252
vt 0.5102539 0.5224609
vt 0.373291 0.6894531
vt 0.338623 0.6611328
vt 0.3100586 0.6264648
vt 0.2890625 0.5869141
vt 0.2758789 0.5439453
vt 0.2714844 0.4992676
vt 0.2758789 0.4545898
vt 0.5092773 0.5205078
vt 0.5102539 0.5224609
vt 0.2758789 0.4545898
vt 0.2941895 0.458252
vt 0.2758789 0.4545898
vt 0.2810059 0.4555664
vt 0.2941895 0.458252
vt 0.2758789 0.4545898
vt 0.373291 0.6894531
vt 0.373291 0.6894531
vt 0.5102539 0.5224609
vt 0.5092773 0.5205078
vt 0.3762207 0.6850586
vt 0.3835449 0.6738281
vn -0.6342773 0 -0.7729492
vn -0.6342773 0 -0.7729492
vn -0.7070313 0 -0.7070313
vn -0.7070313 0 -0.7070313
vn -0.831543 0 -0.5556641
vn -0.831543 0 -0.5556641
vn -0.9238281 0 -0.3825684
vn -0.9238281 0 -0.3825684
vn -0.980957 0 -0.1950684
vn -0.980957 0 -0.1950684
vn -1 0 0
vn -1 0 0
vn -0.9951172 0 0.09802246
vn -0.9951172 0 0.09802246
vn -0.4650879 0.6801758 -0.5668945
vn -0.4650879 0.6801758 -0.5668945
vn -0.5170898 0.6816406 -0.5170898
vn -0.5170898 0.6816406 -0.5170898
vn -0.6083984 0.6816406 -0.4064941
vn -0.6083984 0.6816406 -0.4064941
vn -0.6757813 0.6816406 -0.2800293
vn -0.6757813 0.6816406 -0.2800293
vn -0.7172852 0.6816406 -0.1427002
vn -0.7172852 0.6816406 -0.1427002
vn -0.7314453 0.6816406 0
vn -0.7314453 0.6816406 0
vn -0.7294922 0.6801758 0.07183838
vn -0.7294922 0.6801758 0.07183838
vn -0.1715088 0.9628906 -0.2089844
vn -0.1715088 0.9628906 -0.2089844
vn -0.1903076 0.9628906 -0.1903076
vn -0.1903076 0.9628906 -0.1903076
vn -0.2237549 0.9628906 -0.1495361
vn -0.2237549 0.9628906 -0.1495361
vn -0.2486572 0.9628906 -0.1029663
vn -0.2486572 0.9628906 -0.1029663
vn -0.263916 0.9628906 -0.05249023
vn -0.263916 0.9628906 -0.05249023
vn -0.269043 0.9628906 0
vn -0.269043 0.9628906 0
vn -0.269043 0.9628906 0.02648926
vn -0.269043 0.9628906 0.02648926
vn 0 1 0
vn 0 1 0
vn 0 1 0
vn 0 1 0
vn 0 1 0
vn 0 1 0
vn 0 1 0
vn 0 1 0
vn 0 -1 0
vn 0 -1 0
vn 0 -1 0
vn 0 -1 0
vn 0 -1 0
vn 0 -1 0
vn 0 -1 0
vn 0 -1 0
vn 0.2763672 -0.03796387 0.9604492
vn 0.2763672 -0.03796387 0.9604492
vn 0.2763672 -0.03796387 0.9604492
vn 0.2763672 -0.03796387 0.9604492
vn 0.2763672 -0.03796387 0.9604492
vn 0.2763672 -0.03796387 0.9604492
vn 0.2763672 -0.03796387 0.9604492
vn 0.2763672 -0.03796387 0.9604492
vn 0.7744141 0.04272461 -0.6308594
vn 0.7744141 0.04272461 -0.6308594
vn 0.7744141 0.04272461 -0.6308594
vn 0.7744141 0.04272461 -0.6308594
vn 0.7744141 0.04272461 -0.6308594
vn 0.7744141 0.04272461 -0.6308594
g Dal_Circle_in_02_0
f 3/3/3 2/2/2 1/1/1
f 4/4/4 3/3/3 1/1/1
f 5/5/5 3/3/3 4/4/4
f 6/6/6 5/5/5 4/4/4
f 7/7/7 5/5/5 6/6/6
f 8/8/8 7/7/7 6/6/6
f 9/9/9 7/7/7 8/8/8
f 10/10/10 9/9/9 8/8/8
f 11/11/11 9/9/9 10/10/10
f 12/12/12 11/11/11 10/10/10
f 13/13/13 11/11/11 12/12/12
f 14/14/14 13/13/13 12/12/12
f 17/17/17 16/16/16 15/15/15
f 18/18/18 17/17/17 15/15/15
f 19/19/19 17/17/17 18/18/18
f 20/20/20 19/19/19 18/18/18
f 21/21/21 19/19/19 20/20/20
f 22/22/22 21/21/21 20/20/20
f 23/23/23 21/21/21 22/22/22
f 24/24/24 23/23/23 22/22/22
f 25/25/25 23/23/23 24/24/24
f 26/26/26 25/25/25 24/24/24
f 27/27/27 25/25/25 26/26/26
f 28/28/28 27/27/27 26/26/26
f 31/31/31 30/30/30 29/29/29
f 32/32/32 31/31/31 29/29/29
f 33/33/33 31/31/31 32/32/32
f 34/34/34 33/33/33 32/32/32
f 35/35/35 33/33/33 34/34/34
f 36/36/36 35/35/35 34/34/34
f 37/37/37 35/35/35 36/36/36
f 38/38/38 37/37/37 36/36/36
f 39/39/39 37/37/37 38/38/38
f 40/40/40 39/39/39 38/38/38
f 41/41/41 39/39/39 40/40/40
f 42/42/42 41/41/41 40/40/40
f 45/45/45 44/44/44 43/43/43
f 43/43/43 46/46/46 45/45/45
f 46/46/46 47/47/47 45/45/45
f 47/47/47 48/48/48 45/45/45
f 48/48/48 49/49/49 45/45/45
f 49/49/49 50/50/50 45/45/45
f 53/53/53 52/52/52 51/51/51
f 51/51/51 54/54/54 53/53/53
f 51/51/51 55/55/55 54/54/54
f 51/51/51 56/56/56 55/55/55
f 51/51/51 57/57/57 56/56/56
f 51/51/51 58/58/58 57/57/57
f 61/61/61 60/60/60 59/59/59
f 59/59/59 62/62/62 61/61/61
f 65/65/65 64/64/64 63/63/63
f 64/64/64 66/66/66 63/63/63
f 69/69/69 68/68/68 67/67/67
f 67/67/67 70/70/70 69/69/69
f 67/67/67 71/71/71 70/70/70
f 71/71/71 72/72/72 70/70/70
