g Dal_Circle_out_08
v 4.240187 -0.200945 1.756345
v 3.816068 -0.2009449 2.549817
v 3.866356 -0.08388041 2.583419
v 4.296065 -0.08388054 1.779491
v 4.50136 -0.2009452 0.8953779
v 4.296065 0.08746513 1.779491
v 3.866356 0.08746526 2.583419
v 4.560679 0.087465 0.9071773
v 4.560679 -0.08388069 0.9071773
v 4.589546 -0.2009453 1.523405E-06
v 4.650028 0.08746484 1.496124E-06
v 4.650028 -0.08388083 1.52404E-06
v 4.296065 0.08746513 1.779491
v 3.866356 0.08746526 2.583419
v 3.816068 0.2045297 2.549817
v 4.240187 0.2045296 1.756345
v 4.560679 0.087465 0.9071773
v 4.50136 0.2045295 0.8953778
v 4.650028 0.08746484 1.496124E-06
v 4.589546 0.2045293 1.457344E-06
v 4.50136 0.2045295 0.8953778
v 4.224758 0.2045293 1.301926E-06
v 4.589546 0.2045293 1.457344E-06
v 4.143581 0.2045295 0.824211
v 4.11905 0.1601751 1.27652E-06
v 4.240187 0.2045296 1.756345
v 4.039904 0.1601752 0.8035883
v 3.903168 0.2045296 1.616747
v 3.816068 0.2045297 2.549817
v 3.805506 0.1601754 1.576294
v 3.512757 0.2045297 2.347152
v 3.424864 0.1601755 2.288424
v 2.190718 0.1229907 5.324034E-07
v 2.148623 -0.2009452 0.4273885
v 2.190718 -0.2009453 5.851794E-07
v 2.148623 0.1229908 0.4273884
v 2.023958 -0.2009452 0.838352
v 2.023958 0.1229909 0.838352
v 1.821514 0.1229909 1.217098
v 1.821514 -0.2009451 1.217098
v 2.261255 0.1601752 0.4497919
v 2.190718 0.1229907 5.324034E-07
v 2.305555 0.1601751 5.734797E-07
v 2.148623 0.1229908 0.4273884
v 2.130055 0.1601752 0.8822995
v 2.023958 0.1229909 0.838352
v 1.917 0.1601753 1.2809
v 1.821514 0.1229909 1.217098
v 2.261255 0.1601752 0.4497919
v 2.305555 0.1601751 5.734797E-07
v 4.11905 0.1601751 1.27652E-06
v 4.039904 0.1601752 0.8035883
v 2.130055 0.1601752 0.8822995
v 3.805506 0.1601754 1.576294
v 1.917 0.1601753 1.2809
v 3.424864 0.1601755 2.288424
v 4.589546 -0.2009453 1.523405E-06
v 2.190718 -0.2009453 5.851794E-07
v 2.148623 -0.2009452 0.4273885
v 4.50136 -0.2009452 0.8953779
v 2.023958 -0.2009452 0.838352
v 1.821514 -0.2009451 1.217098
v 4.240187 -0.200945 1.756345
v 3.816068 -0.2009449 2.549817
v 4.589546 -0.2009453 1.523405E-06
v 4.650028 -0.08388083 1.52404E-06
v 4.650028 0.08746484 1.496124E-06
v 4.589546 0.2045293 1.457344E-06
v 2.190718 -0.2009453 5.851794E-07
v 4.11905 0.1601751 1.27652E-06
v 4.224758 0.2045293 1.301926E-06
v 2.305555 0.1601751 5.734797E-07
v 2.190718 0.1229907 5.324034E-07
v 3.816068 0.2045297 2.549817
v 3.866356 0.08746526 2.583419
v 3.866356 -0.08388041 2.583419
v 3.816068 -0.2009449 2.549817
v 3.512757 0.2045297 2.347152
v 3.424864 0.1601755 2.288424
v 3.816068 -0.2009449 2.549817
v 1.821514 -0.2009451 1.217098
v 3.424864 0.1601755 2.288424
v 1.917 0.1601753 1.2809
v 1.821514 0.1229909 1.217098
vt 0.9433594 0.3156738
vt 0.8989258 0.2327881
vt 0.9042969 0.2293701
vt 0.9492188 0.3132324
vt 0.9707031 0.4055176
vt 0.9492188 0.3132324
vt 0.9042969 0.2293701
vt 0.9765625 0.4042969
vt 0.9765625 0.4042969
vt 0.9799805 0.4992676
vt 0.9858398 0.4992676
vt 0.9858398 0.4992676
vt 0.9492188 0.3132324
vt 0.9042969 0.2293701
vt 0.8989258 0.2327881
vt 0.9433594 0.3156738
vt 0.9765625 0.4042969
vt 0.9707031 0.4055176
vt 0.9858398 0.4992676
vt 0.9799805 0.4992676
vt 0.9707031 0.4055176
vt 0.9414063 0.4992676
vt 0.9799805 0.4992676
vt 0.9331055 0.4130859
vt 0.9306641 0.4992676
vt 0.9433594 0.3156738
vt 0.9223633 0.4152832
vt 0.9082031 0.3303223
vt 0.8989258 0.2327881
vt 0.8979492 0.3344727
vt 0.8671875 0.2539063
vt 0.8579102 0.2600098
vt 0.7290039 0.4992676
vt 0.7246094 0.4545898
vt 0.7290039 0.4992676
vt 0.7246094 0.4545898
vt 0.7119141 0.4116211
vt 0.7119141 0.4116211
vt 0.6904297 0.3720703
vt 0.6904297 0.3720703
vt 0.7363281 0.4521484
vt 0.7290039 0.4992676
vt 0.7412109 0.4992676
vt 0.7246094 0.4545898
vt 0.7226563 0.4069824
vt 0.7119141 0.4116211
vt 0.7006836 0.3654785
vt 0.6904297 0.3720703
vt 0.7363281 0.4521484
vt 0.7412109 0.4992676
vt 0.9306641 0.4992676
vt 0.9223633 0.4152832
vt 0.7226563 0.4069824
vt 0.8979492 0.3344727
vt 0.7006836 0.3654785
vt 0.8579102 0.2600098
vt 0.9799805 0.4992676
vt 0.7290039 0.4992676
vt 0.7246094 0.4545898
vt 0.9707031 0.4055176
vt 0.7119141 0.4116211
vt 0.6904297 0.3720703
vt 0.9433594 0.3156738
vt 0.8989258 0.2327881
vt 0.9799805 0.4992676
vt 0.9858398 0.4992676
vt 0.9858398 0.4992676
vt 0.9799805 0.4992676
vt 0.7290039 0.4992676
vt 0.9306641 0.4992676
vt 0.9414063 0.4992676
vt 0.7412109 0.4992676
vt 0.7290039 0.4992676
vt 0.8989258 0.2327881
vt 0.9042969 0.2293701
vt 0.9042969 0.2293701
vt 0.8989258 0.2327881
vt 0.8671875 0.2539063
vt 0.8579102 0.2600098
vt 0.8989258 0.2327881
vt 0.6904297 0.3720703
vt 0.8579102 0.2600098
vt 0.7006836 0.3654785
vt 0.6904297 0.3720703
vn 0.8208008 -0.4589844 0.3400879
vn 0.7841797 -0.4572754 0.4191895
vn 0.8579102 -0.2318115 0.4584961
vn 0.8984375 -0.2329102 0.3720703
vn 0.871582 -0.4589844 0.1733398
vn 0.8984375 0.2329102 0.3720703
vn 0.8579102 0.2318115 0.4584961
vn 0.9536133 0.2329102 0.1896973
vn 0.9536133 -0.2329102 0.1896973
vn 0.8852539 -0.4572754 0.0871582
vn 0.9682617 0.2318115 0.09533691
vn 0.9682617 -0.2318115 0.09533691
vn 0.8984375 0.2329102 0.3720703
vn 0.8579102 0.2318115 0.4584961
vn 0.7841797 0.4572754 0.4191895
vn 0.8208008 0.4589844 0.3400879
vn 0.9536133 0.2329102 0.1896973
vn 0.871582 0.4589844 0.1733398
vn 0.9682617 0.2318115 0.09533691
vn 0.8852539 0.4572754 0.0871582
vn 0 1 0
vn -0.1854248 0.9824219 -0.01826477
vn 0 1 0
vn -0.1818848 0.9824219 -0.03616333
vn -0.3867188 0.9213867 -0.03808594
vn 0 1 0
vn -0.3793945 0.921875 -0.07550049
vn -0.1712646 0.9824219 -0.07098389
vn 0 1 0
vn -0.3574219 0.921875 -0.1480713
vn -0.1643066 0.9824219 -0.08782959
vn -0.3425293 0.9213867 -0.1831055
vn -0.9951172 0 -0.09802246
vn -0.980957 0 -0.1950684
vn -0.9951172 0 -0.09802246
vn -0.980957 0 -0.1950684
vn -0.9238281 0 -0.3825684
vn -0.9238281 0 -0.3825684
vn -0.8818359 0 -0.4714355
vn -0.8818359 0 -0.4714355
vn -0.3022461 0.9511719 -0.06008911
vn -0.3078613 0.9511719 -0.03031921
vn -0.3078613 0.9511719 -0.03031921
vn -0.3022461 0.9511719 -0.06008911
vn -0.284668 0.9511719 -0.1178589
vn -0.284668 0.9511719 -0.1178589
vn -0.2729492 0.9511719 -0.145874
vn -0.2729492 0.9511719 -0.145874
vn 0 1 0
vn 0 1 0
vn 0 1 0
vn 0 1 0
vn 0 1 0
vn 0 1 0
vn 0 1 0
vn 0 1 0
vn 0 -1 0
vn 0 -1 0
vn 0 -1 0
vn 0 -1 0
vn 0 -1 0
vn 0 -1 0
vn 0 -1 0
vn 0 -1 0
vn 0 0 -1
vn 0 0 -1
vn 0 0 -1
vn 0 0 -1
vn 0 0 -1
vn 0 0 -1
vn 0 0 -1
vn 0 0 -1
vn 0 0 -1
vn -0.5556641 0 0.831543
vn -0.5556641 0 0.831543
vn -0.5556641 0 0.831543
vn -0.5556641 0 0.831543
vn -0.5556641 0 0.831543
vn -0.5556641 0 0.831543
vn -0.5556641 0 0.831543
vn -0.5556641 0 0.831543
vn -0.5556641 0 0.831543
vn -0.5556641 0 0.831543
vn -0.5556641 0 0.831543
g Dal_Circle_out_08_0
f 3/3/3 2/2/2 1/1/1
f 4/4/4 3/3/3 1/1/1
f 4/4/4 1/1/1 5/5/5
f 3/3/3 4/4/4 6/6/6
f 7/7/7 3/3/3 6/6/6
f 6/6/6 4/4/4 8/8/8
f 9/9/9 4/4/4 5/5/5
f 4/4/4 9/9/9 8/8/8
f 9/9/9 5/5/5 10/10/10
f 8/8/8 9/9/9 11/11/11
f 12/12/12 9/9/9 10/10/10
f 9/9/9 12/12/12 11/11/11
f 15/15/15 14/14/14 13/13/13
f 16/16/16 15/15/15 13/13/13
f 16/16/16 13/13/13 17/17/17
f 18/18/18 16/16/16 17/17/17
f 18/18/18 17/17/17 19/19/19
f 20/20/20 18/18/18 19/19/19
f 23/23/23 22/22/22 21/21/21
f 22/22/22 24/24/24 21/21/21
f 22/22/22 25/25/25 24/24/24
f 21/21/21 24/24/24 26/26/26
f 25/25/25 27/27/27 24/24/24
f 24/24/24 28/28/28 26/26/26
f 24/24/24 27/27/27 28/28/28
f 26/26/26 28/28/28 29/29/29
f 27/27/27 30/30/30 28/28/28
f 28/28/28 31/31/31 29/29/29
f 28/28/28 30/30/30 31/31/31
f 30/30/30 32/32/32 31/31/31
f 35/35/35 34/34/34 33/33/33
f 34/34/34 36/36/36 33/33/33
f 34/34/34 37/37/37 36/36/36
f 37/37/37 38/38/38 36/36/36
f 39/39/39 38/38/38 37/37/37
f 40/40/40 39/39/39 37/37/37
f 43/43/43 42/42/42 41/41/41
f 42/42/42 44/44/44 41/41/41
f 41/41/41 44/44/44 45/45/45
f 44/44/44 46/46/46 45/45/45
f 45/45/45 46/46/46 47/47/47
f 46/46/46 48/48/48 47/47/47
f 51/51/51 50/50/50 49/49/49
f 49/49/49 52/52/52 51/51/51
f 49/49/49 53/53/53 52/52/52
f 53/53/53 54/54/54 52/52/52
f 53/53/53 55/55/55 54/54/54
f 55/55/55 56/56/56 54/54/54
f 59/59/59 58/58/58 57/57/57
f 57/57/57 60/60/60 59/59/59
f 60/60/60 61/61/61 59/59/59
f 60/60/60 62/62/62 61/61/61
f 60/60/60 63/63/63 62/62/62
f 63/63/63 64/64/64 62/62/62
f 67/67/67 66/66/66 65/65/65
f 65/65/65 68/68/68 67/67/67
f 65/65/65 69/69/69 68/68/68
f 69/69/69 70/70/70 68/68/68
f 70/70/70 71/71/71 68/68/68
f 69/69/69 72/72/72 70/70/70
f 69/69/69 73/73/73 72/72/72
f 76/76/76 75/75/75 74/74/74
f 74/74/74 77/77/77 76/76/76
f 74/74/74 78/78/78 77/77/77
f 78/78/78 79/79/79 77/77/77
f 82/82/82 81/81/81 80/80/80
f 82/82/82 83/83/83 81/81/81
f 83/83/83 84/84/84 81/81/81
