g Dal_Circle_in_03
v -0.8383521 0.1074645 2.023958
v -0.8189945 0.1617508 1.977221
v 0.08556365 0.1976044 -0.2065738
v -0.8189945 0.1617508 1.977221
v -0.7698879 0.1976048 1.858667
v 0.08556365 0.1976044 -0.2065738
v 0.09317397 -0.1974484 -0.2249443
v -0.8383521 -0.197448 2.023958
v -0.8383521 0.1074645 2.023958
v -2.148624 -0.1974483 0.4273845
v -2.148624 0.1074642 0.4273844
v -2.02396 0.1074643 0.8383483
v -2.02396 -0.1974482 0.8383484
v -1.821516 0.1074644 1.217095
v -1.821516 -0.1974482 1.217095
v -1.549072 0.1074644 1.549069
v -1.549072 -0.1974481 1.549069
v -1.217098 0.1074645 1.821513
v -1.217098 -0.1974481 1.821513
v -0.8383521 0.1074645 2.023958
v -0.8383521 -0.197448 2.023958
v -2.148624 0.1074642 0.4273844
v -2.099007 0.1617506 0.4175152
v -1.977222 0.1617506 0.8189892
v -2.02396 0.1074643 0.8383483
v -1.779453 0.1617507 1.18899
v -1.821516 0.1074644 1.217095
v -1.513302 0.1617508 1.513298
v -1.549072 0.1074644 1.549069
v -1.188993 0.1617508 1.779451
v -1.217098 0.1074645 1.821513
v -0.8189945 0.1617508 1.977221
v -0.8383521 0.1074645 2.023958
v -2.099007 0.1617506 0.4175152
v -1.973152 0.1976045 0.3924811
v -1.858669 0.1976046 0.7698827
v -1.977222 0.1617506 0.8189892
v -1.672758 0.1976047 1.117698
v -1.779453 0.1617507 1.18899
v -1.422563 0.1976047 1.422561
v -1.513302 0.1617508 1.513298
v -1.117702 0.1976047 1.672755
v -1.188993 0.1617508 1.779451
v -0.7698879 0.1976048 1.858667
v -0.8189945 0.1617508 1.977221
v -1.973152 0.1976045 0.3924811
v 0.08556365 0.1976044 -0.2065738
v -0.7698879 0.1976048 1.858667
v -1.858669 0.1976046 0.7698827
v -1.672758 0.1976047 1.117698
v -1.422563 0.1976047 1.422561
v -1.117702 0.1976047 1.672755
v -0.8383521 -0.197448 2.023958
v 0.09317397 -0.1974484 -0.2249443
v -2.148624 -0.1974483 0.4273845
v -2.02396 -0.1974482 0.8383484
v -1.821516 -0.1974482 1.217095
v -1.549072 -0.1974481 1.549069
v -1.217098 -0.1974481 1.821513
v -2.148624 -0.1974483 0.4273845
v 0.09317397 -0.1974484 -0.2249443
v 0.08556365 0.1976044 -0.2065738
v -1.973152 0.1976045 0.3924811
v -1.973152 0.1976045 0.3924811
v -2.099007 0.1617506 0.4175152
v -2.148624 -0.1974483 0.4273845
v -2.148624 0.1074642 0.4273844
vt 0.4128418 0.2878418
vt 0.4147949 0.2927246
vt 0.5092773 0.5205078
vt 0.4147949 0.2927246
vt 0.4199219 0.3049316
vt 0.5092773 0.5205078
vt 0.5102539 0.5224609
vt 0.4128418 0.2878418
vt 0.4128418 0.2878418
vt 0.2758789 0.4545898
vt 0.2758789 0.4545898
vt 0.2890625 0.4116211
vt 0.2890625 0.4116211
vt 0.3100586 0.3720703
vt 0.3100586 0.3720703
vt 0.338623 0.3374023
vt 0.338623 0.3374023
vt 0.373291 0.3088379
vt 0.373291 0.3088379
vt 0.4128418 0.2878418
vt 0.4128418 0.2878418
vt 0.2758789 0.4545898
vt 0.2810059 0.4555664
vt 0.2939453 0.4135742
vt 0.2890625 0.4116211
vt 0.3144531 0.375
vt 0.3100586 0.3720703
vt 0.3422852 0.3410645
vt 0.338623 0.3374023
vt 0.3762207 0.3132324
vt 0.373291 0.3088379
vt 0.4147949 0.2927246
vt 0.4128418 0.2878418
vt 0.2810059 0.4555664
vt 0.2941895 0.458252
vt 0.3061523 0.4187012
vt 0.2939453 0.4135742
vt 0.3256836 0.3823242
vt 0.3144531 0.375
vt 0.3518066 0.3505859
vt 0.3422852 0.3410645
vt 0.3835449 0.3244629
vt 0.3762207 0.3132324
vt 0.4199219 0.3049316
vt 0.4147949 0.2927246
vt 0.2941895 0.458252
vt 0.5092773 0.5205078
vt 0.4199219 0.3049316
vt 0.3061523 0.4187012
vt 0.3256836 0.3823242
vt 0.3518066 0.3505859
vt 0.3835449 0.3244629
vt 0.4128418 0.2878418
vt 0.5102539 0.5224609
vt 0.2758789 0.4545898
vt 0.2890625 0.4116211
vt 0.3100586 0.3720703
vt 0.338623 0.3374023
vt 0.373291 0.3088379
vt 0.2758789 0.4545898
vt 0.5102539 0.5224609
vt 0.5092773 0.5205078
vt 0.2941895 0.458252
vt 0.2941895 0.458252
vt 0.2810059 0.4555664
vt 0.2758789 0.4545898
vt 0.2758789 0.4545898
vn 0.9238281 0 0.3825684
vn 0.9238281 0 0.3825684
vn 0.9238281 0 0.3825684
vn 0.9238281 0 0.3825684
vn 0.9238281 0 0.3825684
vn 0.9238281 0 0.3825684
vn 0.9238281 0 0.3825684
vn 0.9238281 0 0.3825684
vn 0.9238281 0 0.3825684
vn -0.9570313 0 0.2902832
vn -0.9570313 0 0.2902832
vn -0.9238281 0 0.3825684
vn -0.9238281 0 0.3825684
vn -0.831543 0 0.5556641
vn -0.831543 0 0.5556641
vn -0.7070313 0 0.7070313
vn -0.7070313 0 0.7070313
vn -0.5556641 0 0.831543
vn -0.5556641 0 0.831543
vn -0.4714355 0 0.8818359
vn -0.4714355 0 0.8818359
vn -0.7016602 0.6801758 0.2128906
vn -0.7016602 0.6801758 0.2128906
vn -0.6757813 0.6816406 0.2800293
vn -0.6757813 0.6816406 0.2800293
vn -0.6083984 0.6816406 0.4064941
vn -0.6083984 0.6816406 0.4064941
vn -0.5170898 0.6816406 0.5170898
vn -0.5170898 0.6816406 0.5170898
vn -0.4064941 0.6816406 0.6083984
vn -0.4064941 0.6816406 0.6083984
vn -0.3457031 0.6801758 0.6464844
vn -0.3457031 0.6801758 0.6464844
vn -0.2587891 0.9628906 0.07849121
vn -0.2587891 0.9628906 0.07849121
vn -0.2486572 0.9628906 0.1029663
vn -0.2486572 0.9628906 0.1029663
vn -0.2237549 0.9628906 0.1495361
vn -0.2237549 0.9628906 0.1495361
vn -0.1903076 0.9628906 0.1903076
vn -0.1903076 0.9628906 0.1903076
vn -0.1495361 0.9628906 0.2237549
vn -0.1495361 0.9628906 0.2237549
vn -0.1274414 0.9628906 0.2384033
vn -0.1274414 0.9628906 0.2384033
vn 0 1 0
vn 0 1 0
vn 0 1 0
vn 0 1 0
vn 0 1 0
vn 0 1 0
vn 0 1 0
vn 0 -1 0
vn 0 -1 0
vn 0 -1 0
vn 0 -1 0
vn 0 -1 0
vn 0 -1 0
vn 0 -1 0
vn -0.2763672 0.03796387 -0.9604492
vn -0.2763672 0.03796387 -0.9604492
vn -0.2763672 0.03796387 -0.9604492
vn -0.2763672 0.03796387 -0.9604492
vn -0.2763672 0.03796387 -0.9604492
vn -0.2763672 0.03796387 -0.9604492
vn -0.2763672 0.03796387 -0.9604492
vn -0.2763672 0.03796387 -0.9604492
g Dal_Circle_in_03_0
f 3/3/3 2/2/2 1/1/1
f 6/6/6 5/5/5 4/4/4
f 8/8/8 7/7/7 6/6/6
f 6/6/6 9/9/9 8/8/8
f 12/12/12 11/11/11 10/10/10
f 13/13/13 12/12/12 10/10/10
f 14/14/14 12/12/12 13/13/13
f 15/15/15 14/14/14 13/13/13
f 16/16/16 14/14/14 15/15/15
f 17/17/17 16/16/16 15/15/15
f 18/18/18 16/16/16 17/17/17
f 19/19/19 18/18/18 17/17/17
f 20/20/20 18/18/18 19/19/19
f 21/21/21 20/20/20 19/19/19
f 24/24/24 23/23/23 22/22/22
f 25/25/25 24/24/24 22/22/22
f 26/26/26 24/24/24 25/25/25
f 27/27/27 26/26/26 25/25/25
f 28/28/28 26/26/26 27/27/27
f 29/29/29 28/28/28 27/27/27
f 30/30/30 28/28/28 29/29/29
f 31/31/31 30/30/30 29/29/29
f 32/32/32 30/30/30 31/31/31
f 33/33/33 32/32/32 31/31/31
f 36/36/36 35/35/35 34/34/34
f 37/37/37 36/36/36 34/34/34
f 38/38/38 36/36/36 37/37/37
f 39/39/39 38/38/38 37/37/37
f 40/40/40 38/38/38 39/39/39
f 41/41/41 40/40/40 39/39/39
f 42/42/42 40/40/40 41/41/41
f 43/43/43 42/42/42 41/41/41
f 44/44/44 42/42/42 43/43/43
f 45/45/45 44/44/44 43/43/43
f 48/48/48 47/47/47 46/46/46
f 46/46/46 49/49/49 48/48/48
f 49/49/49 50/50/50 48/48/48
f 50/50/50 51/51/51 48/48/48
f 51/51/51 52/52/52 48/48/48
f 55/55/55 54/54/54 53/53/53
f 53/53/53 56/56/56 55/55/55
f 53/53/53 57/57/57 56/56/56
f 53/53/53 58/58/58 57/57/57
f 53/53/53 59/59/59 58/58/58
f 62/62/62 61/61/61 60/60/60
f 60/60/60 63/63/63 62/62/62
f 66/66/66 65/65/65 64/64/64
f 66/66/66 67/67/67 65/65/65
