g Dal_Circle_out_03
v -4.501358 -0.2009455 -0.8953755
v -4.240187 -0.2009456 -1.756343
v -4.296064 -0.08388111 -1.779488
v -4.560678 -0.08388099 -0.907175
v -4.589544 -0.2009453 4.270686E-07
v -4.560678 0.08746471 -0.907175
v -4.296064 0.08746454 -1.779488
v -4.650026 0.08746484 3.90175E-07
v -4.650026 -0.08388083 4.180907E-07
v -4.50136 -0.2009452 0.8953695
v -4.56068 0.08746502 0.9071689
v -4.56068 -0.0838807 0.9071689
v -4.560678 0.08746471 -0.907175
v -4.296064 0.08746454 -1.779488
v -4.240187 0.204529 -1.756343
v -4.501358 0.2045292 -0.8953756
v -4.650026 0.08746484 3.90175E-07
v -4.589544 0.2045293 3.610084E-07
v -4.56068 0.08746502 0.9071689
v -4.50136 0.2045295 0.8953694
v -4.589544 0.2045293 3.610084E-07
v -4.143581 0.2045295 0.8242034
v -4.50136 0.2045295 0.8953694
v -4.224758 0.2045293 2.92909E-07
v -4.039904 0.1601752 0.8035809
v -4.501358 0.2045292 -0.8953756
v -4.119049 0.1601751 2.955146E-07
v -4.143579 0.2045292 -0.8242091
v -4.240187 0.204529 -1.756343
v -4.039902 0.160175 -0.8035864
v -3.903166 0.2045291 -1.616745
v -3.805504 0.1601748 -1.576292
v -2.148623 0.1229907 -0.4273877
v -2.023958 0.1229906 -0.8383512
v -2.023958 -0.2009454 -0.8383512
v -2.148623 -0.2009454 -0.4273877
v -2.190718 0.1229907 8.666351E-09
v -2.190718 -0.2009453 6.144224E-08
v -2.148624 0.1229908 0.4273844
v -2.148624 -0.2009452 0.4273845
v -2.130054 0.160175 -0.882298
v -2.023958 0.1229906 -0.8383512
v -2.148623 0.1229907 -0.4273877
v -2.261255 0.160175 -0.4497911
v -2.190718 0.1229907 8.666351E-09
v -2.305555 0.1601751 -2.217436E-08
v -2.148624 0.1229908 0.4273844
v -2.261255 0.1601752 0.4497876
v -4.039902 0.160175 -0.8035864
v -3.805504 0.1601748 -1.576292
v -2.130054 0.160175 -0.882298
v -2.261255 0.160175 -0.4497911
v -4.119049 0.1601751 2.955146E-07
v -2.305555 0.1601751 -2.217436E-08
v -2.261255 0.1601752 0.4497876
v -4.039904 0.1601752 0.8035809
v -2.023958 -0.2009454 -0.8383512
v -4.240187 -0.2009456 -1.756343
v -4.501358 -0.2009455 -0.8953755
v -4.589544 -0.2009453 4.270686E-07
v -2.148623 -0.2009454 -0.4273877
v -2.190718 -0.2009453 6.144224E-08
v -2.148624 -0.2009452 0.4273845
v -4.50136 -0.2009452 0.8953695
v -2.261255 0.1601752 0.4497876
v -2.148624 0.1229908 0.4273844
v -2.148624 -0.2009452 0.4273845
v -4.50136 -0.2009452 0.8953695
v -4.50136 -0.2009452 0.8953695
v -4.039904 0.1601752 0.8035809
v -2.261255 0.1601752 0.4497876
v -4.143581 0.2045295 0.8242034
v -4.50136 0.2045295 0.8953694
v -4.56068 0.08746502 0.9071689
v -4.56068 -0.0838807 0.9071689
v -4.240187 -0.2009456 -1.756343
v -2.023958 -0.2009454 -0.8383512
v -2.023958 0.1229906 -0.8383512
v -2.130054 0.160175 -0.882298
v -3.805504 0.1601748 -1.576292
v -3.805504 0.1601748 -1.576292
v -3.903166 0.2045291 -1.616745
v -4.240187 -0.2009456 -1.756343
v -4.240187 0.204529 -1.756343
v -4.296064 -0.08388111 -1.779488
v -4.296064 0.08746454 -1.779488
vt 0.03019714 0.5927734
vt 0.0574646 0.6826172
vt 0.05163574 0.6850586
vt 0.02400208 0.59375
vt 0.02098083 0.4992676
vt 0.02400208 0.59375
vt 0.05163574 0.6850586
vt 0.01467133 0.4992676
vt 0.01467133 0.4992676
vt 0.03019714 0.4055176
vt 0.02400208 0.4042969
vt 0.02400208 0.4042969
vt 0.02400208 0.59375
vt 0.05163574 0.6850586
vt 0.0574646 0.6826172
vt 0.03019714 0.5927734
vt 0.01467133 0.4992676
vt 0.02098083 0.4992676
vt 0.02400208 0.4042969
vt 0.03019714 0.4055176
vt 0.02098083 0.4992676
vt 0.06756592 0.4130859
vt 0.03019714 0.4055176
vt 0.05908203 0.4992676
vt 0.07836914 0.4152832
vt 0.03019714 0.5927734
vt 0.07012939 0.4992676
vt 0.06756592 0.5854492
vt 0.0574646 0.6826172
vt 0.07836914 0.5830078
vt 0.09265137 0.6679688
vt 0.1029053 0.6635742
vt 0.2758789 0.5439453
vt 0.2890625 0.5869141
vt 0.2890625 0.5869141
vt 0.2758789 0.5439453
vt 0.2714844 0.4992676
vt 0.2714844 0.4992676
vt 0.2758789 0.4545898
vt 0.2758789 0.4545898
vt 0.277832 0.5913086
vt 0.2890625 0.5869141
vt 0.2758789 0.5439453
vt 0.2641602 0.5458984
vt 0.2714844 0.4992676
vt 0.2595215 0.4992676
vt 0.2758789 0.4545898
vt 0.2641602 0.4521484
vt 0.07836914 0.5830078
vt 0.1029053 0.6635742
vt 0.277832 0.5913086
vt 0.2641602 0.5458984
vt 0.07012939 0.4992676
vt 0.2595215 0.4992676
vt 0.2641602 0.4521484
vt 0.07836914 0.4152832
vt 0.2890625 0.5869141
vt 0.0574646 0.6826172
vt 0.03019714 0.5927734
vt 0.02098083 0.4992676
vt 0.2758789 0.5439453
vt 0.2714844 0.4992676
vt 0.2758789 0.4545898
vt 0.03019714 0.4055176
vt 0.2641602 0.4521484
vt 0.2758789 0.4545898
vt 0.2758789 0.4545898
vt 0.03019714 0.4055176
vt 0.03019714 0.4055176
vt 0.07836914 0.4152832
vt 0.2641602 0.4521484
vt 0.06756592 0.4130859
vt 0.03019714 0.4055176
vt 0.02400208 0.4042969
vt 0.02400208 0.4042969
vt 0.0574646 0.6826172
vt 0.2890625 0.5869141
vt 0.2890625 0.5869141
vt 0.277832 0.5913086
vt 0.1029053 0.6635742
vt 0.1029053 0.6635742
vt 0.09265137 0.6679688
vt 0.0574646 0.6826172
vt 0.0574646 0.6826172
vt 0.05163574 0.6850586
vt 0.05163574 0.6850586
vn -0.871582 -0.4589844 -0.1733398
vn -0.8510742 -0.4572754 -0.2580566
vn -0.9306641 -0.2318115 -0.2824707
vn -0.9536133 -0.2329102 -0.1896973
vn -0.8886719 -0.4589844 0
vn -0.9536133 0.2329102 -0.1896973
vn -0.9306641 0.2318115 -0.2824707
vn -0.9726563 0.2329102 0
vn -0.9726563 -0.2329102 0
vn -0.8852539 -0.4572754 0.0871582
vn -0.9682617 0.2318115 0.09533691
vn -0.9682617 -0.2318115 0.09533691
vn -0.9536133 0.2329102 -0.1896973
vn -0.9306641 0.2318115 -0.2824707
vn -0.8510742 0.4572754 -0.2580566
vn -0.871582 0.4589844 -0.1733398
vn -0.9726563 0.2329102 0
vn -0.8886719 0.4589844 0
vn -0.9682617 0.2318115 0.09533691
vn -0.8852539 0.4572754 0.0871582
vn 0 1 0
vn 0.1854248 0.9824219 -0.01826477
vn 0 1 0
vn 0.1854248 0.9824219 0
vn 0.3867188 0.9213867 -0.03808594
vn 0 1 0
vn 0.3869629 0.921875 0
vn 0.1818848 0.9824219 0.03616333
vn 0 1 0
vn 0.3793945 0.921875 0.07550049
vn 0.1782227 0.9824219 0.05407715
vn 0.3718262 0.9213867 0.112793
vn 0.980957 0 0.1950684
vn 0.9570313 0 0.2902832
vn 0.9570313 0 0.2902832
vn 0.980957 0 0.1950684
vn 1 0 0
vn 1 0 0
vn 0.9951172 0 -0.09802246
vn 0.9951172 0 -0.09802246
vn 0.2961426 0.9511719 0.08984375
vn 0.2961426 0.9511719 0.08984375
vn 0.3022461 0.9511719 0.06008911
vn 0.3022461 0.9511719 0.06008911
vn 0.3081055 0.9511719 0
vn 0.3081055 0.9511719 0
vn 0.3078613 0.9511719 -0.03031921
vn 0.3078613 0.9511719 -0.03031921
vn 0 1 0
vn 0 1 0
vn 0 1 0
vn 0 1 0
vn 0 1 0
vn 0 1 0
vn 0 1 0
vn 0 1 0
vn 0 -1 0
vn 0 -1 0
vn 0 -1 0
vn 0 -1 0
vn 0 -1 0
vn 0 -1 0
vn 0 -1 0
vn 0 -1 0
vn 0.1950684 0 0.980957
vn 0.1950684 0 0.980957
vn 0.1950684 0 0.980957
vn 0.1950684 0 0.980957
vn 0.1950684 0 0.980957
vn 0.1950684 0 0.980957
vn 0.1950684 0 0.980957
vn 0.1950684 0 0.980957
vn 0.1950684 0 0.980957
vn 0.1950684 0 0.980957
vn 0.1950684 0 0.980957
vn 0.3825684 0 -0.9238281
vn 0.3825684 0 -0.9238281
vn 0.3825684 0 -0.9238281
vn 0.3825684 0 -0.9238281
vn 0.3825684 0 -0.9238281
vn 0.3825684 0 -0.9238281
vn 0.3825684 0 -0.9238281
vn 0.3825684 0 -0.9238281
vn 0.3825684 0 -0.9238281
vn 0.3825684 0 -0.9238281
vn 0.3825684 0 -0.9238281
g Dal_Circle_out_03_0
f 3/3/3 2/2/2 1/1/1
f 4/4/4 3/3/3 1/1/1
f 4/4/4 1/1/1 5/5/5
f 3/3/3 4/4/4 6/6/6
f 7/7/7 3/3/3 6/6/6
f 6/6/6 4/4/4 8/8/8
f 9/9/9 4/4/4 5/5/5
f 4/4/4 9/9/9 8/8/8
f 9/9/9 5/5/5 10/10/10
f 8/8/8 9/9/9 11/11/11
f 12/12/12 9/9/9 10/10/10
f 9/9/9 12/12/12 11/11/11
f 15/15/15 14/14/14 13/13/13
f 16/16/16 15/15/15 13/13/13
f 16/16/16 13/13/13 17/17/17
f 18/18/18 16/16/16 17/17/17
f 18/18/18 17/17/17 19/19/19
f 20/20/20 18/18/18 19/19/19
f 23/23/23 22/22/22 21/21/21
f 22/22/22 24/24/24 21/21/21
f 22/22/22 25/25/25 24/24/24
f 21/21/21 24/24/24 26/26/26
f 25/25/25 27/27/27 24/24/24
f 24/24/24 28/28/28 26/26/26
f 24/24/24 27/27/27 28/28/28
f 26/26/26 28/28/28 29/29/29
f 27/27/27 30/30/30 28/28/28
f 28/28/28 31/31/31 29/29/29
f 28/28/28 30/30/30 31/31/31
f 30/30/30 32/32/32 31/31/31
f 35/35/35 34/34/34 33/33/33
f 36/36/36 35/35/35 33/33/33
f 36/36/36 33/33/33 37/37/37
f 38/38/38 36/36/36 37/37/37
f 37/37/37 39/39/39 38/38/38
f 39/39/39 40/40/40 38/38/38
f 43/43/43 42/42/42 41/41/41
f 44/44/44 43/43/43 41/41/41
f 45/45/45 43/43/43 44/44/44
f 46/46/46 45/45/45 44/44/44
f 47/47/47 45/45/45 46/46/46
f 48/48/48 47/47/47 46/46/46
f 51/51/51 50/50/50 49/49/49
f 49/49/49 52/52/52 51/51/51
f 49/49/49 53/53/53 52/52/52
f 53/53/53 54/54/54 52/52/52
f 53/53/53 55/55/55 54/54/54
f 53/53/53 56/56/56 55/55/55
f 59/59/59 58/58/58 57/57/57
f 57/57/57 60/60/60 59/59/59
f 57/57/57 61/61/61 60/60/60
f 61/61/61 62/62/62 60/60/60
f 62/62/62 63/63/63 60/60/60
f 63/63/63 64/64/64 60/60/60
f 67/67/67 66/66/66 65/65/65
f 65/65/65 68/68/68 67/67/67
f 71/71/71 70/70/70 69/69/69
f 70/70/70 72/72/72 69/69/69
f 72/72/72 73/73/73 69/69/69
f 73/73/73 74/74/74 69/69/69
f 74/74/74 75/75/75 69/69/69
f 78/78/78 77/77/77 76/76/76
f 76/76/76 79/79/79 78/78/78
f 76/76/76 80/80/80 79/79/79
f 83/83/83 82/82/82 81/81/81
f 83/83/83 84/84/84 82/82/82
f 83/83/83 85/85/85 84/84/84
f 85/85/85 86/86/86 84/84/84
