g Dal_Circle_out_05
v -3.634648E-06 0.1601758 4.11905
v -1.80657E-06 0.1601755 2.305556
v -1.811589E-06 0.1229911 2.190717
v -1.811589E-06 -0.2009449 2.190717
v -3.614082E-06 -0.2009446 4.589546
v -3.611438E-06 -0.08388007 4.650028
v -3.611438E-06 0.0874656 4.650028
v -2.288425 0.1601757 3.424862
v -2.347152 0.2045299 3.512756
v -2.549818 0.20453 3.816065
v -1.756347 -0.2009446 4.240186
v -2.549818 -0.2009447 3.816065
v -2.58342 -0.08388019 3.866354
v -1.779491 -0.08388012 4.296064
v -0.8953798 -0.2009446 4.501358
v -1.779491 0.08746553 4.296064
v -2.58342 0.08746547 3.866354
v -0.9071787 0.0874656 4.560678
v -0.9071787 -0.0838801 4.560678
v -3.614082E-06 -0.2009446 4.589546
v -3.611438E-06 0.0874656 4.650028
v -3.611438E-06 -0.08388007 4.650028
v -1.779491 0.08746553 4.296064
v -2.58342 0.08746547 3.866354
v -2.549818 0.20453 3.816065
v -1.756347 0.20453 4.240186
v -0.9071787 0.0874656 4.560678
v -0.8953798 0.2045301 4.501358
v -3.611438E-06 0.0874656 4.650028
v -3.614082E-06 0.2045301 4.589546
v -2.347152 0.2045299 3.512756
v -2.288425 0.1601757 3.424862
v -1.576296 0.1601757 3.805504
v -1.616749 0.20453 3.903166
v -2.549818 0.20453 3.816065
v -0.8035906 0.1601758 4.039902
v -1.756347 0.20453 4.240186
v -0.8242128 0.20453 4.143579
v -3.634648E-06 0.1601758 4.11905
v -0.8953798 0.2045301 4.501358
v -3.630027E-06 0.20453 4.224758
v -3.614082E-06 0.2045301 4.589546
v -1.217098 -0.200945 1.821513
v -0.8383521 0.1229911 2.023958
v -1.217098 0.122991 1.821513
v -0.8383521 -0.200945 2.023958
v -0.4273891 0.1229911 2.148623
v -0.4273891 -0.200945 2.148623
v -1.811589E-06 0.1229911 2.190717
v -1.811589E-06 -0.2009449 2.190717
v -0.8383521 -0.200945 2.023958
v -1.217098 -0.200945 1.821513
v -2.549818 -0.2009447 3.816065
v -0.4273891 -0.200945 2.148623
v -1.811589E-06 -0.2009449 2.190717
v -3.614082E-06 -0.2009446 4.589546
v -1.756347 -0.2009446 4.240186
v -0.8953798 -0.2009446 4.501358
v -1.280899 0.1601754 1.916998
v -1.217098 0.122991 1.821513
v -0.8383521 0.1229911 2.023958
v -0.8822993 0.1601754 2.130055
v -0.4273891 0.1229911 2.148623
v -0.4497928 0.1601755 2.261255
v -1.811589E-06 0.1229911 2.190717
v -1.80657E-06 0.1601755 2.305556
v -2.288425 0.1601757 3.424862
v -1.280899 0.1601754 1.916998
v -0.8822993 0.1601754 2.130055
v -0.4497928 0.1601755 2.261255
v -1.80657E-06 0.1601755 2.305556
v -3.634648E-06 0.1601758 4.11905
v -1.576296 0.1601757 3.805504
v -0.8035906 0.1601758 4.039902
v -3.611438E-06 0.0874656 4.650028
v -3.634648E-06 0.1601758 4.11905
v -1.811589E-06 0.1229911 2.190717
v -3.614082E-06 0.2045301 4.589546
v -3.630027E-06 0.20453 4.224758
v -2.549818 -0.2009447 3.816065
v -1.217098 -0.200945 1.821513
v -1.217098 0.122991 1.821513
v -2.58342 -0.08388019 3.866354
v -2.58342 0.08746547 3.866354
v -2.288425 0.1601757 3.424862
v -2.549818 0.20453 3.816065
v -2.58342 0.08746547 3.866354
v -1.217098 0.122991 1.821513
v -1.280899 0.1601754 1.916998
vt 0.5004883 0.06890869
vt 0.5004883 0.2583008
vt 0.5004883 0.2702637
vt 0.5004883 0.2702637
vt 0.5004883 0.01977539
vt 0.5004883 0.01345825
vt 0.5004883 0.01345825
vt 0.2612305 0.1414795
vt 0.255127 0.1322021
vt 0.2340088 0.1005859
vt 0.3168945 0.05627441
vt 0.2340088 0.1005859
vt 0.2304688 0.09533691
vt 0.3144531 0.05041504
vt 0.4067383 0.0289917
vt 0.3144531 0.05041504
vt 0.2304688 0.09533691
vt 0.4055176 0.02278137
vt 0.4055176 0.02278137
vt 0.5004883 0.01977539
vt 0.5004883 0.01345825
vt 0.5004883 0.01345825
vt 0.3144531 0.05041504
vt 0.2304688 0.09533691
vt 0.2340088 0.1005859
vt 0.3168945 0.05627441
vt 0.4055176 0.02278137
vt 0.4067383 0.0289917
vt 0.5004883 0.01345825
vt 0.5004883 0.01977539
vt 0.255127 0.1322021
vt 0.2612305 0.1414795
vt 0.3356934 0.1016846
vt 0.331543 0.0914917
vt 0.2340088 0.1005859
vt 0.4165039 0.07720947
vt 0.3168945 0.05627441
vt 0.4143066 0.06634521
vt 0.5004883 0.06890869
vt 0.4067383 0.0289917
vt 0.5004883 0.05786133
vt 0.5004883 0.01977539
vt 0.373291 0.3088379
vt 0.4128418 0.2878418
vt 0.373291 0.3088379
vt 0.4128418 0.2878418
vt 0.4558105 0.2746582
vt 0.4558105 0.2746582
vt 0.5004883 0.2702637
vt 0.5004883 0.2702637
vt 0.4128418 0.2878418
vt 0.373291 0.3088379
vt 0.2340088 0.1005859
vt 0.4558105 0.2746582
vt 0.5004883 0.2702637
vt 0.5004883 0.01977539
vt 0.3168945 0.05627441
vt 0.4067383 0.0289917
vt 0.3664551 0.2988281
vt 0.373291 0.3088379
vt 0.4128418 0.2878418
vt 0.4082031 0.2766113
vt 0.4558105 0.2746582
vt 0.4533691 0.2629395
vt 0.5004883 0.2702637
vt 0.5004883 0.2583008
vt 0.2612305 0.1414795
vt 0.3664551 0.2988281
vt 0.4082031 0.2766113
vt 0.4533691 0.2629395
vt 0.5004883 0.2583008
vt 0.5004883 0.06890869
vt 0.3356934 0.1016846
vt 0.4165039 0.07720947
vt 0.5004883 0.01345825
vt 0.5004883 0.06890869
vt 0.5004883 0.2702637
vt 0.5004883 0.01977539
vt 0.5004883 0.05786133
vt 0.2340088 0.1005859
vt 0.373291 0.3088379
vt 0.373291 0.3088379
vt 0.2304688 0.09533691
vt 0.2304688 0.09533691
vt 0.2612305 0.1414795
vt 0.2340088 0.1005859
vt 0.2304688 0.09533691
vt 0.373291 0.3088379
vt 0.3664551 0.2988281
vn 1 0 0
vn 1 0 0
vn 1 0 0
vn 1 0 0
vn 1 0 0
vn 1 0 0
vn 1 0 0
vn -0.831543 0 -0.5556641
vn -0.831543 0 -0.5556641
vn -0.831543 0 -0.5556641
vn -0.3400879 -0.4589844 0.8208008
vn -0.4191895 -0.4572754 0.7841797
vn -0.4584961 -0.2318115 0.8579102
vn -0.3720703 -0.2329102 0.8984375
vn -0.1733398 -0.4589844 0.871582
vn -0.3720703 0.2329102 0.8984375
vn -0.4584961 0.2318115 0.8579102
vn -0.1896973 0.2329102 0.9536133
vn -0.1896973 -0.2329102 0.9536133
vn -0.0871582 -0.4572754 0.8852539
vn -0.09533691 0.2318115 0.9682617
vn -0.09533691 -0.2318115 0.9682617
vn -0.3720703 0.2329102 0.8984375
vn -0.4584961 0.2318115 0.8579102
vn -0.4191895 0.4572754 0.7841797
vn -0.3400879 0.4589844 0.8208008
vn -0.1896973 0.2329102 0.9536133
vn -0.1733398 0.4589844 0.871582
vn -0.09533691 0.2318115 0.9682617
vn -0.0871582 0.4572754 0.8852539
vn 0.08782959 0.9824219 -0.1643066
vn 0.1831055 0.9213867 -0.3425293
vn 0.1480713 0.921875 -0.3574219
vn 0.07098389 0.9824219 -0.1712646
vn 0 1 0
vn 0.07550049 0.921875 -0.3793945
vn 0 1 0
vn 0.03616333 0.9824219 -0.1818848
vn 0.03808594 0.9213867 -0.3867188
vn 0 1 0
vn 0.01826477 0.9824219 -0.1854248
vn 0 1 0
vn 0.4714355 0 -0.8818359
vn 0.3825684 0 -0.9238281
vn 0.4714355 0 -0.8818359
vn 0.3825684 0 -0.9238281
vn 0.1950684 0 -0.980957
vn 0.1950684 0 -0.980957
vn 0.09802246 0 -0.9951172
vn 0.09802246 0 -0.9951172
vn 0 -1 0
vn 0 -1 0
vn 0 -1 0
vn 0 -1 0
vn 0 -1 0
vn 0 -1 0
vn 0 -1 0
vn 0 -1 0
vn 0.145874 0.9511719 -0.2729492
vn 0.145874 0.9511719 -0.2729492
vn 0.1178589 0.9511719 -0.284668
vn 0.1178589 0.9511719 -0.284668
vn 0.06008911 0.9511719 -0.3022461
vn 0.06008911 0.9511719 -0.3022461
vn 0.03031921 0.9511719 -0.3078613
vn 0.03031921 0.9511719 -0.3078613
vn 0 1 0
vn 0 1 0
vn 0 1 0
vn 0 1 0
vn 0 1 0
vn 0 1 0
vn 0 1 0
vn 0 1 0
vn 1 0 0
vn 1 0 0
vn 1 0 0
vn 1 0 0
vn 1 0 0
vn -0.831543 0 -0.5556641
vn -0.831543 0 -0.5556641
vn -0.831543 0 -0.5556641
vn -0.831543 0 -0.5556641
vn -0.831543 0 -0.5556641
vn -0.831543 0 -0.5556641
vn -0.831543 0 -0.5556641
vn -0.831543 0 -0.5556641
vn -0.831543 0 -0.5556641
vn -0.831543 0 -0.5556641
g Dal_Circle_out_05_0
f 3/3/3 2/2/2 1/1/1
f 5/5/5 4/4/4 3/3/3
f 3/3/3 6/6/6 5/5/5
f 3/3/3 7/7/7 6/6/6
f 10/10/10 9/9/9 8/8/8
f 13/13/13 12/12/12 11/11/11
f 14/14/14 13/13/13 11/11/11
f 14/14/14 11/11/11 15/15/15
f 13/13/13 14/14/14 16/16/16
f 17/17/17 13/13/13 16/16/16
f 16/16/16 14/14/14 18/18/18
f 19/19/19 14/14/14 15/15/15
f 14/14/14 19/19/19 18/18/18
f 19/19/19 15/15/15 20/20/20
f 18/18/18 19/19/19 21/21/21
f 22/22/22 19/19/19 20/20/20
f 19/19/19 22/22/22 21/21/21
f 25/25/25 24/24/24 23/23/23
f 26/26/26 25/25/25 23/23/23
f 26/26/26 23/23/23 27/27/27
f 28/28/28 26/26/26 27/27/27
f 28/28/28 27/27/27 29/29/29
f 30/30/30 28/28/28 29/29/29
f 33/33/33 32/32/32 31/31/31
f 34/34/34 33/33/33 31/31/31
f 34/34/34 31/31/31 35/35/35
f 36/36/36 33/33/33 34/34/34
f 37/37/37 34/34/34 35/35/35
f 38/38/38 36/36/36 34/34/34
f 38/38/38 34/34/34 37/37/37
f 39/39/39 36/36/36 38/38/38
f 40/40/40 38/38/38 37/37/37
f 41/41/41 39/39/39 38/38/38
f 41/41/41 38/38/38 40/40/40
f 42/42/42 41/41/41 40/40/40
f 45/45/45 44/44/44 43/43/43
f 44/44/44 46/46/46 43/43/43
f 44/44/44 47/47/47 46/46/46
f 47/47/47 48/48/48 46/46/46
f 47/47/47 49/49/49 48/48/48
f 49/49/49 50/50/50 48/48/48
f 53/53/53 52/52/52 51/51/51
f 51/51/51 54/54/54 53/53/53
f 54/54/54 55/55/55 53/53/53
f 55/55/55 56/56/56 53/53/53
f 56/56/56 57/57/57 53/53/53
f 56/56/56 58/58/58 57/57/57
f 61/61/61 60/60/60 59/59/59
f 62/62/62 61/61/61 59/59/59
f 63/63/63 61/61/61 62/62/62
f 64/64/64 63/63/63 62/62/62
f 65/65/65 63/63/63 64/64/64
f 66/66/66 65/65/65 64/64/64
f 69/69/69 68/68/68 67/67/67
f 67/67/67 70/70/70 69/69/69
f 67/67/67 71/71/71 70/70/70
f 67/67/67 72/72/72 71/71/71
f 67/67/67 73/73/73 72/72/72
f 73/73/73 74/74/74 72/72/72
f 77/77/77 76/76/76 75/75/75
f 76/76/76 78/78/78 75/75/75
f 76/76/76 79/79/79 78/78/78
f 82/82/82 81/81/81 80/80/80
f 80/80/80 83/83/83 82/82/82
f 83/83/83 84/84/84 82/82/82
f 87/87/87 86/86/86 85/85/85
f 87/87/87 85/85/85 88/88/88
f 85/85/85 89/89/89 88/88/88
