g Dal_Circle_out_02
v -2.912607 0.1601746 -2.912607
v -2.987355 0.2045288 -2.987355
v -3.245299 0.2045288 -3.245298
v -1.630274 0.1601748 -1.630274
v -1.54907 0.1229905 -1.549071
v -3.816067 -0.2009457 -2.549814
v -3.245299 -0.2009458 -3.245298
v -3.288065 -0.08388136 -3.288066
v -3.866356 -0.08388124 -2.583416
v -4.240187 -0.2009456 -1.756343
v -4.296064 -0.08388111 -1.779488
v -4.296064 0.08746454 -1.779488
v -3.866356 0.08746442 -2.583416
v -3.288065 0.0874643 -3.288066
v -3.866356 0.08746442 -2.583416
v -3.288065 0.0874643 -3.288066
v -3.245299 0.2045288 -3.245298
v -3.816067 0.2045289 -2.549814
v -4.296064 0.08746454 -1.779488
v -4.240187 0.204529 -1.756343
v -3.816067 0.2045289 -2.549814
v -3.903166 0.2045291 -1.616745
v -4.240187 0.204529 -1.756343
v -3.512756 0.2045289 -2.347149
v -3.245299 0.2045288 -3.245298
v -3.805504 0.1601748 -1.576292
v -2.987355 0.2045288 -2.987355
v -3.424864 0.1601747 -2.288421
v -2.912607 0.1601746 -2.912607
v -1.54907 -0.2009456 -1.549071
v -1.821514 0.1229905 -1.217097
v -1.54907 0.1229905 -1.549071
v -1.821514 -0.2009455 -1.217097
v -2.023958 0.1229906 -0.8383512
v -2.023958 -0.2009454 -0.8383512
v -1.917 0.1601749 -1.280899
v -2.023958 0.1229906 -0.8383512
v -2.130054 0.160175 -0.882298
v -1.821514 0.1229905 -1.217097
v -1.630274 0.1601748 -1.630274
v -1.54907 0.1229905 -1.549071
v -3.424864 0.1601747 -2.288421
v -2.912607 0.1601746 -2.912607
v -1.630274 0.1601748 -1.630274
v -3.805504 0.1601748 -1.576292
v -1.917 0.1601749 -1.280899
v -2.130054 0.160175 -0.882298
v -1.54907 -0.2009456 -1.549071
v -3.245299 -0.2009458 -3.245298
v -3.816067 -0.2009457 -2.549814
v -4.240187 -0.2009456 -1.756343
v -1.821514 -0.2009455 -1.217097
v -2.023958 -0.2009454 -0.8383512
v -2.130054 0.160175 -0.882298
v -2.023958 0.1229906 -0.8383512
v -2.023958 -0.2009454 -0.8383512
v -4.240187 -0.2009456 -1.756343
v -3.805504 0.1601748 -1.576292
v -4.240187 -0.2009456 -1.756343
v -3.903166 0.2045291 -1.616745
v -3.805504 0.1601748 -1.576292
v -4.240187 0.204529 -1.756343
v -4.296064 0.08746454 -1.779488
v -4.296064 -0.08388111 -1.779488
v -3.288065 -0.08388136 -3.288066
v -3.245299 -0.2009458 -3.245298
v -1.54907 -0.2009456 -1.549071
v -1.54907 0.1229905 -1.549071
v -3.288065 0.0874643 -3.288066
v -1.54907 0.1229905 -1.549071
v -2.912607 0.1601746 -2.912607
v -3.288065 0.0874643 -3.288066
v -3.245299 0.2045288 -3.245298
vt 0.196167 0.8032227
vt 0.1883545 0.8110352
vt 0.161377 0.8378906
vt 0.3300781 0.6694336
vt 0.338623 0.6611328
vt 0.1018066 0.765625
vt 0.161377 0.8378906
vt 0.1569824 0.8427734
vt 0.09649658 0.769043
vt 0.0574646 0.6826172
vt 0.05163574 0.6850586
vt 0.05163574 0.6850586
vt 0.09649658 0.769043
vt 0.1569824 0.8427734
vt 0.09649658 0.769043
vt 0.1569824 0.8427734
vt 0.161377 0.8378906
vt 0.1018066 0.765625
vt 0.05163574 0.6850586
vt 0.0574646 0.6826172
vt 0.1018066 0.765625
vt 0.09265137 0.6679688
vt 0.0574646 0.6826172
vt 0.1334229 0.7441406
vt 0.161377 0.8378906
vt 0.1029053 0.6635742
vt 0.1883545 0.8110352
vt 0.1425781 0.7382813
vt 0.196167 0.8032227
vt 0.338623 0.6611328
vt 0.3100586 0.6264648
vt 0.338623 0.6611328
vt 0.3100586 0.6264648
vt 0.2890625 0.5869141
vt 0.2890625 0.5869141
vt 0.3000488 0.6328125
vt 0.2890625 0.5869141
vt 0.277832 0.5913086
vt 0.3100586 0.6264648
vt 0.3300781 0.6694336
vt 0.338623 0.6611328
vt 0.1425781 0.7382813
vt 0.196167 0.8032227
vt 0.3300781 0.6694336
vt 0.1029053 0.6635742
vt 0.3000488 0.6328125
vt 0.277832 0.5913086
vt 0.338623 0.6611328
vt 0.161377 0.8378906
vt 0.1018066 0.765625
vt 0.0574646 0.6826172
vt 0.3100586 0.6264648
vt 0.2890625 0.5869141
vt 0.277832 0.5913086
vt 0.2890625 0.5869141
vt 0.2890625 0.5869141
vt 0.0574646 0.6826172
vt 0.1029053 0.6635742
vt 0.0574646 0.6826172
vt 0.09265137 0.6679688
vt 0.1029053 0.6635742
vt 0.0574646 0.6826172
vt 0.05163574 0.6850586
vt 0.05163574 0.6850586
vt 0.1569824 0.8427734
vt 0.161377 0.8378906
vt 0.338623 0.6611328
vt 0.338623 0.6611328
vt 0.1569824 0.8427734
vt 0.338623 0.6611328
vt 0.196167 0.8032227
vt 0.1569824 0.8427734
vt 0.161377 0.8378906
vn 0.7070313 0 -0.7070313
vn 0.7070313 0 -0.7070313
vn 0.7070313 0 -0.7070313
vn 0.7070313 0 -0.7070313
vn 0.7070313 0 -0.7070313
vn -0.7387695 -0.4589844 -0.4936523
vn -0.6875 -0.4572754 -0.5639648
vn -0.7519531 -0.2318115 -0.6171875
vn -0.8085938 -0.2329102 -0.5405273
vn -0.7841797 -0.4572754 -0.4191895
vn -0.8579102 -0.2318115 -0.4584961
vn -0.8579102 0.2318115 -0.4584961
vn -0.8085938 0.2329102 -0.5405273
vn -0.7519531 0.2318115 -0.6171875
vn -0.8085938 0.2329102 -0.5405273
vn -0.7519531 0.2318115 -0.6171875
vn -0.6875 0.4572754 -0.5639648
vn -0.7387695 0.4589844 -0.4936523
vn -0.8579102 0.2318115 -0.4584961
vn -0.7841797 0.4572754 -0.4191895
vn 0 1 0
vn 0.1643066 0.9824219 0.08782959
vn 0 1 0
vn 0.1541748 0.9824219 0.1030273
vn 0 1 0
vn 0.3425293 0.9213867 0.1831055
vn 0.144043 0.9824219 0.1181641
vn 0.3217773 0.921875 0.2149658
vn 0.300293 0.9213867 0.24646
vn 0.7729492 0 0.6342773
vn 0.831543 0 0.5556641
vn 0.7729492 0 0.6342773
vn 0.831543 0 0.5556641
vn 0.8818359 0 0.4714355
vn 0.8818359 0 0.4714355
vn 0.2561035 0.9511719 0.1711426
vn 0.2729492 0.9511719 0.145874
vn 0.2729492 0.9511719 0.145874
vn 0.2561035 0.9511719 0.1711426
vn 0.2391357 0.9511719 0.1962891
vn 0.2391357 0.9511719 0.1962891
vn 0 1 0
vn 0 1 0
vn 0 1 0
vn 0 1 0
vn 0 1 0
vn 0 1 0
vn 0 -1 0
vn 0 -1 0
vn 0 -1 0
vn 0 -1 0
vn 0 -1 0
vn 0 -1 0
vn -0.3825684 0 0.9238281
vn -0.3825684 0 0.9238281
vn -0.3825684 0 0.9238281
vn -0.3825684 0 0.9238281
vn -0.3825684 0 0.9238281
vn -0.3825684 0 0.9238281
vn -0.3825684 0 0.9238281
vn -0.3825684 0 0.9238281
vn -0.3825684 0 0.9238281
vn -0.3825684 0 0.9238281
vn -0.3825684 0 0.9238281
vn 0.7070313 0 -0.7070313
vn 0.7070313 0 -0.7070313
vn 0.7070313 0 -0.7070313
vn 0.7070313 0 -0.7070313
vn 0.7070313 0 -0.7070313
vn 0.7070313 0 -0.7070313
vn 0.7070313 0 -0.7070313
vn 0.7070313 0 -0.7070313
vn 0.7070313 0 -0.7070313
g Dal_Circle_out_02_0
f 3/3/3 2/2/2 1/1/1
f 5/5/5 1/1/1 4/4/4
f 8/8/8 7/7/7 6/6/6
f 9/9/9 8/8/8 6/6/6
f 9/9/9 6/6/6 10/10/10
f 11/11/11 9/9/9 10/10/10
f 9/9/9 11/11/11 12/12/12
f 13/13/13 9/9/9 12/12/12
f 8/8/8 9/9/9 13/13/13
f 14/14/14 8/8/8 13/13/13
f 17/17/17 16/16/16 15/15/15
f 18/18/18 17/17/17 15/15/15
f 18/18/18 15/15/15 19/19/19
f 20/20/20 18/18/18 19/19/19
f 23/23/23 22/22/22 21/21/21
f 22/22/22 24/24/24 21/21/21
f 21/21/21 24/24/24 25/25/25
f 22/22/22 26/26/26 24/24/24
f 24/24/24 27/27/27 25/25/25
f 26/26/26 28/28/28 24/24/24
f 24/24/24 28/28/28 27/27/27
f 28/28/28 29/29/29 27/27/27
f 32/32/32 31/31/31 30/30/30
f 31/31/31 33/33/33 30/30/30
f 31/31/31 34/34/34 33/33/33
f 34/34/34 35/35/35 33/33/33
f 38/38/38 37/37/37 36/36/36
f 37/37/37 39/39/39 36/36/36
f 36/36/36 39/39/39 40/40/40
f 39/39/39 41/41/41 40/40/40
f 44/44/44 43/43/43 42/42/42
f 42/42/42 45/45/45 44/44/44
f 45/45/45 46/46/46 44/44/44
f 45/45/45 47/47/47 46/46/46
f 50/50/50 49/49/49 48/48/48
f 48/48/48 51/51/51 50/50/50
f 48/48/48 52/52/52 51/51/51
f 52/52/52 53/53/53 51/51/51
f 56/56/56 55/55/55 54/54/54
f 54/54/54 57/57/57 56/56/56
f 54/54/54 58/58/58 57/57/57
f 61/61/61 60/60/60 59/59/59
f 60/60/60 62/62/62 59/59/59
f 62/62/62 63/63/63 59/59/59
f 63/63/63 64/64/64 59/59/59
f 67/67/67 66/66/66 65/65/65
f 65/65/65 68/68/68 67/67/67
f 65/65/65 69/69/69 68/68/68
f 72/72/72 71/71/71 70/70/70
f 72/72/72 73/73/73 71/71/71
