g Dal_Circle_out_10
v 2.549816 -0.2009459 -3.816068
v 3.2453 -0.2009458 -3.245299
v 3.288067 -0.08388136 -3.288066
v 2.583418 -0.08388146 -3.866357
v 1.756344 -0.200946 -4.240187
v 2.583418 0.08746421 -3.866357
v 3.288067 0.0874643 -3.288066
v 1.779489 0.08746413 -4.296065
v 1.779489 -0.08388152 -4.296065
v 0.895376 -0.200946 -4.501359
v 0.9071768 0.08746411 -4.560679
v 0.9071768 -0.08388159 -4.560679
v -2.006154E-07 -0.200946 -4.589545
v -2.032591E-07 0.08746408 -4.650027
v -2.032591E-07 -0.08388159 -4.650027
v 2.583418 0.08746421 -3.866357
v 3.288067 0.0874643 -3.288066
v 3.2453 0.2045288 -3.245299
v 2.549816 0.2045287 -3.816068
v 1.779489 0.08746413 -4.296065
v 1.756344 0.2045286 -4.240187
v 0.9071768 0.08746411 -4.560679
v 0.895376 0.2045286 -4.501359
v -2.032591E-07 0.08746408 -4.650027
v -2.006154E-07 0.2045286 -4.589545
v 3.2453 0.2045288 -3.245299
v 2.987356 0.2045288 -2.987355
v 2.347151 0.2045288 -3.512758
v 2.549816 0.2045287 -3.816068
v 1.616745 0.2045287 -3.903167
v 1.756344 0.2045286 -4.240187
v 0.824209 0.2045287 -4.14358
v 0.895376 0.2045286 -4.501359
v -1.8467E-07 0.2045286 -4.224758
v -2.006154E-07 0.2045286 -4.589545
v 2.987356 0.2045288 -2.987355
v 2.912609 0.1601746 -2.912608
v 2.288421 0.1601745 -3.424864
v 2.347151 0.2045288 -3.512758
v 1.576292 0.1601745 -3.805505
v 1.616745 0.2045287 -3.903167
v 0.8035868 0.1601744 -4.039903
v 0.824209 0.2045287 -4.14358
v -1.800494E-07 0.1601744 -4.119049
v -1.8467E-07 0.2045286 -4.224758
v -9.575927E-08 0.1229904 -2.190717
v 0.4273871 -0.2009456 -2.148623
v -9.575927E-08 -0.2009457 -2.190717
v 0.4273871 0.1229904 -2.148623
v 0.8383502 0.1229904 -2.023959
v 0.8383502 -0.2009456 -2.023959
v 1.217098 -0.2009456 -1.821515
v 1.217098 0.1229904 -1.821515
v 1.54907 -0.2009456 -1.549071
v 1.54907 0.1229905 -1.549071
v 0.4497909 0.1601747 -2.261255
v -9.575927E-08 0.1229904 -2.190717
v -1.00779E-07 0.1601747 -2.305555
v 0.4273871 0.1229904 -2.148623
v 0.8822974 0.1601748 -2.130055
v 0.8383502 0.1229904 -2.023959
v 1.280899 0.1601748 -1.916999
v 1.217098 0.1229904 -1.821515
v 1.630274 0.1601748 -1.630274
v 1.54907 0.1229905 -1.549071
v -1.00779E-07 0.1601747 -2.305555
v -1.800494E-07 0.1601744 -4.119049
v 0.8035868 0.1601744 -4.039903
v 1.576292 0.1601745 -3.805505
v 2.288421 0.1601745 -3.424864
v 2.912609 0.1601746 -2.912608
v 0.4497909 0.1601747 -2.261255
v 0.8822974 0.1601748 -2.130055
v 1.280899 0.1601748 -1.916999
v 1.630274 0.1601748 -1.630274
v 0.895376 -0.200946 -4.501359
v -2.006154E-07 -0.200946 -4.589545
v -9.575927E-08 -0.2009457 -2.190717
v 1.756344 -0.200946 -4.240187
v 2.549816 -0.2009459 -3.816068
v 3.2453 -0.2009458 -3.245299
v 0.4273871 -0.2009456 -2.148623
v 0.8383502 -0.2009456 -2.023959
v 1.217098 -0.2009456 -1.821515
v 1.54907 -0.2009456 -1.549071
v -1.00779E-07 0.1601747 -2.305555
v -9.575927E-08 0.1229904 -2.190717
v -1.800494E-07 0.1601744 -4.119049
v -2.032591E-07 0.08746408 -4.650027
v -2.006154E-07 0.2045286 -4.589545
v -1.8467E-07 0.2045286 -4.224758
v -2.032591E-07 -0.08388159 -4.650027
v -9.575927E-08 -0.2009457 -2.190717
v -2.006154E-07 -0.200946 -4.589545
v 3.2453 0.2045288 -3.245299
v 3.288067 0.0874643 -3.288066
v 3.288067 -0.08388136 -3.288066
v 3.2453 -0.2009458 -3.245299
v 2.987356 0.2045288 -2.987355
v 2.912609 0.1601746 -2.912608
v 3.2453 -0.2009458 -3.245299
v 1.54907 -0.2009456 -1.549071
v 2.912609 0.1601746 -2.912608
v 1.630274 0.1601748 -1.630274
v 1.54907 0.1229905 -1.549071
vt 0.7666016 0.8979492
vt 0.8393555 0.8378906
vt 0.84375 0.8427734
vt 0.7700195 0.902832
vt 0.6835938 0.9418945
vt 0.7700195 0.902832
vt 0.84375 0.8427734
vt 0.6860352 0.9477539
vt 0.6860352 0.9477539
vt 0.59375 0.9692383
vt 0.5952148 0.9755859
vt 0.5952148 0.9755859
vt 0.5004883 0.9785156
vt 0.5004883 0.9848633
vt 0.5004883 0.9848633
vt 0.7700195 0.902832
vt 0.84375 0.8427734
vt 0.8393555 0.8378906
vt 0.7666016 0.8979492
vt 0.6860352 0.9477539
vt 0.6835938 0.9418945
vt 0.5952148 0.9755859
vt 0.59375 0.9692383
vt 0.5004883 0.9848633
vt 0.5004883 0.9785156
vt 0.8393555 0.8378906
vt 0.8125 0.8110352
vt 0.7456055 0.8662109
vt 0.7666016 0.8979492
vt 0.6694336 0.9067383
vt 0.6835938 0.9418945
vt 0.5864258 0.9321289
vt 0.59375 0.9692383
vt 0.5004883 0.9404297
vt 0.5004883 0.9785156
vt 0.8125 0.8110352
vt 0.8046875 0.8032227
vt 0.7392578 0.8569336
vt 0.7456055 0.8662109
vt 0.6650391 0.8964844
vt 0.6694336 0.9067383
vt 0.5844727 0.9208984
vt 0.5864258 0.9321289
vt 0.5004883 0.9291992
vt 0.5004883 0.9404297
vt 0.5004883 0.7280273
vt 0.5449219 0.7236328
vt 0.5004883 0.7280273
vt 0.5449219 0.7236328
vt 0.5878906 0.7104492
vt 0.5878906 0.7104492
vt 0.6274414 0.6894531
vt 0.6274414 0.6894531
vt 0.6621094 0.6611328
vt 0.6621094 0.6611328
vt 0.5473633 0.7353516
vt 0.5004883 0.7280273
vt 0.5004883 0.7397461
vt 0.5449219 0.7236328
vt 0.5922852 0.7216797
vt 0.5878906 0.7104492
vt 0.6342773 0.6992188
vt 0.6274414 0.6894531
vt 0.6704102 0.6694336
vt 0.6621094 0.6611328
vt 0.5004883 0.7397461
vt 0.5004883 0.9291992
vt 0.5844727 0.9208984
vt 0.6650391 0.8964844
vt 0.7392578 0.8569336
vt 0.8046875 0.8032227
vt 0.5473633 0.7353516
vt 0.5922852 0.7216797
vt 0.6342773 0.6992188
vt 0.6704102 0.6694336
vt 0.59375 0.9692383
vt 0.5004883 0.9785156
vt 0.5004883 0.7280273
vt 0.6835938 0.9418945
vt 0.7666016 0.8979492
vt 0.8393555 0.8378906
vt 0.5449219 0.7236328
vt 0.5878906 0.7104492
vt 0.6274414 0.6894531
vt 0.6621094 0.6611328
vt 0.5004883 0.7397461
vt 0.5004883 0.7280273
vt 0.5004883 0.9291992
vt 0.5004883 0.9848633
vt 0.5004883 0.9785156
vt 0.5004883 0.9404297
vt 0.5004883 0.9848633
vt 0.5004883 0.7280273
vt 0.5004883 0.9785156
vt 0.8393555 0.8378906
vt 0.84375 0.8427734
vt 0.84375 0.8427734
vt 0.8393555 0.8378906
vt 0.8125 0.8110352
vt 0.8046875 0.8032227
vt 0.8393555 0.8378906
vt 0.6621094 0.6611328
vt 0.8046875 0.8032227
vt 0.6704102 0.6694336
vt 0.6621094 0.6611328
vn 0.4936523 -0.4589844 -0.7387695
vn 0.5639648 -0.4572754 -0.6875
vn 0.6171875 -0.2318115 -0.7519531
vn 0.5405273 -0.2329102 -0.8085938
vn 0.3400879 -0.4589844 -0.8208008
vn 0.5405273 0.2329102 -0.8085938
vn 0.6171875 0.2318115 -0.7519531
vn 0.3720703 0.2329102 -0.8984375
vn 0.3720703 -0.2329102 -0.8984375
vn 0.1733398 -0.4589844 -0.871582
vn 0.1896973 0.2329102 -0.9536133
vn 0.1896973 -0.2329102 -0.9536133
vn 0.0871582 -0.4572754 -0.8852539
vn 0.09533691 0.2318115 -0.9682617
vn 0.09533691 -0.2318115 -0.9682617
vn 0.5405273 0.2329102 -0.8085938
vn 0.6171875 0.2318115 -0.7519531
vn 0.5639648 0.4572754 -0.6875
vn 0.4936523 0.4589844 -0.7387695
vn 0.3720703 0.2329102 -0.8984375
vn 0.3400879 0.4589844 -0.8208008
vn 0.1896973 0.2329102 -0.9536133
vn 0.1733398 0.4589844 -0.871582
vn 0.09533691 0.2318115 -0.9682617
vn 0.0871582 0.4572754 -0.8852539
vn 0 1 0
vn 0 1 0
vn 0 1 0
vn 0 1 0
vn 0 1 0
vn 0 1 0
vn 0 1 0
vn 0 1 0
vn 0 1 0
vn 0 1 0
vn -0.24646 0.9213867 0.300293
vn -0.24646 0.9213867 0.300293
vn -0.2149658 0.921875 0.3217773
vn -0.2149658 0.921875 0.3217773
vn -0.1480713 0.921875 0.3574219
vn -0.1480713 0.921875 0.3574219
vn -0.07550049 0.921875 0.3793945
vn -0.07550049 0.921875 0.3793945
vn -0.03808594 0.9213867 0.3867188
vn -0.03808594 0.9213867 0.3867188
vn -0.09802246 0 0.9951172
vn -0.1950684 0 0.980957
vn -0.09802246 0 0.9951172
vn -0.1950684 0 0.980957
vn -0.3825684 0 0.9238281
vn -0.3825684 0 0.9238281
vn -0.5556641 0 0.831543
vn -0.5556641 0 0.831543
vn -0.6342773 0 0.7729492
vn -0.6342773 0 0.7729492
vn -0.06008911 0.9511719 0.3022461
vn -0.03031921 0.9511719 0.3078613
vn -0.03031921 0.9511719 0.3078613
vn -0.06008911 0.9511719 0.3022461
vn -0.1178589 0.9511719 0.284668
vn -0.1178589 0.9511719 0.284668
vn -0.1711426 0.9511719 0.2561035
vn -0.1711426 0.9511719 0.2561035
vn -0.1962891 0.9511719 0.2391357
vn -0.1962891 0.9511719 0.2391357
vn 0 1 0
vn 0 1 0
vn 0 1 0
vn 0 1 0
vn 0 1 0
vn 0 1 0
vn 0 1 0
vn 0 1 0
vn 0 1 0
vn 0 1 0
vn 0 -1 0
vn 0 -1 0
vn 0 -1 0
vn 0 -1 0
vn 0 -1 0
vn 0 -1 0
vn 0 -1 0
vn 0 -1 0
vn 0 -1 0
vn 0 -1 0
vn -1 0 0
vn -1 0 0
vn -1 0 0
vn -1 0 0
vn -1 0 0
vn -1 0 0
vn -1 0 0
vn -1 0 0
vn -1 0 0
vn 0.7070313 0 0.7070313
vn 0.7070313 0 0.7070313
vn 0.7070313 0 0.7070313
vn 0.7070313 0 0.7070313
vn 0.7070313 0 0.7070313
vn 0.7070313 0 0.7070313
vn 0.7070313 0 0.7070313
vn 0.7070313 0 0.7070313
vn 0.7070313 0 0.7070313
vn 0.7070313 0 0.7070313
vn 0.7070313 0 0.7070313
g Dal_Circle_out_10_0
f 3/3/3 2/2/2 1/1/1
f 4/4/4 3/3/3 1/1/1
f 4/4/4 1/1/1 5/5/5
f 3/3/3 4/4/4 6/6/6
f 7/7/7 3/3/3 6/6/6
f 6/6/6 4/4/4 8/8/8
f 9/9/9 4/4/4 5/5/5
f 4/4/4 9/9/9 8/8/8
f 9/9/9 5/5/5 10/10/10
f 8/8/8 9/9/9 11/11/11
f 12/12/12 9/9/9 10/10/10
f 9/9/9 12/12/12 11/11/11
f 12/12/12 10/10/10 13/13/13
f 11/11/11 12/12/12 14/14/14
f 15/15/15 12/12/12 13/13/13
f 12/12/12 15/15/15 14/14/14
f 18/18/18 17/17/17 16/16/16
f 19/19/19 18/18/18 16/16/16
f 19/19/19 16/16/16 20/20/20
f 21/21/21 19/19/19 20/20/20
f 21/21/21 20/20/20 22/22/22
f 23/23/23 21/21/21 22/22/22
f 23/23/23 22/22/22 24/24/24
f 25/25/25 23/23/23 24/24/24
f 28/28/28 27/27/27 26/26/26
f 29/29/29 28/28/28 26/26/26
f 30/30/30 28/28/28 29/29/29
f 31/31/31 30/30/30 29/29/29
f 32/32/32 30/30/30 31/31/31
f 33/33/33 32/32/32 31/31/31
f 34/34/34 32/32/32 33/33/33
f 35/35/35 34/34/34 33/33/33
f 38/38/38 37/37/37 36/36/36
f 39/39/39 38/38/38 36/36/36
f 40/40/40 38/38/38 39/39/39
f 41/41/41 40/40/40 39/39/39
f 42/42/42 40/40/40 41/41/41
f 43/43/43 42/42/42 41/41/41
f 44/44/44 42/42/42 43/43/43
f 45/45/45 44/44/44 43/43/43
f 48/48/48 47/47/47 46/46/46
f 47/47/47 49/49/49 46/46/46
f 50/50/50 49/49/49 47/47/47
f 51/51/51 50/50/50 47/47/47
f 51/51/51 52/52/52 50/50/50
f 52/52/52 53/53/53 50/50/50
f 52/52/52 54/54/54 53/53/53
f 54/54/54 55/55/55 53/53/53
f 58/58/58 57/57/57 56/56/56
f 57/57/57 59/59/59 56/56/56
f 56/56/56 59/59/59 60/60/60
f 59/59/59 61/61/61 60/60/60
f 60/60/60 61/61/61 62/62/62
f 61/61/61 63/63/63 62/62/62
f 62/62/62 63/63/63 64/64/64
f 63/63/63 65/65/65 64/64/64
f 68/68/68 67/67/67 66/66/66
f 66/66/66 69/69/69 68/68/68
f 66/66/66 70/70/70 69/69/69
f 66/66/66 71/71/71 70/70/70
f 66/66/66 72/72/72 71/71/71
f 72/72/72 73/73/73 71/71/71
f 73/73/73 74/74/74 71/71/71
f 74/74/74 75/75/75 71/71/71
f 78/78/78 77/77/77 76/76/76
f 76/76/76 79/79/79 78/78/78
f 79/79/79 80/80/80 78/78/78
f 80/80/80 81/81/81 78/78/78
f 81/81/81 82/82/82 78/78/78
f 81/81/81 83/83/83 82/82/82
f 81/81/81 84/84/84 83/83/83
f 81/81/81 85/85/85 84/84/84
f 88/88/88 87/87/87 86/86/86
f 87/87/87 88/88/88 89/89/89
f 88/88/88 90/90/90 89/89/89
f 88/88/88 91/91/91 90/90/90
f 87/87/87 89/89/89 92/92/92
f 93/93/93 87/87/87 92/92/92
f 92/92/92 94/94/94 93/93/93
f 97/97/97 96/96/96 95/95/95
f 95/95/95 98/98/98 97/97/97
f 95/95/95 99/99/99 98/98/98
f 99/99/99 100/100/100 98/98/98
f 103/103/103 102/102/102 101/101/101
f 103/103/103 104/104/104 102/102/102
f 104/104/104 105/105/105 102/102/102
