g Dal_Circle_in_04
v 0.08556365 0.1976044 -0.2065738
v -0.8189945 0.1617508 1.977221
v -0.8383521 0.1074645 2.023958
v 0.08556365 0.1976044 -0.2065738
v -0.7698879 0.1976048 1.858667
v -0.8189945 0.1617508 1.977221
v -0.8383521 -0.197448 2.023958
v 0.09317397 -0.1974484 -0.2249443
v -0.8383521 0.1074645 2.023958
v 1.217096 -0.1974481 1.821516
v 1.54907 0.1074644 1.549072
v 1.54907 -0.1974481 1.549072
v 1.217096 0.1074645 1.821516
v 0.8383504 -0.197448 2.023959
v 0.8383504 0.1074645 2.023959
v 0.4273854 -0.197448 2.148624
v 0.4273854 0.1074645 2.148624
v -1.811589E-06 -0.197448 2.190717
v -1.811589E-06 0.1074645 2.190717
v -0.4273891 -0.197448 2.148623
v -0.4273891 0.1074645 2.148623
v -0.8383521 -0.197448 2.023958
v -0.8383521 0.1074645 2.023958
v 1.217096 0.1074645 1.821516
v 1.5133 0.1617508 1.513301
v 1.54907 0.1074644 1.549072
v 1.188992 0.1617508 1.779453
v 0.8383504 0.1074645 2.023959
v 0.8189908 0.1617508 1.977222
v 0.4273854 0.1074645 2.148624
v 0.4175168 0.1617509 2.099008
v -1.811589E-06 0.1074645 2.190717
v -1.813801E-06 0.1617509 2.140129
v -0.4273891 0.1074645 2.148623
v -0.4175204 0.1617509 2.099007
v -0.8383521 0.1074645 2.023958
v -0.8189945 0.1617508 1.977221
v 1.188992 0.1617508 1.779453
v 1.422562 0.1976047 1.422563
v 1.5133 0.1617508 1.513301
v 1.117699 0.1976047 1.672758
v 0.8189908 0.1617508 1.977222
v 0.7698842 0.1976048 1.858669
v 0.4175168 0.1617509 2.099008
v 0.3924828 0.1976048 1.973152
v -1.813801E-06 0.1617509 2.140129
v -1.81941E-06 0.1976048 2.011807
v -0.4175204 0.1617509 2.099007
v -0.3924865 0.1976048 1.973151
v -0.8189945 0.1617508 1.977221
v -0.7698879 0.1976048 1.858667
v -0.7698879 0.1976048 1.858667
v 0.08556365 0.1976044 -0.2065738
v 1.422562 0.1976047 1.422563
v 1.117699 0.1976047 1.672758
v 0.7698842 0.1976048 1.858669
v -0.3924865 0.1976048 1.973151
v 0.3924828 0.1976048 1.973152
v -1.81941E-06 0.1976048 2.011807
v 1.54907 -0.1974481 1.549072
v 0.09317397 -0.1974484 -0.2249443
v -0.8383521 -0.197448 2.023958
v 1.217096 -0.1974481 1.821516
v 0.8383504 -0.197448 2.023959
v -0.4273891 -0.197448 2.148623
v 0.4273854 -0.197448 2.148624
v -1.811589E-06 -0.197448 2.190717
v 0.08556365 0.1976044 -0.2065738
v 0.09317397 -0.1974484 -0.2249443
v 1.54907 -0.1974481 1.549072
v 1.54907 0.1074644 1.549072
v 1.5133 0.1617508 1.513301
v 1.422562 0.1976047 1.422563
vt 0.5092773 0.5205078
vt 0.4147949 0.2927246
vt 0.4128418 0.2878418
vt 0.5092773 0.5205078
vt 0.4199219 0.3049316
vt 0.4147949 0.2927246
vt 0.4128418 0.2878418
vt 0.5102539 0.5224609
vt 0.4128418 0.2878418
vt 0.6274414 0.3088379
vt 0.6621094 0.3374023
vt 0.6621094 0.3374023
vt 0.6274414 0.3088379
vt 0.5878906 0.2878418
vt 0.5878906 0.2878418
vt 0.5449219 0.2746582
vt 0.5449219 0.2746582
vt 0.5004883 0.2702637
vt 0.5004883 0.2702637
vt 0.4558105 0.2746582
vt 0.4558105 0.2746582
vt 0.4128418 0.2878418
vt 0.4128418 0.2878418
vt 0.6274414 0.3088379
vt 0.6582031 0.3410645
vt 0.6621094 0.3374023
vt 0.6245117 0.3132324
vt 0.5878906 0.2878418
vt 0.5859375 0.2927246
vt 0.5449219 0.2746582
vt 0.5439453 0.2800293
vt 0.5004883 0.2702637
vt 0.5004883 0.2756348
vt 0.4558105 0.2746582
vt 0.4567871 0.2800293
vt 0.4128418 0.2878418
vt 0.4147949 0.2927246
vt 0.6245117 0.3132324
vt 0.6489258 0.3505859
vt 0.6582031 0.3410645
vt 0.6171875 0.3244629
vt 0.5859375 0.2927246
vt 0.5805664 0.3049316
vt 0.5439453 0.2800293
vt 0.5415039 0.2929688
vt 0.5004883 0.2756348
vt 0.5004883 0.2890625
vt 0.4567871 0.2800293
vt 0.4594727 0.2929688
vt 0.4147949 0.2927246
vt 0.4199219 0.3049316
vt 0.4199219 0.3049316
vt 0.5092773 0.5205078
vt 0.6489258 0.3505859
vt 0.6171875 0.3244629
vt 0.5805664 0.3049316
vt 0.4594727 0.2929688
vt 0.5415039 0.2929688
vt 0.5004883 0.2890625
vt 0.6621094 0.3374023
vt 0.5102539 0.5224609
vt 0.4128418 0.2878418
vt 0.6274414 0.3088379
vt 0.5878906 0.2878418
vt 0.4558105 0.2746582
vt 0.5449219 0.2746582
vt 0.5004883 0.2702637
vt 0.5092773 0.5205078
vt 0.5102539 0.5224609
vt 0.6621094 0.3374023
vt 0.6621094 0.3374023
vt 0.6582031 0.3410645
vt 0.6489258 0.3505859
vn -0.9238281 0 -0.3825684
vn -0.9238281 0 -0.3825684
vn -0.9238281 0 -0.3825684
vn -0.9238281 0 -0.3825684
vn -0.9238281 0 -0.3825684
vn -0.9238281 0 -0.3825684
vn -0.9238281 0 -0.3825684
vn -0.9238281 0 -0.3825684
vn -0.9238281 0 -0.3825684
vn 0.5556641 0 0.831543
vn 0.6342773 0 0.7729492
vn 0.6342773 0 0.7729492
vn 0.5556641 0 0.831543
vn 0.3825684 0 0.9238281
vn 0.3825684 0 0.9238281
vn 0.1950684 0 0.980957
vn 0.1950684 0 0.980957
vn 0 0 1
vn 0 0 1
vn -0.1950684 0 0.980957
vn -0.1950684 0 0.980957
vn -0.2902832 0 0.9570313
vn -0.2902832 0 0.9570313
vn 0.4064941 0.6816406 0.6083984
vn 0.4650879 0.6801758 0.5668945
vn 0.4650879 0.6801758 0.5668945
vn 0.4064941 0.6816406 0.6083984
vn 0.2800293 0.6816406 0.6757813
vn 0.2800293 0.6816406 0.6757813
vn 0.1427002 0.6816406 0.7177734
vn 0.1427002 0.6816406 0.7177734
vn 0 0.6816406 0.7314453
vn 0 0.6816406 0.7314453
vn -0.1427002 0.6816406 0.7177734
vn -0.1427002 0.6816406 0.7177734
vn -0.2128906 0.6801758 0.7016602
vn -0.2128906 0.6801758 0.7016602
vn 0.1495361 0.9628906 0.2237549
vn 0.1715088 0.9628906 0.2089844
vn 0.1715088 0.9628906 0.2089844
vn 0.1495361 0.9628906 0.2237549
vn 0.1029663 0.9628906 0.2486572
vn 0.1029663 0.9628906 0.2486572
vn 0.05249023 0.9628906 0.263916
vn 0.05249023 0.9628906 0.263916
vn 0 0.9628906 0.269043
vn 0 0.9628906 0.269043
vn -0.05249023 0.9628906 0.263916
vn -0.05249023 0.9628906 0.263916
vn -0.07849121 0.9628906 0.2587891
vn -0.07849121 0.9628906 0.2587891
vn 0 1 0
vn 0 1 0
vn 0 1 0
vn 0 1 0
vn 0 1 0
vn 0 1 0
vn 0 1 0
vn 0 1 0
vn 0 -1 0
vn 0 -1 0
vn 0 -1 0
vn 0 -1 0
vn 0 -1 0
vn 0 -1 0
vn 0 -1 0
vn 0 -1 0
vn 0.7700195 0.0428772 -0.6362305
vn 0.7700195 0.0428772 -0.6362305
vn 0.7700195 0.0428772 -0.6362305
vn 0.7700195 0.0428772 -0.6362305
vn 0.7700195 0.0428772 -0.6362305
vn 0.7700195 0.0428772 -0.6362305
g Dal_Circle_in_04_0
f 3/3/3 2/2/2 1/1/1
f 6/6/6 5/5/5 4/4/4
f 4/4/4 8/8/8 7/7/7
f 7/7/7 9/9/9 4/4/4
f 12/12/12 11/11/11 10/10/10
f 11/11/11 13/13/13 10/10/10
f 10/10/10 13/13/13 14/14/14
f 13/13/13 15/15/15 14/14/14
f 14/14/14 15/15/15 16/16/16
f 15/15/15 17/17/17 16/16/16
f 16/16/16 17/17/17 18/18/18
f 17/17/17 19/19/19 18/18/18
f 18/18/18 19/19/19 20/20/20
f 19/19/19 21/21/21 20/20/20
f 20/20/20 21/21/21 22/22/22
f 21/21/21 23/23/23 22/22/22
f 26/26/26 25/25/25 24/24/24
f 25/25/25 27/27/27 24/24/24
f 24/24/24 27/27/27 28/28/28
f 27/27/27 29/29/29 28/28/28
f 28/28/28 29/29/29 30/30/30
f 29/29/29 31/31/31 30/30/30
f 30/30/30 31/31/31 32/32/32
f 31/31/31 33/33/33 32/32/32
f 32/32/32 33/33/33 34/34/34
f 33/33/33 35/35/35 34/34/34
f 34/34/34 35/35/35 36/36/36
f 35/35/35 37/37/37 36/36/36
f 40/40/40 39/39/39 38/38/38
f 39/39/39 41/41/41 38/38/38
f 38/38/38 41/41/41 42/42/42
f 41/41/41 43/43/43 42/42/42
f 42/42/42 43/43/43 44/44/44
f 43/43/43 45/45/45 44/44/44
f 44/44/44 45/45/45 46/46/46
f 45/45/45 47/47/47 46/46/46
f 46/46/46 47/47/47 48/48/48
f 47/47/47 49/49/49 48/48/48
f 48/48/48 49/49/49 50/50/50
f 49/49/49 51/51/51 50/50/50
f 54/54/54 53/53/53 52/52/52
f 52/52/52 55/55/55 54/54/54
f 52/52/52 56/56/56 55/55/55
f 52/52/52 57/57/57 56/56/56
f 57/57/57 58/58/58 56/56/56
f 57/57/57 59/59/59 58/58/58
f 62/62/62 61/61/61 60/60/60
f 60/60/60 63/63/63 62/62/62
f 63/63/63 64/64/64 62/62/62
f 64/64/64 65/65/65 62/62/62
f 64/64/64 66/66/66 65/65/65
f 66/66/66 67/67/67 65/65/65
f 70/70/70 69/69/69 68/68/68
f 68/68/68 71/71/71 70/70/70
f 68/68/68 72/72/72 71/71/71
f 68/68/68 73/73/73 72/72/72
