g Stone_04
v 0.1210067 0.1110818 0.004194549
v 0.09137081 0.09448716 0.1096703
v 0.02692154 0.1528523 0.08731156
v 0.1210067 0.1110818 0.004194549
v 0.02692154 0.1528523 0.08731156
v 0.01777344 0.1653066 0.03022533
v -0.05346633 0.1588035 0.07053597
v -0.05346633 0.1588035 0.07053597
v -0.1010344 0.1150017 0.098534
v -0.1685434 0.09367834 0.01714318
v -0.132538 0.1284906 0.00266932
v 0.01777344 0.1653066 0.03022533
v -0.04187346 0.1390329 -0.03776813
v 0.02869264 0.09226915 -0.09539313
v 0.1210067 0.1110818 0.004194549
v 0.1322195 0.08151916 -0.1214829
v 0.174679 0.08665995 -0.08342458
v 0.1458403 0.04795241 -0.1492303
v 0.2113386 0.04565549 -0.1072306
v 0.174679 0.08665995 -0.08342458
v -0.008072608 0.04495538 -0.147161
v -0.06849119 0.09470677 -0.07939474
v -0.04187346 0.1390329 -0.03776813
v -0.1065822 0.04569922 -0.11635
v 0.003946739 -0.003600703 -0.1194406
v -0.09766483 -0.001504052 -0.1107223
v 0.08144314 -0.008702995 -0.03572055
v 0.1293459 -0.00289098 -0.1261106
v 0.2016501 -0.001355856 -0.1085891
v 0.2176315 -0.002370923 -0.04130515
v 0.2087775 0.04748458 -0.02687275
v 0.174679 0.08665995 -0.08342458
v 0.1210067 0.1110818 0.004194549
v 0.1724393 -0.003002059 0.04085824
v 0.01209767 0.003249725 0.05549027
v -0.1001849 -0.003554339 -0.0356246
v 0.1623339 0.0460593 0.07121977
v 0.1210067 0.1110818 0.004194549
v 0.09137081 0.09448716 0.1096703
v 0.1580436 0.0008969675 0.08845613
v 0.09211428 0.01339639 0.1098941
v 0.01703403 0.03068199 0.1577229
v 0.02429298 0.08783609 0.1601286
v -0.159496 0.04392738 -0.05118163
v -0.1065822 0.04569922 -0.11635
v -0.1596907 0.0902134 -0.03375963
v -0.06849119 0.09470677 -0.07939474
v -0.04187346 0.1390329 -0.03776813
v -0.132538 0.1284906 0.00266932
v -0.1685434 0.09367834 0.01714318
v -0.1631314 0.04797608 0.01594214
v -0.1685434 0.09367834 0.01714318
v -0.1596907 0.0902134 -0.03375963
v -0.1215431 0.00196528 0.01683139
v -0.09674665 0.02495545 0.1009672
v -0.03358207 0.04328006 0.1459141
v -0.04455299 0.07416505 0.1598408
v 0.02429298 0.08783609 0.1601286
v -0.03125134 0.1239563 0.1465818
v -0.1112886 0.06550385 0.1047002
v -0.03125134 0.1239563 0.1465818
v -0.1010344 0.1150017 0.098534
v -0.1215431 0.00196528 0.01683139
v -0.1631314 0.04797608 0.01594214
v -0.1010344 0.1150017 0.098534
v -0.1685434 0.09367834 0.01714318
v 0.09137081 0.09448716 0.1096703
v 0.02429298 0.08783609 0.1601286
v -0.03125134 0.1239563 0.1465818
v 0.02692154 0.1528523 0.08731156
v -0.05346633 0.1588035 0.07053597
v 0.02692154 0.1528523 0.08731156
v -0.03125134 0.1239563 0.1465818
v -0.1010344 0.1150017 0.098534
vt 0.6967773 0.5
vt 0.625 0.5483398
vt 0.703125 0.5600586
vt 0.8032227 0.5
vt 0.703125 0.5600586
vt 0.796875 0.5600586
vt 0.796875 0.6899414
vt 0.796875 0.6899414
vt 0.8022461 0.737793
vt 0.875 0.7329102
vt 0.875 0.7016602
vt 0.796875 0.5600586
vt 0.875 0.5483398
vt 0.5385742 0.25
vt 0.625 0.4282227
vt 0.5078125 0.3303223
vt 0.4672852 0.416748
vt 0.375 0.3398438
vt 0.375 0.4101563
vt 0.4672852 0.416748
vt 0.375 0.25
vt 0.4938965 0.1877441
vt 0.625 0.2015381
vt 0.375 0.175293
vt 0.375 0.25
vt 0.375 0.175293
vt 0.375 0.40625
vt 0.375 0.3398438
vt 0.375 0.4101563
vt 0.375 0.5
vt 0.375 0.5
vt 0.4672852 0.4431152
vt 0.4680176 0.5
vt 0.375 0.5605469
vt 0.375 0.4626465
vt 0.375 0.07470703
vt 0.375 0.574707
vt 0.4858398 0.5629883
vt 0.4450684 0.6826172
vt 0.375 0.574707
vt 0.375 0.675293
vt 0.375 0.75
vt 0.4433594 0.7368164
vt 0.375 0.07470703
vt 0.375 0.175293
vt 0.4606934 0.06573486
vt 0.4938965 0.1877441
vt 0.625 0.2015381
vt 0.625 0.04849243
vt 0.625 0.01687622
vt 0.375 0
vt 0.375 0.004074097
vt 0.375 0.0531311
vt 0.375 0
vt 0.375 0.9101563
vt 0.375 0.8398438
vt 0.375 0.8398438
vt 0.375 0.75
vt 0.375 0.8271484
vt 0.375 0.9101563
vt 0.375 0.84375
vt 0.375 0.9101563
vt 0.375 1
vt 0.375 1
vt 0.375 0.9150391
vt 0.375 0.9995117
vt 0.625 0.7016602
vt 0.625 0.7368164
vt 0.6977539 0.7412109
vt 0.703125 0.6899414
vt 0.796875 0.6899414
vt 0.703125 0.6899414
vt 0.6977539 0.7412109
vt 0.8022461 0.737793
vn 0.4743652 0.8803711 0.01409912
vn 0.59375 0.4699707 0.652832
vn 0.2695313 0.8808594 0.388916
vn 0.4743652 0.8803711 0.01409912
vn 0.2695313 0.8808594 0.388916
vn 0.1821289 0.9750977 -0.1268311
vn -0.2631836 0.9448242 0.1948242
vn -0.2631836 0.9448242 0.1948242
vn -0.6220703 0.5405273 0.565918
vn -0.9077148 0.3708496 0.1971436
vn -0.4953613 0.8569336 -0.1435547
vn 0.1821289 0.9750977 -0.1268311
vn -0.08721924 0.8764648 -0.473877
vn 0.02093506 0.8183594 -0.5742188
vn 0.4743652 0.8803711 0.01409912
vn 0.1329346 0.8393555 -0.5268555
vn 0.4536133 0.8666992 -0.206665
vn 0.2492676 0.2011719 -0.9472656
vn 0.8212891 0.3076172 -0.480957
vn 0.4536133 0.8666992 -0.206665
vn -0.137207 0.1821289 -0.9736328
vn -0.2668457 0.7104492 -0.6513672
vn -0.08721924 0.8764648 -0.473877
vn -0.5551758 0.06921387 -0.8286133
vn -0.06762695 -0.8398438 -0.5385742
vn -0.3823242 -0.7832031 -0.4902344
vn -0.004974365 -0.9995117 0.02478027
vn 0.1089478 -0.8056641 -0.5820313
vn 0.5913086 -0.6669922 -0.4533691
vn 0.7724609 -0.6279297 0.09552002
vn 0.8964844 0.3776855 0.2310791
vn 0.4536133 0.8666992 -0.206665
vn 0.4743652 0.8803711 0.01409912
vn 0.597168 -0.7348633 0.3217773
vn -0.06262207 -0.9824219 0.177002
vn -0.3635254 -0.9311523 -0.02432251
vn 0.7446289 0.3549805 0.5654297
vn 0.4743652 0.8803711 0.01409912
vn 0.59375 0.4699707 0.652832
vn 0.5351563 -0.5239258 0.6630859
vn 0.2692871 -0.6650391 0.6962891
vn 0.1009521 -0.5717773 0.8139648
vn 0.3173828 0.3015137 0.8989258
vn -0.8964844 -0.1853027 -0.402832
vn -0.5551758 0.06921387 -0.8286133
vn -0.7695313 0.486084 -0.4145508
vn -0.2668457 0.7104492 -0.6513672
vn -0.08721924 0.8764648 -0.473877
vn -0.4953613 0.8569336 -0.1435547
vn -0.9077148 0.3708496 0.1971436
vn -0.9199219 -0.3305664 0.2119141
vn -0.9077148 0.3708496 0.1971436
vn -0.7695313 0.486084 -0.4145508
vn -0.4746094 -0.8505859 0.2260742
vn -0.4299316 -0.7431641 0.5126953
vn -0.3049316 -0.7104492 0.6342773
vn -0.3869629 -0.03753662 0.9213867
vn 0.3173828 0.3015137 0.8989258
vn -0.1568604 0.5986328 0.7856445
vn -0.7290039 -0.1356201 0.6708984
vn -0.1568604 0.5986328 0.7856445
vn -0.6220703 0.5405273 0.565918
vn -0.4746094 -0.8505859 0.2260742
vn -0.9199219 -0.3305664 0.2119141
vn -0.6220703 0.5405273 0.565918
vn -0.9077148 0.3708496 0.1971436
vn 0.59375 0.4699707 0.652832
vn 0.3173828 0.3015137 0.8989258
vn -0.1568604 0.5986328 0.7856445
vn 0.2695313 0.8808594 0.388916
vn -0.2631836 0.9448242 0.1948242
vn 0.2695313 0.8808594 0.388916
vn -0.1568604 0.5986328 0.7856445
vn -0.6220703 0.5405273 0.565918
g Stone_04_0
f 3/3/3 2/2/2 1/1/1
f 6/6/6 5/5/5 4/4/4
f 5/5/5 6/6/6 7/7/7
f 10/10/10 9/9/9 8/8/8
f 11/11/11 10/10/10 8/8/8
f 8/8/8 12/12/12 11/11/11
f 12/12/12 13/13/13 11/11/11
f 13/13/13 12/12/12 14/14/14
f 12/12/12 15/15/15 14/14/14
f 14/14/14 15/15/15 16/16/16
f 15/15/15 17/17/17 16/16/16
f 14/14/14 16/16/16 18/18/18
f 18/18/18 16/16/16 19/19/19
f 16/16/16 20/20/20 19/19/19
f 21/21/21 14/14/14 18/18/18
f 22/22/22 14/14/14 21/21/21
f 23/23/23 14/14/14 22/22/22
f 24/24/24 22/22/22 21/21/21
f 21/21/21 25/25/25 24/24/24
f 25/25/25 26/26/26 24/24/24
f 26/26/26 25/25/25 27/27/27
f 28/28/28 25/25/25 21/21/21
f 18/18/18 28/28/28 21/21/21
f 25/25/25 28/28/28 27/27/27
f 29/29/29 28/28/28 18/18/18
f 19/19/19 29/29/29 18/18/18
f 27/27/27 28/28/28 29/29/29
f 30/30/30 29/29/29 19/19/19
f 29/29/29 30/30/30 27/27/27
f 31/31/31 30/30/30 19/19/19
f 19/19/19 32/32/32 31/31/31
f 32/32/32 33/33/33 31/31/31
f 34/34/34 30/30/30 31/31/31
f 30/30/30 34/34/34 27/27/27
f 35/35/35 27/27/27 34/34/34
f 27/27/27 35/35/35 36/36/36
f 27/27/27 36/36/36 26/26/26
f 37/37/37 34/34/34 31/31/31
f 31/31/31 38/38/38 37/37/37
f 38/38/38 39/39/39 37/37/37
f 40/40/40 34/34/34 37/37/37
f 34/34/34 40/40/40 35/35/35
f 41/41/41 40/40/40 37/37/37
f 37/37/37 39/39/39 41/41/41
f 40/40/40 41/41/41 35/35/35
f 41/41/41 39/39/39 42/42/42
f 35/35/35 41/41/41 42/42/42
f 39/39/39 43/43/43 42/42/42
f 26/26/26 36/36/36 44/44/44
f 45/45/45 26/26/26 44/44/44
f 44/44/44 46/46/46 45/45/45
f 46/46/46 47/47/47 45/45/45
f 47/47/47 46/46/46 48/48/48
f 46/46/46 49/49/49 48/48/48
f 49/49/49 46/46/46 50/50/50
f 44/44/44 36/36/36 51/51/51
f 51/51/51 52/52/52 44/44/44
f 52/52/52 53/53/53 44/44/44
f 36/36/36 54/54/54 51/51/51
f 54/54/54 36/36/36 35/35/35
f 35/35/35 55/55/55 54/54/54
f 35/35/35 56/56/56 55/55/55
f 56/56/56 35/35/35 42/42/42
f 57/57/57 56/56/56 42/42/42
f 55/55/55 56/56/56 57/57/57
f 42/42/42 58/58/58 57/57/57
f 58/58/58 59/59/59 57/57/57
f 60/60/60 55/55/55 57/57/57
f 57/57/57 61/61/61 60/60/60
f 61/61/61 62/62/62 60/60/60
f 63/63/63 55/55/55 60/60/60
f 64/64/64 63/63/63 60/60/60
f 60/60/60 65/65/65 64/64/64
f 65/65/65 66/66/66 64/64/64
f 69/69/69 68/68/68 67/67/67
f 70/70/70 69/69/69 67/67/67
f 73/73/73 72/72/72 71/71/71
f 74/74/74 73/73/73 71/71/71
