g Stone_01
v -0.05529657 0.01952519 -0.04558333
v -0.02877155 0.02262417 -0.06955709
v -0.03871556 0.05384315 -0.03129651
v 0.01439379 0.05822603 -0.05162335
v -0.02877155 0.02262417 -0.06955709
v 0.001844372 0.04092657 -0.07990386
v -0.001577631 0.01915677 -0.07861857
v -0.03871556 0.05384315 -0.03129651
v -0.0222064 0.07950761 0.03258562
v -0.06445807 0.05586065 -0.005869648
v -0.06963851 0.06654363 0.0296851
v -0.03871556 0.05384315 -0.03129651
v 0.01760225 0.07401465 0.009813698
v -0.0222064 0.07950761 0.03258562
v 0.01439379 0.05822603 -0.05162335
v 0.05696696 0.05883901 -0.01133816
v -0.07252982 0.01997714 0.04846862
v -0.06600533 -0.001183486 0.04294869
v -0.0769868 -0.001183491 0.01269314
v -0.08249184 0.01802467 0.01693998
v -0.07325763 0.04535035 0.04908425
v -0.06874063 -0.001183496 -0.01689401
v -0.07197057 0.01996519 -0.01948937
v -0.05207437 -0.001183499 -0.03877621
v -0.05529657 0.01952519 -0.04558333
v -0.02609514 -0.001183503 -0.06130494
v -0.02877155 0.02262417 -0.06955709
v -0.001512762 -0.001183504 -0.06892651
v -0.001577631 0.01915677 -0.07861857
v 0.02732851 -0.001183502 -0.05412155
v 0.05926326 -0.001183499 -0.03564032
v 0.03132097 0.01877747 -0.0675566
v 0.001844372 0.04092657 -0.07990386
v 0.06889874 -0.001183493 0.0005935521
v 0.06768868 0.02043728 -0.04592495
v 0.02952508 0.03933173 -0.0724192
v 0.01439379 0.05822603 -0.05162335
v 0.05696696 0.05883901 -0.01133816
v 0.06725493 0.04320638 -0.04480829
v 0.05571246 -0.001183485 0.04681703
v -0.06600533 -0.001183486 0.04294869
v 0.07381757 0.01549163 0.001113391
v 0.07236253 0.03834894 0.0009719839
v 0.05696696 0.05883901 -0.01133816
v 0.06121065 0.03877684 0.04315085
v 0.06048339 0.01657323 0.05142859
v -0.02423588 -0.001183482 0.06872821
v 0.01700826 -0.001183481 0.07492458
v 0.01873652 0.01894601 0.08334468
v 0.06121065 0.03877684 0.04315085
v 0.0214671 0.0425178 0.0734356
v -0.02503318 0.01999428 0.07635189
v 0.0214671 0.0425178 0.0734356
v -0.02419691 0.04610045 0.0706462
v -0.07252982 0.01997714 0.04846862
v -0.02419691 0.04610045 0.0706462
v -0.07325763 0.04535035 0.04908425
v -0.0222064 0.07950761 0.03258562
v -0.02419691 0.04610045 0.0706462
v -0.07325763 0.04535035 0.04908425
v -0.06963851 0.06654363 0.0296851
v -0.07197057 0.01996519 -0.01948937
v -0.05529657 0.01952519 -0.04558333
v -0.03871556 0.05384315 -0.03129651
v -0.06445807 0.05586065 -0.005869648
v -0.06445807 0.05586065 -0.005869648
v -0.08249184 0.01802467 0.01693998
v -0.07197057 0.01996519 -0.01948937
v -0.06963851 0.06654363 0.0296851
v -0.07325763 0.04535035 0.04908425
v 0.05696696 0.05883901 -0.01133816
v 0.06121065 0.03877684 0.04315085
v 0.0214671 0.0425178 0.0734356
v 0.01760225 0.07401465 0.009813698
v -0.0222064 0.07950761 0.03258562
v 0.01760225 0.07401465 0.009813698
v 0.0214671 0.0425178 0.0734356
v -0.02419691 0.04610045 0.0706462
vt 0.5385742 0.25
vt 0.5078125 0.3303223
vt 0.625 0.3217773
vt 0.625 0.4282227
vt 0.5078125 0.3303223
vt 0.4672852 0.416748
vt 0.375 0.4101563
vt 0.875 0.5
vt 0.796875 0.5600586
vt 0.875 0.5483398
vt 0.875 0.7016602
vt 0.8032227 0.5
vt 0.703125 0.5600586
vt 0.796875 0.5600586
vt 0.6967773 0.5
vt 0.625 0.5483398
vt 0.375 0
vt 0.375 0
vt 0.375 0.07470703
vt 0.375 0.07470703
vt 0.375 0.004074097
vt 0.375 0.175293
vt 0.375 0.175293
vt 0.375 0.25
vt 0.375 0.25
vt 0.375 0.3398438
vt 0.375 0.3398438
vt 0.375 0.4101563
vt 0.375 0.4101563
vt 0.375 0.5
vt 0.375 0.574707
vt 0.375 0.5
vt 0.4672852 0.4431152
vt 0.375 0.675293
vt 0.375 0.574707
vt 0.4680176 0.5
vt 0.625 0.5
vt 0.625 0.5483398
vt 0.4858398 0.5629883
vt 0.375 0.75
vt 0.375 1
vt 0.375 0.675293
vt 0.4450684 0.6826172
vt 0.625 0.7016602
vt 0.4433594 0.7368164
vt 0.375 0.75
vt 0.375 0.9101563
vt 0.375 0.8398438
vt 0.375 0.8398438
vt 0.375 0.75
vt 0.375 0.8271484
vt 0.375 0.9101563
vt 0.375 0.84375
vt 0.375 0.9101563
vt 0.375 1
vt 0.375 0.9150391
vt 0.375 0.9995117
vt 0.796875 0.6899414
vt 0.8022461 0.737793
vt 0.875 0.7329102
vt 0.875 0.7016602
vt 0.4938965 0.1877441
vt 0.5385742 0.25
vt 0.625 0.25
vt 0.625 0.2015381
vt 0.625 0.2015381
vt 0.4606934 0.06573486
vt 0.4938965 0.1877441
vt 0.625 0.04849243
vt 0.625 0.01687622
vt 0.625 0.7016602
vt 0.625 0.7368164
vt 0.6977539 0.7412109
vt 0.703125 0.6899414
vt 0.796875 0.6899414
vt 0.703125 0.6899414
vt 0.6977539 0.7412109
vt 0.8022461 0.737793
vn -0.7319336 0.09698486 -0.6743164
vn -0.5273438 0.1446533 -0.8374023
vn -0.4160156 0.7744141 -0.4765625
vn 0.01773071 0.8979492 -0.4399414
vn -0.5273438 0.1446533 -0.8374023
vn -0.07946777 0.4414063 -0.8935547
vn -0.01763916 -0.2685547 -0.9628906
vn -0.4160156 0.7744141 -0.4765625
vn -0.08166504 0.9697266 0.2312012
vn -0.6494141 0.6557617 -0.3850098
vn -0.6425781 0.7568359 0.1213989
vn -0.4160156 0.7744141 -0.4765625
vn 0.178833 0.9814453 0.06585693
vn -0.08166504 0.9697266 0.2312012
vn 0.01773071 0.8979492 -0.4399414
vn 0.534668 0.84375 -0.04248047
vn -0.7592773 -0.1564941 0.6313477
vn -0.4956055 -0.7695313 0.402832
vn -0.6694336 -0.7426758 -0.0105896
vn -0.9990234 -0.04144287 0.001739502
vn -0.7231445 0.3498535 0.5952148
vn -0.6025391 -0.7460938 -0.282959
vn -0.8842773 0.09576416 -0.456543
vn -0.4665527 -0.7832031 -0.4106445
vn -0.7319336 0.09698486 -0.6743164
vn -0.3125 -0.7885742 -0.5297852
vn -0.5273438 0.1446533 -0.8374023
vn 0.01446533 -0.7998047 -0.5996094
vn -0.01763916 -0.2685547 -0.9628906
vn 0.2259521 -0.8686523 -0.440918
vn 0.498291 -0.8066406 -0.3186035
vn 0.4221191 -0.3110352 -0.8515625
vn -0.07946777 0.4414063 -0.8935547
vn 0.6313477 -0.7753906 0.01889038
vn 0.8071289 -0.2318115 -0.5429688
vn 0.3967285 0.3894043 -0.8310547
vn 0.01773071 0.8979492 -0.4399414
vn 0.534668 0.84375 -0.04248047
vn 0.7519531 0.447998 -0.4833984
vn 0.5351563 -0.7646484 0.3588867
vn -0.4956055 -0.7695313 0.402832
vn 0.9873047 -0.1507568 0.0524292
vn 0.9345703 0.34375 0.09210205
vn 0.534668 0.84375 -0.04248047
vn 0.7490234 0.4873047 0.4484863
vn 0.8061523 -0.07946777 0.5859375
vn -0.2169189 -0.7880859 0.5756836
vn 0.1517334 -0.7700195 0.6196289
vn 0.2335205 -0.03625488 0.9716797
vn 0.7490234 0.4873047 0.4484863
vn 0.3234863 0.5742188 0.7519531
vn -0.3044434 -0.07281494 0.949707
vn 0.3234863 0.5742188 0.7519531
vn -0.1595459 0.5263672 0.8349609
vn -0.7592773 -0.1564941 0.6313477
vn -0.1595459 0.5263672 0.8349609
vn -0.7231445 0.3498535 0.5952148
vn -0.08166504 0.9697266 0.2312012
vn -0.1595459 0.5263672 0.8349609
vn -0.7231445 0.3498535 0.5952148
vn -0.6425781 0.7568359 0.1213989
vn -0.8842773 0.09576416 -0.456543
vn -0.7319336 0.09698486 -0.6743164
vn -0.4160156 0.7744141 -0.4765625
vn -0.6494141 0.6557617 -0.3850098
vn -0.6494141 0.6557617 -0.3850098
vn -0.9990234 -0.04144287 0.001739502
vn -0.8842773 0.09576416 -0.456543
vn -0.6425781 0.7568359 0.1213989
vn -0.7231445 0.3498535 0.5952148
vn 0.534668 0.84375 -0.04248047
vn 0.7490234 0.4873047 0.4484863
vn 0.3234863 0.5742188 0.7519531
vn 0.178833 0.9814453 0.06585693
vn -0.08166504 0.9697266 0.2312012
vn 0.178833 0.9814453 0.06585693
vn 0.3234863 0.5742188 0.7519531
vn -0.1595459 0.5263672 0.8349609
g Stone_01_0
f 3/3/3 2/2/2 1/1/1
f 5/5/5 3/3/3 4/4/4
f 6/6/6 5/5/5 4/4/4
f 5/5/5 6/6/6 7/7/7
f 10/10/10 9/9/9 8/8/8
f 9/9/9 10/10/10 11/11/11
f 14/14/14 13/13/13 12/12/12
f 13/13/13 15/15/15 12/12/12
f 13/13/13 16/16/16 15/15/15
f 19/19/19 18/18/18 17/17/17
f 20/20/20 19/19/19 17/17/17
f 17/17/17 21/21/21 20/20/20
f 22/22/22 19/19/19 20/20/20
f 23/23/23 22/22/22 20/20/20
f 24/24/24 22/22/22 23/23/23
f 25/25/25 24/24/24 23/23/23
f 26/26/26 24/24/24 25/25/25
f 27/27/27 26/26/26 25/25/25
f 28/28/28 26/26/26 27/27/27
f 29/29/29 28/28/28 27/27/27
f 26/26/26 28/28/28 30/30/30
f 30/30/30 24/24/24 26/26/26
f 30/30/30 28/28/28 29/29/29
f 31/31/31 22/22/22 24/24/24
f 30/30/30 31/31/31 24/24/24
f 32/32/32 30/30/30 29/29/29
f 31/31/31 30/30/30 32/32/32
f 29/29/29 33/33/33 32/32/32
f 34/34/34 19/19/19 22/22/22
f 31/31/31 34/34/34 22/22/22
f 35/35/35 31/31/31 32/32/32
f 34/34/34 31/31/31 35/35/35
f 33/33/33 36/36/36 32/32/32
f 32/32/32 36/36/36 35/35/35
f 37/37/37 36/36/36 33/33/33
f 37/37/37 38/38/38 36/36/36
f 38/38/38 39/39/39 36/36/36
f 36/36/36 39/39/39 35/35/35
f 34/34/34 40/40/40 19/19/19
f 40/40/40 41/41/41 19/19/19
f 42/42/42 34/34/34 35/35/35
f 35/35/35 39/39/39 42/42/42
f 40/40/40 34/34/34 42/42/42
f 39/39/39 43/43/43 42/42/42
f 43/43/43 39/39/39 44/44/44
f 44/44/44 45/45/45 43/43/43
f 43/43/43 45/45/45 46/46/46
f 42/42/42 43/43/43 46/46/46
f 46/46/46 40/40/40 42/42/42
f 40/40/40 47/47/47 41/41/41
f 48/48/48 40/40/40 46/46/46
f 40/40/40 48/48/48 47/47/47
f 49/49/49 48/48/48 46/46/46
f 47/47/47 48/48/48 49/49/49
f 46/46/46 50/50/50 49/49/49
f 50/50/50 51/51/51 49/49/49
f 41/41/41 47/47/47 52/52/52
f 52/52/52 47/47/47 49/49/49
f 49/49/49 53/53/53 52/52/52
f 53/53/53 54/54/54 52/52/52
f 55/55/55 41/41/41 52/52/52
f 52/52/52 56/56/56 55/55/55
f 56/56/56 57/57/57 55/55/55
f 60/60/60 59/59/59 58/58/58
f 61/61/61 60/60/60 58/58/58
f 64/64/64 63/63/63 62/62/62
f 65/65/65 64/64/64 62/62/62
f 68/68/68 67/67/67 66/66/66
f 67/67/67 69/69/69 66/66/66
f 69/69/69 67/67/67 70/70/70
f 73/73/73 72/72/72 71/71/71
f 74/74/74 73/73/73 71/71/71
f 77/77/77 76/76/76 75/75/75
f 78/78/78 77/77/77 75/75/75
