g Dal_Star_in_01
v 0.9226741 0.2017359 -1.18697
v 0.9612774 0.17957 -1.240103
v 0.9772677 0.1038223 -1.262111
v -0.8566875 0.1038223 -1.262111
v -0.8406976 0.17957 -1.240103
v -0.8020943 0.2017359 -1.18697
v 0.9772677 0.1038223 -1.262111
v 0.2443434 -0.1002389 -2.393125
v 0.9772677 -0.1002387 -1.262111
v 0.2443434 0.1038222 -2.393125
v 0.2248994 0.1795698 -2.376446
v 0.9612774 0.17957 -1.240103
v 0.1179892 0.1795698 -2.471697
v 0.1276583 0.1038221 -2.497084
v 0.1276583 -0.1002389 -2.497084
v 0.002590548 0.1795698 -2.471697
v -0.00707828 0.1038221 -2.497084
v -0.00707828 -0.1002389 -2.497084
v -0.1043196 0.1795698 -2.376446
v -0.1237634 0.1038222 -2.393125
v -0.1237634 -0.1002389 -2.393125
v -0.8406976 0.17957 -1.240103
v -0.8566875 -0.1002387 -1.262111
v -0.8566875 0.1038223 -1.262111
v -0.1043196 0.1795698 -2.376446
v -0.8020943 0.2017359 -1.18697
v -0.8406976 0.17957 -1.240103
v -0.05737839 0.2017357 -2.33618
v 0.002590548 0.1795698 -2.471697
v 0.0259334 0.2017357 -2.410406
v 0.1179892 0.1795698 -2.471697
v 0.09464635 0.2017357 -2.410406
v 0.2248994 0.1795698 -2.376446
v 0.1779581 0.2017357 -2.33618
v 0.9612774 0.17957 -1.240103
v 0.9226741 0.2017359 -1.18697
v -0.05737839 0.2017357 -2.33618
v 0.0259334 0.2017357 -2.410406
v 0.09464635 0.2017357 -2.410406
v 0.1779581 0.2017357 -2.33618
v -0.8020943 0.2017359 -1.18697
v 0.9226741 0.2017359 -1.18697
v 0.5932727 0.201736 -0.1731766
v -0.1237634 -0.1002389 -2.393125
v -0.8566875 -0.1002387 -1.262111
v -0.8406976 -0.1759864 -1.240103
v -0.1043196 -0.1759866 -2.376446
v -0.00707828 -0.1002389 -2.497084
v 0.002590548 -0.1759866 -2.471697
v 0.1276583 -0.1002389 -2.497084
v 0.1179892 -0.1759866 -2.471697
v 0.2443434 -0.1002389 -2.393125
v 0.2248994 -0.1759866 -2.376446
v 0.9772677 -0.1002387 -1.262111
v 0.9612774 -0.1759864 -1.240103
v -0.1043196 -0.1759866 -2.376446
v -0.8406976 -0.1759864 -1.240103
v -0.8020943 -0.1981523 -1.18697
v -0.05737839 -0.1981525 -2.33618
v 0.002590548 -0.1759866 -2.471697
v 0.0259334 -0.1981525 -2.410406
v 0.1179892 -0.1759866 -2.471697
v 0.09464635 -0.1981525 -2.410406
v 0.2248994 -0.1759866 -2.376446
v 0.1779581 -0.1981525 -2.33618
v 0.9612774 -0.1759864 -1.240103
v 0.9226741 -0.1981523 -1.18697
v 0.1779581 -0.1981525 -2.33618
v 0.09464635 -0.1981525 -2.410406
v 0.0259334 -0.1981525 -2.410406
v -0.05737839 -0.1981525 -2.33618
v 0.9226741 -0.1981523 -1.18697
v -0.8020943 -0.1981523 -1.18697
v 0.5932727 -0.1981521 -0.1731765
v 0.5932727 0.201736 -0.1731766
v 0.5932727 -0.1981521 -0.1731765
v -0.8020943 -0.1981523 -1.18697
v -0.8020943 0.2017359 -1.18697
v -0.8406976 -0.1759864 -1.240103
v -0.8566875 -0.1002387 -1.262111
v -0.8566875 0.1038223 -1.262111
v 0.9226741 0.2017359 -1.18697
v 0.5932727 -0.1981521 -0.1731765
v 0.5932727 0.201736 -0.1731766
v 0.9226741 -0.1981523 -1.18697
v 0.9612774 -0.1759864 -1.240103
v 0.9772677 -0.1002387 -1.262111
v 0.9772677 0.1038223 -1.262111
vt 0.6323242 0.4055176
vt 0.6376953 0.4013672
vt 0.6401367 0.3996582
vt 0.6401367 0.5927734
vt 0.6376953 0.5913086
vt 0.6323242 0.5869141
vt 0.6401367 0.3996582
vt 0.7592773 0.4768066
vt 0.6401367 0.3996582
vt 0.7592773 0.4768066
vt 0.7573242 0.4790039
vt 0.6376953 0.4013672
vt 0.7675781 0.4902344
vt 0.7700195 0.4892578
vt 0.7700195 0.4892578
vt 0.7675781 0.5024414
vt 0.7700195 0.503418
vt 0.7700195 0.503418
vt 0.7573242 0.5136719
vt 0.7592773 0.515625
vt 0.7592773 0.515625
vt 0.6376953 0.5913086
vt 0.6401367 0.5927734
vt 0.6401367 0.5927734
vt 0.7573242 0.5136719
vt 0.6323242 0.5869141
vt 0.6376953 0.5913086
vt 0.7529297 0.5087891
vt 0.7675781 0.5024414
vt 0.7607422 0.5
vt 0.7675781 0.4902344
vt 0.7607422 0.4926758
vt 0.7573242 0.4790039
vt 0.7529297 0.4838867
vt 0.6376953 0.4013672
vt 0.6323242 0.4055176
vt 0.7529297 0.5087891
vt 0.7607422 0.5
vt 0.7607422 0.4926758
vt 0.7529297 0.4838867
vt 0.6323242 0.5869141
vt 0.6323242 0.4055176
vt 0.5253906 0.4401855
vt 0.7592773 0.515625
vt 0.6401367 0.5927734
vt 0.6376953 0.5913086
vt 0.7573242 0.5136719
vt 0.7700195 0.503418
vt 0.7675781 0.5024414
vt 0.7700195 0.4892578
vt 0.7675781 0.4902344
vt 0.7592773 0.4768066
vt 0.7573242 0.4790039
vt 0.6401367 0.3996582
vt 0.6376953 0.4013672
vt 0.7573242 0.5136719
vt 0.6376953 0.5913086
vt 0.6323242 0.5869141
vt 0.7529297 0.5087891
vt 0.7675781 0.5024414
vt 0.7607422 0.5
vt 0.7675781 0.4902344
vt 0.7607422 0.4926758
vt 0.7573242 0.4790039
vt 0.7529297 0.4838867
vt 0.6376953 0.4013672
vt 0.6323242 0.4055176
vt 0.7529297 0.4838867
vt 0.7607422 0.4926758
vt 0.7607422 0.5
vt 0.7529297 0.5087891
vt 0.6323242 0.4055176
vt 0.6323242 0.5869141
vt 0.5253906 0.4401855
vt 0.5253906 0.4401855
vt 0.5253906 0.4401855
vt 0.6323242 0.5869141
vt 0.6323242 0.5869141
vt 0.6376953 0.5913086
vt 0.6401367 0.5927734
vt 0.6401367 0.5927734
vt 0.6323242 0.4055176
vt 0.5253906 0.4401855
vt 0.5253906 0.4401855
vt 0.6323242 0.4055176
vt 0.6376953 0.4013672
vt 0.6401367 0.3996582
vt 0.6401367 0.3996582
vn 0.8989258 0 0.4375
vn 0.809082 0 0.5878906
vn 0.809082 0 0.5878906
vn -0.809082 0 0.5878906
vn -0.809082 0 0.5878906
vn -0.6938477 0 0.7197266
vn 0.8276367 0.1669922 -0.5361328
vn 0.7490234 -0.1601563 -0.6425781
vn 0.8276367 -0.1669922 -0.5361328
vn 0.7490234 0.1601563 -0.6425781
vn 0.7192383 0.3203125 -0.6166992
vn 0.7958984 0.3178711 -0.515625
vn 0.3349609 0.3376465 -0.8798828
vn 0.3510742 0.1651611 -0.921875
vn 0.3510742 -0.1651611 -0.921875
vn -0.3349609 0.3376465 -0.8798828
vn -0.3510742 0.1651611 -0.921875
vn -0.3510742 -0.1651611 -0.921875
vn -0.7192383 0.3203125 -0.6166992
vn -0.7490234 0.1601563 -0.6425781
vn -0.7490234 -0.1601563 -0.6425781
vn -0.7958984 0.3178711 -0.515625
vn -0.8276367 -0.1669922 -0.5361328
vn -0.8276367 0.1669922 -0.5361328
vn -0.2561035 0.9414063 -0.2197266
vn -0.2854004 0.9404297 -0.1849365
vn -0.2854004 0.9404297 -0.1849365
vn -0.2561035 0.9414063 -0.2197266
vn -0.1139526 0.9472656 -0.2993164
vn -0.1139526 0.9472656 -0.2993164
vn 0.1139526 0.9472656 -0.2993164
vn 0.1139526 0.9472656 -0.2993164
vn 0.2561035 0.9414063 -0.2197266
vn 0.2561035 0.9414063 -0.2197266
vn 0.2854004 0.9404297 -0.1849365
vn 0.2854004 0.9404297 -0.1849365
vn 0 1 0
vn 0 1 0
vn 0 1 0
vn 0 1 0
vn 0 1 0
vn 0 1 0
vn 0 1 0
vn -0.7490234 -0.1601563 -0.6425781
vn -0.8276367 -0.1669922 -0.5361328
vn -0.7958984 -0.3178711 -0.515625
vn -0.7192383 -0.3203125 -0.6166992
vn -0.3510742 -0.1651611 -0.921875
vn -0.3349609 -0.3376465 -0.8798828
vn 0.3510742 -0.1651611 -0.921875
vn 0.3349609 -0.3376465 -0.8798828
vn 0.7490234 -0.1601563 -0.6425781
vn 0.7192383 -0.3203125 -0.6166992
vn 0.8276367 -0.1669922 -0.5361328
vn 0.7958984 -0.3178711 -0.515625
vn -0.2561035 -0.9414063 -0.2197266
vn -0.2854004 -0.9404297 -0.1849365
vn -0.2854004 -0.9404297 -0.1849365
vn -0.2561035 -0.9414063 -0.2197266
vn -0.1139526 -0.9472656 -0.2993164
vn -0.1139526 -0.9472656 -0.2993164
vn 0.1139526 -0.9472656 -0.2993164
vn 0.1139526 -0.9472656 -0.2993164
vn 0.2561035 -0.9414063 -0.2197266
vn 0.2561035 -0.9414063 -0.2197266
vn 0.2854004 -0.9404297 -0.1849365
vn 0.2854004 -0.9404297 -0.1849365
vn 0 -1 0
vn 0 -1 0
vn 0 -1 0
vn 0 -1 0
vn 0 -1 0
vn 0 -1 0
vn 0 -1 0
vn -0.5878906 0 0.809082
vn -0.5878906 0 0.809082
vn -0.6938477 0 0.7197266
vn -0.6938477 0 0.7197266
vn -0.809082 0 0.5878906
vn -0.809082 0 0.5878906
vn -0.809082 0 0.5878906
vn 0.8989258 0 0.4375
vn 0.9511719 0 0.309082
vn 0.9511719 0 0.309082
vn 0.8989258 0 0.4375
vn 0.809082 0 0.5878906
vn 0.809082 0 0.5878906
vn 0.809082 0 0.5878906
g Dal_Star_in_01_0
f 3/3/3 2/2/2 1/1/1
f 6/6/6 5/5/5 4/4/4
f 9/9/9 8/8/8 7/7/7
f 8/8/8 10/10/10 7/7/7
f 10/10/10 11/11/11 7/7/7
f 11/11/11 12/12/12 7/7/7
f 11/11/11 10/10/10 13/13/13
f 14/14/14 10/10/10 8/8/8
f 10/10/10 14/14/14 13/13/13
f 15/15/15 14/14/14 8/8/8
f 13/13/13 14/14/14 16/16/16
f 17/17/17 14/14/14 15/15/15
f 14/14/14 17/17/17 16/16/16
f 18/18/18 17/17/17 15/15/15
f 16/16/16 17/17/17 19/19/19
f 20/20/20 17/17/17 18/18/18
f 17/17/17 20/20/20 19/19/19
f 21/21/21 20/20/20 18/18/18
f 22/22/22 19/19/19 20/20/20
f 21/21/21 23/23/23 20/20/20
f 24/24/24 22/22/22 20/20/20
f 23/23/23 24/24/24 20/20/20
f 27/27/27 26/26/26 25/25/25
f 26/26/26 28/28/28 25/25/25
f 29/29/29 25/25/25 28/28/28
f 30/30/30 29/29/29 28/28/28
f 31/31/31 29/29/29 30/30/30
f 32/32/32 31/31/31 30/30/30
f 33/33/33 31/31/31 32/32/32
f 34/34/34 33/33/33 32/32/32
f 33/33/33 34/34/34 35/35/35
f 34/34/34 36/36/36 35/35/35
f 39/39/39 38/38/38 37/37/37
f 37/37/37 40/40/40 39/39/39
f 37/37/37 41/41/41 40/40/40
f 41/41/41 42/42/42 40/40/40
f 41/41/41 43/43/43 42/42/42
f 46/46/46 45/45/45 44/44/44
f 47/47/47 46/46/46 44/44/44
f 44/44/44 48/48/48 47/47/47
f 48/48/48 49/49/49 47/47/47
f 48/48/48 50/50/50 49/49/49
f 50/50/50 51/51/51 49/49/49
f 50/50/50 52/52/52 51/51/51
f 52/52/52 53/53/53 51/51/51
f 53/53/53 52/52/52 54/54/54
f 55/55/55 53/53/53 54/54/54
f 58/58/58 57/57/57 56/56/56
f 59/59/59 58/58/58 56/56/56
f 56/56/56 60/60/60 59/59/59
f 60/60/60 61/61/61 59/59/59
f 60/60/60 62/62/62 61/61/61
f 62/62/62 63/63/63 61/61/61
f 62/62/62 64/64/64 63/63/63
f 64/64/64 65/65/65 63/63/63
f 65/65/65 64/64/64 66/66/66
f 67/67/67 65/65/65 66/66/66
f 70/70/70 69/69/69 68/68/68
f 68/68/68 71/71/71 70/70/70
f 68/68/68 72/72/72 71/71/71
f 72/72/72 73/73/73 71/71/71
f 72/72/72 74/74/74 73/73/73
f 77/77/77 76/76/76 75/75/75
f 78/78/78 77/77/77 75/75/75
f 79/79/79 77/77/77 78/78/78
f 78/78/78 80/80/80 79/79/79
f 78/78/78 81/81/81 80/80/80
f 84/84/84 83/83/83 82/82/82
f 83/83/83 85/85/85 82/82/82
f 82/82/82 85/85/85 86/86/86
f 86/86/86 87/87/87 82/82/82
f 87/87/87 88/88/88 82/82/82
