g Dal_Star_in_02
v -0.8020943 0.2017359 -1.18697
v -0.8406976 0.17957 -1.240103
v -0.8566875 0.1038223 -1.262111
v -2.125188 0.2017359 -0.8338283
v -0.8406976 0.17957 -1.240103
v -0.8020943 0.2017359 -1.18697
v -2.148977 0.1795701 -0.8909152
v -2.221525 0.2017359 -0.7775314
v -2.272603 0.1795701 -0.8186715
v -2.242759 0.201736 -0.7121814
v -2.308263 0.1795701 -0.7089209
v -2.197911 0.201736 -0.6100101
v -2.250711 0.1795701 -0.5778091
v -1.335077 0.2017362 0.4533815
v -1.397538 0.1795703 0.4736765
v -2.148977 0.1795701 -0.8909152
v -0.8566875 0.1038223 -1.262111
v -0.8406976 0.17957 -1.240103
v -2.158831 0.1038224 -0.9145613
v -2.272603 0.1795701 -0.8186715
v -2.158831 -0.1002387 -0.9145613
v -0.8566875 -0.1002387 -1.262111
v -2.29376 -0.1002387 -0.8357123
v -2.29376 0.1038224 -0.8357123
v -2.308263 0.1795701 -0.7089209
v -2.335396 -0.1002386 -0.7075704
v -2.335396 0.1038224 -0.7075704
v -2.250711 0.1795701 -0.5778091
v -2.272582 -0.1002386 -0.564471
v -2.272582 0.1038225 -0.564471
v -1.397538 0.1795703 0.4736765
v -1.423411 -0.1002384 0.482083
v -1.423411 0.1038226 0.482083
v -2.125188 0.2017359 -0.8338283
v -0.8020943 0.2017359 -1.18697
v 0.5932727 0.201736 -0.1731766
v -2.221525 0.2017359 -0.7775314
v -2.242759 0.201736 -0.7121814
v -2.197911 0.201736 -0.6100101
v -1.335077 0.2017362 0.4533815
v 0.3267815 0.2017362 0.6469994
v -2.125188 -0.1981522 -0.8338282
v -0.8020943 -0.1981523 -1.18697
v -0.8406976 -0.1759864 -1.240103
v -2.148977 -0.1759864 -0.8909152
v -2.221525 -0.1981522 -0.7775313
v -2.272603 -0.1759863 -0.8186715
v -2.242759 -0.1981522 -0.7121813
v -2.308263 -0.1759863 -0.7089209
v -2.197911 -0.1981522 -0.61001
v -2.250711 -0.1759863 -0.5778091
v -1.335077 -0.198152 0.4533816
v -1.397538 -0.1759861 0.4736765
v -2.148977 -0.1759864 -0.8909152
v -0.8406976 -0.1759864 -1.240103
v -0.8566875 -0.1002387 -1.262111
v -2.158831 -0.1002387 -0.9145613
v -2.272603 -0.1759863 -0.8186715
v -2.29376 -0.1002387 -0.8357123
v -2.308263 -0.1759863 -0.7089209
v -2.335396 -0.1002386 -0.7075704
v -2.250711 -0.1759863 -0.5778091
v -2.272582 -0.1002386 -0.564471
v -1.397538 -0.1759861 0.4736765
v -1.423411 -0.1002384 0.482083
v 0.5932727 -0.1981521 -0.1731765
v -0.8020943 -0.1981523 -1.18697
v -2.125188 -0.1981522 -0.8338282
v -2.221525 -0.1981522 -0.7775313
v -2.242759 -0.1981522 -0.7121813
v -2.197911 -0.1981522 -0.61001
v -1.335077 -0.198152 0.4533816
v 0.3267815 -0.198152 0.6469995
v 0.5932727 0.201736 -0.1731766
v -0.8020943 -0.1981523 -1.18697
v 0.5932727 -0.1981521 -0.1731765
v -0.8020943 0.2017359 -1.18697
v -0.8406976 -0.1759864 -1.240103
v -0.8566875 -0.1002387 -1.262111
v -0.8566875 0.1038223 -1.262111
v 0.3267815 0.2017362 0.6469994
v 0.3267815 -0.198152 0.6469995
v -1.335077 -0.198152 0.4533816
v -1.335077 0.2017362 0.4533815
v -1.397538 0.1795703 0.4736765
v -1.397538 -0.1759861 0.4736765
v -1.423411 0.1038226 0.482083
v -1.423411 -0.1002384 0.482083
v 0.5932727 0.201736 -0.1731766
v 0.5932727 -0.1981521 -0.1731765
v 0.3267815 -0.198152 0.6469995
v 0.3267815 0.2017362 0.6469994
vt 0.6323242 0.5869141
vt 0.6376953 0.5913086
vt 0.6401367 0.5927734
vt 0.5952148 0.7260742
vt 0.6376953 0.5913086
vt 0.6323242 0.5869141
vt 0.6010742 0.7290039
vt 0.5888672 0.7363281
vt 0.5932617 0.7416992
vt 0.5820313 0.7387695
vt 0.5820313 0.7456055
vt 0.5712891 0.7338867
vt 0.5678711 0.7397461
vt 0.4594727 0.6430664
vt 0.4572754 0.6499023
vt 0.6010742 0.7290039
vt 0.6401367 0.5927734
vt 0.6376953 0.5913086
vt 0.6035156 0.7299805
vt 0.5932617 0.7416992
vt 0.6035156 0.7299805
vt 0.6401367 0.5927734
vt 0.5952148 0.7441406
vt 0.5952148 0.7441406
vt 0.5820313 0.7456055
vt 0.581543 0.7485352
vt 0.581543 0.7485352
vt 0.5678711 0.7397461
vt 0.5664063 0.7416992
vt 0.5664063 0.7416992
vt 0.4572754 0.6499023
vt 0.456543 0.6523438
vt 0.456543 0.6523438
vt 0.5952148 0.7260742
vt 0.6323242 0.5869141
vt 0.5253906 0.4401855
vt 0.5888672 0.7363281
vt 0.5820313 0.7387695
vt 0.5712891 0.7338867
vt 0.4594727 0.6430664
vt 0.439209 0.4682617
vt 0.5952148 0.7260742
vt 0.6323242 0.5869141
vt 0.6376953 0.5913086
vt 0.6010742 0.7290039
vt 0.5888672 0.7363281
vt 0.5932617 0.7416992
vt 0.5820313 0.7387695
vt 0.5820313 0.7456055
vt 0.5712891 0.7338867
vt 0.5678711 0.7397461
vt 0.4594727 0.6430664
vt 0.4572754 0.6499023
vt 0.6010742 0.7290039
vt 0.6376953 0.5913086
vt 0.6401367 0.5927734
vt 0.6035156 0.7299805
vt 0.5932617 0.7416992
vt 0.5952148 0.7441406
vt 0.5820313 0.7456055
vt 0.581543 0.7485352
vt 0.5678711 0.7397461
vt 0.5664063 0.7416992
vt 0.4572754 0.6499023
vt 0.456543 0.6523438
vt 0.5253906 0.4401855
vt 0.6323242 0.5869141
vt 0.5952148 0.7260742
vt 0.5888672 0.7363281
vt 0.5820313 0.7387695
vt 0.5712891 0.7338867
vt 0.4594727 0.6430664
vt 0.439209 0.4682617
vt 0.5253906 0.4401855
vt 0.6323242 0.5869141
vt 0.5253906 0.4401855
vt 0.6323242 0.5869141
vt 0.6376953 0.5913086
vt 0.6401367 0.5927734
vt 0.6401367 0.5927734
vt 0.439209 0.4682617
vt 0.439209 0.4682617
vt 0.4594727 0.6430664
vt 0.4594727 0.6430664
vt 0.4572754 0.6499023
vt 0.4572754 0.6499023
vt 0.456543 0.6523438
vt 0.456543 0.6523438
vt 0.5253906 0.4401855
vt 0.5253906 0.4401855
vt 0.439209 0.4682617
vt 0.439209 0.4682617
vn 0.6938477 0 -0.7197266
vn 0.809082 0 -0.5878906
vn 0.809082 0 -0.5878906
vn -0.1297607 0.9414063 -0.3115234
vn -0.08770752 0.9404297 -0.3286133
vn -0.08770752 0.9404297 -0.3286133
vn -0.1297607 0.9414063 -0.3115234
vn -0.2493896 0.9472656 -0.2008057
vn -0.2493896 0.9472656 -0.2008057
vn -0.3198242 0.9472656 0.01591492
vn -0.3198242 0.9472656 0.01591492
vn -0.2880859 0.9414063 0.1756592
vn -0.2880859 0.9414063 0.1756592
vn -0.2641602 0.9404297 0.2142334
vn -0.2641602 0.9404297 0.2142334
vn -0.364502 0.3203125 -0.8745117
vn -0.2541504 0.1669922 -0.9526367
vn -0.2445068 0.3178711 -0.9160156
vn -0.3796387 0.1601563 -0.9111328
vn -0.7329102 0.3376465 -0.590332
vn -0.3796387 -0.1601563 -0.9111328
vn -0.2541504 -0.1669922 -0.9526367
vn -0.7680664 -0.1651611 -0.6186523
vn -0.7680664 0.1651611 -0.6186523
vn -0.9399414 0.3376465 0.04678345
vn -0.9848633 -0.1651611 0.04904175
vn -0.9848633 0.1651611 0.04904175
vn -0.8085938 0.3203125 0.4931641
vn -0.8427734 -0.1601563 0.5141602
vn -0.8427734 0.1601563 0.5141602
vn -0.7363281 0.3178711 0.5976563
vn -0.765625 -0.1669922 0.6210938
vn -0.765625 0.1669922 0.6210938
vn 0 1 0
vn 0 1 0
vn 0 1 0
vn 0 1 0
vn 0 1 0
vn 0 1 0
vn 0 1 0
vn 0 1 0
vn -0.1297607 -0.9414063 -0.3115234
vn -0.08770752 -0.9404297 -0.3286133
vn -0.08770752 -0.9404297 -0.3286133
vn -0.1297607 -0.9414063 -0.3115234
vn -0.2493896 -0.9472656 -0.2008057
vn -0.2493896 -0.9472656 -0.2008057
vn -0.3198242 -0.9472656 0.01591492
vn -0.3198242 -0.9472656 0.01591492
vn -0.2880859 -0.9414063 0.1756592
vn -0.2880859 -0.9414063 0.1756592
vn -0.2641602 -0.9404297 0.2142334
vn -0.2641602 -0.9404297 0.2142334
vn -0.364502 -0.3203125 -0.8745117
vn -0.2445068 -0.3178711 -0.9160156
vn -0.2541504 -0.1669922 -0.9526367
vn -0.3796387 -0.1601563 -0.9111328
vn -0.7329102 -0.3376465 -0.590332
vn -0.7680664 -0.1651611 -0.6186523
vn -0.9399414 -0.3376465 0.04678345
vn -0.9848633 -0.1651611 0.04904175
vn -0.8085938 -0.3203125 0.4931641
vn -0.8427734 -0.1601563 0.5141602
vn -0.7363281 -0.3178711 0.5976563
vn -0.765625 -0.1669922 0.6210938
vn 0 -1 0
vn 0 -1 0
vn 0 -1 0
vn 0 -1 0
vn 0 -1 0
vn 0 -1 0
vn 0 -1 0
vn 0 -1 0
vn 0.5878906 0 -0.809082
vn 0.6938477 0 -0.7197266
vn 0.5878906 0 -0.809082
vn 0.6938477 0 -0.7197266
vn 0.809082 0 -0.5878906
vn 0.809082 0 -0.5878906
vn 0.809082 0 -0.5878906
vn -0.1157227 0 0.9931641
vn -0.1157227 0 0.9931641
vn 0.0737915 0 0.9970703
vn 0.0737915 0 0.9970703
vn 0.309082 0 0.9511719
vn 0.309082 0 0.9511719
vn 0.309082 0 0.9511719
vn 0.309082 0 0.9511719
vn 0.9511719 0 0.309082
vn 0.9511719 0 0.309082
vn 0.9511719 0 0.309082
vn 0.9511719 0 0.309082
g Dal_Star_in_02_0
f 3/3/3 2/2/2 1/1/1
f 6/6/6 5/5/5 4/4/4
f 5/5/5 7/7/7 4/4/4
f 4/4/4 7/7/7 8/8/8
f 7/7/7 9/9/9 8/8/8
f 8/8/8 9/9/9 10/10/10
f 9/9/9 11/11/11 10/10/10
f 10/10/10 11/11/11 12/12/12
f 11/11/11 13/13/13 12/12/12
f 12/12/12 13/13/13 14/14/14
f 13/13/13 15/15/15 14/14/14
f 18/18/18 17/17/17 16/16/16
f 17/17/17 19/19/19 16/16/16
f 16/16/16 19/19/19 20/20/20
f 21/21/21 19/19/19 17/17/17
f 22/22/22 21/21/21 17/17/17
f 21/21/21 23/23/23 19/19/19
f 19/19/19 24/24/24 20/20/20
f 23/23/23 24/24/24 19/19/19
f 20/20/20 24/24/24 25/25/25
f 23/23/23 26/26/26 24/24/24
f 24/24/24 27/27/27 25/25/25
f 26/26/26 27/27/27 24/24/24
f 25/25/25 27/27/27 28/28/28
f 26/26/26 29/29/29 27/27/27
f 27/27/27 30/30/30 28/28/28
f 29/29/29 30/30/30 27/27/27
f 28/28/28 30/30/30 31/31/31
f 29/29/29 32/32/32 30/30/30
f 30/30/30 33/33/33 31/31/31
f 32/32/32 33/33/33 30/30/30
f 36/36/36 35/35/35 34/34/34
f 34/34/34 37/37/37 36/36/36
f 37/37/37 38/38/38 36/36/36
f 38/38/38 39/39/39 36/36/36
f 39/39/39 40/40/40 36/36/36
f 40/40/40 41/41/41 36/36/36
f 44/44/44 43/43/43 42/42/42
f 45/45/45 44/44/44 42/42/42
f 45/45/45 42/42/42 46/46/46
f 47/47/47 45/45/45 46/46/46
f 47/47/47 46/46/46 48/48/48
f 49/49/49 47/47/47 48/48/48
f 49/49/49 48/48/48 50/50/50
f 51/51/51 49/49/49 50/50/50
f 51/51/51 50/50/50 52/52/52
f 53/53/53 51/51/51 52/52/52
f 56/56/56 55/55/55 54/54/54
f 57/57/57 56/56/56 54/54/54
f 57/57/57 54/54/54 58/58/58
f 59/59/59 57/57/57 58/58/58
f 59/59/59 58/58/58 60/60/60
f 61/61/61 59/59/59 60/60/60
f 61/61/61 60/60/60 62/62/62
f 63/63/63 61/61/61 62/62/62
f 63/63/63 62/62/62 64/64/64
f 65/65/65 63/63/63 64/64/64
f 68/68/68 67/67/67 66/66/66
f 66/66/66 69/69/69 68/68/68
f 66/66/66 70/70/70 69/69/69
f 66/66/66 71/71/71 70/70/70
f 66/66/66 72/72/72 71/71/71
f 66/66/66 73/73/73 72/72/72
f 76/76/76 75/75/75 74/74/74
f 75/75/75 77/77/77 74/74/74
f 77/77/77 75/75/75 78/78/78
f 78/78/78 79/79/79 77/77/77
f 79/79/79 80/80/80 77/77/77
f 83/83/83 82/82/82 81/81/81
f 84/84/84 83/83/83 81/81/81
f 83/83/83 84/84/84 85/85/85
f 85/85/85 86/86/86 83/83/83
f 85/85/85 87/87/87 86/86/86
f 87/87/87 88/88/88 86/86/86
f 91/91/91 90/90/90 89/89/89
f 92/92/92 91/91/91 89/89/89
