g Dal_Star_out_05
v -1.756346 -0.2009446 4.240186
v -1.616748 -0.2009447 3.903166
v -1.576295 -0.1565904 3.805504
v -1.576295 0.1601757 3.805504
v -1.756346 0.20453 4.240186
v -1.779492 0.08746553 4.296064
v -1.576295 0.1601757 3.805504
v -1.616748 0.20453 3.903166
v -1.756346 0.20453 4.240186
v 0.8035843 -0.1565904 4.039904
v 0.824207 -0.2009446 4.143581
v 0.8953733 -0.2009446 4.50136
v 0.9071729 0.0874656 4.56068
v 0.8953733 0.2045301 4.50136
v 0.8035843 0.1601758 4.039904
v 0.8953733 0.2045301 4.50136
v 0.824207 0.20453 4.143581
v 0.8035843 0.1601758 4.039904
v 0.9071729 0.0874656 4.56068
v -3.137245E-06 0.2045301 4.589546
v 0.8953733 0.2045301 4.50136
v -3.134601E-06 0.0874656 4.650028
v 0.9071729 -0.0838801 4.56068
v -0.8953794 0.2045301 4.501358
v -3.134601E-06 -0.08388007 4.650028
v -0.9071789 0.0874656 4.560678
v -1.756346 0.20453 4.240186
v -0.9071789 -0.0838801 4.560678
v -1.779492 0.08746553 4.296064
v -1.779492 -0.08388012 4.296064
v -3.137245E-06 0.2045301 4.589546
v 0.824207 0.20453 4.143581
v 0.8953733 0.2045301 4.50136
v -2.914772E-06 0.20453 4.224758
v 0.8035843 0.1601758 4.039904
v -0.8953794 0.2045301 4.501358
v -2.919392E-06 0.1601758 4.11905
v -0.8242126 0.20453 4.143579
v -1.756346 0.20453 4.240186
v -0.8035898 0.1601758 4.039902
v -1.616748 0.20453 3.903166
v -1.576295 0.1601757 3.805504
v -1.202435 0.1601755 2.159813
v 0.05459101 0.1601754 1.675882
v 0.8035843 0.1601758 4.039904
v -1.373288 0.1601755 2.177144
v -1.576295 0.1601757 3.805504
v -0.8035898 0.1601758 4.039902
v -2.919392E-06 0.1601758 4.11905
v -1.202435 0.1601755 2.159813
v 0.05459101 0.1475313 1.617968
v 0.05459101 0.1601754 1.675882
v -1.202793 0.1475314 2.102037
v -1.373288 0.1601755 2.177144
v 0.05459101 0.1129872 1.575573
v -1.365972 0.1475314 2.118462
v -1.203055 0.1129873 2.059743
v 0.05459101 0.06579901 1.560055
v -1.360617 0.1129873 2.075505
v -1.20315 0.06579909 2.044262
v -1.358657 0.06579909 2.059781
v -0.9071789 -0.0838801 4.560678
v -1.756346 -0.2009446 4.240186
v -1.779492 -0.08388012 4.296064
v -0.8953794 -0.2009446 4.501358
v -3.134601E-06 -0.08388007 4.650028
v -3.137245E-06 -0.2009446 4.589546
v 0.9071729 -0.0838801 4.56068
v 0.8953733 -0.2009446 4.50136
v -3.137245E-06 -0.2009446 4.589546
v 0.8953733 -0.2009446 4.50136
v 0.824207 -0.2009446 4.143581
v -2.914772E-06 -0.2009446 4.224758
v 0.8035843 -0.1565904 4.039904
v -0.8953794 -0.2009446 4.501358
v -2.919392E-06 -0.1565904 4.11905
v -0.8242126 -0.2009446 4.143579
v -1.756346 -0.2009446 4.240186
v -0.8035898 -0.1565904 4.039902
v -1.616748 -0.2009447 3.903166
v -1.576295 -0.1565904 3.805504
v 0.8035843 -0.1565904 4.039904
v 0.05459101 -0.1565908 1.675882
v -1.202435 -0.1565907 2.159813
v -1.373288 -0.1565907 2.177144
v -1.576295 -0.1565904 3.805504
v -0.8035898 -0.1565904 4.039902
v -2.919392E-06 -0.1565904 4.11905
v -1.202435 -0.1565907 2.159813
v 0.05459101 -0.1565908 1.675882
v 0.05459101 -0.1439468 1.617968
v -1.202793 -0.1439467 2.102037
v -1.373288 -0.1565907 2.177144
v 0.05459101 -0.1094026 1.575573
v -1.365972 -0.1439467 2.118462
v -1.203055 -0.1094026 2.059743
v 0.05459101 0.06579901 1.560055
v -1.360617 -0.1094026 2.075505
v -1.20315 0.06579909 2.044262
v -1.358657 0.06579909 2.059781
v -1.576295 0.1601757 3.805504
v -1.576295 -0.1565904 3.805504
v -1.373288 -0.1565907 2.177144
v -1.373288 0.1601755 2.177144
v -1.373288 0.1601755 2.177144
v -1.365972 -0.1439467 2.118462
v -1.360617 -0.1094026 2.075505
v -1.358657 0.06579909 2.059781
v -1.576295 -0.1565904 3.805504
v -1.779492 -0.08388012 4.296064
v -1.756346 -0.2009446 4.240186
v -1.576295 0.1601757 3.805504
v -1.779492 0.08746553 4.296064
v -1.358657 0.06579909 2.059781
v -1.360617 0.1129873 2.075505
v -1.373288 0.1601755 2.177144
v -1.365972 0.1475314 2.118462
v 0.8035843 0.1601758 4.039904
v 0.05459101 0.1601754 1.675882
v 0.05459101 -0.1565908 1.675882
v 0.8035843 -0.1565904 4.039904
v 0.8953733 -0.2009446 4.50136
v 0.9071729 -0.0838801 4.56068
v 0.8035843 -0.1565904 4.039904
v 0.8035843 0.1601758 4.039904
v 0.9071729 0.0874656 4.56068
v 0.05459101 -0.1439468 1.617968
v 0.05459101 -0.1565908 1.675882
v 0.05459101 0.1601754 1.675882
v 0.05459101 -0.1094026 1.575573
v 0.05459101 0.06579901 1.560055
v 0.05459101 0.1129872 1.575573
v 0.05459101 0.1475313 1.617968
vt 0.0609436 0.6870117
vt 0.09643555 0.6723633
vt 0.1066895 0.6679688
vt 0.1066895 0.6679688
vt 0.0609436 0.6870117
vt 0.05505371 0.6894531
vt 0.1066895 0.6679688
vt 0.09643555 0.6723633
vt 0.0609436 0.6870117
vt 0.08203125 0.4174805
vt 0.07110596 0.4152832
vt 0.03344727 0.4077148
vt 0.02720642 0.4064941
vt 0.03344727 0.4077148
vt 0.08203125 0.4174805
vt 0.03344727 0.4077148
vt 0.07110596 0.4152832
vt 0.08203125 0.4174805
vt 0.02720642 0.4064941
vt 0.02416992 0.5019531
vt 0.03344727 0.4077148
vt 0.01780701 0.5019531
vt 0.02720642 0.4064941
vt 0.03344727 0.5961914
vt 0.01780701 0.5019531
vt 0.02720642 0.5976563
vt 0.0609436 0.6870117
vt 0.02720642 0.5976563
vt 0.05505371 0.6894531
vt 0.05505371 0.6894531
vt 0.02416992 0.5019531
vt 0.07110596 0.4152832
vt 0.03344727 0.4077148
vt 0.06256104 0.5019531
vt 0.08203125 0.4174805
vt 0.03344727 0.5961914
vt 0.07366943 0.5019531
vt 0.07110596 0.5888672
vt 0.0609436 0.6870117
vt 0.08203125 0.5864258
vt 0.09643555 0.6723633
vt 0.1066895 0.6679688
vt 0.2797852 0.628418
vt 0.3308105 0.4963379
vt 0.08203125 0.4174805
vt 0.2780762 0.6464844
vt 0.1066895 0.6679688
vt 0.08203125 0.5864258
vt 0.07366943 0.5019531
vt 0.2797852 0.628418
vt 0.3369141 0.4963379
vt 0.3308105 0.4963379
vt 0.2858887 0.628418
vt 0.2780762 0.6464844
vt 0.3413086 0.4963379
vt 0.2841797 0.6459961
vt 0.2905273 0.628418
vt 0.3430176 0.4963379
vt 0.2888184 0.6450195
vt 0.2919922 0.628418
vt 0.2905273 0.6450195
vt 0.02720642 0.5976563
vt 0.0609436 0.6870117
vt 0.05505371 0.6894531
vt 0.03344727 0.5961914
vt 0.01780701 0.5019531
vt 0.02416992 0.5019531
vt 0.02720642 0.4064941
vt 0.03344727 0.4077148
vt 0.02416992 0.5019531
vt 0.03344727 0.4077148
vt 0.07110596 0.4152832
vt 0.06256104 0.5019531
vt 0.08203125 0.4174805
vt 0.03344727 0.5961914
vt 0.07366943 0.5019531
vt 0.07110596 0.5888672
vt 0.0609436 0.6870117
vt 0.08203125 0.5864258
vt 0.09643555 0.6723633
vt 0.1066895 0.6679688
vt 0.08203125 0.4174805
vt 0.3308105 0.4963379
vt 0.2797852 0.628418
vt 0.2780762 0.6464844
vt 0.1066895 0.6679688
vt 0.08203125 0.5864258
vt 0.07366943 0.5019531
vt 0.2797852 0.628418
vt 0.3308105 0.4963379
vt 0.3369141 0.4963379
vt 0.2858887 0.628418
vt 0.2780762 0.6464844
vt 0.3413086 0.4963379
vt 0.2841797 0.6459961
vt 0.2905273 0.628418
vt 0.3430176 0.4963379
vt 0.2888184 0.6450195
vt 0.2919922 0.628418
vt 0.2905273 0.6450195
vt 0.1066895 0.6679688
vt 0.1066895 0.6679688
vt 0.2780762 0.6464844
vt 0.2780762 0.6464844
vt 0.2780762 0.6464844
vt 0.2841797 0.6459961
vt 0.2888184 0.6450195
vt 0.2905273 0.6450195
vt 0.1066895 0.6679688
vt 0.05505371 0.6894531
vt 0.0609436 0.6870117
vt 0.1066895 0.6679688
vt 0.05505371 0.6894531
vt 0.2905273 0.6450195
vt 0.2888184 0.6450195
vt 0.2780762 0.6464844
vt 0.2841797 0.6459961
vt 0.08203125 0.4174805
vt 0.3308105 0.4963379
vt 0.3308105 0.4963379
vt 0.08203125 0.4174805
vt 0.03344727 0.4077148
vt 0.02720642 0.4064941
vt 0.08203125 0.4174805
vt 0.08203125 0.4174805
vt 0.02720642 0.4064941
vt 0.3369141 0.4963379
vt 0.3308105 0.4963379
vt 0.3308105 0.4963379
vt 0.3413086 0.4963379
vt 0.3430176 0.4963379
vt 0.3413086 0.4963379
vt 0.3369141 0.4963379
vn -0.9238281 0 -0.3825684
vn -0.9238281 0 -0.3825684
vn -0.9238281 0 -0.3825684
vn -0.9238281 0 -0.3825684
vn -0.9238281 0 -0.3825684
vn -0.9238281 0 -0.3825684
vn -0.9238281 0 -0.3825684
vn -0.9238281 0 -0.3825684
vn -0.9238281 0 -0.3825684
vn 0.980957 0 -0.1950684
vn 0.980957 0 -0.1950684
vn 0.980957 0 -0.1950684
vn 0.980957 0 -0.1950684
vn 0.980957 0 -0.1950684
vn 0.980957 0 -0.1950684
vn 0.980957 0 -0.1950684
vn 0.980957 0 -0.1950684
vn 0.980957 0 -0.1950684
vn 0.09533691 0.2318115 0.9682617
vn 0 0.4589844 0.8886719
vn 0.0871582 0.4572754 0.8852539
vn 0 0.2329102 0.9726563
vn 0.09533691 -0.2318115 0.9682617
vn -0.1733398 0.4589844 0.871582
vn 0 -0.2329102 0.9726563
vn -0.1896973 0.2329102 0.9536133
vn -0.2580566 0.4572754 0.8510742
vn -0.1896973 -0.2329102 0.9536133
vn -0.2824707 0.2318115 0.9306641
vn -0.2824707 -0.2318115 0.9306641
vn 0 1 0
vn -0.01826477 0.9824219 -0.1854248
vn 0 1 0
vn 0 0.9824219 -0.1854248
vn -0.03808594 0.9213867 -0.3867188
vn 0 1 0
vn 0 0.921875 -0.3869629
vn 0.03616333 0.9824219 -0.1818848
vn 0 1 0
vn 0.07550049 0.921875 -0.3793945
vn 0.05407715 0.9824219 -0.1782227
vn 0.112793 0.9213867 -0.3718262
vn 0 1 0
vn 0 1 0
vn 0 1 0
vn 0 1 0
vn 0 1 0
vn 0 1 0
vn 0 1 0
vn -0.04705811 0.9760742 -0.2131348
vn -0.1802979 0.8647461 -0.4682617
vn -0.08184814 0.9736328 -0.2126465
vn -0.09735107 0.9042969 -0.4152832
vn -0.02156067 0.9765625 -0.2133789
vn -0.3085938 0.512207 -0.8017578
vn -0.04095459 0.9125977 -0.4072266
vn -0.1934814 0.5683594 -0.7998047
vn -0.3574219 0.1022949 -0.9282227
vn -0.08093262 0.5830078 -0.8085938
vn -0.2337646 0.1132813 -0.9658203
vn -0.09875488 0.1170654 -0.9882813
vn -0.1896973 -0.2329102 0.9536133
vn -0.2580566 -0.4572754 0.8510742
vn -0.2824707 -0.2318115 0.9306641
vn -0.1733398 -0.4589844 0.871582
vn 0 -0.2329102 0.9726563
vn 0 -0.4589844 0.8886719
vn 0.09533691 -0.2318115 0.9682617
vn 0.0871582 -0.4572754 0.8852539
vn 0 -1 0
vn 0 -1 0
vn -0.01826477 -0.9824219 -0.1854248
vn 0 -0.9824219 -0.1854248
vn -0.03808594 -0.9213867 -0.3867188
vn 0 -1 0
vn 0 -0.921875 -0.3869629
vn 0.03616333 -0.9824219 -0.1818848
vn 0 -1 0
vn 0.07550049 -0.921875 -0.3793945
vn 0.05407715 -0.9824219 -0.1782227
vn 0.112793 -0.9213867 -0.3718262
vn 0 -1 0
vn 0 -1 0
vn 0 -1 0
vn 0 -1 0
vn 0 -1 0
vn 0 -1 0
vn 0 -1 0
vn -0.04705811 -0.9760742 -0.2131348
vn -0.08184814 -0.9736328 -0.2126465
vn -0.1802979 -0.8647461 -0.4682617
vn -0.09735107 -0.9042969 -0.4152832
vn -0.02156067 -0.9765625 -0.2133789
vn -0.3273926 -0.4111328 -0.8505859
vn -0.04095459 -0.9125977 -0.4072266
vn -0.2087402 -0.4743652 -0.8549805
vn -0.3574219 0.1022949 -0.9282227
vn -0.08685303 -0.4890137 -0.8681641
vn -0.2337646 0.1132813 -0.9658203
vn -0.09875488 0.1170654 -0.9882813
vn -0.9921875 0 -0.1237183
vn -0.9921875 0 -0.1237183
vn -0.9921875 0 -0.1237183
vn -0.9921875 0 -0.1237183
vn -0.9921875 0 -0.1237183
vn -0.9921875 0 -0.1237183
vn -0.9921875 0 -0.1237183
vn -0.9921875 0 -0.1237183
vn -0.9238281 0 -0.3825684
vn -0.9238281 0 -0.3825684
vn -0.9238281 0 -0.3825684
vn -0.9238281 0 -0.3825684
vn -0.9238281 0 -0.3825684
vn -0.9921875 0 -0.1237183
vn -0.9921875 0 -0.1237183
vn -0.9921875 0 -0.1237183
vn -0.9921875 0 -0.1237183
vn 0.953125 0 -0.302002
vn 0.953125 0 -0.302002
vn 0.953125 0 -0.302002
vn 0.953125 0 -0.302002
vn 0.980957 0 -0.1950684
vn 0.980957 0 -0.1950684
vn 0.980957 0 -0.1950684
vn 0.980957 0 -0.1950684
vn 0.980957 0 -0.1950684
vn 1 0 0
vn 1 0 0
vn 1 0 0
vn 1 0 0
vn 1 0 0
vn 1 0 0
vn 1 0 0
g Dal_Star_out_05_0
f 3/3/3 2/2/2 1/1/1
f 6/6/6 5/5/5 4/4/4
f 9/9/9 8/8/8 7/7/7
f 12/12/12 11/11/11 10/10/10
f 15/15/15 14/14/14 13/13/13
f 18/18/18 17/17/17 16/16/16
f 21/21/21 20/20/20 19/19/19
f 20/20/20 22/22/22 19/19/19
f 19/19/19 22/22/22 23/23/23
f 20/20/20 24/24/24 22/22/22
f 22/22/22 25/25/25 23/23/23
f 24/24/24 26/26/26 22/22/22
f 22/22/22 26/26/26 25/25/25
f 24/24/24 27/27/27 26/26/26
f 26/26/26 28/28/28 25/25/25
f 27/27/27 29/29/29 26/26/26
f 26/26/26 29/29/29 28/28/28
f 29/29/29 30/30/30 28/28/28
f 33/33/33 32/32/32 31/31/31
f 32/32/32 34/34/34 31/31/31
f 32/32/32 35/35/35 34/34/34
f 31/31/31 34/34/34 36/36/36
f 35/35/35 37/37/37 34/34/34
f 34/34/34 38/38/38 36/36/36
f 34/34/34 37/37/37 38/38/38
f 36/36/36 38/38/38 39/39/39
f 37/37/37 40/40/40 38/38/38
f 38/38/38 41/41/41 39/39/39
f 38/38/38 40/40/40 41/41/41
f 40/40/40 42/42/42 41/41/41
f 45/45/45 44/44/44 43/43/43
f 43/43/43 46/46/46 45/45/45
f 46/46/46 47/47/47 45/45/45
f 47/47/47 48/48/48 45/45/45
f 48/48/48 49/49/49 45/45/45
f 52/52/52 51/51/51 50/50/50
f 51/51/51 53/53/53 50/50/50
f 50/50/50 53/53/53 54/54/54
f 51/51/51 55/55/55 53/53/53
f 53/53/53 56/56/56 54/54/54
f 55/55/55 57/57/57 53/53/53
f 53/53/53 57/57/57 56/56/56
f 55/55/55 58/58/58 57/57/57
f 57/57/57 59/59/59 56/56/56
f 58/58/58 60/60/60 57/57/57
f 57/57/57 60/60/60 59/59/59
f 60/60/60 61/61/61 59/59/59
f 64/64/64 63/63/63 62/62/62
f 63/63/63 65/65/65 62/62/62
f 62/62/62 65/65/65 66/66/66
f 65/65/65 67/67/67 66/66/66
f 66/66/66 67/67/67 68/68/68
f 67/67/67 69/69/69 68/68/68
f 72/72/72 71/71/71 70/70/70
f 73/73/73 72/72/72 70/70/70
f 74/74/74 72/72/72 73/73/73
f 73/73/73 70/70/70 75/75/75
f 76/76/76 74/74/74 73/73/73
f 77/77/77 73/73/73 75/75/75
f 76/76/76 73/73/73 77/77/77
f 77/77/77 75/75/75 78/78/78
f 79/79/79 76/76/76 77/77/77
f 80/80/80 77/77/77 78/78/78
f 79/79/79 77/77/77 80/80/80
f 81/81/81 79/79/79 80/80/80
f 84/84/84 83/83/83 82/82/82
f 82/82/82 85/85/85 84/84/84
f 82/82/82 86/86/86 85/85/85
f 82/82/82 87/87/87 86/86/86
f 82/82/82 88/88/88 87/87/87
f 91/91/91 90/90/90 89/89/89
f 92/92/92 91/91/91 89/89/89
f 92/92/92 89/89/89 93/93/93
f 94/94/94 91/91/91 92/92/92
f 95/95/95 92/92/92 93/93/93
f 96/96/96 94/94/94 92/92/92
f 96/96/96 92/92/92 95/95/95
f 97/97/97 94/94/94 96/96/96
f 98/98/98 96/96/96 95/95/95
f 99/99/99 97/97/97 96/96/96
f 99/99/99 96/96/96 98/98/98
f 100/100/100 99/99/99 98/98/98
f 103/103/103 102/102/102 101/101/101
f 104/104/104 103/103/103 101/101/101
f 106/106/106 103/103/103 105/105/105
f 105/105/105 107/107/107 106/106/106
f 105/105/105 108/108/108 107/107/107
f 111/111/111 110/110/110 109/109/109
f 110/110/110 112/112/112 109/109/109
f 110/110/110 113/113/113 112/112/112
f 116/116/116 115/115/115 114/114/114
f 116/116/116 117/117/117 115/115/115
f 120/120/120 119/119/119 118/118/118
f 121/121/121 120/120/120 118/118/118
f 124/124/124 123/123/123 122/122/122
f 124/124/124 125/125/125 123/123/123
f 125/125/125 126/126/126 123/123/123
f 129/129/129 128/128/128 127/127/127
f 127/127/127 130/130/130 129/129/129
f 130/130/130 131/131/131 129/129/129
f 131/131/131 132/132/132 129/129/129
f 132/132/132 133/133/133 129/129/129
