g Dal_Star_out_09
v 2.347151 -0.2009459 -3.512758
v 2.549816 -0.2009459 -3.816068
v 2.583418 -0.08388146 -3.866357
v 2.549816 0.2045287 -3.816068
v 2.347151 0.2045288 -3.512758
v 2.288422 0.1601745 -3.424864
v 1.039649 0.1601749 -1.355817
v 0.9715683 0.06579855 -1.262111
v 0.9806895 -0.1094031 -1.274665
v 1.005609 0.1475309 -1.308964
v 0.9806895 0.1129867 -1.274665
v 1.039649 0.1601749 -1.355817
v 0.9806895 0.1129867 -1.274665
v 0.9715683 0.06579855 -1.262111
v 1.005609 -0.1439472 -1.308964
v 1.039649 -0.1565913 -1.355817
v 0.9806895 -0.1094031 -1.274665
v 2.583418 0.08746421 -3.866357
v 3.2453 0.2045288 -3.245299
v 2.549816 0.2045287 -3.816068
v 3.288067 0.0874643 -3.288066
v 2.583418 -0.08388146 -3.866357
v 3.816069 0.2045289 -2.549815
v 3.288067 -0.08388136 -3.288066
v 3.866358 0.08746442 -2.583417
v 4.240189 0.204529 -1.756342
v 3.866358 -0.08388124 -2.583417
v 4.296067 0.08746454 -1.779488
v 4.296067 -0.08388111 -1.779488
v 3.2453 0.2045288 -3.245299
v 2.347151 0.2045288 -3.512758
v 2.549816 0.2045287 -3.816068
v 2.987356 0.2045288 -2.987355
v 2.288422 0.1601745 -3.424864
v 3.816069 0.2045289 -2.549815
v 2.912608 0.1601746 -2.912608
v 3.512759 0.2045289 -2.34715
v 4.240189 0.204529 -1.756342
v 3.424866 0.1601747 -2.288421
v 3.903169 0.2045291 -1.616744
v 3.805507 0.1601748 -1.576291
v 2.319537 0.1601749 -1.014207
v 1.005609 0.1475309 -1.308964
v 1.039649 0.1601749 -1.355817
v 2.296625 0.1475309 -0.964384
v 2.522117 0.160175 -0.895874
v 0.9806895 0.1129867 -1.274665
v 2.465379 0.1475309 -0.8657932
v 2.279851 0.1129868 -0.927911
v 0.9715683 0.06579855 -1.262111
v 2.423844 0.1129868 -0.8437724
v 2.273712 0.06579861 -0.9145612
v 2.408641 0.06579863 -0.8357122
v 1.039649 0.1601749 -1.355817
v 2.288422 0.1601745 -3.424864
v 2.912608 0.1601746 -2.912608
v 3.424866 0.1601747 -2.288421
v 3.805507 0.1601748 -1.576291
v 2.319537 0.1601749 -1.014207
v 2.522117 0.160175 -0.895874
v 3.866358 -0.08388124 -2.583417
v 4.240189 -0.2009456 -1.756342
v 4.296067 -0.08388111 -1.779488
v 3.816069 -0.2009457 -2.549815
v 3.288067 -0.08388136 -3.288066
v 3.2453 -0.2009458 -3.245299
v 2.583418 -0.08388146 -3.866357
v 2.549816 -0.2009459 -3.816068
v 3.2453 -0.2009458 -3.245299
v 2.549816 -0.2009459 -3.816068
v 2.347151 -0.2009459 -3.512758
v 2.987356 -0.2009458 -2.987355
v 2.288422 -0.1565916 -3.424864
v 3.816069 -0.2009457 -2.549815
v 2.912608 -0.1565915 -2.912608
v 3.512759 -0.2009457 -2.34715
v 4.240189 -0.2009456 -1.756342
v 3.424866 -0.1565914 -2.288421
v 3.903169 -0.2009456 -1.616744
v 3.805507 -0.1565913 -1.576291
v 2.319537 -0.1565912 -1.014207
v 1.039649 -0.1565913 -1.355817
v 1.005609 -0.1439472 -1.308964
v 2.296625 -0.1439472 -0.964384
v 2.522117 -0.1565912 -0.895874
v 0.9806895 -0.1094031 -1.274665
v 2.465379 -0.1439472 -0.8657932
v 2.279851 -0.1094031 -0.927911
v 0.9715683 0.06579855 -1.262111
v 2.423844 -0.109403 -0.8437724
v 2.273712 0.06579861 -0.9145612
v 2.408641 0.06579863 -0.8357122
v 2.912608 -0.1565915 -2.912608
v 2.288422 -0.1565916 -3.424864
v 1.039649 -0.1565913 -1.355817
v 3.424866 -0.1565914 -2.288421
v 3.805507 -0.1565913 -1.576291
v 2.319537 -0.1565912 -1.014207
v 2.522117 -0.1565912 -0.895874
v 2.522117 0.160175 -0.895874
v 3.805507 0.1601748 -1.576291
v 3.805507 -0.1565913 -1.576291
v 2.522117 -0.1565912 -0.895874
v 2.465379 0.1475309 -0.8657932
v 2.465379 -0.1439472 -0.8657932
v 2.423844 0.1129868 -0.8437724
v 2.423844 -0.109403 -0.8437724
v 2.408641 0.06579863 -0.8357122
v 4.240189 0.204529 -1.756342
v 4.296067 0.08746454 -1.779488
v 4.296067 -0.08388111 -1.779488
v 4.240189 -0.2009456 -1.756342
v 3.903169 0.2045291 -1.616744
v 3.903169 -0.2009456 -1.616744
v 3.805507 0.1601748 -1.576291
v 3.805507 -0.1565913 -1.576291
v 1.039649 0.1601749 -1.355817
v 1.039649 -0.1565913 -1.355817
v 2.288422 -0.1565916 -3.424864
v 2.288422 0.1601745 -3.424864
v 2.583418 -0.08388146 -3.866357
v 2.288422 -0.1565916 -3.424864
v 2.347151 -0.2009459 -3.512758
v 2.288422 0.1601745 -3.424864
v 2.583418 0.08746421 -3.866357
v 2.549816 0.2045287 -3.816068
vt 0.8769531 0.2548828
vt 0.9086914 0.2336426
vt 0.9140625 0.2301025
vt 0.9086914 0.2336426
vt 0.8769531 0.2548828
vt 0.8676758 0.2612305
vt 0.6499023 0.3925781
vt 0.6401367 0.3996582
vt 0.6416016 0.3989258
vt 0.6450195 0.3962402
vt 0.6416016 0.3989258
vt 0.6499023 0.3925781
vt 0.6416016 0.3989258
vt 0.6401367 0.3996582
vt 0.6450195 0.3962402
vt 0.6499023 0.3925781
vt 0.6416016 0.3989258
vt 0.9140625 0.2301025
vt 0.8486328 0.1605225
vt 0.9086914 0.2336426
vt 0.8535156 0.1560059
vt 0.9140625 0.2301025
vt 0.7753906 0.1004028
vt 0.8535156 0.1560059
vt 0.7792969 0.09509277
vt 0.6918945 0.05575562
vt 0.7792969 0.09509277
vt 0.6943359 0.04986572
vt 0.6943359 0.04986572
vt 0.8486328 0.1605225
vt 0.8769531 0.2548828
vt 0.9086914 0.2336426
vt 0.8217773 0.1876221
vt 0.8676758 0.2612305
vt 0.7753906 0.1004028
vt 0.8139648 0.1954346
vt 0.7543945 0.1323242
vt 0.6918945 0.05575562
vt 0.7480469 0.1416016
vt 0.6772461 0.09124756
vt 0.6733398 0.1015015
vt 0.6137695 0.2578125
vt 0.6450195 0.3962402
vt 0.6499023 0.3925781
vt 0.6088867 0.2602539
vt 0.6015625 0.2365723
vt 0.6416016 0.3989258
vt 0.5981445 0.2425537
vt 0.6049805 0.2619629
vt 0.6401367 0.3996582
vt 0.5961914 0.2469482
vt 0.6035156 0.2626953
vt 0.5952148 0.2485352
vt 0.6499023 0.3925781
vt 0.8676758 0.2612305
vt 0.8139648 0.1954346
vt 0.7480469 0.1416016
vt 0.6733398 0.1015015
vt 0.6137695 0.2578125
vt 0.6015625 0.2365723
vt 0.7792969 0.09509277
vt 0.6918945 0.05575562
vt 0.6943359 0.04986572
vt 0.7753906 0.1004028
vt 0.8535156 0.1560059
vt 0.8486328 0.1605225
vt 0.9140625 0.2301025
vt 0.9086914 0.2336426
vt 0.8486328 0.1605225
vt 0.9086914 0.2336426
vt 0.8769531 0.2548828
vt 0.8217773 0.1876221
vt 0.8676758 0.2612305
vt 0.7753906 0.1004028
vt 0.8139648 0.1954346
vt 0.7543945 0.1323242
vt 0.6918945 0.05575562
vt 0.7480469 0.1416016
vt 0.6772461 0.09124756
vt 0.6733398 0.1015015
vt 0.6137695 0.2578125
vt 0.6499023 0.3925781
vt 0.6450195 0.3962402
vt 0.6088867 0.2602539
vt 0.6015625 0.2365723
vt 0.6416016 0.3989258
vt 0.5981445 0.2425537
vt 0.6049805 0.2619629
vt 0.6401367 0.3996582
vt 0.5961914 0.2469482
vt 0.6035156 0.2626953
vt 0.5952148 0.2485352
vt 0.8139648 0.1954346
vt 0.8676758 0.2612305
vt 0.6499023 0.3925781
vt 0.7480469 0.1416016
vt 0.6733398 0.1015015
vt 0.6137695 0.2578125
vt 0.6015625 0.2365723
vt 0.6015625 0.2365723
vt 0.6733398 0.1015015
vt 0.6733398 0.1015015
vt 0.6015625 0.2365723
vt 0.5981445 0.2425537
vt 0.5981445 0.2425537
vt 0.5961914 0.2469482
vt 0.5961914 0.2469482
vt 0.5952148 0.2485352
vt 0.6918945 0.05575562
vt 0.6943359 0.04986572
vt 0.6943359 0.04986572
vt 0.6918945 0.05575562
vt 0.6772461 0.09124756
vt 0.6772461 0.09124756
vt 0.6733398 0.1015015
vt 0.6733398 0.1015015
vt 0.6499023 0.3925781
vt 0.6499023 0.3925781
vt 0.8676758 0.2612305
vt 0.8676758 0.2612305
vt 0.9140625 0.2301025
vt 0.8676758 0.2612305
vt 0.8769531 0.2548828
vt 0.8676758 0.2612305
vt 0.9140625 0.2301025
vt 0.9086914 0.2336426
vn -0.831543 0 -0.5556641
vn -0.831543 0 -0.5556641
vn -0.831543 0 -0.5556641
vn -0.831543 0 -0.5556641
vn -0.831543 0 -0.5556641
vn -0.831543 0 -0.5556641
vn -0.809082 0 -0.5878906
vn -0.809082 0 -0.5878906
vn -0.809082 0 -0.5878906
vn -0.809082 0 -0.5878906
vn -0.809082 0 -0.5878906
vn -0.809082 0 -0.5878906
vn -0.809082 0 -0.5878906
vn -0.809082 0 -0.5878906
vn -0.809082 0 -0.5878906
vn -0.809082 0 -0.5878906
vn -0.809082 0 -0.5878906
vn 0.6171875 0.2318115 -0.7519531
vn 0.628418 0.4589844 -0.628418
vn 0.5639648 0.4572754 -0.6875
vn 0.6875 0.2329102 -0.6875
vn 0.6171875 -0.2318115 -0.7519531
vn 0.7387695 0.4589844 -0.4936523
vn 0.6875 -0.2329102 -0.6875
vn 0.8085938 0.2329102 -0.5405273
vn 0.7841797 0.4572754 -0.4191895
vn 0.8085938 -0.2329102 -0.5405273
vn 0.8579102 0.2318115 -0.4584961
vn 0.8579102 -0.2318115 -0.4584961
vn 0 1 0
vn -0.1181641 0.9824219 0.144043
vn 0 1 0
vn -0.1311035 0.9824219 0.1311035
vn -0.24646 0.9213867 0.300293
vn 0 1 0
vn -0.2736816 0.921875 0.2736816
vn -0.1541748 0.9824219 0.1030273
vn 0 1 0
vn -0.3217773 0.921875 0.2149658
vn -0.1643066 0.9824219 0.08782959
vn -0.3425293 0.9213867 0.1831055
vn -0.0869751 0.9746094 0.2072754
vn -0.1293945 0.8647461 0.4848633
vn -0.05874634 0.9736328 0.2200928
vn -0.1676025 0.9003906 0.4016113
vn -0.1138306 0.9741211 0.1948242
vn -0.2215576 0.512207 0.8300781
vn -0.1943359 0.9228516 0.3327637
vn -0.3183594 0.5595703 0.7651367
vn -0.2565918 0.1022949 0.9609375
vn -0.4072266 0.590332 0.6967773
vn -0.3818359 0.1106567 0.9174805
vn -0.5009766 0.1158447 0.8574219
vn 0 1 0
vn 0 1 0
vn 0 1 0
vn 0 1 0
vn 0 1 0
vn 0 1 0
vn 0 1 0
vn 0.8085938 -0.2329102 -0.5405273
vn 0.7841797 -0.4572754 -0.4191895
vn 0.8579102 -0.2318115 -0.4584961
vn 0.7387695 -0.4589844 -0.4936523
vn 0.6875 -0.2329102 -0.6875
vn 0.628418 -0.4589844 -0.628418
vn 0.6171875 -0.2318115 -0.7519531
vn 0.5639648 -0.4572754 -0.6875
vn 0 -1 0
vn 0 -1 0
vn -0.1181641 -0.9824219 0.144043
vn -0.1311035 -0.9824219 0.1311035
vn -0.24646 -0.9213867 0.300293
vn 0 -1 0
vn -0.2736816 -0.921875 0.2736816
vn -0.1541748 -0.9824219 0.1030273
vn 0 -1 0
vn -0.3217773 -0.921875 0.2149658
vn -0.1643066 -0.9824219 0.08782959
vn -0.3425293 -0.9213867 0.1831055
vn -0.0869751 -0.9746094 0.2072754
vn -0.05874634 -0.9736328 0.2200928
vn -0.1293945 -0.8647461 0.4848633
vn -0.1676025 -0.9003906 0.4016113
vn -0.1138306 -0.9741211 0.1948242
vn -0.2351074 -0.4111328 0.8808594
vn -0.1943359 -0.9228516 0.3327637
vn -0.3391113 -0.4680176 0.815918
vn -0.2565918 0.1022949 0.9609375
vn -0.4360352 -0.5029297 0.7460938
vn -0.3818359 0.1106567 0.9174805
vn -0.5009766 0.1158447 0.8574219
vn 0 -1 0
vn 0 -1 0
vn 0 -1 0
vn 0 -1 0
vn 0 -1 0
vn 0 -1 0
vn 0 -1 0
vn 0.4685059 0 0.8833008
vn 0.4685059 0 0.8833008
vn 0.4685059 0 0.8833008
vn 0.4685059 0 0.8833008
vn 0.4685059 0 0.8833008
vn 0.4685059 0 0.8833008
vn 0.4685059 0 0.8833008
vn 0.4685059 0 0.8833008
vn 0.4685059 0 0.8833008
vn 0.3825684 0 0.9238281
vn 0.3825684 0 0.9238281
vn 0.3825684 0 0.9238281
vn 0.3825684 0 0.9238281
vn 0.3825684 0 0.9238281
vn 0.3825684 0 0.9238281
vn 0.3825684 0 0.9238281
vn 0.3825684 0 0.9238281
vn -0.855957 0 -0.5166016
vn -0.855957 0 -0.5166016
vn -0.855957 0 -0.5166016
vn -0.855957 0 -0.5166016
vn -0.831543 0 -0.5556641
vn -0.831543 0 -0.5556641
vn -0.831543 0 -0.5556641
vn -0.831543 0 -0.5556641
vn -0.831543 0 -0.5556641
vn -0.831543 0 -0.5556641
g Dal_Star_out_09_0
f 3/3/3 2/2/2 1/1/1
f 6/6/6 5/5/5 4/4/4
f 9/9/9 8/8/8 7/7/7
f 11/11/11 10/10/10 7/7/7
f 14/14/14 13/13/13 12/12/12
f 12/12/12 16/16/16 15/15/15
f 15/15/15 17/17/17 12/12/12
f 20/20/20 19/19/19 18/18/18
f 19/19/19 21/21/21 18/18/18
f 18/18/18 21/21/21 22/22/22
f 19/19/19 23/23/23 21/21/21
f 21/21/21 24/24/24 22/22/22
f 23/23/23 25/25/25 21/21/21
f 21/21/21 25/25/25 24/24/24
f 23/23/23 26/26/26 25/25/25
f 25/25/25 27/27/27 24/24/24
f 26/26/26 28/28/28 25/25/25
f 25/25/25 28/28/28 27/27/27
f 28/28/28 29/29/29 27/27/27
f 32/32/32 31/31/31 30/30/30
f 31/31/31 33/33/33 30/30/30
f 31/31/31 34/34/34 33/33/33
f 30/30/30 33/33/33 35/35/35
f 34/34/34 36/36/36 33/33/33
f 33/33/33 37/37/37 35/35/35
f 33/33/33 36/36/36 37/37/37
f 35/35/35 37/37/37 38/38/38
f 36/36/36 39/39/39 37/37/37
f 37/37/37 40/40/40 38/38/38
f 37/37/37 39/39/39 40/40/40
f 39/39/39 41/41/41 40/40/40
f 44/44/44 43/43/43 42/42/42
f 43/43/43 45/45/45 42/42/42
f 42/42/42 45/45/45 46/46/46
f 43/43/43 47/47/47 45/45/45
f 45/45/45 48/48/48 46/46/46
f 47/47/47 49/49/49 45/45/45
f 45/45/45 49/49/49 48/48/48
f 47/47/47 50/50/50 49/49/49
f 49/49/49 51/51/51 48/48/48
f 50/50/50 52/52/52 49/49/49
f 49/49/49 52/52/52 51/51/51
f 52/52/52 53/53/53 51/51/51
f 56/56/56 55/55/55 54/54/54
f 54/54/54 57/57/57 56/56/56
f 54/54/54 58/58/58 57/57/57
f 54/54/54 59/59/59 58/58/58
f 59/59/59 60/60/60 58/58/58
f 63/63/63 62/62/62 61/61/61
f 62/62/62 64/64/64 61/61/61
f 61/61/61 64/64/64 65/65/65
f 64/64/64 66/66/66 65/65/65
f 65/65/65 66/66/66 67/67/67
f 66/66/66 68/68/68 67/67/67
f 71/71/71 70/70/70 69/69/69
f 72/72/72 71/71/71 69/69/69
f 73/73/73 71/71/71 72/72/72
f 72/72/72 69/69/69 74/74/74
f 75/75/75 73/73/73 72/72/72
f 76/76/76 72/72/72 74/74/74
f 75/75/75 72/72/72 76/76/76
f 76/76/76 74/74/74 77/77/77
f 78/78/78 75/75/75 76/76/76
f 79/79/79 76/76/76 77/77/77
f 78/78/78 76/76/76 79/79/79
f 80/80/80 78/78/78 79/79/79
f 83/83/83 82/82/82 81/81/81
f 84/84/84 83/83/83 81/81/81
f 84/84/84 81/81/81 85/85/85
f 86/86/86 83/83/83 84/84/84
f 87/87/87 84/84/84 85/85/85
f 88/88/88 86/86/86 84/84/84
f 88/88/88 84/84/84 87/87/87
f 86/86/86 88/88/88 89/89/89
f 90/90/90 88/88/88 87/87/87
f 88/88/88 91/91/91 89/89/89
f 91/91/91 88/88/88 90/90/90
f 92/92/92 91/91/91 90/90/90
f 95/95/95 94/94/94 93/93/93
f 93/93/93 96/96/96 95/95/95
f 96/96/96 97/97/97 95/95/95
f 97/97/97 98/98/98 95/95/95
f 97/97/97 99/99/99 98/98/98
f 102/102/102 101/101/101 100/100/100
f 103/103/103 102/102/102 100/100/100
f 103/103/103 100/100/100 104/104/104
f 104/104/104 105/105/105 103/103/103
f 104/104/104 106/106/106 105/105/105
f 106/106/106 107/107/107 105/105/105
f 106/106/106 108/108/108 107/107/107
f 111/111/111 110/110/110 109/109/109
f 109/109/109 112/112/112 111/111/111
f 109/109/109 113/113/113 112/112/112
f 113/113/113 114/114/114 112/112/112
f 113/113/113 115/115/115 114/114/114
f 115/115/115 116/116/116 114/114/114
f 119/119/119 118/118/118 117/117/117
f 120/120/120 119/119/119 117/117/117
f 123/123/123 122/122/122 121/121/121
f 122/122/122 124/124/124 121/121/121
f 124/124/124 125/125/125 121/121/121
f 124/124/124 126/126/126 125/125/125
