g Dal_Star_in_03
v -1.423411 0.1038226 0.482083
v -1.495256 -0.1002382 1.827894
v -1.423411 -0.1002384 0.482083
v -1.495256 0.1038228 1.827894
v -1.469722 0.1795705 1.82583
v -1.397538 0.1795703 0.4736765
v -1.439216 0.1795705 1.965729
v -1.461961 0.1038229 1.980585
v -1.461961 -0.1002382 1.980585
v -1.345857 0.1795706 2.033559
v -1.352957 0.1038229 2.059781
v -1.352957 -0.1002382 2.059781
v -1.203378 0.1795706 2.01934
v -1.197451 0.1038229 2.044262
v -1.197451 -0.1002382 2.044262
v 0.0602904 0.1795705 1.532851
v 0.0602904 -0.1002383 1.560055
v 0.0602904 0.1038228 1.560055
v -1.397538 0.1795703 0.4736765
v -1.335077 0.2017362 0.4533815
v -1.408078 0.2017364 1.820846
v -1.469722 0.1795705 1.82583
v -1.384306 0.2017364 1.929865
v -1.439216 0.1795705 1.965729
v -1.328716 0.2017364 1.970253
v -1.345857 0.1795706 2.033559
v -1.217687 0.2017364 1.959173
v -1.203378 0.1795706 2.01934
v 0.0602904 0.2017363 1.467175
v 0.0602904 0.1795705 1.532851
v -1.408078 0.2017364 1.820846
v -1.335077 0.2017362 0.4533815
v 0.3267815 0.2017362 0.6469994
v 0.0602904 0.2017363 1.467175
v -1.217687 0.2017364 1.959173
v -1.384306 0.2017364 1.929865
v -1.328716 0.2017364 1.970253
v -1.423411 -0.1002384 0.482083
v -1.469722 -0.1759859 1.82583
v -1.397538 -0.1759861 0.4736765
v -1.495256 -0.1002382 1.827894
v -1.439216 -0.1759859 1.965729
v -1.461961 -0.1002382 1.980585
v -1.345857 -0.1759859 2.033559
v -1.352957 -0.1002382 2.059781
v -1.203378 -0.1759859 2.01934
v -1.197451 -0.1002382 2.044262
v 0.0602904 -0.175986 1.532851
v 0.0602904 -0.1002383 1.560055
v -1.397538 -0.1759861 0.4736765
v -1.408078 -0.1981518 1.820846
v -1.335077 -0.198152 0.4533816
v -1.469722 -0.1759859 1.82583
v -1.384306 -0.1981518 1.929865
v -1.439216 -0.1759859 1.965729
v -1.328716 -0.1981517 1.970253
v -1.345857 -0.1759859 2.033559
v -1.217687 -0.1981518 1.959173
v -1.203378 -0.1759859 2.01934
v 0.0602904 -0.1981518 1.467175
v 0.0602904 -0.175986 1.532851
v 0.3267815 -0.198152 0.6469995
v -1.335077 -0.198152 0.4533816
v -1.408078 -0.1981518 1.820846
v 0.0602904 -0.1981518 1.467175
v -1.217687 -0.1981518 1.959173
v -1.384306 -0.1981518 1.929865
v -1.328716 -0.1981517 1.970253
v 0.3267815 0.2017362 0.6469994
v -1.335077 -0.198152 0.4533816
v 0.3267815 -0.198152 0.6469995
v -1.335077 0.2017362 0.4533815
v -1.397538 -0.1759861 0.4736765
v -1.397538 0.1795703 0.4736765
v -1.423411 -0.1002384 0.482083
v -1.423411 0.1038226 0.482083
v 0.3267815 0.2017362 0.6469994
v 0.3267815 -0.198152 0.6469995
v 0.0602904 -0.1981518 1.467175
v 0.0602904 0.2017363 1.467175
v 0.0602904 -0.175986 1.532851
v 0.0602904 -0.1002383 1.560055
v 0.0602904 0.1038228 1.560055
v 0.0602904 0.1795705 1.532851
vt 0.456543 0.6523438
vt 0.3149414 0.6601563
vt 0.456543 0.6523438
vt 0.3149414 0.6601563
vt 0.3149414 0.6572266
vt 0.4572754 0.6499023
vt 0.300293 0.6542969
vt 0.2988281 0.6567383
vt 0.2988281 0.6567383
vt 0.2932129 0.644043
vt 0.2905273 0.6450195
vt 0.2905273 0.6450195
vt 0.2946777 0.6293945
vt 0.2919922 0.628418
vt 0.2919922 0.628418
vt 0.3459473 0.4963379
vt 0.3430176 0.4963379
vt 0.3430176 0.4963379
vt 0.4572754 0.6499023
vt 0.4594727 0.6430664
vt 0.3156738 0.6508789
vt 0.3149414 0.6572266
vt 0.3041992 0.6484375
vt 0.300293 0.6542969
vt 0.2998047 0.6425781
vt 0.2932129 0.644043
vt 0.3010254 0.6308594
vt 0.2946777 0.6293945
vt 0.3527832 0.4963379
vt 0.3459473 0.4963379
vt 0.3156738 0.6508789
vt 0.4594727 0.6430664
vt 0.439209 0.4682617
vt 0.3527832 0.4963379
vt 0.3010254 0.6308594
vt 0.3041992 0.6484375
vt 0.2998047 0.6425781
vt 0.456543 0.6523438
vt 0.3149414 0.6572266
vt 0.4572754 0.6499023
vt 0.3149414 0.6601563
vt 0.300293 0.6542969
vt 0.2988281 0.6567383
vt 0.2932129 0.644043
vt 0.2905273 0.6450195
vt 0.2946777 0.6293945
vt 0.2919922 0.628418
vt 0.3459473 0.4963379
vt 0.3430176 0.4963379
vt 0.4572754 0.6499023
vt 0.3156738 0.6508789
vt 0.4594727 0.6430664
vt 0.3149414 0.6572266
vt 0.3041992 0.6484375
vt 0.300293 0.6542969
vt 0.2998047 0.6425781
vt 0.2932129 0.644043
vt 0.3010254 0.6308594
vt 0.2946777 0.6293945
vt 0.3527832 0.4963379
vt 0.3459473 0.4963379
vt 0.439209 0.4682617
vt 0.4594727 0.6430664
vt 0.3156738 0.6508789
vt 0.3527832 0.4963379
vt 0.3010254 0.6308594
vt 0.3041992 0.6484375
vt 0.2998047 0.6425781
vt 0.439209 0.4682617
vt 0.4594727 0.6430664
vt 0.439209 0.4682617
vt 0.4594727 0.6430664
vt 0.4572754 0.6499023
vt 0.4572754 0.6499023
vt 0.456543 0.6523438
vt 0.456543 0.6523438
vt 0.439209 0.4682617
vt 0.439209 0.4682617
vt 0.3527832 0.4963379
vt 0.3527832 0.4963379
vt 0.3459473 0.4963379
vt 0.3430176 0.4963379
vt 0.3430176 0.4963379
vt 0.3459473 0.4963379
vn -0.984375 0.1669922 -0.05255127
vn -0.9838867 -0.1601563 0.07952881
vn -0.984375 -0.1669922 -0.05255127
vn -0.9838867 0.1601563 0.07952881
vn -0.9443359 0.3203125 0.07635498
vn -0.9467773 0.3178711 -0.05053711
vn -0.7880859 0.3376465 0.5146484
vn -0.8256836 0.1651611 0.5395508
vn -0.8256836 -0.1651611 0.5395508
vn -0.2459717 0.3376465 0.9086914
vn -0.2578125 0.1651611 0.9521484
vn -0.2578125 -0.1651611 0.9521484
vn 0.2191162 0.3203125 0.9213867
vn 0.2283936 0.1601563 0.9604492
vn 0.2283936 -0.1601563 0.9604492
vn 0.3405762 0.3178711 0.8847656
vn 0.354248 -0.1669922 0.9199219
vn 0.354248 0.1669922 0.9199219
vn -0.3395996 0.9404297 -0.01812744
vn -0.3395996 0.9404297 -0.01812744
vn -0.3361816 0.9414063 0.02719116
vn -0.3361816 0.9414063 0.02719116
vn -0.2680664 0.9472656 0.1750488
vn -0.2680664 0.9472656 0.1750488
vn -0.0836792 0.9472656 0.309082
vn -0.0836792 0.9472656 0.309082
vn 0.07806396 0.9414063 0.328125
vn 0.07806396 0.9414063 0.328125
vn 0.1221924 0.9404297 0.3173828
vn 0.1221924 0.9404297 0.3173828
vn 0 1 0
vn 0 1 0
vn 0 1 0
vn 0 1 0
vn 0 1 0
vn 0 1 0
vn 0 1 0
vn -0.984375 -0.1669922 -0.05255127
vn -0.9443359 -0.3203125 0.07635498
vn -0.9467773 -0.3178711 -0.05053711
vn -0.9838867 -0.1601563 0.07952881
vn -0.7880859 -0.3376465 0.5146484
vn -0.8256836 -0.1651611 0.5395508
vn -0.2459717 -0.3376465 0.9086914
vn -0.2578125 -0.1651611 0.9521484
vn 0.2191162 -0.3203125 0.9213867
vn 0.2283936 -0.1601563 0.9604492
vn 0.3405762 -0.3178711 0.8847656
vn 0.354248 -0.1669922 0.9199219
vn -0.3395996 -0.9404297 -0.01812744
vn -0.3361816 -0.9414063 0.02719116
vn -0.3395996 -0.9404297 -0.01812744
vn -0.3361816 -0.9414063 0.02719116
vn -0.2680664 -0.9472656 0.1750488
vn -0.2680664 -0.9472656 0.1750488
vn -0.0836792 -0.9472656 0.309082
vn -0.0836792 -0.9472656 0.309082
vn 0.07806396 -0.9414063 0.328125
vn 0.07806396 -0.9414063 0.328125
vn 0.1221924 -0.9404297 0.3173828
vn 0.1221924 -0.9404297 0.3173828
vn 0 -1 0
vn 0 -1 0
vn 0 -1 0
vn 0 -1 0
vn 0 -1 0
vn 0 -1 0
vn 0 -1 0
vn 0.1157227 0 -0.9931641
vn -0.0737915 0 -0.9970703
vn 0.1157227 0 -0.9931641
vn -0.0737915 0 -0.9970703
vn -0.309082 0 -0.9511719
vn -0.309082 0 -0.9511719
vn -0.309082 0 -0.9511719
vn -0.309082 0 -0.9511719
vn 0.9511719 0 0.309082
vn 0.9511719 0 0.309082
vn 0.9848633 0 0.1744385
vn 0.9848633 0 0.1744385
vn 1 0 0
vn 1 0 0
vn 1 0 0
vn 1 0 0
g Dal_Star_in_03_0
f 3/3/3 2/2/2 1/1/1
f 2/2/2 4/4/4 1/1/1
f 4/4/4 5/5/5 1/1/1
f 5/5/5 6/6/6 1/1/1
f 5/5/5 4/4/4 7/7/7
f 8/8/8 4/4/4 2/2/2
f 4/4/4 8/8/8 7/7/7
f 9/9/9 8/8/8 2/2/2
f 7/7/7 8/8/8 10/10/10
f 11/11/11 8/8/8 9/9/9
f 8/8/8 11/11/11 10/10/10
f 12/12/12 11/11/11 9/9/9
f 10/10/10 11/11/11 13/13/13
f 14/14/14 11/11/11 12/12/12
f 11/11/11 14/14/14 13/13/13
f 15/15/15 14/14/14 12/12/12
f 16/16/16 13/13/13 14/14/14
f 15/15/15 17/17/17 14/14/14
f 18/18/18 16/16/16 14/14/14
f 17/17/17 18/18/18 14/14/14
f 21/21/21 20/20/20 19/19/19
f 22/22/22 21/21/21 19/19/19
f 21/21/21 22/22/22 23/23/23
f 22/22/22 24/24/24 23/23/23
f 23/23/23 24/24/24 25/25/25
f 24/24/24 26/26/26 25/25/25
f 25/25/25 26/26/26 27/27/27
f 26/26/26 28/28/28 27/27/27
f 29/29/29 27/27/27 28/28/28
f 30/30/30 29/29/29 28/28/28
f 33/33/33 32/32/32 31/31/31
f 31/31/31 34/34/34 33/33/33
f 31/31/31 35/35/35 34/34/34
f 31/31/31 36/36/36 35/35/35
f 36/36/36 37/37/37 35/35/35
f 40/40/40 39/39/39 38/38/38
f 39/39/39 41/41/41 38/38/38
f 41/41/41 39/39/39 42/42/42
f 43/43/43 41/41/41 42/42/42
f 43/43/43 42/42/42 44/44/44
f 45/45/45 43/43/43 44/44/44
f 45/45/45 44/44/44 46/46/46
f 47/47/47 45/45/45 46/46/46
f 46/46/46 48/48/48 47/47/47
f 48/48/48 49/49/49 47/47/47
f 52/52/52 51/51/51 50/50/50
f 51/51/51 53/53/53 50/50/50
f 53/53/53 51/51/51 54/54/54
f 55/55/55 53/53/53 54/54/54
f 55/55/55 54/54/54 56/56/56
f 57/57/57 55/55/55 56/56/56
f 57/57/57 56/56/56 58/58/58
f 59/59/59 57/57/57 58/58/58
f 58/58/58 60/60/60 59/59/59
f 60/60/60 61/61/61 59/59/59
f 64/64/64 63/63/63 62/62/62
f 62/62/62 65/65/65 64/64/64
f 65/65/65 66/66/66 64/64/64
f 66/66/66 67/67/67 64/64/64
f 66/66/66 68/68/68 67/67/67
f 71/71/71 70/70/70 69/69/69
f 70/70/70 72/72/72 69/69/69
f 72/72/72 70/70/70 73/73/73
f 73/73/73 74/74/74 72/72/72
f 73/73/73 75/75/75 74/74/74
f 75/75/75 76/76/76 74/74/74
f 79/79/79 78/78/78 77/77/77
f 80/80/80 79/79/79 77/77/77
f 81/81/81 79/79/79 80/80/80
f 80/80/80 82/82/82 81/81/81
f 80/80/80 83/83/83 82/82/82
f 80/80/80 84/84/84 83/83/83
