g Dal_Star_in_05
v 0.9772677 0.1038223 -1.262111
v 0.9612774 0.17957 -1.240103
v 0.9226741 0.2017359 -1.18697
v 1.543991 0.1038226 0.4820835
v 2.393163 -0.1002386 -0.5644708
v 1.543991 -0.1002384 0.4820836
v 2.393163 0.1038225 -0.5644708
v 2.371292 0.1795701 -0.577809
v 1.518118 0.1795703 0.4736771
v 2.428843 0.1795701 -0.7089207
v 2.455976 0.1038224 -0.7075702
v 2.455976 -0.1002386 -0.7075702
v 2.393184 0.1795701 -0.8186713
v 2.41434 0.1038224 -0.8357122
v 2.41434 -0.1002387 -0.8357122
v 2.269558 0.1795701 -0.890915
v 2.279411 0.1038224 -0.9145612
v 2.279411 -0.1002387 -0.9145612
v 0.9612774 0.17957 -1.240103
v 0.9772677 -0.1002387 -1.262111
v 0.9772677 0.1038223 -1.262111
v 1.518118 0.1795703 0.4736771
v 1.455657 0.2017362 0.4533821
v 2.318491 0.201736 -0.6100104
v 2.371292 0.1795701 -0.577809
v 2.363339 0.201736 -0.7121812
v 2.428843 0.1795701 -0.7089207
v 2.342106 0.2017359 -0.7775313
v 2.393184 0.1795701 -0.8186713
v 2.245769 0.2017359 -0.8338282
v 2.269558 0.1795701 -0.890915
v 0.9226741 0.2017359 -1.18697
v 0.9612774 0.17957 -1.240103
v 0.5932727 0.201736 -0.1731766
v 0.9226741 0.2017359 -1.18697
v 2.245769 0.2017359 -0.8338282
v 2.342106 0.2017359 -0.7775313
v 2.363339 0.201736 -0.7121812
v 2.318491 0.201736 -0.6100104
v 1.455657 0.2017362 0.4533821
v 1.543991 -0.1002384 0.4820836
v 2.371292 -0.1759863 -0.577809
v 1.518118 -0.1759861 0.4736771
v 2.393163 -0.1002386 -0.5644708
v 2.428843 -0.1759863 -0.7089207
v 2.455976 -0.1002386 -0.7075702
v 2.393184 -0.1759863 -0.8186713
v 2.41434 -0.1002387 -0.8357122
v 2.269558 -0.1759864 -0.890915
v 2.279411 -0.1002387 -0.9145612
v 0.9612774 -0.1759864 -1.240103
v 0.9772677 -0.1002387 -1.262111
v 1.518118 -0.1759861 0.4736771
v 2.318491 -0.1981522 -0.6100103
v 1.455657 -0.198152 0.4533822
v 2.371292 -0.1759863 -0.577809
v 2.363339 -0.1981522 -0.7121811
v 2.428843 -0.1759863 -0.7089207
v 2.342106 -0.1981522 -0.7775311
v 2.393184 -0.1759863 -0.8186713
v 2.245769 -0.1981522 -0.8338281
v 2.269558 -0.1759864 -0.890915
v 0.9226741 -0.1981523 -1.18697
v 0.9612774 -0.1759864 -1.240103
v 2.245769 -0.1981522 -0.8338281
v 0.9226741 -0.1981523 -1.18697
v 0.5932727 -0.1981521 -0.1731765
v 2.342106 -0.1981522 -0.7775311
v 2.363339 -0.1981522 -0.7121811
v 2.318491 -0.1981522 -0.6100103
v 1.455657 -0.198152 0.4533822
v 1.455657 0.2017362 0.4533821
v 0.5932727 -0.1981521 -0.1731765
v 0.5932727 0.201736 -0.1731766
v 1.455657 -0.198152 0.4533822
v 1.518118 -0.1759861 0.4736771
v 1.518118 0.1795703 0.4736771
v 1.543991 -0.1002384 0.4820836
v 1.543991 0.1038226 0.4820835
v 0.9226741 0.2017359 -1.18697
v 0.5932727 0.201736 -0.1731766
v 0.5932727 -0.1981521 -0.1731765
v 0.9226741 -0.1981523 -1.18697
v 0.9612774 -0.1759864 -1.240103
v 0.9772677 -0.1002387 -1.262111
v 0.9772677 0.1038223 -1.262111
vt 0.6401367 0.3996582
vt 0.6376953 0.4013672
vt 0.6323242 0.4055176
vt 0.456543 0.3400879
vt 0.5664063 0.2507324
vt 0.456543 0.3400879
vt 0.5664063 0.2507324
vt 0.5678711 0.2531738
vt 0.4572754 0.3427734
vt 0.5820313 0.2469482
vt 0.581543 0.2441406
vt 0.581543 0.2441406
vt 0.5932617 0.2507324
vt 0.5952148 0.2485352
vt 0.5952148 0.2485352
vt 0.6010742 0.2636719
vt 0.6035156 0.2626953
vt 0.6035156 0.2626953
vt 0.6376953 0.4013672
vt 0.6401367 0.3996582
vt 0.6401367 0.3996582
vt 0.4572754 0.3427734
vt 0.4594727 0.3493652
vt 0.5712891 0.2585449
vt 0.5678711 0.2531738
vt 0.5820313 0.2539063
vt 0.5820313 0.2469482
vt 0.5888672 0.2561035
vt 0.5932617 0.2507324
vt 0.5952148 0.2663574
vt 0.6010742 0.2636719
vt 0.6323242 0.4055176
vt 0.6376953 0.4013672
vt 0.5253906 0.4401855
vt 0.6323242 0.4055176
vt 0.5952148 0.2663574
vt 0.5888672 0.2561035
vt 0.5820313 0.2539063
vt 0.5712891 0.2585449
vt 0.4594727 0.3493652
vt 0.456543 0.3400879
vt 0.5678711 0.2531738
vt 0.4572754 0.3427734
vt 0.5664063 0.2507324
vt 0.5820313 0.2469482
vt 0.581543 0.2441406
vt 0.5932617 0.2507324
vt 0.5952148 0.2485352
vt 0.6010742 0.2636719
vt 0.6035156 0.2626953
vt 0.6376953 0.4013672
vt 0.6401367 0.3996582
vt 0.4572754 0.3427734
vt 0.5712891 0.2585449
vt 0.4594727 0.3493652
vt 0.5678711 0.2531738
vt 0.5820313 0.2539063
vt 0.5820313 0.2469482
vt 0.5888672 0.2561035
vt 0.5932617 0.2507324
vt 0.5952148 0.2663574
vt 0.6010742 0.2636719
vt 0.6323242 0.4055176
vt 0.6376953 0.4013672
vt 0.5952148 0.2663574
vt 0.6323242 0.4055176
vt 0.5253906 0.4401855
vt 0.5888672 0.2561035
vt 0.5820313 0.2539063
vt 0.5712891 0.2585449
vt 0.4594727 0.3493652
vt 0.4594727 0.3493652
vt 0.5253906 0.4401855
vt 0.5253906 0.4401855
vt 0.4594727 0.3493652
vt 0.4572754 0.3427734
vt 0.4572754 0.3427734
vt 0.456543 0.3400879
vt 0.456543 0.3400879
vt 0.6323242 0.4055176
vt 0.5253906 0.4401855
vt 0.5253906 0.4401855
vt 0.6323242 0.4055176
vt 0.6376953 0.4013672
vt 0.6401367 0.3996582
vt 0.6401367 0.3996582
vn -0.809082 0 -0.5878906
vn -0.809082 0 -0.5878906
vn -0.8989258 0 -0.4375
vn 0.765625 0.1669922 0.6210938
vn 0.8427734 -0.1601563 0.5141602
vn 0.765625 -0.1669922 0.6210938
vn 0.8427734 0.1601563 0.5141602
vn 0.8085938 0.3203125 0.4931641
vn 0.7363281 0.3178711 0.5976563
vn 0.9399414 0.3376465 0.04678345
vn 0.9848633 0.1651611 0.04904175
vn 0.9848633 -0.1651611 0.04904175
vn 0.7329102 0.3376465 -0.590332
vn 0.7680664 0.1651611 -0.6186523
vn 0.7680664 -0.1651611 -0.6186523
vn 0.364502 0.3203125 -0.8745117
vn 0.3796387 0.1601563 -0.9111328
vn 0.3796387 -0.1601563 -0.9111328
vn 0.2445068 0.3178711 -0.9160156
vn 0.2541504 -0.1669922 -0.9526367
vn 0.2541504 0.1669922 -0.9526367
vn 0.2641602 0.9404297 0.2142334
vn 0.2641602 0.9404297 0.2142334
vn 0.2880859 0.9414063 0.1756592
vn 0.2880859 0.9414063 0.1756592
vn 0.3198242 0.9472656 0.01591492
vn 0.3198242 0.9472656 0.01591492
vn 0.2493896 0.9472656 -0.2008057
vn 0.2493896 0.9472656 -0.2008057
vn 0.1297607 0.9414063 -0.3115234
vn 0.1297607 0.9414063 -0.3115234
vn 0.08770752 0.9404297 -0.3286133
vn 0.08770752 0.9404297 -0.3286133
vn 0 1 0
vn 0 1 0
vn 0 1 0
vn 0 1 0
vn 0 1 0
vn 0 1 0
vn 0 1 0
vn 0.765625 -0.1669922 0.6210938
vn 0.8085938 -0.3203125 0.4931641
vn 0.7363281 -0.3178711 0.5976563
vn 0.8427734 -0.1601563 0.5141602
vn 0.9399414 -0.3376465 0.04678345
vn 0.9848633 -0.1651611 0.04904175
vn 0.7329102 -0.3376465 -0.590332
vn 0.7680664 -0.1651611 -0.6186523
vn 0.364502 -0.3203125 -0.8745117
vn 0.3796387 -0.1601563 -0.9111328
vn 0.2445068 -0.3178711 -0.9160156
vn 0.2541504 -0.1669922 -0.9526367
vn 0.2641602 -0.9404297 0.2142334
vn 0.2880859 -0.9414063 0.1756592
vn 0.2641602 -0.9404297 0.2142334
vn 0.2880859 -0.9414063 0.1756592
vn 0.3198242 -0.9472656 0.01591492
vn 0.3198242 -0.9472656 0.01591492
vn 0.2493896 -0.9472656 -0.2008057
vn 0.2493896 -0.9472656 -0.2008057
vn 0.1297607 -0.9414063 -0.3115234
vn 0.1297607 -0.9414063 -0.3115234
vn 0.08770752 -0.9404297 -0.3286133
vn 0.08770752 -0.9404297 -0.3286133
vn 0 -1 0
vn 0 -1 0
vn 0 -1 0
vn 0 -1 0
vn 0 -1 0
vn 0 -1 0
vn 0 -1 0
vn -0.4702148 0 0.8823242
vn -0.5878906 0 0.809082
vn -0.5878906 0 0.809082
vn -0.4702148 0 0.8823242
vn -0.309082 0 0.9511719
vn -0.309082 0 0.9511719
vn -0.309082 0 0.9511719
vn -0.309082 0 0.9511719
vn -0.8989258 0 -0.4375
vn -0.9511719 0 -0.309082
vn -0.9511719 0 -0.309082
vn -0.8989258 0 -0.4375
vn -0.809082 0 -0.5878906
vn -0.809082 0 -0.5878906
vn -0.809082 0 -0.5878906
g Dal_Star_in_05_0
f 3/3/3 2/2/2 1/1/1
f 6/6/6 5/5/5 4/4/4
f 5/5/5 7/7/7 4/4/4
f 7/7/7 8/8/8 4/4/4
f 8/8/8 9/9/9 4/4/4
f 8/8/8 7/7/7 10/10/10
f 11/11/11 7/7/7 5/5/5
f 7/7/7 11/11/11 10/10/10
f 12/12/12 11/11/11 5/5/5
f 10/10/10 11/11/11 13/13/13
f 14/14/14 11/11/11 12/12/12
f 11/11/11 14/14/14 13/13/13
f 15/15/15 14/14/14 12/12/12
f 13/13/13 14/14/14 16/16/16
f 17/17/17 14/14/14 15/15/15
f 14/14/14 17/17/17 16/16/16
f 18/18/18 17/17/17 15/15/15
f 19/19/19 16/16/16 17/17/17
f 18/18/18 20/20/20 17/17/17
f 21/21/21 19/19/19 17/17/17
f 20/20/20 21/21/21 17/17/17
f 24/24/24 23/23/23 22/22/22
f 25/25/25 24/24/24 22/22/22
f 24/24/24 25/25/25 26/26/26
f 25/25/25 27/27/27 26/26/26
f 26/26/26 27/27/27 28/28/28
f 27/27/27 29/29/29 28/28/28
f 28/28/28 29/29/29 30/30/30
f 29/29/29 31/31/31 30/30/30
f 32/32/32 30/30/30 31/31/31
f 33/33/33 32/32/32 31/31/31
f 36/36/36 35/35/35 34/34/34
f 34/34/34 37/37/37 36/36/36
f 34/34/34 38/38/38 37/37/37
f 34/34/34 39/39/39 38/38/38
f 34/34/34 40/40/40 39/39/39
f 43/43/43 42/42/42 41/41/41
f 42/42/42 44/44/44 41/41/41
f 44/44/44 42/42/42 45/45/45
f 46/46/46 44/44/44 45/45/45
f 46/46/46 45/45/45 47/47/47
f 48/48/48 46/46/46 47/47/47
f 48/48/48 47/47/47 49/49/49
f 50/50/50 48/48/48 49/49/49
f 49/49/49 51/51/51 50/50/50
f 51/51/51 52/52/52 50/50/50
f 55/55/55 54/54/54 53/53/53
f 54/54/54 56/56/56 53/53/53
f 56/56/56 54/54/54 57/57/57
f 58/58/58 56/56/56 57/57/57
f 58/58/58 57/57/57 59/59/59
f 60/60/60 58/58/58 59/59/59
f 60/60/60 59/59/59 61/61/61
f 62/62/62 60/60/60 61/61/61
f 61/61/61 63/63/63 62/62/62
f 63/63/63 64/64/64 62/62/62
f 67/67/67 66/66/66 65/65/65
f 65/65/65 68/68/68 67/67/67
f 68/68/68 69/69/69 67/67/67
f 69/69/69 70/70/70 67/67/67
f 70/70/70 71/71/71 67/67/67
f 74/74/74 73/73/73 72/72/72
f 73/73/73 75/75/75 72/72/72
f 72/72/72 75/75/75 76/76/76
f 77/77/77 72/72/72 76/76/76
f 77/77/77 76/76/76 78/78/78
f 78/78/78 79/79/79 77/77/77
f 82/82/82 81/81/81 80/80/80
f 83/83/83 82/82/82 80/80/80
f 84/84/84 83/83/83 80/80/80
f 80/80/80 85/85/85 84/84/84
f 80/80/80 86/86/86 85/85/85
