g Dal_Star_out_10
v 2.583418 -0.08388146 -3.866357
v 2.549816 -0.2009459 -3.816068
v 2.347151 -0.2009459 -3.512758
v 2.288422 0.1601745 -3.424864
v 2.347151 0.2045288 -3.512758
v 2.549816 0.2045287 -3.816068
v 0.9806895 -0.1094031 -1.274665
v 0.9715683 0.06579855 -1.262111
v 1.039649 0.1601749 -1.355817
v 0.9806895 0.1129867 -1.274665
v 1.005609 0.1475309 -1.308964
v 0.9715683 0.06579855 -1.262111
v 0.9806895 0.1129867 -1.274665
v 1.039649 0.1601749 -1.355817
v 1.039649 -0.1565913 -1.355817
v 1.005609 -0.1439472 -1.308964
v 0.9806895 -0.1094031 -1.274665
v 5.119966E-07 0.08746408 -4.650027
v 0.8953765 0.2045286 -4.501359
v 5.146404E-07 0.2045286 -4.589545
v 0.9071758 0.08746411 -4.560679
v 5.119966E-07 -0.08388159 -4.650027
v 1.756343 0.2045286 -4.240187
v 0.9071758 -0.08388159 -4.560679
v 1.779489 0.08746413 -4.296065
v 2.549816 0.2045287 -3.816068
v 1.779489 -0.08388152 -4.296065
v 2.583418 0.08746421 -3.866357
v 2.583418 -0.08388146 -3.866357
v 0.8953765 0.2045286 -4.501359
v 5.305857E-07 0.2045286 -4.224758
v 5.146404E-07 0.2045286 -4.589545
v 0.8242097 0.2045287 -4.14358
v 5.352064E-07 0.1601744 -4.119049
v 1.756343 0.2045286 -4.240187
v 0.803587 0.1601744 -4.039903
v 1.616745 0.2045287 -3.903167
v 2.549816 0.2045287 -3.816068
v 1.576292 0.1601745 -3.805505
v 2.347151 0.2045288 -3.512758
v 2.288422 0.1601745 -3.424864
v 0.9806895 0.1129867 -1.274665
v 0.9715683 0.06579855 -1.262111
v 0.238644 0.06579837 -2.393125
v 0.2544895 0.1129865 -2.395302
v 1.005609 0.1475309 -1.308964
v 0.1219589 0.06579835 -2.497084
v 0.2977806 0.1475307 -2.40125
v 1.039649 0.1601749 -1.355817
v 0.3569177 0.1601747 -2.409375
v 0.1206557 0.1129865 -2.514416
v -0.01277744 0.06579835 -2.497084
v -0.01264106 0.1129865 -2.514398
v 0.1170951 0.1475306 -2.561767
v 0.1122316 0.1601747 -2.62645
v -0.01226842 0.1475306 -2.561701
v -0.0117594 0.1601747 -2.626318
v 1.779489 -0.08388152 -4.296065
v 2.549816 -0.2009459 -3.816068
v 2.583418 -0.08388146 -3.866357
v 1.756343 -0.200946 -4.240187
v 0.9071758 -0.08388159 -4.560679
v 0.8953765 -0.200946 -4.501359
v 5.119966E-07 -0.08388159 -4.650027
v 5.146404E-07 -0.200946 -4.589545
v 0.8953765 -0.200946 -4.501359
v 5.146404E-07 -0.200946 -4.589545
v 5.305857E-07 -0.200946 -4.224758
v 0.8242097 -0.200946 -4.14358
v 5.352064E-07 -0.1565917 -4.119049
v 1.756343 -0.200946 -4.240187
v 0.803587 -0.1565917 -4.039903
v 1.616745 -0.2009459 -3.903167
v 2.549816 -0.2009459 -3.816068
v 1.576292 -0.1565917 -3.805505
v 2.347151 -0.2009459 -3.512758
v 2.288422 -0.1565916 -3.424864
v 0.238644 0.06579837 -2.393125
v 0.9715683 0.06579855 -1.262111
v 0.9806895 -0.1094031 -1.274665
v 0.2544895 -0.1094033 -2.395302
v 0.1219589 0.06579835 -2.497084
v 1.005609 -0.1439472 -1.308964
v 0.1206557 -0.1094033 -2.514416
v -0.01277744 0.06579835 -2.497084
v -0.01264106 -0.1094033 -2.514398
v 0.2977806 -0.1439474 -2.40125
v 1.039649 -0.1565913 -1.355817
v 0.3569177 -0.1565915 -2.409375
v 0.1170951 -0.1439475 -2.561767
v -0.01226842 -0.1439475 -2.561701
v 0.1122316 -0.1565915 -2.62645
v -0.0117594 -0.1565915 -2.626318
v -0.0117594 0.1601747 -2.626318
v 5.352064E-07 0.1601744 -4.119049
v 0.803587 0.1601744 -4.039903
v 1.576292 0.1601745 -3.805505
v 2.288422 0.1601745 -3.424864
v 0.1122316 0.1601747 -2.62645
v 0.3569177 0.1601747 -2.409375
v 1.039649 0.1601749 -1.355817
v 0.3569177 -0.1565915 -2.409375
v 1.039649 -0.1565913 -1.355817
v 2.288422 -0.1565916 -3.424864
v 0.1122316 -0.1565915 -2.62645
v -0.0117594 -0.1565915 -2.626318
v 1.576292 -0.1565917 -3.805505
v 0.803587 -0.1565917 -4.039903
v 5.352064E-07 -0.1565917 -4.119049
v 1.039649 0.1601749 -1.355817
v 2.288422 0.1601745 -3.424864
v 2.288422 -0.1565916 -3.424864
v 1.039649 -0.1565913 -1.355817
v 2.347151 -0.2009459 -3.512758
v 2.288422 -0.1565916 -3.424864
v 2.583418 -0.08388146 -3.866357
v 2.288422 0.1601745 -3.424864
v 2.583418 0.08746421 -3.866357
v 2.549816 0.2045287 -3.816068
v 5.352064E-07 0.1601744 -4.119049
v -0.0117594 0.1601747 -2.626318
v -0.0117594 -0.1565915 -2.626318
v 5.352064E-07 -0.1565917 -4.119049
v 5.119966E-07 -0.08388159 -4.650027
v 5.305857E-07 -0.200946 -4.224758
v 5.146404E-07 -0.200946 -4.589545
v 5.119966E-07 0.08746408 -4.650027
v 5.146404E-07 0.2045286 -4.589545
v 5.305857E-07 0.2045286 -4.224758
v -0.01226842 -0.1439475 -2.561701
v -0.0117594 0.1601747 -2.626318
v -0.01264106 -0.1094033 -2.514398
v -0.01277744 0.06579835 -2.497084
v -0.0117594 0.1601747 -2.626318
v -0.01264106 0.1129865 -2.514398
v -0.01277744 0.06579835 -2.497084
v -0.01226842 0.1475306 -2.561701
vt 0.9140625 0.2301025
vt 0.9086914 0.2336426
vt 0.8769531 0.2548828
vt 0.8676758 0.2612305
vt 0.8769531 0.2548828
vt 0.9086914 0.2336426
vt 0.6416016 0.3989258
vt 0.6401367 0.3996582
vt 0.6499023 0.3925781
vt 0.6416016 0.3989258
vt 0.6450195 0.3962402
vt 0.6401367 0.3996582
vt 0.6416016 0.3989258
vt 0.6499023 0.3925781
vt 0.6499023 0.3925781
vt 0.6450195 0.3962402
vt 0.6416016 0.3989258
vt 0.996582 0.5019531
vt 0.980957 0.4077148
vt 0.9902344 0.5019531
vt 0.9873047 0.4064941
vt 0.996582 0.5019531
vt 0.9536133 0.3171387
vt 0.9873047 0.4064941
vt 0.9594727 0.3146973
vt 0.9086914 0.2336426
vt 0.9594727 0.3146973
vt 0.9140625 0.2301025
vt 0.9140625 0.2301025
vt 0.980957 0.4077148
vt 0.9516602 0.5019531
vt 0.9902344 0.5019531
vt 0.9433594 0.4152832
vt 0.940918 0.5019531
vt 0.9536133 0.3171387
vt 0.9326172 0.4174805
vt 0.9179688 0.3317871
vt 0.9086914 0.2336426
vt 0.9077148 0.3361816
vt 0.8769531 0.2548828
vt 0.8676758 0.2612305
vt 0.6416016 0.3989258
vt 0.6401367 0.3996582
vt 0.7592773 0.4768066
vt 0.7592773 0.4753418
vt 0.6450195 0.3962402
vt 0.7700195 0.4892578
vt 0.7597656 0.4707031
vt 0.6499023 0.3925781
vt 0.7607422 0.4643555
vt 0.7719727 0.4892578
vt 0.7700195 0.503418
vt 0.7719727 0.503418
vt 0.7768555 0.4897461
vt 0.7836914 0.4902344
vt 0.7768555 0.503418
vt 0.7836914 0.503418
vt 0.9594727 0.3146973
vt 0.9086914 0.2336426
vt 0.9140625 0.2301025
vt 0.9536133 0.3171387
vt 0.9873047 0.4064941
vt 0.980957 0.4077148
vt 0.996582 0.5019531
vt 0.9902344 0.5019531
vt 0.980957 0.4077148
vt 0.9902344 0.5019531
vt 0.9516602 0.5019531
vt 0.9433594 0.4152832
vt 0.940918 0.5019531
vt 0.9536133 0.3171387
vt 0.9326172 0.4174805
vt 0.9179688 0.3317871
vt 0.9086914 0.2336426
vt 0.9077148 0.3361816
vt 0.8769531 0.2548828
vt 0.8676758 0.2612305
vt 0.7592773 0.4768066
vt 0.6401367 0.3996582
vt 0.6416016 0.3989258
vt 0.7592773 0.4753418
vt 0.7700195 0.4892578
vt 0.6450195 0.3962402
vt 0.7719727 0.4892578
vt 0.7700195 0.503418
vt 0.7719727 0.503418
vt 0.7597656 0.4707031
vt 0.6499023 0.3925781
vt 0.7607422 0.4643555
vt 0.7768555 0.4897461
vt 0.7768555 0.503418
vt 0.7836914 0.4902344
vt 0.7836914 0.503418
vt 0.7836914 0.503418
vt 0.940918 0.5019531
vt 0.9326172 0.4174805
vt 0.9077148 0.3361816
vt 0.8676758 0.2612305
vt 0.7836914 0.4902344
vt 0.7607422 0.4643555
vt 0.6499023 0.3925781
vt 0.7607422 0.4643555
vt 0.6499023 0.3925781
vt 0.8676758 0.2612305
vt 0.7836914 0.4902344
vt 0.7836914 0.503418
vt 0.9077148 0.3361816
vt 0.9326172 0.4174805
vt 0.940918 0.5019531
vt 0.6499023 0.3925781
vt 0.8676758 0.2612305
vt 0.8676758 0.2612305
vt 0.6499023 0.3925781
vt 0.8769531 0.2548828
vt 0.8676758 0.2612305
vt 0.9140625 0.2301025
vt 0.8676758 0.2612305
vt 0.9140625 0.2301025
vt 0.9086914 0.2336426
vt 0.940918 0.5019531
vt 0.7836914 0.503418
vt 0.7836914 0.503418
vt 0.940918 0.5019531
vt 0.996582 0.5019531
vt 0.9516602 0.5019531
vt 0.9902344 0.5019531
vt 0.996582 0.5019531
vt 0.9902344 0.5019531
vt 0.9516602 0.5019531
vt 0.7768555 0.503418
vt 0.7836914 0.503418
vt 0.7719727 0.503418
vt 0.7700195 0.503418
vt 0.7836914 0.503418
vt 0.7719727 0.503418
vt 0.7700195 0.503418
vt 0.7768555 0.503418
vn 0.831543 0 0.5556641
vn 0.831543 0 0.5556641
vn 0.831543 0 0.5556641
vn 0.831543 0 0.5556641
vn 0.831543 0 0.5556641
vn 0.831543 0 0.5556641
vn 0.809082 0 0.5878906
vn 0.809082 0 0.5878906
vn 0.809082 0 0.5878906
vn 0.809082 0 0.5878906
vn 0.809082 0 0.5878906
vn 0.809082 0 0.5878906
vn 0.809082 0 0.5878906
vn 0.809082 0 0.5878906
vn 0.809082 0 0.5878906
vn 0.809082 0 0.5878906
vn 0.809082 0 0.5878906
vn 0.09533691 0.2318115 -0.9682617
vn 0.1733398 0.4589844 -0.871582
vn 0.0871582 0.4572754 -0.8852539
vn 0.1896973 0.2329102 -0.9536133
vn 0.09533691 -0.2318115 -0.9682617
vn 0.3400879 0.4589844 -0.8208008
vn 0.1896973 -0.2329102 -0.9536133
vn 0.3720703 0.2329102 -0.8984375
vn 0.4191895 0.4572754 -0.7841797
vn 0.3720703 -0.2329102 -0.8984375
vn 0.4584961 0.2318115 -0.8579102
vn 0.4584961 -0.2318115 -0.8579102
vn 0 1 0
vn -0.01826477 0.9824219 0.1854248
vn 0 1 0
vn -0.03616333 0.9824219 0.1818848
vn -0.03808594 0.9213867 0.3867188
vn 0 1 0
vn -0.07550049 0.921875 0.3793945
vn -0.07098389 0.9824219 0.1712646
vn 0 1 0
vn -0.1480713 0.921875 0.3574219
vn -0.08782959 0.9824219 0.1643066
vn -0.1831055 0.9213867 0.3425293
vn -0.7207031 0.512207 0.467041
vn -0.8349609 0.1022949 0.5410156
vn -0.7485352 0.1004028 0.6552734
vn -0.6401367 0.5244141 0.5610352
vn -0.4211426 0.8647461 0.2729492
vn -0.375 0.1190796 0.9194336
vn -0.3537598 0.8862305 0.2993164
vn -0.1911621 0.9736328 0.1239014
vn -0.1875 0.9711914 0.1477051
vn -0.3117676 0.5927734 0.7421875
vn 6.300211E-05 0.1262207 0.9921875
vn 0.00012815 0.6015625 0.7988281
vn -0.1413574 0.921875 0.3608398
vn -0.05807495 0.9790039 0.1956787
vn 0.0001718998 0.9160156 0.4013672
vn 0.0001494884 0.9814453 0.1918945
vn 0.3720703 -0.2329102 -0.8984375
vn 0.4191895 -0.4572754 -0.7841797
vn 0.4584961 -0.2318115 -0.8579102
vn 0.3400879 -0.4589844 -0.8208008
vn 0.1896973 -0.2329102 -0.9536133
vn 0.1733398 -0.4589844 -0.871582
vn 0.09533691 -0.2318115 -0.9682617
vn 0.0871582 -0.4572754 -0.8852539
vn 0 -1 0
vn 0 -1 0
vn -0.01826477 -0.9824219 0.1854248
vn -0.03616333 -0.9824219 0.1818848
vn -0.03808594 -0.9213867 0.3867188
vn 0 -1 0
vn -0.07550049 -0.921875 0.3793945
vn -0.07098389 -0.9824219 0.1712646
vn 0 -1 0
vn -0.1480713 -0.921875 0.3574219
vn -0.08782959 -0.9824219 0.1643066
vn -0.1831055 -0.9213867 0.3425293
vn -0.7485352 0.1004028 0.6552734
vn -0.8349609 0.1022949 0.5410156
vn -0.7651367 -0.4111328 0.4956055
vn -0.6733398 -0.4372559 0.5961914
vn -0.375 0.1190796 0.9194336
vn -0.4211426 -0.8647461 0.2729492
vn -0.3417969 -0.5004883 0.7954102
vn 6.300211E-05 0.1262207 0.9921875
vn 0.0001362562 -0.4953613 0.8686523
vn -0.3537598 -0.8862305 0.2993164
vn -0.1911621 -0.9736328 0.1239014
vn -0.1875 -0.9711914 0.1477051
vn -0.1413574 -0.921875 0.3608398
vn 0.0001716614 -0.9160156 0.4013672
vn -0.05807495 -0.9790039 0.1956787
vn 0.0001491308 -0.9814453 0.1918945
vn 0 1 0
vn 0 1 0
vn 0 1 0
vn 0 1 0
vn 0 1 0
vn 0 1 0
vn 0 1 0
vn 0 1 0
vn 0 -1 0
vn 0 -1 0
vn 0 -1 0
vn 0 -1 0
vn 0 -1 0
vn 0 -1 0
vn 0 -1 0
vn 0 -1 0
vn 0.855957 0 0.5166016
vn 0.855957 0 0.5166016
vn 0.855957 0 0.5166016
vn 0.855957 0 0.5166016
vn 0.831543 0 0.5556641
vn 0.831543 0 0.5556641
vn 0.831543 0 0.5556641
vn 0.831543 0 0.5556641
vn 0.831543 0 0.5556641
vn 0.831543 0 0.5556641
vn -1 0 -0.007881165
vn -1 0 -0.007881165
vn -1 0 -0.007881165
vn -1 0 -0.007881165
vn -1 0 0
vn -1 0 0
vn -1 0 0
vn -1 0 0
vn -1 0 0
vn -1 0 0
vn -1 0 -0.007873535
vn -1 0 -0.007873535
vn -1 0 -0.007873535
vn -1 0 -0.007873535
vn -1 0 -0.007873535
vn -1 0 -0.007873535
vn -1 0 -0.007873535
vn -1 0 -0.007873535
g Dal_Star_out_10_0
f 3/3/3 2/2/2 1/1/1
f 6/6/6 5/5/5 4/4/4
f 9/9/9 8/8/8 7/7/7
f 9/9/9 11/11/11 10/10/10
f 14/14/14 13/13/13 12/12/12
f 16/16/16 15/15/15 14/14/14
f 14/14/14 17/17/17 16/16/16
f 20/20/20 19/19/19 18/18/18
f 19/19/19 21/21/21 18/18/18
f 18/18/18 21/21/21 22/22/22
f 19/19/19 23/23/23 21/21/21
f 21/21/21 24/24/24 22/22/22
f 23/23/23 25/25/25 21/21/21
f 21/21/21 25/25/25 24/24/24
f 23/23/23 26/26/26 25/25/25
f 25/25/25 27/27/27 24/24/24
f 26/26/26 28/28/28 25/25/25
f 25/25/25 28/28/28 27/27/27
f 28/28/28 29/29/29 27/27/27
f 32/32/32 31/31/31 30/30/30
f 31/31/31 33/33/33 30/30/30
f 31/31/31 34/34/34 33/33/33
f 30/30/30 33/33/33 35/35/35
f 34/34/34 36/36/36 33/33/33
f 33/33/33 37/37/37 35/35/35
f 33/33/33 36/36/36 37/37/37
f 35/35/35 37/37/37 38/38/38
f 36/36/36 39/39/39 37/37/37
f 37/37/37 40/40/40 38/38/38
f 37/37/37 39/39/39 40/40/40
f 39/39/39 41/41/41 40/40/40
f 44/44/44 43/43/43 42/42/42
f 45/45/45 44/44/44 42/42/42
f 45/45/45 42/42/42 46/46/46
f 47/47/47 44/44/44 45/45/45
f 48/48/48 45/45/45 46/46/46
f 48/48/48 46/46/46 49/49/49
f 50/50/50 48/48/48 49/49/49
f 51/51/51 47/47/47 45/45/45
f 51/51/51 45/45/45 48/48/48
f 52/52/52 47/47/47 51/51/51
f 53/53/53 52/52/52 51/51/51
f 54/54/54 48/48/48 50/50/50
f 54/54/54 51/51/51 48/48/48
f 53/53/53 51/51/51 54/54/54
f 55/55/55 54/54/54 50/50/50
f 56/56/56 53/53/53 54/54/54
f 56/56/56 54/54/54 55/55/55
f 57/57/57 56/56/56 55/55/55
f 60/60/60 59/59/59 58/58/58
f 59/59/59 61/61/61 58/58/58
f 58/58/58 61/61/61 62/62/62
f 61/61/61 63/63/63 62/62/62
f 62/62/62 63/63/63 64/64/64
f 63/63/63 65/65/65 64/64/64
f 68/68/68 67/67/67 66/66/66
f 69/69/69 68/68/68 66/66/66
f 70/70/70 68/68/68 69/69/69
f 69/69/69 66/66/66 71/71/71
f 72/72/72 70/70/70 69/69/69
f 73/73/73 69/69/69 71/71/71
f 72/72/72 69/69/69 73/73/73
f 73/73/73 71/71/71 74/74/74
f 75/75/75 72/72/72 73/73/73
f 76/76/76 73/73/73 74/74/74
f 75/75/75 73/73/73 76/76/76
f 77/77/77 75/75/75 76/76/76
f 80/80/80 79/79/79 78/78/78
f 81/81/81 80/80/80 78/78/78
f 78/78/78 82/82/82 81/81/81
f 80/80/80 81/81/81 83/83/83
f 82/82/82 84/84/84 81/81/81
f 82/82/82 85/85/85 84/84/84
f 85/85/85 86/86/86 84/84/84
f 81/81/81 87/87/87 83/83/83
f 81/81/81 84/84/84 87/87/87
f 83/83/83 87/87/87 88/88/88
f 87/87/87 89/89/89 88/88/88
f 84/84/84 86/86/86 90/90/90
f 84/84/84 90/90/90 87/87/87
f 87/87/87 90/90/90 89/89/89
f 86/86/86 91/91/91 90/90/90
f 90/90/90 92/92/92 89/89/89
f 90/90/90 91/91/91 92/92/92
f 91/91/91 93/93/93 92/92/92
f 96/96/96 95/95/95 94/94/94
f 94/94/94 97/97/97 96/96/96
f 94/94/94 98/98/98 97/97/97
f 94/94/94 99/99/99 98/98/98
f 98/98/98 99/99/99 100/100/100
f 100/100/100 101/101/101 98/98/98
f 104/104/104 103/103/103 102/102/102
f 102/102/102 105/105/105 104/104/104
f 104/104/104 105/105/105 106/106/106
f 107/107/107 104/104/104 106/106/106
f 108/108/108 107/107/107 106/106/106
f 106/106/106 109/109/109 108/108/108
f 112/112/112 111/111/111 110/110/110
f 113/113/113 112/112/112 110/110/110
f 116/116/116 115/115/115 114/114/114
f 116/116/116 117/117/117 115/115/115
f 116/116/116 118/118/118 117/117/117
f 118/118/118 119/119/119 117/117/117
f 122/122/122 121/121/121 120/120/120
f 123/123/123 122/122/122 120/120/120
f 123/123/123 120/120/120 124/124/124
f 125/125/125 123/123/123 124/124/124
f 124/124/124 126/126/126 125/125/125
f 120/120/120 127/127/127 124/124/124
f 120/120/120 128/128/128 127/127/127
f 120/120/120 129/129/129 128/128/128
f 131/131/131 122/122/122 130/130/130
f 130/130/130 132/132/132 131/131/131
f 132/132/132 133/133/133 131/131/131
f 136/136/136 135/135/135 134/134/134
f 135/135/135 137/137/137 134/134/134
