g Dal_Star_out_04
v -1.576295 -0.1565904 3.805504
v -1.616748 -0.2009447 3.903166
v -1.756346 -0.2009446 4.240186
v -1.779492 0.08746553 4.296064
v -1.756346 0.20453 4.240186
v -1.576295 0.1601757 3.805504
v -1.756346 0.20453 4.240186
v -1.616748 0.20453 3.903166
v -1.576295 0.1601757 3.805504
v -1.779492 0.08746553 4.296064
v -2.549818 0.20453 3.816065
v -1.756346 0.20453 4.240186
v -2.58342 0.08746547 3.866354
v -1.779492 -0.08388012 4.296064
v -3.245301 0.2045299 3.245295
v -2.58342 -0.08388019 3.866354
v -3.288069 0.08746538 3.288063
v -3.288069 -0.08388029 3.288063
v -2.549818 0.20453 3.816065
v -1.616748 0.20453 3.903166
v -1.756346 0.20453 4.240186
v -2.347153 0.2045299 3.512756
v -3.245301 0.2045299 3.245295
v -1.576295 0.1601757 3.805504
v -2.987357 0.2045298 2.987352
v -2.288424 0.1601757 3.424862
v -2.91261 0.1601756 2.912605
v -2.91261 0.1601756 2.912605
v -1.561386 0.1601754 2.041039
v -1.373288 0.1601755 2.177144
v -1.576295 0.1601757 3.805504
v -2.288424 0.1601757 3.424862
v -1.561386 0.1601754 2.041039
v -1.365972 0.1475314 2.118462
v -1.373288 0.1601755 2.177144
v -1.514523 0.1475314 2.010812
v -1.360617 0.1129873 2.075505
v -1.480217 0.1129872 1.988685
v -1.358657 0.06579909 2.059781
v -1.467661 0.06579908 1.980585
v -2.58342 -0.08388019 3.866354
v -3.245301 -0.2009448 3.245295
v -3.288069 -0.08388029 3.288063
v -2.549818 -0.2009447 3.816065
v -1.779492 -0.08388012 4.296064
v -1.756346 -0.2009446 4.240186
v -2.549818 -0.2009447 3.816065
v -1.756346 -0.2009446 4.240186
v -1.616748 -0.2009447 3.903166
v -2.347153 -0.2009447 3.512756
v -3.245301 -0.2009448 3.245295
v -1.576295 -0.1565904 3.805504
v -2.987357 -0.2009448 2.987352
v -2.288424 -0.1565905 3.424862
v -2.91261 -0.1565906 2.912605
v -1.373288 -0.1565907 2.177144
v -1.561386 -0.1565907 2.041039
v -2.91261 -0.1565906 2.912605
v -1.576295 -0.1565904 3.805504
v -2.288424 -0.1565905 3.424862
v -1.358657 0.06579909 2.059781
v -1.467661 0.06579908 1.980585
v -1.480217 -0.1094026 1.988685
v -1.360617 -0.1094026 2.075505
v -1.514523 -0.1439467 2.010812
v -1.365972 -0.1439467 2.118462
v -1.561386 -0.1565907 2.041039
v -1.373288 -0.1565907 2.177144
v -1.561386 0.1601754 2.041039
v -2.91261 0.1601756 2.912605
v -2.91261 -0.1565906 2.912605
v -1.561386 -0.1565907 2.041039
v -1.514523 0.1475314 2.010812
v -1.514523 -0.1439467 2.010812
v -1.480217 0.1129872 1.988685
v -1.480217 -0.1094026 1.988685
v -1.467661 0.06579908 1.980585
v -2.987357 -0.2009448 2.987352
v -2.91261 -0.1565906 2.912605
v -2.91261 0.1601756 2.912605
v -2.987357 0.2045298 2.987352
v -3.245301 -0.2009448 3.245295
v -3.245301 0.2045299 3.245295
v -3.288069 -0.08388029 3.288063
v -3.288069 0.08746538 3.288063
v -1.576295 0.1601757 3.805504
v -1.373288 0.1601755 2.177144
v -1.373288 -0.1565907 2.177144
v -1.576295 -0.1565904 3.805504
v -1.365972 -0.1439467 2.118462
v -1.373288 0.1601755 2.177144
v -1.360617 -0.1094026 2.075505
v -1.358657 0.06579909 2.059781
v -1.756346 -0.2009446 4.240186
v -1.779492 -0.08388012 4.296064
v -1.576295 -0.1565904 3.805504
v -1.576295 0.1601757 3.805504
v -1.779492 0.08746553 4.296064
v -1.373288 0.1601755 2.177144
v -1.360617 0.1129873 2.075505
v -1.358657 0.06579909 2.059781
v -1.365972 0.1475314 2.118462
vt 0.1066895 0.6679688
vt 0.09643555 0.6723633
vt 0.0609436 0.6870117
vt 0.05505371 0.6894531
vt 0.0609436 0.6870117
vt 0.1066895 0.6679688
vt 0.0609436 0.6870117
vt 0.09643555 0.6723633
vt 0.1066895 0.6679688
vt 0.05505371 0.6894531
vt 0.1055908 0.7705078
vt 0.0609436 0.6870117
vt 0.1002808 0.7739258
vt 0.05505371 0.6894531
vt 0.1656494 0.84375
vt 0.1002808 0.7739258
vt 0.1611328 0.8481445
vt 0.1611328 0.8481445
vt 0.1055908 0.7705078
vt 0.09643555 0.6723633
vt 0.0609436 0.6870117
vt 0.1374512 0.7490234
vt 0.1656494 0.84375
vt 0.1066895 0.6679688
vt 0.192749 0.8164063
vt 0.1467285 0.7426758
vt 0.2006836 0.8085938
vt 0.2006836 0.8085938
vt 0.2924805 0.6665039
vt 0.2780762 0.6464844
vt 0.1066895 0.6679688
vt 0.1467285 0.7426758
vt 0.2924805 0.6665039
vt 0.2841797 0.6459961
vt 0.2780762 0.6464844
vt 0.2956543 0.6616211
vt 0.2888184 0.6450195
vt 0.2978516 0.6577148
vt 0.2905273 0.6450195
vt 0.2988281 0.6567383
vt 0.1002808 0.7739258
vt 0.1656494 0.84375
vt 0.1611328 0.8481445
vt 0.1055908 0.7705078
vt 0.05505371 0.6894531
vt 0.0609436 0.6870117
vt 0.1055908 0.7705078
vt 0.0609436 0.6870117
vt 0.09643555 0.6723633
vt 0.1374512 0.7490234
vt 0.1656494 0.84375
vt 0.1066895 0.6679688
vt 0.192749 0.8164063
vt 0.1467285 0.7426758
vt 0.2006836 0.8085938
vt 0.2780762 0.6464844
vt 0.2924805 0.6665039
vt 0.2006836 0.8085938
vt 0.1066895 0.6679688
vt 0.1467285 0.7426758
vt 0.2905273 0.6450195
vt 0.2988281 0.6567383
vt 0.2978516 0.6577148
vt 0.2888184 0.6450195
vt 0.2956543 0.6616211
vt 0.2841797 0.6459961
vt 0.2924805 0.6665039
vt 0.2780762 0.6464844
vt 0.2924805 0.6665039
vt 0.2006836 0.8085938
vt 0.2006836 0.8085938
vt 0.2924805 0.6665039
vt 0.2956543 0.6616211
vt 0.2956543 0.6616211
vt 0.2978516 0.6577148
vt 0.2978516 0.6577148
vt 0.2988281 0.6567383
vt 0.192749 0.8164063
vt 0.2006836 0.8085938
vt 0.2006836 0.8085938
vt 0.192749 0.8164063
vt 0.1656494 0.84375
vt 0.1656494 0.84375
vt 0.1611328 0.8481445
vt 0.1611328 0.8481445
vt 0.1066895 0.6679688
vt 0.2780762 0.6464844
vt 0.2780762 0.6464844
vt 0.1066895 0.6679688
vt 0.2841797 0.6459961
vt 0.2780762 0.6464844
vt 0.2888184 0.6450195
vt 0.2905273 0.6450195
vt 0.0609436 0.6870117
vt 0.05505371 0.6894531
vt 0.1066895 0.6679688
vt 0.1066895 0.6679688
vt 0.05505371 0.6894531
vt 0.2780762 0.6464844
vt 0.2888184 0.6450195
vt 0.2905273 0.6450195
vt 0.2841797 0.6459961
vn 0.9238281 0 0.3825684
vn 0.9238281 0 0.3825684
vn 0.9238281 0 0.3825684
vn 0.9238281 0 0.3825684
vn 0.9238281 0 0.3825684
vn 0.9238281 0 0.3825684
vn 0.9238281 0 0.3825684
vn 0.9238281 0 0.3825684
vn 0.9238281 0 0.3825684
vn -0.4584961 0.2318115 0.8579102
vn -0.4936523 0.4589844 0.7387695
vn -0.4191895 0.4572754 0.7841797
vn -0.5405273 0.2329102 0.8085938
vn -0.4584961 -0.2318115 0.8579102
vn -0.5639648 0.4572754 0.6875
vn -0.5405273 -0.2329102 0.8085938
vn -0.6171875 0.2318115 0.7519531
vn -0.6171875 -0.2318115 0.7519531
vn 0 1 0
vn 0.08782959 0.9824219 -0.1643066
vn 0 1 0
vn 0.1030273 0.9824219 -0.1541748
vn 0 1 0
vn 0.1831055 0.9213867 -0.3425293
vn 0.1181641 0.9824219 -0.144043
vn 0.2149658 0.921875 -0.3217773
vn 0.24646 0.9213867 -0.300293
vn 0 1 0
vn 0 1 0
vn 0 1 0
vn 0 1 0
vn 0 1 0
vn 0.1387939 0.9716797 -0.1917725
vn 0.2391357 0.9130859 -0.3300781
vn 0.1387939 0.9716797 -0.1917725
vn 0.2487793 0.9057617 -0.3432617
vn 0.4831543 0.5683594 -0.6660156
vn 0.4873047 0.5585938 -0.6713867
vn 0.5839844 0.1096191 -0.8041992
vn 0.5839844 0.1079102 -0.8041992
vn -0.5405273 -0.2329102 0.8085938
vn -0.5639648 -0.4572754 0.6875
vn -0.6171875 -0.2318115 0.7519531
vn -0.4936523 -0.4589844 0.7387695
vn -0.4584961 -0.2318115 0.8579102
vn -0.4191895 -0.4572754 0.7841797
vn 0 -1 0
vn 0 -1 0
vn 0.08782959 -0.9824219 -0.1643066
vn 0.1030273 -0.9824219 -0.1541748
vn 0 -1 0
vn 0.1831055 -0.9213867 -0.3425293
vn 0.1181641 -0.9824219 -0.144043
vn 0.2149658 -0.921875 -0.3217773
vn 0.24646 -0.9213867 -0.300293
vn 0 -1 0
vn 0 -1 0
vn 0 -1 0
vn 0 -1 0
vn 0 -1 0
vn 0.5839844 0.1096191 -0.8041992
vn 0.5839844 0.1079102 -0.8041992
vn 0.5175781 -0.4726563 -0.7133789
vn 0.5141602 -0.4836426 -0.7084961
vn 0.2487793 -0.9057617 -0.3432617
vn 0.2391357 -0.9130859 -0.3300781
vn 0.1387939 -0.9716797 -0.1917725
vn 0.1387939 -0.9716797 -0.1917725
vn -0.5419922 0 -0.840332
vn -0.5419922 0 -0.840332
vn -0.5419922 0 -0.840332
vn -0.5419922 0 -0.840332
vn -0.5419922 0 -0.840332
vn -0.5419922 0 -0.840332
vn -0.5419922 0 -0.840332
vn -0.5419922 0 -0.840332
vn -0.5419922 0 -0.840332
vn -0.7070313 0 -0.7070313
vn -0.7070313 0 -0.7070313
vn -0.7070313 0 -0.7070313
vn -0.7070313 0 -0.7070313
vn -0.7070313 0 -0.7070313
vn -0.7070313 0 -0.7070313
vn -0.7070313 0 -0.7070313
vn -0.7070313 0 -0.7070313
vn 0.9921875 0 0.1237183
vn 0.9921875 0 0.1237183
vn 0.9921875 0 0.1237183
vn 0.9921875 0 0.1237183
vn 0.9921875 0 0.1237183
vn 0.9921875 0 0.1237183
vn 0.9921875 0 0.1237183
vn 0.9921875 0 0.1237183
vn 0.9238281 0 0.3825684
vn 0.9238281 0 0.3825684
vn 0.9238281 0 0.3825684
vn 0.9238281 0 0.3825684
vn 0.9238281 0 0.3825684
vn 0.9921875 0 0.1237183
vn 0.9921875 0 0.1237183
vn 0.9921875 0 0.1237183
vn 0.9921875 0 0.1237183
g Dal_Star_out_04_0
f 3/3/3 2/2/2 1/1/1
f 6/6/6 5/5/5 4/4/4
f 9/9/9 8/8/8 7/7/7
f 12/12/12 11/11/11 10/10/10
f 11/11/11 13/13/13 10/10/10
f 10/10/10 13/13/13 14/14/14
f 11/11/11 15/15/15 13/13/13
f 13/13/13 16/16/16 14/14/14
f 15/15/15 17/17/17 13/13/13
f 13/13/13 17/17/17 16/16/16
f 17/17/17 18/18/18 16/16/16
f 21/21/21 20/20/20 19/19/19
f 20/20/20 22/22/22 19/19/19
f 19/19/19 22/22/22 23/23/23
f 20/20/20 24/24/24 22/22/22
f 22/22/22 25/25/25 23/23/23
f 24/24/24 26/26/26 22/22/22
f 22/22/22 26/26/26 25/25/25
f 26/26/26 27/27/27 25/25/25
f 30/30/30 29/29/29 28/28/28
f 28/28/28 31/31/31 30/30/30
f 28/28/28 32/32/32 31/31/31
f 35/35/35 34/34/34 33/33/33
f 34/34/34 36/36/36 33/33/33
f 34/34/34 37/37/37 36/36/36
f 37/37/37 38/38/38 36/36/36
f 37/37/37 39/39/39 38/38/38
f 39/39/39 40/40/40 38/38/38
f 43/43/43 42/42/42 41/41/41
f 42/42/42 44/44/44 41/41/41
f 41/41/41 44/44/44 45/45/45
f 44/44/44 46/46/46 45/45/45
f 49/49/49 48/48/48 47/47/47
f 50/50/50 49/49/49 47/47/47
f 50/50/50 47/47/47 51/51/51
f 52/52/52 49/49/49 50/50/50
f 53/53/53 50/50/50 51/51/51
f 54/54/54 52/52/52 50/50/50
f 54/54/54 50/50/50 53/53/53
f 55/55/55 54/54/54 53/53/53
f 58/58/58 57/57/57 56/56/56
f 56/56/56 59/59/59 58/58/58
f 59/59/59 60/60/60 58/58/58
f 63/63/63 62/62/62 61/61/61
f 64/64/64 63/63/63 61/61/61
f 63/63/63 64/64/64 65/65/65
f 64/64/64 66/66/66 65/65/65
f 65/65/65 66/66/66 67/67/67
f 66/66/66 68/68/68 67/67/67
f 71/71/71 70/70/70 69/69/69
f 72/72/72 71/71/71 69/69/69
f 72/72/72 69/69/69 73/73/73
f 74/74/74 72/72/72 73/73/73
f 74/74/74 73/73/73 75/75/75
f 76/76/76 74/74/74 75/75/75
f 75/75/75 77/77/77 76/76/76
f 80/80/80 79/79/79 78/78/78
f 78/78/78 81/81/81 80/80/80
f 78/78/78 82/82/82 81/81/81
f 82/82/82 83/83/83 81/81/81
f 82/82/82 84/84/84 83/83/83
f 84/84/84 85/85/85 83/83/83
f 88/88/88 87/87/87 86/86/86
f 89/89/89 88/88/88 86/86/86
f 91/91/91 88/88/88 90/90/90
f 90/90/90 92/92/92 91/91/91
f 92/92/92 93/93/93 91/91/91
f 96/96/96 95/95/95 94/94/94
f 96/96/96 97/97/97 95/95/95
f 97/97/97 98/98/98 95/95/95
f 101/101/101 100/100/100 99/99/99
f 100/100/100 102/102/102 99/99/99
