g Dal_Star_out_01
v -4.296064 0.08746454 -1.779488
v -3.816067 0.2045289 -2.549814
v -4.240186 0.204529 -1.756343
v -3.866355 0.08746442 -2.583416
v -4.296064 -0.08388111 -1.779488
v -3.245298 0.2045288 -3.245298
v -3.866355 -0.08388124 -2.583416
v -3.288065 0.0874643 -3.288066
v -2.549814 0.2045287 -3.816068
v -3.288065 -0.08388136 -3.288066
v -2.583416 0.08746421 -3.866357
v -1.756342 0.2045286 -4.240187
v -2.583416 -0.08388146 -3.866357
v -1.779488 0.08746413 -4.296065
v -0.8953752 0.2045286 -4.501359
v -1.779488 -0.08388152 -4.296065
v -0.9071745 0.08746411 -4.560678
v 5.146404E-07 0.2045286 -4.589545
v -0.9071745 -0.08388159 -4.560678
v 5.119966E-07 0.08746408 -4.650027
v 5.119966E-07 -0.08388159 -4.650027
v -3.816067 0.2045289 -2.549814
v -3.903167 0.2045291 -1.616745
v -4.240186 0.204529 -1.756343
v -3.512757 0.2045289 -2.347149
v -3.805505 0.1601748 -1.576292
v -3.245298 0.2045288 -3.245298
v -3.424864 0.1601747 -2.288421
v -2.987354 0.2045288 -2.987355
v -2.549814 0.2045287 -3.816068
v -2.912607 0.1601746 -2.912607
v -2.347149 0.2045288 -3.512758
v -1.756342 0.2045286 -4.240187
v -2.28842 0.1601745 -3.424864
v -1.616744 0.2045287 -3.903167
v -0.8953752 0.2045286 -4.501359
v -1.576291 0.1601745 -3.805505
v -0.8242087 0.2045287 -4.14358
v 5.146404E-07 0.2045286 -4.589545
v -0.8035859 0.1601744 -4.039903
v 5.305857E-07 0.2045286 -4.224758
v 5.352064E-07 0.1601744 -4.119049
v -0.8035859 0.1601744 -4.039903
v 5.352064E-07 0.1601744 -4.119049
v -0.0117594 0.1601747 -2.626318
v -1.576291 0.1601745 -3.805505
v -2.28842 0.1601745 -3.424864
v -2.912607 0.1601746 -2.912607
v -3.424864 0.1601747 -2.288421
v -0.2364911 0.1601747 -2.426729
v -0.9304681 0.1601749 -1.355817
v -3.805505 0.1601748 -1.576292
v -2.203029 0.1601749 -1.016163
v -2.41474 0.160175 -0.8924004
v -2.203029 0.1601749 -1.016163
v -2.3571 0.1475309 -0.8640563
v -2.41474 0.160175 -0.8924004
v -2.18378 0.1475309 -0.965362
v -0.9304681 0.1601749 -1.355817
v -2.314904 0.1129868 -0.843307
v -0.8964275 0.1475309 -1.308964
v -0.2364911 0.1601747 -2.426729
v -2.169688 0.1129868 -0.9281733
v -2.299459 0.06579863 -0.8357123
v -2.16453 0.06579861 -0.9145613
v -0.8715079 0.1129867 -1.274665
v -0.8623868 0.06579855 -1.262111
v -0.1829771 0.1475307 -2.409927
v -0.0117594 0.1601747 -2.626318
v -0.01226842 0.1475306 -2.561701
v -0.1438019 0.1129865 -2.397627
v -0.1294627 0.06579837 -2.393125
v -0.01264106 0.1129865 -2.514398
v -0.01277744 0.06579835 -2.497084
v -0.9071745 -0.08388159 -4.560678
v 5.146404E-07 -0.200946 -4.589545
v 5.119966E-07 -0.08388159 -4.650027
v -0.8953752 -0.200946 -4.501359
v -1.779488 -0.08388152 -4.296065
v -1.756342 -0.200946 -4.240187
v -2.583416 -0.08388146 -3.866357
v -2.549814 -0.2009459 -3.816068
v -3.288065 -0.08388136 -3.288066
v -3.245298 -0.2009458 -3.245298
v -3.866355 -0.08388124 -2.583416
v -3.816067 -0.2009457 -2.549814
v -4.296064 -0.08388111 -1.779488
v -4.240186 -0.2009456 -1.756343
v -3.816067 -0.2009457 -2.549814
v -4.240186 -0.2009456 -1.756343
v -3.903167 -0.2009456 -1.616745
v -3.512757 -0.2009457 -2.347149
v -3.805505 -0.1565913 -1.576292
v -3.245298 -0.2009458 -3.245298
v -3.424864 -0.1565914 -2.288421
v -2.987354 -0.2009458 -2.987355
v -2.549814 -0.2009459 -3.816068
v -2.912607 -0.1565915 -2.912607
v -2.347149 -0.2009459 -3.512758
v -1.756342 -0.200946 -4.240187
v -2.28842 -0.1565916 -3.424864
v -1.616744 -0.2009459 -3.903167
v -0.8953752 -0.200946 -4.501359
v -1.576291 -0.1565917 -3.805505
v -0.8242087 -0.200946 -4.14358
v 5.146404E-07 -0.200946 -4.589545
v -0.8035859 -0.1565917 -4.039903
v 5.305857E-07 -0.200946 -4.224758
v 5.352064E-07 -0.1565917 -4.119049
v -0.0117594 -0.1565915 -2.626318
v 5.352064E-07 -0.1565917 -4.119049
v -0.8035859 -0.1565917 -4.039903
v -1.576291 -0.1565917 -3.805505
v -2.28842 -0.1565916 -3.424864
v -2.912607 -0.1565915 -2.912607
v -3.424864 -0.1565914 -2.288421
v -0.2364911 -0.1565915 -2.426729
v -0.9304681 -0.1565913 -1.355817
v -3.805505 -0.1565913 -1.576292
v -2.203029 -0.1565912 -1.016163
v -2.41474 -0.1565912 -0.8924004
v -2.203029 -0.1565912 -1.016163
v -2.41474 -0.1565912 -0.8924004
v -2.3571 -0.1439472 -0.8640563
v -2.18378 -0.1439472 -0.965362
v -0.9304681 -0.1565913 -1.355817
v -2.314904 -0.109403 -0.843307
v -0.8964275 -0.1439472 -1.308964
v -0.2364911 -0.1565915 -2.426729
v -2.169688 -0.1094031 -0.9281733
v -2.299459 0.06579863 -0.8357123
v -2.16453 0.06579861 -0.9145613
v -0.8715079 -0.1094031 -1.274665
v -0.8623868 0.06579855 -1.262111
v -0.1829771 -0.1439474 -2.409927
v -0.0117594 -0.1565915 -2.626318
v -0.01226842 -0.1439475 -2.561701
v -0.1438019 -0.1094033 -2.397627
v -0.1294627 0.06579837 -2.393125
v -0.01264106 -0.1094033 -2.514398
v -0.01277744 0.06579835 -2.497084
v -2.41474 0.160175 -0.8924004
v -3.805505 -0.1565913 -1.576292
v -3.805505 0.1601748 -1.576292
v -2.41474 -0.1565912 -0.8924004
v -2.3571 -0.1439472 -0.8640563
v -2.3571 0.1475309 -0.8640563
v -2.314904 -0.109403 -0.843307
v -2.314904 0.1129868 -0.843307
v -2.299459 0.06579863 -0.8357123
v -3.903167 0.2045291 -1.616745
v -3.805505 0.1601748 -1.576292
v -3.805505 -0.1565913 -1.576292
v -3.903167 -0.2009456 -1.616745
v -4.240186 0.204529 -1.756343
v -4.240186 -0.2009456 -1.756343
v -4.296064 0.08746454 -1.779488
v -4.296064 -0.08388111 -1.779488
v 5.352064E-07 0.1601744 -4.119049
v -0.0117594 -0.1565915 -2.626318
v -0.0117594 0.1601747 -2.626318
v 5.352064E-07 -0.1565917 -4.119049
v 5.119966E-07 -0.08388159 -4.650027
v 5.305857E-07 -0.200946 -4.224758
v 5.146404E-07 -0.200946 -4.589545
v 5.119966E-07 0.08746408 -4.650027
v 5.146404E-07 0.2045286 -4.589545
v 5.305857E-07 0.2045286 -4.224758
v -0.0117594 0.1601747 -2.626318
v -0.01226842 -0.1439475 -2.561701
v -0.01264106 -0.1094033 -2.514398
v -0.01277744 0.06579835 -2.497084
v -0.01277744 0.06579835 -2.497084
v -0.01264106 0.1129865 -2.514398
v -0.0117594 0.1601747 -2.626318
v -0.01226842 0.1475306 -2.561701
vt 0.6943359 0.9541016
vt 0.7753906 0.9038086
vt 0.6918945 0.9482422
vt 0.7792969 0.9091797
vt 0.6943359 0.9541016
vt 0.8486328 0.84375
vt 0.7792969 0.9091797
vt 0.8535156 0.8481445
vt 0.9086914 0.7705078
vt 0.8535156 0.8481445
vt 0.9140625 0.7739258
vt 0.9536133 0.6870117
vt 0.9140625 0.7739258
vt 0.9594727 0.6894531
vt 0.980957 0.5961914
vt 0.9594727 0.6894531
vt 0.9873047 0.5976563
vt 0.9902344 0.5019531
vt 0.9873047 0.5976563
vt 0.996582 0.5019531
vt 0.996582 0.5019531
vt 0.7753906 0.9038086
vt 0.6772461 0.9125977
vt 0.6918945 0.9482422
vt 0.7543945 0.871582
vt 0.6733398 0.9023438
vt 0.8486328 0.84375
vt 0.7480469 0.8623047
vt 0.8217773 0.8164063
vt 0.9086914 0.7705078
vt 0.8139648 0.8085938
vt 0.8769531 0.7490234
vt 0.9536133 0.6870117
vt 0.8676758 0.7426758
vt 0.9179688 0.6723633
vt 0.980957 0.5961914
vt 0.9077148 0.6679688
vt 0.9433594 0.5888672
vt 0.9902344 0.5019531
vt 0.9326172 0.5864258
vt 0.9516602 0.5019531
vt 0.940918 0.5019531
vt 0.9326172 0.5864258
vt 0.940918 0.5019531
vt 0.7836914 0.503418
vt 0.9077148 0.6679688
vt 0.8676758 0.7426758
vt 0.8139648 0.8085938
vt 0.7480469 0.8623047
vt 0.7626953 0.5268555
vt 0.6499023 0.6000977
vt 0.6733398 0.9023438
vt 0.6142578 0.7338867
vt 0.6010742 0.7563477
vt 0.6142578 0.7338867
vt 0.5981445 0.75
vt 0.6010742 0.7563477
vt 0.6088867 0.7319336
vt 0.6499023 0.6000977
vt 0.5961914 0.7456055
vt 0.6450195 0.5961914
vt 0.7626953 0.5268555
vt 0.6049805 0.7304688
vt 0.5952148 0.7441406
vt 0.6035156 0.7299805
vt 0.6416016 0.59375
vt 0.6401367 0.5927734
vt 0.7607422 0.5214844
vt 0.7836914 0.503418
vt 0.7768555 0.503418
vt 0.7597656 0.5170898
vt 0.7592773 0.515625
vt 0.7719727 0.503418
vt 0.7700195 0.503418
vt 0.9873047 0.5976563
vt 0.9902344 0.5019531
vt 0.996582 0.5019531
vt 0.980957 0.5961914
vt 0.9594727 0.6894531
vt 0.9536133 0.6870117
vt 0.9140625 0.7739258
vt 0.9086914 0.7705078
vt 0.8535156 0.8481445
vt 0.8486328 0.84375
vt 0.7792969 0.9091797
vt 0.7753906 0.9038086
vt 0.6943359 0.9541016
vt 0.6918945 0.9482422
vt 0.7753906 0.9038086
vt 0.6918945 0.9482422
vt 0.6772461 0.9125977
vt 0.7543945 0.871582
vt 0.6733398 0.9023438
vt 0.8486328 0.84375
vt 0.7480469 0.8623047
vt 0.8217773 0.8164063
vt 0.9086914 0.7705078
vt 0.8139648 0.8085938
vt 0.8769531 0.7490234
vt 0.9536133 0.6870117
vt 0.8676758 0.7426758
vt 0.9179688 0.6723633
vt 0.980957 0.5961914
vt 0.9077148 0.6679688
vt 0.9433594 0.5888672
vt 0.9902344 0.5019531
vt 0.9326172 0.5864258
vt 0.9516602 0.5019531
vt 0.940918 0.5019531
vt 0.7836914 0.503418
vt 0.940918 0.5019531
vt 0.9326172 0.5864258
vt 0.9077148 0.6679688
vt 0.8676758 0.7426758
vt 0.8139648 0.8085938
vt 0.7480469 0.8623047
vt 0.7626953 0.5268555
vt 0.6499023 0.6000977
vt 0.6733398 0.9023438
vt 0.6142578 0.7338867
vt 0.6010742 0.7563477
vt 0.6142578 0.7338867
vt 0.6010742 0.7563477
vt 0.5981445 0.75
vt 0.6088867 0.7319336
vt 0.6499023 0.6000977
vt 0.5961914 0.7456055
vt 0.6450195 0.5961914
vt 0.7626953 0.5268555
vt 0.6049805 0.7304688
vt 0.5952148 0.7441406
vt 0.6035156 0.7299805
vt 0.6416016 0.59375
vt 0.6401367 0.5927734
vt 0.7607422 0.5214844
vt 0.7836914 0.503418
vt 0.7768555 0.503418
vt 0.7597656 0.5170898
vt 0.7592773 0.515625
vt 0.7719727 0.503418
vt 0.7700195 0.503418
vt 0.6010742 0.7563477
vt 0.6733398 0.9023438
vt 0.6733398 0.9023438
vt 0.6010742 0.7563477
vt 0.5981445 0.75
vt 0.5981445 0.75
vt 0.5961914 0.7456055
vt 0.5961914 0.7456055
vt 0.5952148 0.7441406
vt 0.6772461 0.9125977
vt 0.6733398 0.9023438
vt 0.6733398 0.9023438
vt 0.6772461 0.9125977
vt 0.6918945 0.9482422
vt 0.6918945 0.9482422
vt 0.6943359 0.9541016
vt 0.6943359 0.9541016
vt 0.940918 0.5019531
vt 0.7836914 0.503418
vt 0.7836914 0.503418
vt 0.940918 0.5019531
vt 0.996582 0.5019531
vt 0.9516602 0.5019531
vt 0.9902344 0.5019531
vt 0.996582 0.5019531
vt 0.9902344 0.5019531
vt 0.9516602 0.5019531
vt 0.7836914 0.503418
vt 0.7768555 0.503418
vt 0.7719727 0.503418
vt 0.7700195 0.503418
vt 0.7700195 0.503418
vt 0.7719727 0.503418
vt 0.7836914 0.503418
vt 0.7768555 0.503418
vn -0.8579102 0.2318115 -0.4584961
vn -0.7387695 0.4589844 -0.4936523
vn -0.7841797 0.4572754 -0.4191895
vn -0.8085938 0.2329102 -0.5405273
vn -0.8579102 -0.2318115 -0.4584961
vn -0.628418 0.4589844 -0.628418
vn -0.8085938 -0.2329102 -0.5405273
vn -0.6875 0.2329102 -0.6875
vn -0.4936523 0.4589844 -0.7387695
vn -0.6875 -0.2329102 -0.6875
vn -0.5405273 0.2329102 -0.8085938
vn -0.3400879 0.4589844 -0.8208008
vn -0.5405273 -0.2329102 -0.8085938
vn -0.3720703 0.2329102 -0.8984375
vn -0.1733398 0.4589844 -0.871582
vn -0.3720703 -0.2329102 -0.8984375
vn -0.1896973 0.2329102 -0.9536133
vn -0.0871582 0.4572754 -0.8852539
vn -0.1896973 -0.2329102 -0.9536133
vn -0.09533691 0.2318115 -0.9682617
vn -0.09533691 -0.2318115 -0.9682617
vn 0 1 0
vn 0.1643066 0.9824219 0.08782959
vn 0 1 0
vn 0.1541748 0.9824219 0.1030273
vn 0.3425293 0.9213867 0.1831055
vn 0 1 0
vn 0.3217773 0.921875 0.2149658
vn 0.1311035 0.9824219 0.1311035
vn 0 1 0
vn 0.2736816 0.921875 0.2736816
vn 0.1030273 0.9824219 0.1541748
vn 0 1 0
vn 0.2149658 0.921875 0.3217773
vn 0.07098389 0.9824219 0.1712646
vn 0 1 0
vn 0.1480713 0.921875 0.3574219
vn 0.03616333 0.9824219 0.1818848
vn 0 1 0
vn 0.07550049 0.921875 0.3793945
vn 0.01826477 0.9824219 0.1854248
vn 0.03808594 0.9213867 0.3867188
vn 0 1 0
vn 0 1 0
vn 0 1 0
vn 0 1 0
vn 0 1 0
vn 0 1 0
vn 0 1 0
vn 0 1 0
vn 0 1 0
vn 0 1 0
vn 0 1 0
vn 0 1 0
vn 0.08673096 0.9741211 0.2095947
vn 0.1954346 0.921875 0.3342285
vn 0.1159668 0.9731445 0.1983643
vn 0.168335 0.8989258 0.404541
vn 0.1253662 0.9770508 0.1726074
vn 0.4089355 0.5859375 0.699707
vn 0.2797852 0.8793945 0.3852539
vn 0.1832275 0.9716797 0.1480713
vn 0.3200684 0.5566406 0.7666016
vn 0.5014648 0.1141968 0.8579102
vn 0.3828125 0.1096802 0.9174805
vn 0.4953613 0.5380859 0.6816406
vn 0.5844727 0.1094971 0.8041992
vn 0.3464355 0.890625 0.2941895
vn 0.1690674 0.9672852 0.1903076
vn 0.2668457 0.9160156 0.3000488
vn 0.6362305 0.5366211 0.5541992
vn 0.7504883 0.1037598 0.652832
vn 0.8422852 0.3591309 0.4020996
vn 0.887207 0.06378174 0.4567871
vn -0.1896973 -0.2329102 -0.9536133
vn -0.0871582 -0.4572754 -0.8852539
vn -0.09533691 -0.2318115 -0.9682617
vn -0.1733398 -0.4589844 -0.871582
vn -0.3720703 -0.2329102 -0.8984375
vn -0.3400879 -0.4589844 -0.8208008
vn -0.5405273 -0.2329102 -0.8085938
vn -0.4936523 -0.4589844 -0.7387695
vn -0.6875 -0.2329102 -0.6875
vn -0.628418 -0.4589844 -0.628418
vn -0.8085938 -0.2329102 -0.5405273
vn -0.7387695 -0.4589844 -0.4936523
vn -0.8579102 -0.2318115 -0.4584961
vn -0.7841797 -0.4572754 -0.4191895
vn 0 -1 0
vn 0 -1 0
vn 0.1643066 -0.9824219 0.08782959
vn 0.1541748 -0.9824219 0.1030273
vn 0.3425293 -0.9213867 0.1831055
vn 0 -1 0
vn 0.3217773 -0.921875 0.2149658
vn 0.1311035 -0.9824219 0.1311035
vn 0 -1 0
vn 0.2736816 -0.921875 0.2736816
vn 0.1030273 -0.9824219 0.1541748
vn 0 -1 0
vn 0.2149658 -0.921875 0.3217773
vn 0.07098389 -0.9824219 0.1712646
vn 0 -1 0
vn 0.1480713 -0.921875 0.3574219
vn 0.03616333 -0.9824219 0.1818848
vn 0 -1 0
vn 0.07550049 -0.921875 0.3793945
vn 0.01826477 -0.9824219 0.1854248
vn 0.03808594 -0.9213867 0.3867188
vn 0 -1 0
vn 0 -1 0
vn 0 -1 0
vn 0 -1 0
vn 0 -1 0
vn 0 -1 0
vn 0 -1 0
vn 0 -1 0
vn 0 -1 0
vn 0 -1 0
vn 0 -1 0
vn 0 -1 0
vn 0.08673096 -0.9741211 0.2095947
vn 0.1159668 -0.9731445 0.1983643
vn 0.1954346 -0.921875 0.3342285
vn 0.168335 -0.8989258 0.404541
vn 0.1253662 -0.9770508 0.1726074
vn 0.4370117 -0.5 0.7475586
vn 0.2797852 -0.8793945 0.3852539
vn 0.1832275 -0.9716797 0.1480713
vn 0.3410645 -0.4655762 0.8168945
vn 0.5014648 0.1141968 0.8579102
vn 0.3828125 0.1096802 0.9174805
vn 0.5292969 -0.4350586 0.7285156
vn 0.5844727 0.1094971 0.8041992
vn 0.3464355 -0.890625 0.2941895
vn 0.1690674 -0.9672852 0.1903076
vn 0.2668457 -0.9160156 0.3000488
vn 0.6723633 -0.4482422 0.5893555
vn 0.7504883 0.1037598 0.652832
vn 0.8383789 -0.3198242 0.4411621
vn 0.887207 0.06378174 0.4567871
vn -0.4411621 0 0.8974609
vn -0.4411621 0 0.8974609
vn -0.4411621 0 0.8974609
vn -0.4411621 0 0.8974609
vn -0.4411621 0 0.8974609
vn -0.4411621 0 0.8974609
vn -0.4411621 0 0.8974609
vn -0.4411621 0 0.8974609
vn -0.4411621 0 0.8974609
vn -0.3825684 0 0.9238281
vn -0.3825684 0 0.9238281
vn -0.3825684 0 0.9238281
vn -0.3825684 0 0.9238281
vn -0.3825684 0 0.9238281
vn -0.3825684 0 0.9238281
vn -0.3825684 0 0.9238281
vn -0.3825684 0 0.9238281
vn 1 0 0.007881165
vn 1 0 0.007881165
vn 1 0 0.007881165
vn 1 0 0.007881165
vn 1 0 0
vn 1 0 0
vn 1 0 0
vn 1 0 0
vn 1 0 0
vn 1 0 0
vn 1 0 0.007873535
vn 1 0 0.007873535
vn 0.8383789 -0.3198242 0.4411621
vn 0.887207 0.06378174 0.4567871
vn 0.887207 0.06378174 0.4567871
vn 0.8422852 0.3591309 0.4020996
vn 1 0 0.007873535
vn 1 0 0.007873535
g Dal_Star_out_01_0
f 3/3/3 2/2/2 1/1/1
f 2/2/2 4/4/4 1/1/1
f 1/1/1 4/4/4 5/5/5
f 2/2/2 6/6/6 4/4/4
f 4/4/4 7/7/7 5/5/5
f 6/6/6 8/8/8 4/4/4
f 4/4/4 8/8/8 7/7/7
f 6/6/6 9/9/9 8/8/8
f 8/8/8 10/10/10 7/7/7
f 9/9/9 11/11/11 8/8/8
f 8/8/8 11/11/11 10/10/10
f 9/9/9 12/12/12 11/11/11
f 11/11/11 13/13/13 10/10/10
f 12/12/12 14/14/14 11/11/11
f 11/11/11 14/14/14 13/13/13
f 12/12/12 15/15/15 14/14/14
f 14/14/14 16/16/16 13/13/13
f 15/15/15 17/17/17 14/14/14
f 14/14/14 17/17/17 16/16/16
f 15/15/15 18/18/18 17/17/17
f 17/17/17 19/19/19 16/16/16
f 18/18/18 20/20/20 17/17/17
f 17/17/17 20/20/20 19/19/19
f 20/20/20 21/21/21 19/19/19
f 24/24/24 23/23/23 22/22/22
f 23/23/23 25/25/25 22/22/22
f 23/23/23 26/26/26 25/25/25
f 22/22/22 25/25/25 27/27/27
f 26/26/26 28/28/28 25/25/25
f 25/25/25 29/29/29 27/27/27
f 25/25/25 28/28/28 29/29/29
f 27/27/27 29/29/29 30/30/30
f 28/28/28 31/31/31 29/29/29
f 29/29/29 32/32/32 30/30/30
f 29/29/29 31/31/31 32/32/32
f 30/30/30 32/32/32 33/33/33
f 31/31/31 34/34/34 32/32/32
f 32/32/32 35/35/35 33/33/33
f 32/32/32 34/34/34 35/35/35
f 33/33/33 35/35/35 36/36/36
f 34/34/34 37/37/37 35/35/35
f 35/35/35 38/38/38 36/36/36
f 35/35/35 37/37/37 38/38/38
f 36/36/36 38/38/38 39/39/39
f 37/37/37 40/40/40 38/38/38
f 38/38/38 41/41/41 39/39/39
f 38/38/38 40/40/40 41/41/41
f 40/40/40 42/42/42 41/41/41
f 45/45/45 44/44/44 43/43/43
f 43/43/43 46/46/46 45/45/45
f 46/46/46 47/47/47 45/45/45
f 47/47/47 48/48/48 45/45/45
f 48/48/48 49/49/49 45/45/45
f 49/49/49 50/50/50 45/45/45
f 49/49/49 51/51/51 50/50/50
f 49/49/49 52/52/52 51/51/51
f 52/52/52 53/53/53 51/51/51
f 52/52/52 54/54/54 53/53/53
f 57/57/57 56/56/56 55/55/55
f 56/56/56 58/58/58 55/55/55
f 55/55/55 58/58/58 59/59/59
f 56/56/56 60/60/60 58/58/58
f 58/58/58 61/61/61 59/59/59
f 59/59/59 61/61/61 62/62/62
f 60/60/60 63/63/63 58/58/58
f 58/58/58 63/63/63 61/61/61
f 60/60/60 64/64/64 63/63/63
f 64/64/64 65/65/65 63/63/63
f 63/63/63 65/65/65 66/66/66
f 63/63/63 66/66/66 61/61/61
f 65/65/65 67/67/67 66/66/66
f 61/61/61 68/68/68 62/62/62
f 61/61/61 66/66/66 68/68/68
f 62/62/62 68/68/68 69/69/69
f 68/68/68 70/70/70 69/69/69
f 66/66/66 67/67/67 71/71/71
f 66/66/66 71/71/71 68/68/68
f 68/68/68 71/71/71 70/70/70
f 67/67/67 72/72/72 71/71/71
f 71/71/71 73/73/73 70/70/70
f 71/71/71 72/72/72 73/73/73
f 72/72/72 74/74/74 73/73/73
f 77/77/77 76/76/76 75/75/75
f 76/76/76 78/78/78 75/75/75
f 75/75/75 78/78/78 79/79/79
f 78/78/78 80/80/80 79/79/79
f 79/79/79 80/80/80 81/81/81
f 80/80/80 82/82/82 81/81/81
f 81/81/81 82/82/82 83/83/83
f 82/82/82 84/84/84 83/83/83
f 83/83/83 84/84/84 85/85/85
f 84/84/84 86/86/86 85/85/85
f 85/85/85 86/86/86 87/87/87
f 86/86/86 88/88/88 87/87/87
f 91/91/91 90/90/90 89/89/89
f 92/92/92 91/91/91 89/89/89
f 93/93/93 91/91/91 92/92/92
f 92/92/92 89/89/89 94/94/94
f 95/95/95 93/93/93 92/92/92
f 96/96/96 92/92/92 94/94/94
f 95/95/95 92/92/92 96/96/96
f 96/96/96 94/94/94 97/97/97
f 98/98/98 95/95/95 96/96/96
f 99/99/99 96/96/96 97/97/97
f 98/98/98 96/96/96 99/99/99
f 99/99/99 97/97/97 100/100/100
f 101/101/101 98/98/98 99/99/99
f 102/102/102 99/99/99 100/100/100
f 101/101/101 99/99/99 102/102/102
f 102/102/102 100/100/100 103/103/103
f 104/104/104 101/101/101 102/102/102
f 105/105/105 102/102/102 103/103/103
f 104/104/104 102/102/102 105/105/105
f 105/105/105 103/103/103 106/106/106
f 107/107/107 104/104/104 105/105/105
f 108/108/108 105/105/105 106/106/106
f 107/107/107 105/105/105 108/108/108
f 109/109/109 107/107/107 108/108/108
f 112/112/112 111/111/111 110/110/110
f 110/110/110 113/113/113 112/112/112
f 110/110/110 114/114/114 113/113/113
f 110/110/110 115/115/115 114/114/114
f 110/110/110 116/116/116 115/115/115
f 110/110/110 117/117/117 116/116/116
f 117/117/117 118/118/118 116/116/116
f 118/118/118 119/119/119 116/116/116
f 118/118/118 120/120/120 119/119/119
f 120/120/120 121/121/121 119/119/119
f 124/124/124 123/123/123 122/122/122
f 125/125/125 124/124/124 122/122/122
f 125/125/125 122/122/122 126/126/126
f 127/127/127 124/124/124 125/125/125
f 128/128/128 125/125/125 126/126/126
f 128/128/128 126/126/126 129/129/129
f 130/130/130 127/127/127 125/125/125
f 130/130/130 125/125/125 128/128/128
f 127/127/127 130/130/130 131/131/131
f 130/130/130 132/132/132 131/131/131
f 130/130/130 133/133/133 132/132/132
f 133/133/133 130/130/130 128/128/128
f 133/133/133 134/134/134 132/132/132
f 135/135/135 128/128/128 129/129/129
f 133/133/133 128/128/128 135/135/135
f 135/135/135 129/129/129 136/136/136
f 137/137/137 135/135/135 136/136/136
f 133/133/133 138/138/138 134/134/134
f 138/138/138 133/133/133 135/135/135
f 138/138/138 135/135/135 137/137/137
f 138/138/138 139/139/139 134/134/134
f 140/140/140 138/138/138 137/137/137
f 139/139/139 138/138/138 140/140/140
f 141/141/141 139/139/139 140/140/140
f 144/144/144 143/143/143 142/142/142
f 143/143/143 145/145/145 142/142/142
f 142/142/142 145/145/145 146/146/146
f 147/147/147 142/142/142 146/146/146
f 147/147/147 146/146/146 148/148/148
f 149/149/149 147/147/147 148/148/148
f 148/148/148 150/150/150 149/149/149
f 153/153/153 152/152/152 151/151/151
f 151/151/151 154/154/154 153/153/153
f 151/151/151 155/155/155 154/154/154
f 155/155/155 156/156/156 154/154/154
f 155/155/155 157/157/157 156/156/156
f 157/157/157 158/158/158 156/156/156
f 161/161/161 160/160/160 159/159/159
f 160/160/160 162/162/162 159/159/159
f 163/163/163 159/159/159 162/162/162
f 163/163/163 162/162/162 164/164/164
f 164/164/164 165/165/165 163/163/163
f 163/163/163 166/166/166 159/159/159
f 166/166/166 167/167/167 159/159/159
f 167/167/167 168/168/168 159/159/159
f 170/170/170 160/160/160 169/169/169
f 169/169/169 171/171/171 170/170/170
f 169/169/169 172/172/172 171/171/171
f 175/175/175 174/174/174 173/173/173
f 175/175/175 176/176/176 174/174/174
