g Dal_Star_out_07
v 3.245299 -0.2009448 3.245301
v 2.987355 -0.2009448 2.987357
v 2.912607 -0.1565906 2.91261
v 2.912607 0.1601756 2.91261
v 3.245299 0.2045299 3.245301
v 3.288066 0.08746536 3.288068
v 2.912607 0.1601756 2.91261
v 2.987355 0.2045298 2.987357
v 3.245299 0.2045299 3.245301
v 4.560679 0.087465 0.9071773
v 4.240187 0.2045296 1.756345
v 4.501359 0.2045295 0.8953778
v 4.296065 0.08746513 1.779491
v 4.560679 -0.08388069 0.9071773
v 3.816068 0.2045297 2.549817
v 4.296065 -0.08388054 1.779491
v 3.866356 0.08746526 2.583419
v 3.245299 0.2045299 3.245301
v 3.866356 -0.08388041 2.583419
v 3.288066 0.08746536 3.288068
v 3.288066 -0.08388028 3.288068
v 4.240187 0.2045296 1.756345
v 4.143581 0.2045295 0.824211
v 4.501359 0.2045295 0.8953778
v 3.903167 0.2045296 1.616747
v 4.039904 0.1601752 0.8035883
v 3.816068 0.2045297 2.549817
v 3.805505 0.1601754 1.576294
v 3.512757 0.2045297 2.347152
v 3.245299 0.2045299 3.245301
v 3.424864 0.1601755 2.288424
v 2.987355 0.2045298 2.987357
v 2.912607 0.1601756 2.91261
v 1.722978 0.1601754 1.783411
v 1.654584 0.1601752 0.4970294
v 4.039904 0.1601752 0.8035883
v 3.805505 0.1601754 1.576294
v 3.424864 0.1601755 2.288424
v 1.666103 0.1601754 2.042867
v 2.912607 0.1601756 2.91261
v 1.722978 0.1601754 1.783411
v 1.596438 0.1475311 0.4895565
v 1.654584 0.1601752 0.4970294
v 1.666557 0.1475314 1.805653
v 1.666103 0.1601754 2.042867
v 1.553872 0.112987 0.4840859
v 1.621473 0.1475314 2.011726
v 1.625254 0.1129872 1.821935
v 1.538291 0.06579884 0.4820836
v 1.588801 0.1129872 1.988929
v 1.610136 0.06579906 1.827895
v 1.576842 0.06579908 1.980585
v 3.866356 -0.08388041 2.583419
v 3.245299 -0.2009448 3.245301
v 3.288066 -0.08388028 3.288068
v 3.816068 -0.2009449 2.549817
v 4.296065 -0.08388054 1.779491
v 4.240187 -0.200945 1.756345
v 4.560679 -0.08388069 0.9071773
v 4.501359 -0.2009452 0.8953779
v 4.240187 -0.200945 1.756345
v 4.501359 -0.2009452 0.8953779
v 4.143581 -0.2009452 0.8242111
v 3.903167 -0.200945 1.616747
v 4.039904 -0.1565909 0.8035883
v 3.816068 -0.2009449 2.549817
v 3.805505 -0.1565908 1.576294
v 3.512757 -0.2009449 2.347152
v 3.245299 -0.2009448 3.245301
v 3.424864 -0.1565907 2.288424
v 2.987355 -0.2009448 2.987357
v 2.912607 -0.1565906 2.91261
v 4.039904 -0.1565909 0.8035883
v 1.654584 -0.156591 0.4970295
v 1.722978 -0.1565908 1.783411
v 3.805505 -0.1565908 1.576294
v 3.424864 -0.1565907 2.288424
v 1.666103 -0.1565907 2.042867
v 2.912607 -0.1565906 2.91261
v 1.722978 -0.1565908 1.783411
v 1.654584 -0.156591 0.4970295
v 1.596438 -0.143947 0.4895565
v 1.666557 -0.1439467 1.805653
v 1.666103 -0.1565907 2.042867
v 1.553872 -0.1094028 0.4840859
v 1.621473 -0.1439467 2.011726
v 1.625254 -0.1094026 1.821935
v 1.538291 0.06579884 0.4820836
v 1.588801 -0.1094026 1.988929
v 1.610136 0.06579906 1.827895
v 1.576842 0.06579908 1.980585
v 1.666103 0.1601754 2.042867
v 2.912607 0.1601756 2.91261
v 2.912607 -0.1565906 2.91261
v 1.666103 -0.1565907 2.042867
v 1.621473 0.1475314 2.011726
v 1.621473 -0.1439467 2.011726
v 1.588801 0.1129872 1.988929
v 1.588801 -0.1094026 1.988929
v 1.576842 0.06579908 1.980585
v 2.912607 -0.1565906 2.91261
v 3.288066 -0.08388028 3.288068
v 3.245299 -0.2009448 3.245301
v 2.912607 0.1601756 2.91261
v 3.288066 0.08746536 3.288068
v 4.039904 0.1601752 0.8035883
v 1.654584 -0.156591 0.4970295
v 4.039904 -0.1565909 0.8035883
v 1.654584 0.1601752 0.4970294
v 1.596438 -0.143947 0.4895565
v 1.596438 0.1475311 0.4895565
v 1.553872 -0.1094028 0.4840859
v 1.553872 0.112987 0.4840859
v 1.538291 0.06579884 0.4820836
v 4.501359 -0.2009452 0.8953779
v 4.560679 -0.08388069 0.9071773
v 4.560679 0.087465 0.9071773
v 4.501359 0.2045295 0.8953778
v 4.143581 -0.2009452 0.8242111
v 4.143581 0.2045295 0.824211
v 4.039904 -0.1565909 0.8035883
v 4.039904 0.1601752 0.8035883
vt 0.1656494 0.1605225
vt 0.192749 0.1876221
vt 0.2006836 0.1954346
vt 0.2006836 0.1954346
vt 0.1656494 0.1605225
vt 0.1611328 0.1560059
vt 0.2006836 0.1954346
vt 0.192749 0.1876221
vt 0.1656494 0.1605225
vt 0.4116211 0.02201843
vt 0.3222656 0.05575562
vt 0.4130859 0.02825928
vt 0.3198242 0.04986572
vt 0.4116211 0.02201843
vt 0.2388916 0.1004028
vt 0.3198242 0.04986572
vt 0.2353516 0.09509277
vt 0.1656494 0.1605225
vt 0.2353516 0.09509277
vt 0.1611328 0.1560059
vt 0.1611328 0.1560059
vt 0.3222656 0.05575562
vt 0.4204102 0.06591797
vt 0.4130859 0.02825928
vt 0.3371582 0.09124756
vt 0.4226074 0.07684326
vt 0.2388916 0.1004028
vt 0.3413086 0.1015015
vt 0.2602539 0.1323242
vt 0.1656494 0.1605225
vt 0.2663574 0.1416016
vt 0.192749 0.1876221
vt 0.2006836 0.1954346
vt 0.3195801 0.3208008
vt 0.454834 0.3278809
vt 0.4226074 0.07684326
vt 0.3413086 0.1015015
vt 0.2663574 0.1416016
vt 0.2922363 0.3266602
vt 0.2006836 0.1954346
vt 0.3195801 0.3208008
vt 0.4558105 0.3339844
vt 0.454834 0.3278809
vt 0.3171387 0.3266602
vt 0.2922363 0.3266602
vt 0.4562988 0.3383789
vt 0.2954102 0.3312988
vt 0.3154297 0.3310547
vt 0.456543 0.3400879
vt 0.2978516 0.3347168
vt 0.3149414 0.3325195
vt 0.2988281 0.3361816
vt 0.2353516 0.09509277
vt 0.1656494 0.1605225
vt 0.1611328 0.1560059
vt 0.2388916 0.1004028
vt 0.3198242 0.04986572
vt 0.3222656 0.05575562
vt 0.4116211 0.02201843
vt 0.4130859 0.02825928
vt 0.3222656 0.05575562
vt 0.4130859 0.02825928
vt 0.4204102 0.06591797
vt 0.3371582 0.09124756
vt 0.4226074 0.07684326
vt 0.2388916 0.1004028
vt 0.3413086 0.1015015
vt 0.2602539 0.1323242
vt 0.1656494 0.1605225
vt 0.2663574 0.1416016
vt 0.192749 0.1876221
vt 0.2006836 0.1954346
vt 0.4226074 0.07684326
vt 0.454834 0.3278809
vt 0.3195801 0.3208008
vt 0.3413086 0.1015015
vt 0.2663574 0.1416016
vt 0.2922363 0.3266602
vt 0.2006836 0.1954346
vt 0.3195801 0.3208008
vt 0.454834 0.3278809
vt 0.4558105 0.3339844
vt 0.3171387 0.3266602
vt 0.2922363 0.3266602
vt 0.4562988 0.3383789
vt 0.2954102 0.3312988
vt 0.3154297 0.3310547
vt 0.456543 0.3400879
vt 0.2978516 0.3347168
vt 0.3149414 0.3325195
vt 0.2988281 0.3361816
vt 0.2922363 0.3266602
vt 0.2006836 0.1954346
vt 0.2006836 0.1954346
vt 0.2922363 0.3266602
vt 0.2954102 0.3312988
vt 0.2954102 0.3312988
vt 0.2978516 0.3347168
vt 0.2978516 0.3347168
vt 0.2988281 0.3361816
vt 0.2006836 0.1954346
vt 0.1611328 0.1560059
vt 0.1656494 0.1605225
vt 0.2006836 0.1954346
vt 0.1611328 0.1560059
vt 0.4226074 0.07684326
vt 0.454834 0.3278809
vt 0.4226074 0.07684326
vt 0.454834 0.3278809
vt 0.4558105 0.3339844
vt 0.4558105 0.3339844
vt 0.4562988 0.3383789
vt 0.4562988 0.3383789
vt 0.456543 0.3400879
vt 0.4130859 0.02825928
vt 0.4116211 0.02201843
vt 0.4116211 0.02201843
vt 0.4130859 0.02825928
vt 0.4204102 0.06591797
vt 0.4204102 0.06591797
vt 0.4226074 0.07684326
vt 0.4226074 0.07684326
vn -0.7070313 0 0.7070313
vn -0.7070313 0 0.7070313
vn -0.7070313 0 0.7070313
vn -0.7070313 0 0.7070313
vn -0.7070313 0 0.7070313
vn -0.7070313 0 0.7070313
vn -0.7070313 0 0.7070313
vn -0.7070313 0 0.7070313
vn -0.7070313 0 0.7070313
vn 0.9306641 0.2318115 0.2824707
vn 0.8208008 0.4589844 0.3400879
vn 0.8510742 0.4572754 0.2580566
vn 0.8984375 0.2329102 0.3720703
vn 0.9306641 -0.2318115 0.2824707
vn 0.7387695 0.4589844 0.4936523
vn 0.8984375 -0.2329102 0.3720703
vn 0.8085938 0.2329102 0.5405273
vn 0.6875 0.4572754 0.5639648
vn 0.8085938 -0.2329102 0.5405273
vn 0.7519531 0.2318115 0.6171875
vn 0.7519531 -0.2318115 0.6171875
vn 0 1 0
vn -0.1782227 0.9824219 -0.05407715
vn 0 1 0
vn -0.1712646 0.9824219 -0.07098389
vn -0.3718262 0.9213867 -0.112793
vn 0 1 0
vn -0.3574219 0.921875 -0.1480713
vn -0.1541748 0.9824219 -0.1030273
vn 0 1 0
vn -0.3217773 0.921875 -0.2149658
vn -0.144043 0.9824219 -0.1181641
vn -0.300293 0.9213867 -0.24646
vn 0 1 0
vn 0 1 0
vn 0 1 0
vn 0 1 0
vn 0 1 0
vn 0 1 0
vn 0 1 0
vn -0.2225342 0.9750977 -0.01053619
vn -0.4572754 0.8891602 0.02436829
vn -0.2141113 0.9765625 0.01139832
vn -0.4355469 0.8994141 -0.03237915
vn -0.2381592 0.9697266 -0.05215454
vn -0.8344727 0.5493164 0.04452515
vn -0.4208984 0.9023438 -0.09210205
vn -0.8291016 0.5546875 -0.0736084
vn -0.9921875 0.111145 0.05297852
vn -0.8164063 0.5493164 -0.1782227
vn -0.9902344 0.1090698 -0.08813477
vn -0.9716797 0.1050415 -0.2120361
vn 0.8085938 -0.2329102 0.5405273
vn 0.6875 -0.4572754 0.5639648
vn 0.7519531 -0.2318115 0.6171875
vn 0.7387695 -0.4589844 0.4936523
vn 0.8984375 -0.2329102 0.3720703
vn 0.8208008 -0.4589844 0.3400879
vn 0.9306641 -0.2318115 0.2824707
vn 0.8510742 -0.4572754 0.2580566
vn 0 -1 0
vn 0 -1 0
vn -0.1782227 -0.9824219 -0.05407715
vn -0.1712646 -0.9824219 -0.07098389
vn -0.3718262 -0.9213867 -0.112793
vn 0 -1 0
vn -0.3574219 -0.921875 -0.1480713
vn -0.1541748 -0.9824219 -0.1030273
vn 0 -1 0
vn -0.3217773 -0.921875 -0.2149658
vn -0.144043 -0.9824219 -0.1181641
vn -0.300293 -0.9213867 -0.24646
vn 0 -1 0
vn 0 -1 0
vn 0 -1 0
vn 0 -1 0
vn 0 -1 0
vn 0 -1 0
vn 0 -1 0
vn -0.2225342 -0.9750977 -0.01053619
vn -0.2141113 -0.9765625 0.01139832
vn -0.4572754 -0.8891602 0.02438354
vn -0.4355469 -0.8994141 -0.03237915
vn -0.2381592 -0.9697266 -0.05215454
vn -0.8930664 -0.4477539 0.04763794
vn -0.4208984 -0.9023438 -0.09210205
vn -0.8828125 -0.4624023 -0.08215332
vn -0.9921875 0.111145 0.05297852
vn -0.8647461 -0.4655762 -0.1888428
vn -0.9902344 0.1090698 -0.08813477
vn -0.9716797 0.1050415 -0.2120361
vn -0.5722656 0 0.8203125
vn -0.5722656 0 0.8203125
vn -0.5722656 0 0.8203125
vn -0.5722656 0 0.8203125
vn -0.5722656 0 0.8203125
vn -0.5722656 0 0.8203125
vn -0.5722656 0 0.8203125
vn -0.5722656 0 0.8203125
vn -0.5722656 0 0.8203125
vn -0.7070313 0 0.7070313
vn -0.7070313 0 0.7070313
vn -0.7070313 0 0.7070313
vn -0.7070313 0 0.7070313
vn -0.7070313 0 0.7070313
vn 0.1274414 0 -0.9916992
vn 0.1274414 0 -0.9916992
vn 0.1274414 0 -0.9916992
vn 0.1274414 0 -0.9916992
vn 0.1274414 0 -0.9916992
vn 0.1274414 0 -0.9916992
vn 0.1274414 0 -0.9916992
vn 0.1274414 0 -0.9916992
vn 0.1274414 0 -0.9916992
vn 0.1950684 0 -0.980957
vn 0.1950684 0 -0.980957
vn 0.1950684 0 -0.980957
vn 0.1950684 0 -0.980957
vn 0.1950684 0 -0.980957
vn 0.1950684 0 -0.980957
vn 0.1950684 0 -0.980957
vn 0.1950684 0 -0.980957
g Dal_Star_out_07_0
f 3/3/3 2/2/2 1/1/1
f 6/6/6 5/5/5 4/4/4
f 9/9/9 8/8/8 7/7/7
f 12/12/12 11/11/11 10/10/10
f 11/11/11 13/13/13 10/10/10
f 10/10/10 13/13/13 14/14/14
f 11/11/11 15/15/15 13/13/13
f 13/13/13 16/16/16 14/14/14
f 15/15/15 17/17/17 13/13/13
f 13/13/13 17/17/17 16/16/16
f 15/15/15 18/18/18 17/17/17
f 17/17/17 19/19/19 16/16/16
f 18/18/18 20/20/20 17/17/17
f 17/17/17 20/20/20 19/19/19
f 20/20/20 21/21/21 19/19/19
f 24/24/24 23/23/23 22/22/22
f 23/23/23 25/25/25 22/22/22
f 23/23/23 26/26/26 25/25/25
f 22/22/22 25/25/25 27/27/27
f 26/26/26 28/28/28 25/25/25
f 25/25/25 29/29/29 27/27/27
f 25/25/25 28/28/28 29/29/29
f 27/27/27 29/29/29 30/30/30
f 28/28/28 31/31/31 29/29/29
f 29/29/29 32/32/32 30/30/30
f 29/29/29 31/31/31 32/32/32
f 31/31/31 33/33/33 32/32/32
f 36/36/36 35/35/35 34/34/34
f 34/34/34 37/37/37 36/36/36
f 34/34/34 38/38/38 37/37/37
f 34/34/34 39/39/39 38/38/38
f 39/39/39 40/40/40 38/38/38
f 43/43/43 42/42/42 41/41/41
f 42/42/42 44/44/44 41/41/41
f 41/41/41 44/44/44 45/45/45
f 42/42/42 46/46/46 44/44/44
f 44/44/44 47/47/47 45/45/45
f 46/46/46 48/48/48 44/44/44
f 44/44/44 48/48/48 47/47/47
f 46/46/46 49/49/49 48/48/48
f 48/48/48 50/50/50 47/47/47
f 49/49/49 51/51/51 48/48/48
f 48/48/48 51/51/51 50/50/50
f 51/51/51 52/52/52 50/50/50
f 55/55/55 54/54/54 53/53/53
f 54/54/54 56/56/56 53/53/53
f 53/53/53 56/56/56 57/57/57
f 56/56/56 58/58/58 57/57/57
f 57/57/57 58/58/58 59/59/59
f 58/58/58 60/60/60 59/59/59
f 63/63/63 62/62/62 61/61/61
f 64/64/64 63/63/63 61/61/61
f 65/65/65 63/63/63 64/64/64
f 64/64/64 61/61/61 66/66/66
f 67/67/67 65/65/65 64/64/64
f 68/68/68 64/64/64 66/66/66
f 67/67/67 64/64/64 68/68/68
f 68/68/68 66/66/66 69/69/69
f 70/70/70 67/67/67 68/68/68
f 71/71/71 68/68/68 69/69/69
f 70/70/70 68/68/68 71/71/71
f 72/72/72 70/70/70 71/71/71
f 75/75/75 74/74/74 73/73/73
f 73/73/73 76/76/76 75/75/75
f 76/76/76 77/77/77 75/75/75
f 77/77/77 78/78/78 75/75/75
f 77/77/77 79/79/79 78/78/78
f 82/82/82 81/81/81 80/80/80
f 83/83/83 82/82/82 80/80/80
f 83/83/83 80/80/80 84/84/84
f 85/85/85 82/82/82 83/83/83
f 86/86/86 83/83/83 84/84/84
f 87/87/87 85/85/85 83/83/83
f 87/87/87 83/83/83 86/86/86
f 85/85/85 87/87/87 88/88/88
f 89/89/89 87/87/87 86/86/86
f 87/87/87 90/90/90 88/88/88
f 90/90/90 87/87/87 89/89/89
f 91/91/91 90/90/90 89/89/89
f 94/94/94 93/93/93 92/92/92
f 95/95/95 94/94/94 92/92/92
f 95/95/95 92/92/92 96/96/96
f 96/96/96 97/97/97 95/95/95
f 96/96/96 98/98/98 97/97/97
f 98/98/98 99/99/99 97/97/97
f 98/98/98 100/100/100 99/99/99
f 103/103/103 102/102/102 101/101/101
f 102/102/102 104/104/104 101/101/101
f 102/102/102 105/105/105 104/104/104
f 108/108/108 107/107/107 106/106/106
f 107/107/107 109/109/109 106/106/106
f 109/109/109 107/107/107 110/110/110
f 110/110/110 111/111/111 109/109/109
f 110/110/110 112/112/112 111/111/111
f 112/112/112 113/113/113 111/111/111
f 112/112/112 114/114/114 113/113/113
f 117/117/117 116/116/116 115/115/115
f 115/115/115 118/118/118 117/117/117
f 115/115/115 119/119/119 118/118/118
f 119/119/119 120/120/120 118/118/118
f 119/119/119 121/121/121 120/120/120
f 121/121/121 122/122/122 120/120/120
