g Dal_Triangle_in_01
v -0.7537184 0.1139319 -1.455116
v -0.7537184 -0.2071441 -1.455116
v -0.2792312 -0.2071442 -2.214296
v -0.2792312 0.1139318 -2.214296
v -0.1022054 -0.2071442 -2.377825
v -0.1022054 0.1139318 -2.377825
v 0.1022056 -0.2071442 -2.377825
v 0.1022056 0.1139318 -2.377825
v 0.279231 -0.2071442 -2.214296
v 0.1022056 0.1139318 -2.377825
v 0.279231 0.1139318 -2.214296
v 1.278625 -0.2071439 -0.6152664
v 1.278625 0.1139321 -0.6152665
v 1.254445 0.1388569 -0.6000903
v 0.2570504 0.1388566 -2.195922
v 1.195315 0.1629565 -0.5629765
v 0.2028073 0.1629562 -2.150989
v 0.09103812 0.1388566 -2.349277
v -0.1022054 0.1139318 -2.377825
v 0.06372776 0.1629562 -2.279465
v -0.09103785 0.1388566 -2.349277
v -0.2792312 0.1139318 -2.214296
v -0.06372795 0.1629562 -2.279465
v -0.2570506 0.1388566 -2.195922
v -0.7537184 0.1139319 -1.455116
v -0.2028075 0.1629562 -2.150989
v -0.730589 0.1388568 -1.438261
v -0.6740256 0.1629564 -1.39704
v -0.2028075 0.1629562 -2.150989
v -0.06372795 0.1629562 -2.279465
v 0.06372776 0.1629562 -2.279465
v 0.2028073 0.1629562 -2.150989
v -0.6740256 0.1629564 -1.39704
v 1.195315 0.1629565 -0.5629765
v -0.6740256 -0.2071441 -1.39704
v -0.2792312 -0.2071442 -2.214296
v -0.7537184 -0.2071441 -1.455116
v -0.2028075 -0.2071442 -2.150989
v 1.195315 -0.2071439 -0.5629765
v -0.1022054 -0.2071442 -2.377825
v 0.2028073 -0.2071442 -2.150989
v 1.278625 -0.2071439 -0.6152664
v 0.279231 -0.2071442 -2.214296
v -0.06372795 -0.2071442 -2.279465
v 0.1022056 -0.2071442 -2.377825
v 0.06372776 -0.2071442 -2.279465
v 1.195315 0.1629565 -0.5629765
v 1.195315 -0.2071439 -0.5629765
v -0.6740256 -0.2071441 -1.39704
v -0.6740256 0.1629564 -1.39704
v 1.254445 0.1388569 -0.6000903
v 1.278625 0.1139321 -0.6152665
v 1.278625 -0.2071439 -0.6152664
v 1.195315 -0.2071439 -0.5629765
v 1.195315 0.1629565 -0.5629765
v -0.730589 0.1388568 -1.438261
v -0.6740256 0.1629564 -1.39704
v -0.6740256 -0.2071441 -1.39704
v -0.7537184 -0.2071441 -1.455116
v -0.7537184 0.1139319 -1.455116
vt 0.4257813 0.6542969
vt 0.4257813 0.6542969
vt 0.4755859 0.734375
vt 0.4755859 0.734375
vt 0.4941406 0.7514648
vt 0.4941406 0.7514648
vt 0.515625 0.7514648
vt 0.515625 0.7514648
vt 0.5341797 0.734375
vt 0.515625 0.7514648
vt 0.5341797 0.734375
vt 0.6391602 0.565918
vt 0.6391602 0.565918
vt 0.6367188 0.5644531
vt 0.5322266 0.7324219
vt 0.6308594 0.5605469
vt 0.5263672 0.7275391
vt 0.5146484 0.7485352
vt 0.4941406 0.7514648
vt 0.5117188 0.7412109
vt 0.4953613 0.7485352
vt 0.4755859 0.734375
vt 0.498291 0.7412109
vt 0.4780273 0.7324219
vt 0.4257813 0.6542969
vt 0.4836426 0.7275391
vt 0.4282227 0.6523438
vt 0.434082 0.6484375
vt 0.4836426 0.7275391
vt 0.498291 0.7412109
vt 0.5117188 0.7412109
vt 0.5263672 0.7275391
vt 0.434082 0.6484375
vt 0.6308594 0.5605469
vt 0.434082 0.6484375
vt 0.4755859 0.734375
vt 0.4257813 0.6542969
vt 0.4836426 0.7275391
vt 0.6308594 0.5605469
vt 0.4941406 0.7514648
vt 0.5263672 0.7275391
vt 0.6391602 0.565918
vt 0.5341797 0.734375
vt 0.498291 0.7412109
vt 0.515625 0.7514648
vt 0.5117188 0.7412109
vt 0.6308594 0.5605469
vt 0.6308594 0.5605469
vt 0.434082 0.6484375
vt 0.434082 0.6484375
vt 0.6367188 0.5644531
vt 0.6391602 0.565918
vt 0.6391602 0.565918
vt 0.6308594 0.5605469
vt 0.6308594 0.5605469
vt 0.4282227 0.6523438
vt 0.434082 0.6484375
vt 0.434082 0.6484375
vt 0.4257813 0.6542969
vt 0.4257813 0.6542969
vn -0.7695313 0.4206543 -0.4807129
vn -0.8481445 0 -0.5297852
vn -0.7700195 0 -0.6376953
vn -0.7045898 0.4030762 -0.5839844
vn -0.3642578 0 -0.9311523
vn -0.3347168 0.3950195 -0.8554688
vn 0.3642578 0 -0.9311523
vn 0.3347168 0.3950195 -0.8554688
vn 0.7700195 0 -0.6376953
vn 0.3347168 0.3950195 -0.8554688
vn 0.7045898 0.4030762 -0.5839844
vn 0.8481445 0 -0.5297852
vn 0.7719727 0.4138184 -0.4824219
vn 0.4250488 0.8652344 -0.265625
vn 0.3928223 0.8598633 -0.3254395
vn 0.2766113 0.9453125 -0.1729736
vn 0.2492676 0.9462891 -0.206543
vn 0.1854248 0.8608398 -0.4741211
vn -0.3347168 0.3950195 -0.8554688
vn 0.1115112 0.9521484 -0.2849121
vn -0.1854248 0.8608398 -0.4741211
vn -0.7045898 0.4030762 -0.5839844
vn -0.1115112 0.9521484 -0.2849121
vn -0.3928223 0.8598633 -0.3254395
vn -0.7695313 0.4206543 -0.4807129
vn -0.2492676 0.9462891 -0.206543
vn -0.4196777 0.8691406 -0.262207
vn -0.2766113 0.9453125 -0.1729736
vn 0 1 0
vn 0 1 0
vn 0 1 0
vn 0 1 0
vn 0 1 0
vn 0 1 0
vn 0 -1 0
vn 0 -1 0
vn 0 -1 0
vn 0 -1 0
vn 0 -1 0
vn 0 -1 0
vn 0 -1 0
vn 0 -1 0
vn 0 -1 0
vn 0 -1 0
vn 0 -1 0
vn 0 -1 0
vn -0.4074707 0 0.9130859
vn -0.4074707 0 0.9130859
vn -0.4074707 0 0.9130859
vn -0.4074707 0 0.9130859
vn 0.5317383 0 0.847168
vn 0.5317383 0 0.847168
vn 0.5317383 0 0.847168
vn 0.5317383 0 0.847168
vn 0.5317383 0 0.847168
vn -0.5888672 0 0.8081055
vn -0.5888672 0 0.8081055
vn -0.5888672 0 0.8081055
vn -0.5888672 0 0.8081055
vn -0.5888672 0 0.8081055
g Dal_Triangle_in_01_0
f 3/3/3 2/2/2 1/1/1
f 4/4/4 3/3/3 1/1/1
f 3/3/3 4/4/4 5/5/5
f 4/4/4 6/6/6 5/5/5
f 5/5/5 6/6/6 7/7/7
f 6/6/6 8/8/8 7/7/7
f 7/7/7 10/10/10 9/9/9
f 10/10/10 11/11/11 9/9/9
f 12/12/12 9/9/9 11/11/11
f 13/13/13 12/12/12 11/11/11
f 14/14/14 13/13/13 11/11/11
f 15/15/15 14/14/14 11/11/11
f 11/11/11 10/10/10 15/15/15
f 14/14/14 15/15/15 16/16/16
f 15/15/15 17/17/17 16/16/16
f 10/10/10 18/18/18 15/15/15
f 15/15/15 18/18/18 17/17/17
f 10/10/10 19/19/19 18/18/18
f 18/18/18 20/20/20 17/17/17
f 19/19/19 21/21/21 18/18/18
f 18/18/18 21/21/21 20/20/20
f 19/19/19 22/22/22 21/21/21
f 21/21/21 23/23/23 20/20/20
f 22/22/22 24/24/24 21/21/21
f 21/21/21 24/24/24 23/23/23
f 24/24/24 22/22/22 25/25/25
f 24/24/24 26/26/26 23/23/23
f 27/27/27 24/24/24 25/25/25
f 24/24/24 27/27/27 26/26/26
f 27/27/27 28/28/28 26/26/26
f 31/31/31 30/30/30 29/29/29
f 29/29/29 32/32/32 31/31/31
f 29/29/29 33/33/33 32/32/32
f 33/33/33 34/34/34 32/32/32
f 37/37/37 36/36/36 35/35/35
f 36/36/36 38/38/38 35/35/35
f 39/39/39 35/35/35 38/38/38
f 36/36/36 40/40/40 38/38/38
f 41/41/41 39/39/39 38/38/38
f 42/42/42 39/39/39 41/41/41
f 43/43/43 42/42/42 41/41/41
f 40/40/40 44/44/44 38/38/38
f 41/41/41 38/38/38 44/44/44
f 40/40/40 45/45/45 44/44/44
f 43/43/43 41/41/41 46/46/46
f 44/44/44 46/46/46 41/41/41
f 45/45/45 43/43/43 46/46/46
f 45/45/45 46/46/46 44/44/44
f 49/49/49 48/48/48 47/47/47
f 50/50/50 49/49/49 47/47/47
f 53/53/53 52/52/52 51/51/51
f 51/51/51 54/54/54 53/53/53
f 51/51/51 55/55/55 54/54/54
f 58/58/58 57/57/57 56/56/56
f 56/56/56 59/59/59 58/58/58
f 56/56/56 60/60/60 59/59/59
