g Dal_Triangle_out_03
v -3.816071 -0.2009449 2.54981
v -4.240189 -0.200945 1.756337
v -4.296067 -0.08388053 1.779483
v -3.866359 -0.08388041 2.583412
v -3.245302 -0.2009448 3.245295
v -3.866359 0.08746526 2.583412
v -4.296067 0.08746512 1.779483
v -3.288069 0.08746538 3.288063
v -3.288069 -0.08388029 3.288063
v -2.549818 -0.2009447 3.816065
v -2.583421 0.08746547 3.866354
v -2.583421 -0.08388019 3.866354
v -3.866359 0.08746526 2.583412
v -4.296067 0.08746512 1.779483
v -4.240189 0.2045296 1.756337
v -3.816071 0.2045297 2.54981
v -3.288069 0.08746538 3.288063
v -3.245302 0.2045299 3.245295
v -2.583421 0.08746547 3.866354
v -2.549818 0.20453 3.816065
v -3.245302 0.2045299 3.245295
v -2.347152 0.2045299 3.512756
v -2.549818 0.20453 3.816065
v -2.987358 0.2045298 2.987352
v -2.288424 0.1601757 3.424862
v -3.816071 0.2045297 2.54981
v -2.91261 0.1601756 2.912605
v -3.51276 0.2045297 2.347146
v -4.240189 0.2045296 1.756337
v -3.424867 0.1601755 2.288417
v -3.90317 0.2045296 1.61674
v -3.805508 0.1601754 1.576287
v -2.256413 -0.2009451 1.370677
v -2.030396 -0.2009449 1.430533
v -2.030396 0.04480173 1.430533
v -2.256413 0.04480172 1.370677
v -2.347049 0.0448017 1.207148
v -2.347049 -0.2009451 1.207148
v -2.388897 0.1263831 1.211482
v -2.282268 0.1263832 1.403868
v -2.489928 0.1601753 1.221945
v -2.035435 0.1263832 1.469237
v -2.344687 0.1601753 1.483997
v -2.047598 0.1601754 1.562675
v -2.256413 -0.2009451 1.370677
v -2.347049 -0.2009451 1.207148
v -2.489928 -0.2009451 1.221945
v -3.804947 -0.200945 1.576122
v -2.030396 -0.2009449 1.430533
v -2.047598 -0.2009449 1.562675
v -2.288421 -0.2009448 3.424855
v -4.240189 -0.200945 1.756337
v -3.816071 -0.2009449 2.54981
v -3.245302 -0.2009448 3.245295
v -2.549818 -0.2009447 3.816065
v -3.805508 0.1601754 1.576287
v -2.489928 0.1601753 1.221945
v -2.344687 0.1601753 1.483997
v -2.047598 0.1601754 1.562675
v -2.288424 0.1601757 3.424862
v -3.424867 0.1601755 2.288417
v -2.91261 0.1601756 2.912605
v -2.489928 0.1601753 1.221945
v -3.805508 0.1601754 1.576287
v -3.804947 -0.200945 1.576122
v -2.489928 -0.2009451 1.221945
v -2.388897 0.1263831 1.211482
v -2.347049 0.0448017 1.207148
v -2.347049 -0.2009451 1.207148
v -4.240189 -0.200945 1.756337
v -3.804947 -0.200945 1.576122
v -3.805508 0.1601754 1.576287
v -3.90317 0.2045296 1.61674
v -4.240189 0.2045296 1.756337
v -4.296067 -0.08388053 1.779483
v -4.296067 0.08746512 1.779483
v -2.583421 -0.08388019 3.866354
v -2.583421 0.08746547 3.866354
v -2.288424 0.1601757 3.424862
v -2.549818 -0.2009447 3.816065
v -2.288421 -0.2009448 3.424855
v -2.047598 0.1601754 1.562675
v -2.047598 -0.2009449 1.562675
v -2.030396 0.04480173 1.430533
v -2.030396 -0.2009449 1.430533
v -2.035435 0.1263832 1.469237
v -2.583421 0.08746547 3.866354
v -2.549818 0.20453 3.816065
v -2.288424 0.1601757 3.424862
v -2.347152 0.2045299 3.512756
vt 0.1038208 0.2332764
vt 0.05923462 0.3166504
vt 0.05337524 0.314209
vt 0.09851074 0.2297363
vt 0.1638184 0.1601563
vt 0.09851074 0.2297363
vt 0.05337524 0.314209
vt 0.1593018 0.1557617
vt 0.1593018 0.1557617
vt 0.2369385 0.1002197
vt 0.2333984 0.09490967
vt 0.2333984 0.09490967
vt 0.09851074 0.2297363
vt 0.05337524 0.314209
vt 0.05923462 0.3166504
vt 0.1038208 0.2332764
vt 0.1593018 0.1557617
vt 0.1638184 0.1601563
vt 0.2333984 0.09490967
vt 0.2369385 0.1002197
vt 0.1638184 0.1601563
vt 0.2583008 0.1320801
vt 0.2369385 0.1002197
vt 0.190918 0.1873779
vt 0.2644043 0.1413574
vt 0.1038208 0.2332764
vt 0.1988525 0.1951904
vt 0.1357422 0.2546387
vt 0.05923462 0.3166504
vt 0.1448975 0.2607422
vt 0.09466553 0.3312988
vt 0.1049194 0.3356934
vt 0.2678223 0.3571777
vt 0.2915039 0.3510742
vt 0.2915039 0.3510742
vt 0.2678223 0.3571777
vt 0.2583008 0.3745117
vt 0.2583008 0.3745117
vt 0.2539063 0.3740234
vt 0.2651367 0.3537598
vt 0.2432861 0.3728027
vt 0.2910156 0.3469238
vt 0.2585449 0.345459
vt 0.2897949 0.3371582
vt 0.2678223 0.3571777
vt 0.2583008 0.3745117
vt 0.2432861 0.3728027
vt 0.1049805 0.3356934
vt 0.2915039 0.3510742
vt 0.2897949 0.3371582
vt 0.2644043 0.1413574
vt 0.05923462 0.3166504
vt 0.1038208 0.2332764
vt 0.1638184 0.1601563
vt 0.2369385 0.1002197
vt 0.1049194 0.3356934
vt 0.2432861 0.3728027
vt 0.2585449 0.345459
vt 0.2897949 0.3371582
vt 0.2644043 0.1413574
vt 0.1448975 0.2607422
vt 0.1988525 0.1951904
vt 0.2432861 0.3728027
vt 0.1049194 0.3356934
vt 0.1049805 0.3356934
vt 0.2432861 0.3728027
vt 0.2539063 0.3740234
vt 0.2583008 0.3745117
vt 0.2583008 0.3745117
vt 0.05923462 0.3166504
vt 0.1049805 0.3356934
vt 0.1049194 0.3356934
vt 0.09466553 0.3312988
vt 0.05923462 0.3166504
vt 0.05337524 0.314209
vt 0.05337524 0.314209
vt 0.2333984 0.09490967
vt 0.2333984 0.09490967
vt 0.2644043 0.1413574
vt 0.2369385 0.1002197
vt 0.2644043 0.1413574
vt 0.2897949 0.3371582
vt 0.2897949 0.3371582
vt 0.2915039 0.3510742
vt 0.2915039 0.3510742
vt 0.2910156 0.3469238
vt 0.2333984 0.09490967
vt 0.2369385 0.1002197
vt 0.2644043 0.1413574
vt 0.2583008 0.1320801
vn -0.7387695 -0.4589844 0.4936523
vn -0.7841797 -0.4572754 0.4191895
vn -0.8579102 -0.2318115 0.4584961
vn -0.8085938 -0.2329102 0.5405273
vn -0.628418 -0.4589844 0.628418
vn -0.8085938 0.2329102 0.5405273
vn -0.8579102 0.2318115 0.4584961
vn -0.6875 0.2329102 0.6875
vn -0.6875 -0.2329102 0.6875
vn -0.5639648 -0.4572754 0.6875
vn -0.6171875 0.2318115 0.7519531
vn -0.6171875 -0.2318115 0.7519531
vn -0.8085938 0.2329102 0.5405273
vn -0.8579102 0.2318115 0.4584961
vn -0.7841797 0.4572754 0.4191895
vn -0.7387695 0.4589844 0.4936523
vn -0.6875 0.2329102 0.6875
vn -0.628418 0.4589844 0.628418
vn -0.6171875 0.2318115 0.7519531
vn -0.5639648 0.4572754 0.6875
vn 0 1 0
vn 0.1181641 0.9824219 -0.144043
vn 0 1 0
vn 0.1311035 0.9824219 -0.1311035
vn 0.24646 0.9213867 -0.300293
vn 0 1 0
vn 0.2736816 0.921875 -0.2736816
vn 0.1541748 0.9824219 -0.1030273
vn 0 1 0
vn 0.3217773 0.921875 -0.2149658
vn 0.1643066 0.9824219 -0.08782959
vn 0.3425293 0.9213867 -0.1831055
vn 0.6147461 0 -0.7890625
vn 0.2561035 0 -0.9667969
vn 0.2495117 0.2235107 -0.9423828
vn 0.5947266 0.2504883 -0.7636719
vn 0.8510742 0.2315674 -0.4716797
vn 0.8745117 0 -0.4848633
vn 0.5419922 0.784668 -0.300293
vn 0.361084 0.809082 -0.463623
vn 0.2973633 0.9404297 -0.164917
vn 0.1677246 0.7553711 -0.6333008
vn 0.1939697 0.9487305 -0.2490234
vn 0.08703613 0.9404297 -0.3288574
vn 0 -1 0
vn 0 -1 0
vn 0 -1 0
vn 0 -1 0
vn 0 -1 0
vn 0 -1 0
vn 0 -1 0
vn 0 -1 0
vn 0 -1 0
vn 0 -1 0
vn 0 -1 0
vn 0 1 0
vn 0 1 0
vn 0 1 0
vn 0 1 0
vn 0 1 0
vn 0 1 0
vn 0 1 0
vn -0.19104 1.055002E-05 -0.9814453
vn -0.3288574 -3.135204E-05 -0.9443359
vn -0.3220215 -2.622604E-05 -0.9467773
vn -0.1821289 0 -0.9833984
vn -0.1030273 0 -0.9946289
vn -0.1030273 0 -0.9946289
vn -0.1030273 0 -0.9946289
vn -0.3825684 -7.116795E-05 -0.9238281
vn -0.3220215 -2.622604E-05 -0.9467773
vn -0.3288574 -3.135204E-05 -0.9443359
vn -0.3825684 -7.116795E-05 -0.9238281
vn -0.3825684 -7.116795E-05 -0.9238281
vn -0.3825684 -7.116795E-05 -0.9238281
vn -0.3825684 -7.116795E-05 -0.9238281
vn 0.831543 0 0.5556641
vn 0.831543 0 0.5556641
vn 0.9267578 0 0.3757324
vn 0.831543 0 0.5556641
vn 0.9365234 0 0.3510742
vn 0.9916992 0 0.1286621
vn 0.9916992 0 0.1286621
vn 0.9916992 0 0.1290283
vn 0.9916992 0 0.1290283
vn 0.9916992 0 0.1290283
vn 0.831543 0 0.5556641
vn 0.831543 0 0.5556641
vn 0.9267578 0 0.3757324
vn 0.831543 0 0.5556641
g Dal_Triangle_out_03_0
f 3/3/3 2/2/2 1/1/1
f 4/4/4 3/3/3 1/1/1
f 4/4/4 1/1/1 5/5/5
f 3/3/3 4/4/4 6/6/6
f 7/7/7 3/3/3 6/6/6
f 6/6/6 4/4/4 8/8/8
f 9/9/9 4/4/4 5/5/5
f 4/4/4 9/9/9 8/8/8
f 9/9/9 5/5/5 10/10/10
f 8/8/8 9/9/9 11/11/11
f 12/12/12 9/9/9 10/10/10
f 9/9/9 12/12/12 11/11/11
f 15/15/15 14/14/14 13/13/13
f 16/16/16 15/15/15 13/13/13
f 16/16/16 13/13/13 17/17/17
f 18/18/18 16/16/16 17/17/17
f 18/18/18 17/17/17 19/19/19
f 20/20/20 18/18/18 19/19/19
f 23/23/23 22/22/22 21/21/21
f 22/22/22 24/24/24 21/21/21
f 22/22/22 25/25/25 24/24/24
f 21/21/21 24/24/24 26/26/26
f 25/25/25 27/27/27 24/24/24
f 24/24/24 28/28/28 26/26/26
f 24/24/24 27/27/27 28/28/28
f 26/26/26 28/28/28 29/29/29
f 27/27/27 30/30/30 28/28/28
f 28/28/28 31/31/31 29/29/29
f 28/28/28 30/30/30 31/31/31
f 30/30/30 32/32/32 31/31/31
f 35/35/35 34/34/34 33/33/33
f 36/36/36 35/35/35 33/33/33
f 36/36/36 33/33/33 37/37/37
f 33/33/33 38/38/38 37/37/37
f 36/36/36 37/37/37 39/39/39
f 35/35/35 36/36/36 40/40/40
f 40/40/40 36/36/36 39/39/39
f 40/40/40 39/39/39 41/41/41
f 42/42/42 35/35/35 40/40/40
f 43/43/43 40/40/40 41/41/41
f 42/42/42 40/40/40 43/43/43
f 44/44/44 42/42/42 43/43/43
f 47/47/47 46/46/46 45/45/45
f 45/45/45 48/48/48 47/47/47
f 45/45/45 49/49/49 48/48/48
f 49/49/49 50/50/50 48/48/48
f 50/50/50 51/51/51 48/48/48
f 51/51/51 52/52/52 48/48/48
f 51/51/51 53/53/53 52/52/52
f 51/51/51 54/54/54 53/53/53
f 51/51/51 55/55/55 54/54/54
f 58/58/58 57/57/57 56/56/56
f 56/56/56 59/59/59 58/58/58
f 56/56/56 60/60/60 59/59/59
f 56/56/56 61/61/61 60/60/60
f 61/61/61 62/62/62 60/60/60
f 65/65/65 64/64/64 63/63/63
f 66/66/66 65/65/65 63/63/63
f 66/66/66 63/63/63 67/67/67
f 66/66/66 67/67/67 68/68/68
f 68/68/68 69/69/69 66/66/66
f 72/72/72 71/71/71 70/70/70
f 70/70/70 73/73/73 72/72/72
f 70/70/70 74/74/74 73/73/73
f 70/70/70 75/75/75 74/74/74
f 75/75/75 76/76/76 74/74/74
f 79/79/79 78/78/78 77/77/77
f 79/79/79 77/77/77 80/80/80
f 80/80/80 81/81/81 79/79/79
f 79/79/79 81/81/81 82/82/82
f 81/81/81 83/83/83 82/82/82
f 84/84/84 82/82/82 83/83/83
f 83/83/83 85/85/85 84/84/84
f 84/84/84 86/86/86 82/82/82
f 89/89/89 88/88/88 87/87/87
f 89/89/89 90/90/90 88/88/88
