g Dal_Triangle_in_03
v -0.6259584 -0.2071436 1.332173
v -0.163578 -0.2071439 -0.3012522
v -1.52247 -0.2071438 -0.03952778
v -2.187822 -0.2071437 1.025036
v -1.608049 -0.2071438 -0.0881861
v -2.278018 -0.2071437 0.9837635
v -2.240696 -0.2071436 1.196134
v -2.347049 -0.2071436 1.207148
v -2.190706 -0.2071436 1.286328
v -2.256413 -0.2071436 1.370677
v -2.017593 -0.2071436 1.332173
v -2.030396 -0.2071436 1.430533
v -0.6267976 -0.2071436 1.430533
v -0.6267976 0.1139324 1.430533
v -0.6267976 -0.2071436 1.430533
v -2.030396 -0.2071436 1.430533
v -2.030396 0.1139324 1.430533
v -2.256413 -0.2071436 1.370677
v -2.02668 0.1388572 1.401986
v -0.6264352 0.1388572 1.401986
v -2.256413 0.1139324 1.370677
v -2.347049 -0.2071436 1.207148
v -2.017593 0.1629568 1.332173
v -0.6259584 0.1629568 1.332173
v -2.190706 0.1629568 1.286328
v -2.237343 0.1388572 1.346196
v -2.240696 0.1629568 1.196134
v -2.316181 0.1388572 1.203952
v -2.187822 0.1629568 1.025036
v -2.347049 0.1139324 1.207148
v -2.278018 -0.2071437 0.9837635
v -2.25184 0.1388572 0.9957419
v -1.52247 0.1629566 -0.03952784
v -1.583212 0.138857 -0.07406391
v -2.278018 0.1139323 0.9837634
v -1.608049 -0.2071438 -0.0881861
v -1.608049 0.1139321 -0.08818609
v -1.52247 0.1629566 -0.03952784
v -0.163578 0.1629566 -0.3012522
v -0.6259584 0.1629568 1.332173
v -2.187822 0.1629568 1.025036
v -2.240696 0.1629568 1.196134
v -2.190706 0.1629568 1.286328
v -2.017593 0.1629568 1.332173
v -0.163578 0.1629566 -0.3012522
v -1.52247 0.1629566 -0.03952784
v -1.52247 -0.2071438 -0.03952778
v -0.163578 -0.2071439 -0.3012522
v -0.6259584 0.1629568 1.332173
v -0.163578 0.1629566 -0.3012522
v -0.163578 -0.2071439 -0.3012522
v -0.6259584 -0.2071436 1.332173
v -0.6259584 0.1629568 1.332173
v -0.6259584 -0.2071436 1.332173
v -0.6267976 -0.2071436 1.430533
v -0.6267976 0.1139324 1.430533
v -0.6264352 0.1388572 1.401986
v -1.608049 -0.2071438 -0.0881861
v -1.52247 -0.2071438 -0.03952778
v -1.52247 0.1629566 -0.03952784
v -1.583212 0.138857 -0.07406391
v -1.608049 0.1139321 -0.08818609
vt 0.439209 0.3613281
vt 0.487793 0.5332031
vt 0.3449707 0.5053711
vt 0.2749023 0.3935547
vt 0.3359375 0.5107422
vt 0.265625 0.3979492
vt 0.2695313 0.3757324
vt 0.2583008 0.3745117
vt 0.2746582 0.3662109
vt 0.2678223 0.3571777
vt 0.2929688 0.3613281
vt 0.2915039 0.3510742
vt 0.439209 0.3510742
vt 0.439209 0.3510742
vt 0.439209 0.3510742
vt 0.2915039 0.3510742
vt 0.2915039 0.3510742
vt 0.2678223 0.3571777
vt 0.2919922 0.3540039
vt 0.439209 0.3540039
vt 0.2678223 0.3571777
vt 0.2583008 0.3745117
vt 0.2929688 0.3613281
vt 0.439209 0.3613281
vt 0.2746582 0.3662109
vt 0.2697754 0.3598633
vt 0.2695313 0.3757324
vt 0.2614746 0.3747559
vt 0.2749023 0.3935547
vt 0.2583008 0.3745117
vt 0.265625 0.3979492
vt 0.2683105 0.3967285
vt 0.3449707 0.5053711
vt 0.338623 0.5092773
vt 0.265625 0.3979492
vt 0.3359375 0.5107422
vt 0.3359375 0.5107422
vt 0.3449707 0.5053711
vt 0.487793 0.5332031
vt 0.439209 0.3613281
vt 0.2749023 0.3935547
vt 0.2695313 0.3757324
vt 0.2746582 0.3662109
vt 0.2929688 0.3613281
vt 0.487793 0.5332031
vt 0.3449707 0.5053711
vt 0.3449707 0.5053711
vt 0.487793 0.5332031
vt 0.439209 0.3613281
vt 0.487793 0.5332031
vt 0.487793 0.5332031
vt 0.439209 0.3613281
vt 0.439209 0.3613281
vt 0.439209 0.3613281
vt 0.439209 0.3510742
vt 0.439209 0.3510742
vt 0.439209 0.3540039
vt 0.3359375 0.5107422
vt 0.3449707 0.5053711
vt 0.3449707 0.5053711
vt 0.338623 0.5092773
vt 0.3359375 0.5107422
vn 0 -1 0
vn 0 -1 0
vn 0 -1 0
vn 0 -1 0
vn 0 -1 0
vn 0 -1 0
vn 0 -1 0
vn 0 -1 0
vn 0 -1 0
vn 0 -1 0
vn 0 -1 0
vn 0 -1 0
vn 0 -1 0
vn 0 0.4150391 0.909668
vn 0 0 1
vn -0.1290283 0 0.9916992
vn -0.118103 0.4033203 0.9072266
vn -0.6147461 0 0.7890625
vn -0.06585693 0.8603516 0.5058594
vn 0 0.8657227 0.5004883
vn -0.5644531 0.3950195 0.7246094
vn -0.9946289 0 0.1030273
vn -0.04180908 0.9462891 0.3210449
vn 0 0.9453125 0.326416
vn -0.1860352 0.953125 0.2387695
vn -0.3117676 0.8618164 0.4001465
vn -0.3010254 0.953125 0.03117371
vn -0.5043945 0.8618164 0.05224609
vn -0.2944336 0.9462891 -0.1347656
vn -0.9135742 0.3950195 0.09460449
vn -0.9091797 0 -0.4160156
vn -0.463623 0.8603516 -0.2121582
vn -0.2766113 0.9453125 -0.1729736
vn -0.421875 0.8676758 -0.2636719
vn -0.8320313 0.4033203 -0.3808594
vn -0.8481445 0 -0.5297852
vn -0.7705078 0.4177246 -0.4814453
vn 0 1 0
vn 0 1 0
vn 0 1 0
vn 0 1 0
vn 0 1 0
vn 0 1 0
vn 0 1 0
vn -0.1890869 0 -0.9819336
vn -0.1890869 0 -0.9819336
vn -0.1890869 0 -0.9819336
vn -0.1890869 0 -0.9819336
vn 0.9624023 0 0.2724609
vn 0.9624023 0 0.2724609
vn 0.9624023 0 0.2724609
vn 0.9624023 0 0.2724609
vn 1 -0.0001692772 0.00844574
vn 1 -0.0001692772 0.00844574
vn 1 -0.0001692772 0.00844574
vn 1 -0.0001692772 0.00844574
vn 1 -0.0001692772 0.00844574
vn 0.4943848 0 -0.8691406
vn 0.4943848 0 -0.8691406
vn 0.4943848 0 -0.8691406
vn 0.4943848 0 -0.8691406
vn 0.4943848 0 -0.8691406
g Dal_Triangle_in_03_0
f 3/3/3 2/2/2 1/1/1
f 1/1/1 4/4/4 3/3/3
f 5/5/5 3/3/3 4/4/4
f 6/6/6 5/5/5 4/4/4
f 6/6/6 4/4/4 7/7/7
f 1/1/1 7/7/7 4/4/4
f 8/8/8 6/6/6 7/7/7
f 8/8/8 7/7/7 9/9/9
f 1/1/1 9/9/9 7/7/7
f 10/10/10 8/8/8 9/9/9
f 10/10/10 9/9/9 11/11/11
f 1/1/1 11/11/11 9/9/9
f 12/12/12 10/10/10 11/11/11
f 12/12/12 11/11/11 1/1/1
f 13/13/13 12/12/12 1/1/1
f 16/16/16 15/15/15 14/14/14
f 17/17/17 16/16/16 14/14/14
f 16/16/16 17/17/17 18/18/18
f 19/19/19 17/17/17 14/14/14
f 20/20/20 19/19/19 14/14/14
f 17/17/17 21/21/21 18/18/18
f 18/18/18 21/21/21 22/22/22
f 19/19/19 20/20/20 23/23/23
f 20/20/20 24/24/24 23/23/23
f 19/19/19 23/23/23 25/25/25
f 17/17/17 19/19/19 26/26/26
f 26/26/26 19/19/19 25/25/25
f 21/21/21 17/17/17 26/26/26
f 26/26/26 25/25/25 27/27/27
f 28/28/28 26/26/26 27/27/27
f 21/21/21 26/26/26 28/28/28
f 28/28/28 27/27/27 29/29/29
f 21/21/21 30/30/30 22/22/22
f 30/30/30 21/21/21 28/28/28
f 22/22/22 30/30/30 31/31/31
f 32/32/32 28/28/28 29/29/29
f 30/30/30 28/28/28 32/32/32
f 32/32/32 29/29/29 33/33/33
f 34/34/34 32/32/32 33/33/33
f 30/30/30 35/35/35 31/31/31
f 35/35/35 30/30/30 32/32/32
f 32/32/32 34/34/34 35/35/35
f 36/36/36 31/31/31 35/35/35
f 34/34/34 37/37/37 35/35/35
f 37/37/37 36/36/36 35/35/35
f 40/40/40 39/39/39 38/38/38
f 38/38/38 41/41/41 40/40/40
f 41/41/41 42/42/42 40/40/40
f 42/42/42 43/43/43 40/40/40
f 43/43/43 44/44/44 40/40/40
f 47/47/47 46/46/46 45/45/45
f 48/48/48 47/47/47 45/45/45
f 51/51/51 50/50/50 49/49/49
f 52/52/52 51/51/51 49/49/49
f 55/55/55 54/54/54 53/53/53
f 53/53/53 56/56/56 55/55/55
f 53/53/53 57/57/57 56/56/56
f 60/60/60 59/59/59 58/58/58
f 58/58/58 61/61/61 60/60/60
f 58/58/58 62/62/62 61/61/61
