g Dal_Triangle_out_10
v -0.803714 -0.200946 -4.039855
v -0.8953754 -0.200946 -4.501359
v -0.9071743 -0.08388159 -4.560678
v -0.1538993 0.1601747 -2.509967
v -0.1173459 0.1263826 -2.416528
v -0.1022054 0.04480111 -2.377825
v 0.8953765 -0.200946 -4.501359
v 1.756344 -0.200946 -4.240187
v 1.779489 -0.08388152 -4.296065
v 0.9071758 -0.08388159 -4.560679
v 7.530589E-07 -0.200946 -4.589545
v 0.9071758 0.08746411 -4.560679
v 1.779489 0.08746413 -4.296065
v 7.504152E-07 0.08746408 -4.650027
v 7.504152E-07 -0.08388159 -4.650027
v -0.8953754 -0.200946 -4.501359
v -0.9071743 0.08746411 -4.560678
v -0.9071743 -0.08388159 -4.560678
v 0.9071758 0.08746411 -4.560679
v 1.779489 0.08746413 -4.296065
v 1.756344 0.2045286 -4.240187
v 0.8953765 0.2045286 -4.501359
v 7.504152E-07 0.08746408 -4.650027
v 7.530589E-07 0.2045286 -4.589545
v -0.9071743 0.08746411 -4.560678
v -0.8953754 0.2045286 -4.501359
v 7.530589E-07 0.2045286 -4.589545
v -0.8242084 0.2045287 -4.14358
v -0.8953754 0.2045286 -4.501359
v 2.921671E-07 0.2045286 -4.224758
v -0.8035862 0.1601744 -4.039903
v 0.8953765 0.2045286 -4.501359
v 2.967878E-07 0.1601744 -4.119049
v 0.82421 0.2045287 -4.14358
v 1.756344 0.2045286 -4.240187
v 0.8035868 0.1601744 -4.039903
v 1.616745 0.2045287 -3.903167
v 1.576292 0.1601745 -3.805505
v 0.279231 0.04480114 -2.214296
v 0.279231 -0.2009457 -2.214296
v 0.1022056 -0.2009457 -2.377825
v 0.1022056 0.04480111 -2.377825
v -0.1022054 -0.2009457 -2.377825
v 0.3043627 0.1263826 -2.245127
v -0.1022054 0.04480111 -2.377825
v 0.1187591 0.1263826 -2.416529
v 0.3650364 0.1601747 -2.319561
v -0.1173459 0.1263826 -2.416528
v 0.1587223 0.1601747 -2.509967
v -0.1538993 0.1601747 -2.509967
v 0.8953765 -0.200946 -4.501359
v 7.530589E-07 -0.200946 -4.589545
v -0.8953754 -0.200946 -4.501359
v 1.756344 -0.200946 -4.240187
v -0.803714 -0.200946 -4.039855
v 1.576292 -0.2009459 -3.805505
v -0.1541482 -0.2009457 -2.510673
v 0.3650364 -0.2009457 -2.319561
v 0.1022056 -0.2009457 -2.377825
v -0.1022054 -0.2009457 -2.377825
v 0.279231 -0.2009457 -2.214296
v -0.8035862 0.1601744 -4.039903
v 2.967878E-07 0.1601744 -4.119049
v 0.8035868 0.1601744 -4.039903
v 1.576292 0.1601745 -3.805505
v -0.1538993 0.1601747 -2.509967
v 0.1587223 0.1601747 -2.509967
v 0.3650364 0.1601747 -2.319561
v -0.1538993 0.1601747 -2.509967
v -0.1541482 -0.2009457 -2.510673
v -0.803714 -0.200946 -4.039855
v -0.8035862 0.1601744 -4.039903
v -0.9071743 -0.08388159 -4.560678
v -0.9071743 0.08746411 -4.560678
v -0.9071743 0.08746411 -4.560678
v -0.8953754 0.2045286 -4.501359
v -0.8035862 0.1601744 -4.039903
v -0.8242084 0.2045287 -4.14358
v 0.279231 0.04480114 -2.214296
v 0.3043627 0.1263826 -2.245127
v 0.3650364 0.1601747 -2.319561
v 0.279231 -0.2009457 -2.214296
v 0.3650364 -0.2009457 -2.319561
v 1.576292 0.1601745 -3.805505
v 1.576292 -0.2009459 -3.805505
v 1.779489 -0.08388152 -4.296065
v 1.756344 -0.200946 -4.240187
v 1.779489 0.08746413 -4.296065
v 1.576292 0.1601745 -3.805505
v 1.756344 0.2045286 -4.240187
v 1.779489 0.08746413 -4.296065
v 1.616745 0.2045287 -3.903167
v -0.1022054 -0.2009457 -2.377825
v -0.1541482 -0.2009457 -2.510673
v -0.1538993 0.1601747 -2.509967
v -0.1022054 0.04480111 -2.377825
vt 0.4204102 0.9262695
vt 0.4108887 0.9746094
vt 0.409668 0.980957
vt 0.4887695 0.7651367
vt 0.4926758 0.7553711
vt 0.4941406 0.7514648
vt 0.5991211 0.9746094
vt 0.6894531 0.9472656
vt 0.6918945 0.953125
vt 0.6005859 0.980957
vt 0.5048828 0.9838867
vt 0.6005859 0.980957
vt 0.6918945 0.953125
vt 0.5048828 0.9902344
vt 0.5048828 0.9902344
vt 0.4108887 0.9746094
vt 0.409668 0.980957
vt 0.409668 0.980957
vt 0.6005859 0.980957
vt 0.6918945 0.953125
vt 0.6894531 0.9472656
vt 0.5991211 0.9746094
vt 0.5048828 0.9902344
vt 0.5048828 0.9838867
vt 0.409668 0.980957
vt 0.4108887 0.9746094
vt 0.5048828 0.9838867
vt 0.418457 0.9370117
vt 0.4108887 0.9746094
vt 0.5048828 0.9453125
vt 0.4204102 0.9262695
vt 0.5991211 0.9746094
vt 0.5048828 0.9345703
vt 0.5917969 0.9370117
vt 0.6894531 0.9472656
vt 0.5893555 0.9262695
vt 0.6748047 0.9116211
vt 0.6708984 0.9013672
vt 0.5341797 0.734375
vt 0.5341797 0.734375
vt 0.515625 0.7514648
vt 0.515625 0.7514648
vt 0.4941406 0.7514648
vt 0.5371094 0.7373047
vt 0.4941406 0.7514648
vt 0.5175781 0.7553711
vt 0.543457 0.7451172
vt 0.4926758 0.7553711
vt 0.5214844 0.7651367
vt 0.4887695 0.7651367
vt 0.5991211 0.9746094
vt 0.5048828 0.9838867
vt 0.4108887 0.9746094
vt 0.6894531 0.9472656
vt 0.4204102 0.9262695
vt 0.6708984 0.9013672
vt 0.4887695 0.7651367
vt 0.543457 0.7451172
vt 0.515625 0.7514648
vt 0.4941406 0.7514648
vt 0.5341797 0.734375
vt 0.4204102 0.9262695
vt 0.5048828 0.9345703
vt 0.5893555 0.9262695
vt 0.6708984 0.9013672
vt 0.4887695 0.7651367
vt 0.5214844 0.7651367
vt 0.543457 0.7451172
vt 0.4887695 0.7651367
vt 0.4887695 0.7651367
vt 0.4204102 0.9262695
vt 0.4204102 0.9262695
vt 0.409668 0.980957
vt 0.409668 0.980957
vt 0.409668 0.980957
vt 0.4108887 0.9746094
vt 0.4204102 0.9262695
vt 0.418457 0.9370117
vt 0.5341797 0.734375
vt 0.5371094 0.7373047
vt 0.543457 0.7451172
vt 0.5341797 0.734375
vt 0.543457 0.7451172
vt 0.6708984 0.9013672
vt 0.6708984 0.9013672
vt 0.6918945 0.953125
vt 0.6894531 0.9472656
vt 0.6918945 0.953125
vt 0.6708984 0.9013672
vt 0.6894531 0.9472656
vt 0.6918945 0.953125
vt 0.6748047 0.9116211
vt 0.4941406 0.7514648
vt 0.4887695 0.7651367
vt 0.4887695 0.7651367
vt 0.4941406 0.7514648
vn -0.9555664 0.0001398325 0.2944336
vn -0.980957 0.000154376 0.1949463
vn -0.980957 0.000154376 0.1949463
vn -0.925293 5.215406E-05 0.3791504
vn -0.9311523 -3.808737E-05 0.3642578
vn -0.9311523 -3.808737E-05 0.3642578
vn 0.1733398 -0.4589844 -0.871582
vn 0.2580566 -0.4572754 -0.8510742
vn 0.2824707 -0.2318115 -0.9306641
vn 0.1896973 -0.2329102 -0.9536133
vn 0 -0.4589844 -0.8886719
vn 0.1896973 0.2329102 -0.9536133
vn 0.2824707 0.2318115 -0.9306641
vn 0 0.2329102 -0.9726563
vn 0 -0.2329102 -0.9726563
vn -0.0871582 -0.4572754 -0.8852539
vn -0.09533691 0.2318115 -0.9682617
vn -0.09533691 -0.2318115 -0.9682617
vn 0.1896973 0.2329102 -0.9536133
vn 0.2824707 0.2318115 -0.9306641
vn 0.2580566 0.4572754 -0.8510742
vn 0.1733398 0.4589844 -0.871582
vn 0 0.2329102 -0.9726563
vn 0 0.4589844 -0.8886719
vn -0.09533691 0.2318115 -0.9682617
vn -0.0871582 0.4572754 -0.8852539
vn 0 1 0
vn 0.01826477 0.9824219 0.1854248
vn 0 1 0
vn 0 0.9824219 0.1854248
vn 0.03808594 0.9213867 0.3867188
vn 0 1 0
vn 0 0.921875 0.3869629
vn -0.03616333 0.9824219 0.1818848
vn 0 1 0
vn -0.07550049 0.921875 0.3793945
vn -0.05407715 0.9824219 0.1782227
vn -0.112793 0.9213867 0.3718262
vn -0.6616211 0.2225342 0.7163086
vn -0.6787109 0 0.734375
vn -0.3642578 0 0.9311523
vn -0.3510742 0.2495117 0.9023438
vn 0 0 1
vn -0.4572754 0.7387695 0.4953613
vn 0 0.2307129 0.9731445
vn -0.2149658 0.8051758 0.5522461
vn -0.2255859 0.9428711 0.2443848
vn 0 0.7817383 0.6235352
vn -0.1164551 0.9487305 0.2932129
vn 0 0.9404297 0.3400879
vn 0 -1 0
vn 0 -1 0
vn 0 -1 0
vn 0 -1 0
vn 0 -1 0
vn 0 -1 0
vn 0 -1 0
vn 0 -1 0
vn 0 -1 0
vn 0 -1 0
vn 0 -1 0
vn 0 1 0
vn 0 1 0
vn 0 1 0
vn 0 1 0
vn 0 1 0
vn 0 1 0
vn 0 1 0
vn -0.925293 5.215406E-05 0.3791504
vn -0.9257813 4.303455E-05 0.3776855
vn -0.9555664 0.0001398325 0.2944336
vn -0.9589844 0.0001416206 0.2834473
vn -0.980957 0.000154376 0.1949463
vn -0.980957 0.000154376 0.1949463
vn -0.980957 0.000154376 0.1949463
vn -0.980957 0.000154376 0.1949463
vn -0.9589844 0.0001416206 0.2834473
vn -0.980957 0.000154376 0.1949463
vn 0.7749023 0 0.6318359
vn 0.7749023 0 0.6318359
vn 0.7749023 0 0.6318359
vn 0.7749023 0 0.6318359
vn 0.7749023 0 0.6318359
vn 0.8666992 0 0.4985352
vn 0.8583984 0 0.5126953
vn 0.9238281 0 0.3825684
vn 0.9238281 0 0.3825684
vn 0.9238281 0 0.3825684
vn 0.8666992 0 0.4985352
vn 0.9238281 0 0.3825684
vn 0.9238281 0 0.3825684
vn 0.9238281 0 0.3825684
vn -0.9311523 -3.808737E-05 0.3642578
vn -0.9257813 4.303455E-05 0.3776855
vn -0.925293 5.215406E-05 0.3791504
vn -0.9311523 -3.808737E-05 0.3642578
g Dal_Triangle_out_10_0
f 3/3/3 2/2/2 1/1/1
f 6/6/6 5/5/5 4/4/4
f 9/9/9 8/8/8 7/7/7
f 10/10/10 9/9/9 7/7/7
f 10/10/10 7/7/7 11/11/11
f 9/9/9 10/10/10 12/12/12
f 13/13/13 9/9/9 12/12/12
f 12/12/12 10/10/10 14/14/14
f 15/15/15 10/10/10 11/11/11
f 10/10/10 15/15/15 14/14/14
f 15/15/15 11/11/11 16/16/16
f 14/14/14 15/15/15 17/17/17
f 18/18/18 15/15/15 16/16/16
f 15/15/15 18/18/18 17/17/17
f 21/21/21 20/20/20 19/19/19
f 22/22/22 21/21/21 19/19/19
f 22/22/22 19/19/19 23/23/23
f 24/24/24 22/22/22 23/23/23
f 24/24/24 23/23/23 25/25/25
f 26/26/26 24/24/24 25/25/25
f 29/29/29 28/28/28 27/27/27
f 28/28/28 30/30/30 27/27/27
f 28/28/28 31/31/31 30/30/30
f 27/27/27 30/30/30 32/32/32
f 31/31/31 33/33/33 30/30/30
f 30/30/30 34/34/34 32/32/32
f 30/30/30 33/33/33 34/34/34
f 32/32/32 34/34/34 35/35/35
f 33/33/33 36/36/36 34/34/34
f 34/34/34 37/37/37 35/35/35
f 34/34/34 36/36/36 37/37/37
f 36/36/36 38/38/38 37/37/37
f 41/41/41 40/40/40 39/39/39
f 42/42/42 41/41/41 39/39/39
f 43/43/43 41/41/41 42/42/42
f 42/42/42 39/39/39 44/44/44
f 45/45/45 43/43/43 42/42/42
f 46/46/46 42/42/42 44/44/44
f 45/45/45 42/42/42 46/46/46
f 46/46/46 44/44/44 47/47/47
f 48/48/48 45/45/45 46/46/46
f 49/49/49 46/46/46 47/47/47
f 48/48/48 46/46/46 49/49/49
f 50/50/50 48/48/48 49/49/49
f 53/53/53 52/52/52 51/51/51
f 51/51/51 54/54/54 53/53/53
f 54/54/54 55/55/55 53/53/53
f 54/54/54 56/56/56 55/55/55
f 56/56/56 57/57/57 55/55/55
f 56/56/56 58/58/58 57/57/57
f 58/58/58 59/59/59 57/57/57
f 57/57/57 59/59/59 60/60/60
f 58/58/58 61/61/61 59/59/59
f 64/64/64 63/63/63 62/62/62
f 62/62/62 65/65/65 64/64/64
f 62/62/62 66/66/66 65/65/65
f 66/66/66 67/67/67 65/65/65
f 67/67/67 68/68/68 65/65/65
f 71/71/71 70/70/70 69/69/69
f 72/72/72 71/71/71 69/69/69
f 71/71/71 72/72/72 73/73/73
f 72/72/72 74/74/74 73/73/73
f 77/77/77 76/76/76 75/75/75
f 77/77/77 78/78/78 76/76/76
f 81/81/81 80/80/80 79/79/79
f 81/81/81 79/79/79 82/82/82
f 82/82/82 83/83/83 81/81/81
f 81/81/81 83/83/83 84/84/84
f 83/83/83 85/85/85 84/84/84
f 86/86/86 84/84/84 85/85/85
f 85/85/85 87/87/87 86/86/86
f 86/86/86 88/88/88 84/84/84
f 91/91/91 90/90/90 89/89/89
f 90/90/90 92/92/92 89/89/89
f 95/95/95 94/94/94 93/93/93
f 93/93/93 96/96/96 95/95/95
