g Dal_Triangle_in_05
v 1.278625 0.1139321 -0.6152665
v 1.278625 -0.2071439 -0.6152664
v 2.278018 -0.2071437 0.9837632
v 2.278018 0.1139323 0.9837632
v 2.347049 -0.2071436 1.207148
v 2.25184 0.1388572 0.9957417
v 1.254445 0.1388569 -0.6000903
v 2.347049 0.1139324 1.207148
v 2.256413 -0.2071436 1.370677
v 2.187823 0.1629568 1.025036
v 1.195315 0.1629565 -0.5629765
v 2.240696 0.1629568 1.196134
v 2.316181 0.1388572 1.203951
v 2.190706 0.1629568 1.286328
v 2.237343 0.1388572 1.346196
v 2.017593 0.1629568 1.332173
v 2.256413 0.1139324 1.370677
v 2.030396 -0.2071436 1.430533
v 2.02668 0.1388572 1.401985
v 0.9980641 0.1629568 1.332173
v 1.000893 0.1388572 1.401986
v 2.030396 0.1139324 1.430533
v 1.00205 -0.2071436 1.430533
v 1.00205 0.1139324 1.430533
v 0.9980641 0.1629568 1.332173
v 1.195315 0.1629565 -0.5629765
v 2.187823 0.1629568 1.025036
v 2.240696 0.1629568 1.196134
v 2.190706 0.1629568 1.286328
v 2.017593 0.1629568 1.332173
v 1.195315 -0.2071439 -0.5629765
v 2.278018 -0.2071437 0.9837632
v 1.278625 -0.2071439 -0.6152664
v 2.187823 -0.2071437 1.025036
v 2.347049 -0.2071436 1.207148
v 0.9980641 -0.2071436 1.332173
v 2.240696 -0.2071436 1.196134
v 2.256413 -0.2071436 1.370677
v 2.190706 -0.2071436 1.286328
v 2.030396 -0.2071436 1.430533
v 2.017593 -0.2071436 1.332173
v 1.00205 -0.2071436 1.430533
v 0.9980641 0.1629568 1.332173
v 0.9980641 -0.2071436 1.332173
v 1.195315 -0.2071439 -0.5629765
v 1.195315 0.1629565 -0.5629765
v 1.00205 -0.2071436 1.430533
v 0.9980641 -0.2071436 1.332173
v 0.9980641 0.1629568 1.332173
v 1.00205 0.1139324 1.430533
v 1.000893 0.1388572 1.401986
v 1.195315 -0.2071439 -0.5629765
v 1.278625 -0.2071439 -0.6152664
v 1.278625 0.1139321 -0.6152665
v 1.254445 0.1388569 -0.6000903
v 1.195315 0.1629565 -0.5629765
vt 0.6391602 0.565918
vt 0.6391602 0.565918
vt 0.7446289 0.3979492
vt 0.7446289 0.3979492
vt 0.7519531 0.3745117
vt 0.7416992 0.3967285
vt 0.6367188 0.5644531
vt 0.7519531 0.3745117
vt 0.7421875 0.3571777
vt 0.7348633 0.3935547
vt 0.6308594 0.5605469
vt 0.7407227 0.3757324
vt 0.7485352 0.3747559
vt 0.7353516 0.3662109
vt 0.7402344 0.3598633
vt 0.7172852 0.3613281
vt 0.7421875 0.3571777
vt 0.7182617 0.3510742
vt 0.7182617 0.3540039
vt 0.6098633 0.3613281
vt 0.6103516 0.3540039
vt 0.7182617 0.3510742
vt 0.6103516 0.3510742
vt 0.6103516 0.3510742
vt 0.6098633 0.3613281
vt 0.6308594 0.5605469
vt 0.7348633 0.3935547
vt 0.7407227 0.3757324
vt 0.7353516 0.3662109
vt 0.7172852 0.3613281
vt 0.6308594 0.5605469
vt 0.7446289 0.3979492
vt 0.6391602 0.565918
vt 0.7348633 0.3935547
vt 0.7519531 0.3745117
vt 0.6098633 0.3613281
vt 0.7407227 0.3757324
vt 0.7421875 0.3571777
vt 0.7353516 0.3662109
vt 0.7182617 0.3510742
vt 0.7172852 0.3613281
vt 0.6103516 0.3510742
vt 0.6098633 0.3613281
vt 0.6098633 0.3613281
vt 0.6308594 0.5605469
vt 0.6308594 0.5605469
vt 0.6103516 0.3510742
vt 0.6098633 0.3613281
vt 0.6098633 0.3613281
vt 0.6103516 0.3510742
vt 0.6103516 0.3540039
vt 0.6308594 0.5605469
vt 0.6391602 0.565918
vt 0.6391602 0.565918
vt 0.6367188 0.5644531
vt 0.6308594 0.5605469
vn 0.7719727 0.4135742 -0.482666
vn 0.8481445 0 -0.5297852
vn 0.9091797 0 -0.4160156
vn 0.8320313 0.4033203 -0.3808594
vn 0.9946289 0 0.1030273
vn 0.463623 0.8603516 -0.2121582
vn 0.425293 0.8652344 -0.2658691
vn 0.9135742 0.3950195 0.09460449
vn 0.6147461 0 0.7890625
vn 0.2944336 0.9462891 -0.1347656
vn 0.2766113 0.9453125 -0.1729736
vn 0.3010254 0.953125 0.03117371
vn 0.5043945 0.8618164 0.05224609
vn 0.1860352 0.953125 0.2387695
vn 0.3117676 0.8618164 0.4001465
vn 0.04180908 0.9462891 0.3210449
vn 0.5644531 0.3950195 0.7246094
vn 0.1290283 0 0.9916992
vn 0.06585693 0.8603516 0.5058594
vn 0 0.9453125 0.326416
vn 0 0.8671875 0.4975586
vn 0.118103 0.4033203 0.9072266
vn 0 0 1
vn 0 0.4177246 0.9086914
vn 0 1 0
vn 0 1 0
vn 0 1 0
vn 0 1 0
vn 0 1 0
vn 0 1 0
vn 0 -1 0
vn 0 -1 0
vn 0 -1 0
vn 0 -1 0
vn 0 -1 0
vn 0 -1 0
vn 0 -1 0
vn 0 -1 0
vn 0 -1 0
vn 0 -1 0
vn 0 -1 0
vn 0 -1 0
vn -0.9946289 0 -0.1035156
vn -0.9946289 0 -0.1035156
vn -0.9946289 0 -0.1035156
vn -0.9946289 0 -0.1035156
vn -0.9990234 0 0.04049683
vn -0.9990234 0 0.04049683
vn -0.9990234 0 0.04049683
vn -0.9990234 0 0.04049683
vn -0.9990234 0 0.04049683
vn -0.5317383 0 -0.847168
vn -0.5317383 0 -0.847168
vn -0.5317383 0 -0.847168
vn -0.5317383 0 -0.847168
vn -0.5317383 0 -0.847168
g Dal_Triangle_in_05_0
f 3/3/3 2/2/2 1/1/1
f 4/4/4 3/3/3 1/1/1
f 5/5/5 3/3/3 4/4/4
f 6/6/6 4/4/4 1/1/1
f 7/7/7 6/6/6 1/1/1
f 8/8/8 5/5/5 4/4/4
f 9/9/9 5/5/5 8/8/8
f 6/6/6 7/7/7 10/10/10
f 7/7/7 11/11/11 10/10/10
f 6/6/6 10/10/10 12/12/12
f 4/4/4 6/6/6 13/13/13
f 13/13/13 6/6/6 12/12/12
f 8/8/8 4/4/4 13/13/13
f 13/13/13 12/12/12 14/14/14
f 15/15/15 13/13/13 14/14/14
f 8/8/8 13/13/13 15/15/15
f 15/15/15 14/14/14 16/16/16
f 17/17/17 9/9/9 8/8/8
f 17/17/17 8/8/8 15/15/15
f 18/18/18 9/9/9 17/17/17
f 19/19/19 15/15/15 16/16/16
f 17/17/17 15/15/15 19/19/19
f 19/19/19 16/16/16 20/20/20
f 21/21/21 19/19/19 20/20/20
f 22/22/22 18/18/18 17/17/17
f 22/22/22 17/17/17 19/19/19
f 19/19/19 21/21/21 22/22/22
f 23/23/23 18/18/18 22/22/22
f 21/21/21 24/24/24 22/22/22
f 24/24/24 23/23/23 22/22/22
f 27/27/27 26/26/26 25/25/25
f 25/25/25 28/28/28 27/27/27
f 25/25/25 29/29/29 28/28/28
f 25/25/25 30/30/30 29/29/29
f 33/33/33 32/32/32 31/31/31
f 32/32/32 34/34/34 31/31/31
f 32/32/32 35/35/35 34/34/34
f 36/36/36 31/31/31 34/34/34
f 35/35/35 37/37/37 34/34/34
f 34/34/34 37/37/37 36/36/36
f 35/35/35 38/38/38 37/37/37
f 38/38/38 39/39/39 37/37/37
f 37/37/37 39/39/39 36/36/36
f 38/38/38 40/40/40 39/39/39
f 39/39/39 41/41/41 36/36/36
f 40/40/40 41/41/41 39/39/39
f 42/42/42 36/36/36 41/41/41
f 40/40/40 42/42/42 41/41/41
f 45/45/45 44/44/44 43/43/43
f 46/46/46 45/45/45 43/43/43
f 49/49/49 48/48/48 47/47/47
f 47/47/47 50/50/50 49/49/49
f 50/50/50 51/51/51 49/49/49
f 54/54/54 53/53/53 52/52/52
f 52/52/52 55/55/55 54/54/54
f 52/52/52 56/56/56 55/55/55
