g Dal_Triangle_in_02
v -1.608049 0.1139321 -0.08818609
v -1.608049 -0.2071438 -0.0881861
v -0.7537184 -0.2071441 -1.455116
v -0.7537184 0.1139319 -1.455116
v -0.730589 0.1388568 -1.438261
v -1.583212 0.138857 -0.07406391
v -0.6740256 0.1629564 -1.39704
v -1.52247 0.1629566 -0.03952784
v 1.195315 0.1629565 -0.5629765
v -0.163578 0.1629566 -0.3012522
v -1.52247 0.1629566 -0.03952784
v -0.6740256 0.1629564 -1.39704
v 1.195315 -0.2071439 -0.5629765
v -1.52247 -0.2071438 -0.03952778
v -0.163578 -0.2071439 -0.3012522
v -0.6740256 -0.2071441 -1.39704
v -0.7537184 -0.2071441 -1.455116
v -1.608049 -0.2071438 -0.0881861
v 1.195315 0.1629565 -0.5629765
v -0.6740256 0.1629564 -1.39704
v -0.6740256 -0.2071441 -1.39704
v 1.195315 -0.2071439 -0.5629765
v -0.7537184 -0.2071441 -1.455116
v -0.6740256 -0.2071441 -1.39704
v -0.6740256 0.1629564 -1.39704
v -0.730589 0.1388568 -1.438261
v -0.7537184 0.1139319 -1.455116
v -0.163578 0.1629566 -0.3012522
v -1.52247 -0.2071438 -0.03952778
v -1.52247 0.1629566 -0.03952784
v -0.163578 -0.2071439 -0.3012522
v 1.195315 0.1629565 -0.5629765
v 1.195315 -0.2071439 -0.5629765
v -1.583212 0.138857 -0.07406391
v -1.52247 0.1629566 -0.03952784
v -1.52247 -0.2071438 -0.03952778
v -1.608049 -0.2071438 -0.0881861
v -1.608049 0.1139321 -0.08818609
vt 0.3359375 0.5107422
vt 0.3359375 0.5107422
vt 0.4257813 0.6542969
vt 0.4257813 0.6542969
vt 0.4282227 0.6523438
vt 0.338623 0.5092773
vt 0.434082 0.6484375
vt 0.3449707 0.5053711
vt 0.6308594 0.5605469
vt 0.487793 0.5332031
vt 0.3449707 0.5053711
vt 0.434082 0.6484375
vt 0.6308594 0.5605469
vt 0.3449707 0.5053711
vt 0.487793 0.5332031
vt 0.434082 0.6484375
vt 0.4257813 0.6542969
vt 0.3359375 0.5107422
vt 0.6308594 0.5605469
vt 0.434082 0.6484375
vt 0.434082 0.6484375
vt 0.6308594 0.5605469
vt 0.4257813 0.6542969
vt 0.434082 0.6484375
vt 0.434082 0.6484375
vt 0.4282227 0.6523438
vt 0.4257813 0.6542969
vt 0.487793 0.5332031
vt 0.3449707 0.5053711
vt 0.3449707 0.5053711
vt 0.487793 0.5332031
vt 0.6308594 0.5605469
vt 0.6308594 0.5605469
vt 0.338623 0.5092773
vt 0.3449707 0.5053711
vt 0.3449707 0.5053711
vt 0.3359375 0.5107422
vt 0.3359375 0.5107422
vn -0.7734375 0.4094238 -0.4833984
vn -0.8481445 0 -0.5297852
vn -0.8481445 0 -0.5297852
vn -0.7749023 0.4064941 -0.4841309
vn -0.4306641 0.8613281 -0.269043
vn -0.4282227 0.8632813 -0.2675781
vn -0.2766113 0.9453125 -0.1729736
vn -0.2766113 0.9453125 -0.1729736
vn 0 1 0
vn 0 1 0
vn 0 1 0
vn 0 1 0
vn 0 -1 0
vn 0 -1 0
vn 0 -1 0
vn 0 -1 0
vn 0 -1 0
vn 0 -1 0
vn 0.4074707 0 -0.9130859
vn 0.4074707 0 -0.9130859
vn 0.4074707 0 -0.9130859
vn 0.4074707 0 -0.9130859
vn 0.5888672 0 -0.8081055
vn 0.5888672 0 -0.8081055
vn 0.5888672 0 -0.8081055
vn 0.5888672 0 -0.8081055
vn 0.5888672 0 -0.8081055
vn 0.1890869 0 0.9819336
vn 0.1890869 0 0.9819336
vn 0.1890869 0 0.9819336
vn 0.1890869 0 0.9819336
vn 0.1890869 0 0.9819336
vn 0.1890869 0 0.9819336
vn -0.4943848 0 0.8691406
vn -0.4943848 0 0.8691406
vn -0.4943848 0 0.8691406
vn -0.4943848 0 0.8691406
vn -0.4943848 0 0.8691406
g Dal_Triangle_in_02_0
f 3/3/3 2/2/2 1/1/1
f 4/4/4 3/3/3 1/1/1
f 5/5/5 4/4/4 1/1/1
f 6/6/6 5/5/5 1/1/1
f 5/5/5 6/6/6 7/7/7
f 6/6/6 8/8/8 7/7/7
f 11/11/11 10/10/10 9/9/9
f 12/12/12 11/11/11 9/9/9
f 15/15/15 14/14/14 13/13/13
f 14/14/14 16/16/16 13/13/13
f 17/17/17 16/16/16 14/14/14
f 18/18/18 17/17/17 14/14/14
f 21/21/21 20/20/20 19/19/19
f 22/22/22 21/21/21 19/19/19
f 25/25/25 24/24/24 23/23/23
f 23/23/23 26/26/26 25/25/25
f 23/23/23 27/27/27 26/26/26
f 30/30/30 29/29/29 28/28/28
f 29/29/29 31/31/31 28/28/28
f 28/28/28 31/31/31 32/32/32
f 31/31/31 33/33/33 32/32/32
f 36/36/36 35/35/35 34/34/34
f 34/34/34 37/37/37 36/36/36
f 34/34/34 38/38/38 37/37/37
