g Curtain
v 0.75 -1 0.2092855
v 0.75 1.506644 0.2092855
v 1 1.246313 0
v 1 -1 0
v -0.25 -1 0.2092855
v -0.25 1.715929 0.2092855
v 0 1.715929 0
v 0 -1 0
v -0.75 -1 0.2092855
v -0.75 1.506644 0.2092855
v -0.5 1.715929 0
v -0.5 -1 0
v 0.25 -1 0.2092855
v 0.25 1.715929 0.2092855
v 0.5 1.715929 0
v 0.5 -1 0
v 0 -1 0
v 0 1.715929 0
v 0.25 1.715929 0.2092855
v 0.25 -1 0.2092855
v -0.5 -1 0
v -0.5 1.715929 0
v -0.25 1.715929 0.2092855
v -0.25 -1 0.2092855
v -1 -1 0
v -1 1.246313 0
v -0.75 1.506644 0.2092855
v -0.75 -1 0.2092855
v 0.5 -1 0
v 0.5 1.715929 0
v 0.75 1.506644 0.2092855
v 0.75 -1 0.2092855
vt 0.875 0
vt 0.875 1
vt 1 1
vt 1 0
vt 0.375 0
vt 0.375 1
vt 0.5 1
vt 0.5 0
vt 0.125 0
vt 0.125 1
vt 0.25 1
vt 0.25 0
vt 0.625 0
vt 0.625 1
vt 0.75 1
vt 0.75 0
vt 0.5 0
vt 0.5 1
vt 0.625 1
vt 0.625 0
vt 0.25 0
vt 0.25 1
vt 0.375 1
vt 0.375 0
vt 0 0
vt 0 1
vt 0.125 1
vt 0.125 0
vt 0.75 0
vt 0.75 1
vt 0.875 1
vt 0.875 0
vn 0.6420898 0 0.7666016
vn 0.6420898 0 0.7666016
vn 0.6420898 0 0.7666016
vn 0.6420898 0 0.7666016
vn 0.6420898 0 0.7666016
vn 0.6420898 0 0.7666016
vn 0.6420898 0 0.7666016
vn 0.6420898 0 0.7666016
vn 0.6420898 0 0.7666016
vn 0.6420898 0 0.7666016
vn 0.6420898 0 0.7666016
vn 0.6420898 0 0.7666016
vn 0.6420898 0 0.7666016
vn 0.6420898 0 0.7666016
vn 0.6420898 0 0.7666016
vn 0.6420898 0 0.7666016
vn -0.6420898 0 0.7666016
vn -0.6420898 0 0.7666016
vn -0.6420898 0 0.7666016
vn -0.6420898 0 0.7666016
vn -0.6420898 0 0.7666016
vn -0.6420898 0 0.7666016
vn -0.6420898 0 0.7666016
vn -0.6420898 0 0.7666016
vn -0.6420898 0 0.7666016
vn -0.6420898 0 0.7666016
vn -0.6420898 0 0.7666016
vn -0.6420898 0 0.7666016
vn -0.6420898 0 0.7666016
vn -0.6420898 0 0.7666016
vn -0.6420898 0 0.7666016
vn -0.6420898 0 0.7666016
g Curtain_0
f 3/3/3 2/2/2 1/1/1
f 4/4/4 3/3/3 1/1/1
f 7/7/7 6/6/6 5/5/5
f 8/8/8 7/7/7 5/5/5
f 11/11/11 10/10/10 9/9/9
f 12/12/12 11/11/11 9/9/9
f 15/15/15 14/14/14 13/13/13
f 16/16/16 15/15/15 13/13/13
f 19/19/19 18/18/18 17/17/17
f 20/20/20 19/19/19 17/17/17
f 23/23/23 22/22/22 21/21/21
f 24/24/24 23/23/23 21/21/21
f 27/27/27 26/26/26 25/25/25
f 28/28/28 27/27/27 25/25/25
f 31/31/31 30/30/30 29/29/29
f 32/32/32 31/31/31 29/29/29
