g Cube.016
v -0.3 1.555635 -1.979899
v -0.3 1.685008 -1.460509
v -0.3 -6.155635 3.579899
v -0.3 -6.979899 3.555635
v -0.3 1.685008 -1.460509
v 0.3 1.685008 -1.460509
v 0.3 -6.155635 3.579899
v -0.3 -6.155635 3.579899
v 0.3 1.685008 -1.460509
v 0.3 1.555635 -1.979899
v 0.3 -6.979899 3.555635
v 0.3 -6.155635 3.579899
v 0.3 1.555635 -1.979899
v -0.3 1.555635 -1.979899
v -0.3 -6.979899 3.555635
v 0.3 -6.979899 3.555635
v -0.3 1.685008 -1.460509
v -0.3 1.555635 -1.979899
v 0.3 1.555635 -1.979899
v 0.3 1.685008 -1.460509
v 0.3 -6.155635 3.579899
v 0.3 -6.979899 3.555635
v -0.3 -6.979899 3.555635
v -0.3 -6.155635 3.579899
v 3.7 1.555635 -1.979899
v 3.7 1.685008 -1.460509
v 3.7 -6.155635 3.579899
v 3.7 -6.979899 3.555635
v 3.7 1.685008 -1.460509
v 4.3 1.685008 -1.460509
v 4.3 -6.155635 3.579899
v 3.7 -6.155635 3.579899
v 4.3 1.685008 -1.460509
v 4.3 1.555635 -1.979899
v 4.3 -6.979899 3.555635
v 4.3 -6.155635 3.579899
v 4.3 1.555635 -1.979899
v 3.7 1.555635 -1.979899
v 3.7 -6.979899 3.555635
v 4.3 -6.979899 3.555635
v 3.7 1.685008 -1.460509
v 3.7 1.555635 -1.979899
v 4.3 1.555635 -1.979899
v 4.3 1.685008 -1.460509
v 4.3 -6.155635 3.579899
v 4.3 -6.979899 3.555635
v 3.7 -6.979899 3.555635
v 3.7 -6.155635 3.579899
vt 0.2095947 0.9589844
vt 0.2095947 0.9589844
vt 0.2095947 0.9589844
vt 0.2095947 0.9589844
vt 0.2095947 0.9589844
vt 0.2095947 0.9589844
vt 0.2095947 0.9589844
vt 0.2095947 0.9589844
vt 0.2095947 0.9589844
vt 0.2095947 0.9589844
vt 0.2095947 0.9589844
vt 0.2095947 0.9589844
vt 0.2095947 0.9589844
vt 0.2095947 0.9589844
vt 0.2095947 0.9589844
vt 0.2095947 0.9589844
vt 0.2095947 0.9589844
vt 0.2095947 0.9589844
vt 0.2095947 0.9589844
vt 0.2095947 0.9589844
vt 0.2095947 0.9589844
vt 0.2095947 0.9589844
vt 0.2095947 0.9589844
vt 0.2095947 0.9589844
vt 0.2095947 0.9589844
vt 0.2095947 0.9589844
vt 0.2095947 0.9589844
vt 0.2095947 0.9589844
vt 0.2095947 0.9589844
vt 0.2095947 0.9589844
vt 0.2095947 0.9589844
vt 0.2095947 0.9589844
vt 0.2095947 0.9589844
vt 0.2095947 0.9589844
vt 0.2095947 0.9589844
vt 0.2095947 0.9589844
vt 0.2095947 0.9589844
vt 0.2095947 0.9589844
vt 0.2095947 0.9589844
vt 0.2095947 0.9589844
vt 0.2095947 0.9589844
vt 0.2095947 0.9589844
vt 0.2095947 0.9589844
vt 0.2095947 0.9589844
vt 0.2095947 0.9589844
vt 0.2095947 0.9589844
vt 0.2095947 0.9589844
vt 0.2095947 0.9589844
vn -1 0 0
vn -1 0 0
vn -1 0 0
vn -1 0 0
vn 0 0.5405273 0.8413086
vn 0 0.5405273 0.8413086
vn 0 0.5405273 0.8413086
vn 0 0.5405273 0.8413086
vn 1 0 0
vn 1 0 0
vn 1 0 0
vn 1 0 0
vn 0 -0.5439453 -0.8388672
vn 0 -0.5439453 -0.8388672
vn 0 -0.5439453 -0.8388672
vn 0 -0.5439453 -0.8388672
vn 0 0.9702148 -0.2416992
vn 0 0.9702148 -0.2416992
vn 0 0.9702148 -0.2416992
vn 0 0.9702148 -0.2416992
vn 0 -0.02941895 0.9995117
vn 0 -0.02941895 0.9995117
vn 0 -0.02941895 0.9995117
vn 0 -0.02941895 0.9995117
vn -1 0 0
vn -1 0 0
vn -1 0 0
vn -1 0 0
vn 0 0.5405273 0.8413086
vn 0 0.5405273 0.8413086
vn 0 0.5405273 0.8413086
vn 0 0.5405273 0.8413086
vn 1 0 0
vn 1 0 0
vn 1 0 0
vn 1 0 0
vn 0 -0.5439453 -0.8388672
vn 0 -0.5439453 -0.8388672
vn 0 -0.5439453 -0.8388672
vn 0 -0.5439453 -0.8388672
vn 0 0.9702148 -0.2416992
vn 0 0.9702148 -0.2416992
vn 0 0.9702148 -0.2416992
vn 0 0.9702148 -0.2416992
vn 0 -0.02941895 0.9995117
vn 0 -0.02941895 0.9995117
vn 0 -0.02941895 0.9995117
vn 0 -0.02941895 0.9995117
g Cube.016_0
f 3/3/3 2/2/2 1/1/1
f 4/4/4 3/3/3 1/1/1
f 7/7/7 6/6/6 5/5/5
f 8/8/8 7/7/7 5/5/5
f 11/11/11 10/10/10 9/9/9
f 12/12/12 11/11/11 9/9/9
f 15/15/15 14/14/14 13/13/13
f 16/16/16 15/15/15 13/13/13
f 19/19/19 18/18/18 17/17/17
f 20/20/20 19/19/19 17/17/17
f 23/23/23 22/22/22 21/21/21
f 24/24/24 23/23/23 21/21/21
f 27/27/27 26/26/26 25/25/25
f 28/28/28 27/27/27 25/25/25
f 31/31/31 30/30/30 29/29/29
f 32/32/32 31/31/31 29/29/29
f 35/35/35 34/34/34 33/33/33
f 36/36/36 35/35/35 33/33/33
f 39/39/39 38/38/38 37/37/37
f 40/40/40 39/39/39 37/37/37
f 43/43/43 42/42/42 41/41/41
f 44/44/44 43/43/43 41/41/41
f 47/47/47 46/46/46 45/45/45
f 48/48/48 47/47/47 45/45/45
