g Ground
v 2.2 8 0
v 2.2 8 0.3000001
v 2.2 -8 0.3000001
v 2.2 -8 0
v -3 -8 -1
v -3 8 -1
v -3 8 0
v -3 -8 0
v -3 -8 0.3000001
v -3 8 0.3000001
v 2.333333 8 -1
v 2.333334 -8 -1
v 3 -8 -1
v 3 8 -1
v 3 8 -1
v 3 -8 -1
v 3 -8 0
v 3 8 0
v 3 8 0.3000001
v 3 -8 0.3000001
v -3 8 -1
v -3 -8 -1
v -2.333333 -8 -1
v -2.333334 8 -1
v 2.333331 8 -0.5
v 2.333336 -8 -0.5
v 2.333334 -8 -1
v 2.333333 8 -1
v -3 -8 0
v -3 -8 0.3000001
v -2.2 -8 0.3000001
v -2.2 -8 0
v -2.333331 -8 -0.5
v -0.1111112 -8 0
v 0.111111 -8 0
v -2.333333 -8 -1
v -3 -8 -1
v 2.333336 -8 -0.5
v 2.2 -8 0
v 3 -8 0
v 3 -8 0.3000001
v 2.2 -8 0.3000001
v 3 -8 -1
v 2.333334 -8 -1
v -0.111111 8 0
v -0.1111112 -8 0
v -2.2 -8 0
v -2.2 8 0
v 2.2 8 0
v 2.2 -8 0
v 0.111111 -8 0
v 0.1111112 8 0
v 0.1111112 8 0
v 0.111111 -8 0
v -0.1111112 -8 0
v -0.111111 8 0
v -2.333334 8 -1
v -2.333333 -8 -1
v -2.333331 -8 -0.5
v -2.333336 8 -0.5
v -2.333336 8 -0.5
v -2.333331 -8 -0.5
v 2.333336 -8 -0.5
v 2.333331 8 -0.5
v -2.2 8 0.3000001
v -2.2 -8 0.3000001
v -3 -8 0.3000001
v -3 8 0.3000001
v 3 8 0.3000001
v 3 -8 0.3000001
v 2.2 -8 0.3000001
v 2.2 8 0.3000001
v -2.2 8 0
v -2.2 8 0.3000001
v -3 8 0.3000001
v -3 8 0
v -2.333336 8 -0.5
v -0.111111 8 0
v -2.333334 8 -1
v -3 8 -1
v 2.333331 8 -0.5
v 0.1111112 8 0
v 2.2 8 0
v 3 8 0
v 2.2 8 0.3000001
v 3 8 0.3000001
v 2.333333 8 -1
v 3 8 -1
v -2.2 -8 0
v -2.2 -8 0.3000001
v -2.2 8 0.3000001
v -2.2 8 0
vt 0.1173706 0.9541016
vt 0.1173706 0.9541016
vt 0.1173706 0.9541016
vt 0.1173706 0.9541016
vt 0.1173706 0.9541016
vt 0.1173706 0.9541016
vt 0.1173706 0.9541016
vt 0.1173706 0.9541016
vt 0.1173706 0.9541016
vt 0.1173706 0.9541016
vt 0.1173706 0.9541016
vt 0.1173706 0.9541016
vt 0.1173706 0.9541016
vt 0.1173706 0.9541016
vt 0.1173706 0.9541016
vt 0.1173706 0.9541016
vt 0.1173706 0.9541016
vt 0.1173706 0.9541016
vt 0.1173706 0.9541016
vt 0.1173706 0.9541016
vt 0.1173706 0.9541016
vt 0.1173706 0.9541016
vt 0.1173706 0.9541016
vt 0.1173706 0.9541016
vt 0.1173706 0.9541016
vt 0.1173706 0.9541016
vt 0.1173706 0.9541016
vt 0.1173706 0.9541016
vt 0.1173706 0.9541016
vt 0.1173706 0.9541016
vt 0.1173706 0.9541016
vt 0.1173706 0.9541016
vt 0.1173706 0.9541016
vt 0.1173706 0.9541016
vt 0.1173706 0.9541016
vt 0.1173706 0.9541016
vt 0.1173706 0.9541016
vt 0.1173706 0.9541016
vt 0.1173706 0.9541016
vt 0.1173706 0.9541016
vt 0.1173706 0.9541016
vt 0.1173706 0.9541016
vt 0.1173706 0.9541016
vt 0.1173706 0.9541016
vt 0.2805176 0.8725586
vt 0.2805176 0.8725586
vt 0.2805176 0.8725586
vt 0.2805176 0.8725586
vt 0.2805176 0.8725586
vt 0.2805176 0.8725586
vt 0.2805176 0.8725586
vt 0.2805176 0.8725586
vt 0.04022217 0.7255859
vt 0.04022217 0.7255859
vt 0.04022217 0.7255859
vt 0.04022217 0.7255859
vt 0.1173706 0.9541016
vt 0.1173706 0.9541016
vt 0.1173706 0.9541016
vt 0.1173706 0.9541016
vt 0.1173706 0.9541016
vt 0.1173706 0.9541016
vt 0.1173706 0.9541016
vt 0.1173706 0.9541016
vt 0.1173706 0.9541016
vt 0.1173706 0.9541016
vt 0.1173706 0.9541016
vt 0.1173706 0.9541016
vt 0.1173706 0.9541016
vt 0.1173706 0.9541016
vt 0.1173706 0.9541016
vt 0.1173706 0.9541016
vt 0.1173706 0.9541016
vt 0.1173706 0.9541016
vt 0.1173706 0.9541016
vt 0.1173706 0.9541016
vt 0.1173706 0.9541016
vt 0.1173706 0.9541016
vt 0.1173706 0.9541016
vt 0.1173706 0.9541016
vt 0.1173706 0.9541016
vt 0.1173706 0.9541016
vt 0.1173706 0.9541016
vt 0.1173706 0.9541016
vt 0.1173706 0.9541016
vt 0.1173706 0.9541016
vt 0.1173706 0.9541016
vt 0.1173706 0.9541016
vt 0.1173706 0.9541016
vt 0.1173706 0.9541016
vt 0.1173706 0.9541016
vt 0.1173706 0.9541016
vn -1 0 0
vn -1 0 0
vn -1 0 0
vn -1 0 0
vn -1 0 0
vn -1 0 0
vn -1 0 0
vn -1 0 0
vn -1 0 0
vn -1 0 0
vn 0 0 -1
vn 0 0 -1
vn 0 0 -1
vn 0 0 -1
vn 1 0 0
vn 1 0 0
vn 1 0 0
vn 1 0 0
vn 1 0 0
vn 1 0 0
vn 0 0 -1
vn 0 0 -1
vn 0 0 -1
vn 0 0 -1
vn -1 0 0
vn -1 0 0
vn -1 0 0
vn -1 0 0
vn 0 -1 0
vn 0 -1 0
vn 0 -1 0
vn 0 -1 0
vn 0 -1 0
vn 0 -1 0
vn 0 -1 0
vn 0 -1 0
vn 0 -1 0
vn 0 -1 0
vn 0 -1 0
vn 0 -1 0
vn 0 -1 0
vn 0 -1 0
vn 0 -1 0
vn 0 -1 0
vn 0 0 1
vn 0 0 1
vn 0 0 1
vn 0 0 1
vn 0 0 1
vn 0 0 1
vn 0 0 1
vn 0 0 1
vn 0 0 1
vn 0 0 1
vn 0 0 1
vn 0 0 1
vn 1 0 0
vn 1 0 0
vn 1 0 0
vn 1 0 0
vn 0 0 -1
vn 0 0 -1
vn 0 0 -1
vn 0 0 -1
vn 0 0 1
vn 0 0 1
vn 0 0 1
vn 0 0 1
vn 0 0 1
vn 0 0 1
vn 0 0 1
vn 0 0 1
vn 0 1 0
vn 0 1 0
vn 0 1 0
vn 0 1 0
vn 0 1 0
vn 0 1 0
vn 0 1 0
vn 0 1 0
vn 0 1 0
vn 0 1 0
vn 0 1 0
vn 0 1 0
vn 0 1 0
vn 0 1 0
vn 0 1 0
vn 0 1 0
vn 1 0 0
vn 1 0 0
vn 1 0 0
vn 1 0 0
g Ground_0
f 3/3/3 2/2/2 1/1/1
f 4/4/4 3/3/3 1/1/1
f 7/7/7 6/6/6 5/5/5
f 8/8/8 7/7/7 5/5/5
f 8/8/8 9/9/9 7/7/7
f 9/9/9 10/10/10 7/7/7
f 13/13/13 12/12/12 11/11/11
f 14/14/14 13/13/13 11/11/11
f 17/17/17 16/16/16 15/15/15
f 18/18/18 17/17/17 15/15/15
f 18/18/18 19/19/19 17/17/17
f 19/19/19 20/20/20 17/17/17
f 23/23/23 22/22/22 21/21/21
f 24/24/24 23/23/23 21/21/21
f 27/27/27 26/26/26 25/25/25
f 28/28/28 27/27/27 25/25/25
f 31/31/31 30/30/30 29/29/29
f 32/32/32 31/31/31 29/29/29
f 33/33/33 32/32/32 29/29/29
f 33/33/33 34/34/34 32/32/32
f 35/35/35 34/34/34 33/33/33
f 36/36/36 33/33/33 29/29/29
f 37/37/37 36/36/36 29/29/29
f 38/38/38 35/35/35 33/33/33
f 38/38/38 39/39/39 35/35/35
f 38/38/38 40/40/40 39/39/39
f 40/40/40 41/41/41 39/39/39
f 41/41/41 42/42/42 39/39/39
f 40/40/40 38/38/38 43/43/43
f 38/38/38 44/44/44 43/43/43
f 47/47/47 46/46/46 45/45/45
f 48/48/48 47/47/47 45/45/45
f 51/51/51 50/50/50 49/49/49
f 52/52/52 51/51/51 49/49/49
f 55/55/55 54/54/54 53/53/53
f 56/56/56 55/55/55 53/53/53
f 59/59/59 58/58/58 57/57/57
f 60/60/60 59/59/59 57/57/57
f 63/63/63 62/62/62 61/61/61
f 64/64/64 63/63/63 61/61/61
f 67/67/67 66/66/66 65/65/65
f 68/68/68 67/67/67 65/65/65
f 71/71/71 70/70/70 69/69/69
f 72/72/72 71/71/71 69/69/69
f 75/75/75 74/74/74 73/73/73
f 76/76/76 75/75/75 73/73/73
f 77/77/77 76/76/76 73/73/73
f 77/77/77 73/73/73 78/78/78
f 76/76/76 77/77/77 79/79/79
f 80/80/80 76/76/76 79/79/79
f 81/81/81 77/77/77 78/78/78
f 82/82/82 81/81/81 78/78/78
f 81/81/81 82/82/82 83/83/83
f 81/81/81 83/83/83 84/84/84
f 83/83/83 85/85/85 84/84/84
f 85/85/85 86/86/86 84/84/84
f 87/87/87 81/81/81 84/84/84
f 88/88/88 87/87/87 84/84/84
f 91/91/91 90/90/90 89/89/89
f 92/92/92 91/91/91 89/89/89
