g Cube.002
v -0.0001025493 0.008886841 -0.01727242
v -0.009302986 0.01 -0.009837812
v -0.0001025493 0.002508262 -0.04642078
v -0.0001025493 0.002502363 -0.04643346
v -0.0001025493 0.002501432 -0.04643546
v 0.0001040491 0.002501432 -0.04643546
v 0.0001040491 0.002502363 -0.04643346
v -0.0001025493 0.002504847 -0.04642812
v 0.0001040491 0.002504847 -0.04642812
v -0.0001025493 0.002508262 -0.04642078
v 0.0001040491 0.002508262 -0.04642078
v -0.0001025493 0.008886841 -0.01727242
v 0.0001040491 0.008886841 -0.01727242
v 0.009269794 0.01 -0.009837812
v -0.009302986 0.01 -0.009837812
v -0.009767662 0.009970076 -0.006734495
v 0.009668089 0.009970076 -0.006734495
v -0.01 0.009881043 -0.003707591
v 0.01 0.009881043 -0.003707591
v -0.01 0.009735093 -0.0008316344
v 0.01 0.009735093 -0.0008316344
v -0.01 0.009535817 0.001822561
v 0.01 0.009535817 0.001822561
v -0.01 0.009288126 0.004189639
v 0.01 0.009288126 0.004189639
v -0.0001025493 0.002504847 -0.04642812
v -0.0001025493 0.002508262 -0.04642078
v -0.01 0.007569511 0.01
v -0.01 0.003784755 0.01
v -0.0001025493 0.002502363 -0.04643346
v -0.008984012 0.002603298 0.01
v -0.01 0.008998116 0.006211315
v -0.01 0.009288126 0.004189639
v 0.01 0.009288126 0.004189639
v 0.01 0.008998116 0.006211315
v -0.01 0.008672929 0.007837808
v 0.01 0.008672929 0.007837808
v -0.01 0.008320574 0.009029069
v 0.01 0.008320574 0.009029069
v -0.01 0.007949723 0.009755764
v 0.01 0.007949723 0.009755764
v -0.01 0.007742497 0.009970739
v 0.01 0.007742497 0.009970739
v -0.01 0.007569511 0.01
v 0.01 0.007569511 0.01
v -0.01 0.003784755 0.01
v 0.01 0.003784755 0.01
v -0.008984012 0.002603298 0.01
v 0.009244779 0.002603298 0.01
v 0.0001040491 0.002502363 -0.04643346
v 0.0001040491 0.002501432 -0.04643546
v -0.0001025493 0.002501432 -0.04643546
v -0.0001025493 0.002502363 -0.04643346
v 0.009244779 0.002603298 0.01
v -0.008984012 0.002603298 0.01
v 0.0001040491 0.002504847 -0.04642812
v 0.0001040491 0.002502363 -0.04643346
v 0.009244779 0.002603298 0.01
v 0.01 0.003784755 0.01
v 0.0001040491 0.002508262 -0.04642078
v 0.01 0.007569511 0.01
v 0.009269794 0.01 -0.009837812
v 0.01 0.007742497 0.009970739
v 0.01 0.007949723 0.009755764
v 0.01 0.008320574 0.009029069
v 0.01 0.008672929 0.007837808
v 0.01 0.008998116 0.006211315
v 0.01 0.009288126 0.004189639
v 0.01 0.009535817 0.001822561
v 0.01 0.009735093 -0.0008316344
v 0.01 0.009881043 -0.003707591
v 0.009668089 0.009970076 -0.006734495
v -0.01 0.007569511 0.01
v -0.0001025493 0.002508262 -0.04642078
v -0.009302986 0.01 -0.009837812
v -0.01 0.007742497 0.009970739
v -0.01 0.007949723 0.009755764
v -0.01 0.008320574 0.009029069
v -0.01 0.008672929 0.007837808
v -0.01 0.008998116 0.006211315
v -0.01 0.009288126 0.004189639
v -0.01 0.009535817 0.001822561
v -0.01 0.009735093 -0.0008316344
v -0.01 0.009881043 -0.003707591
v -0.009767662 0.009970076 -0.006734495
vt 0.375 0.25
vt 0.3770273 0.25
vt 0.125 0.5303811
vt 0.125 0.6121063
vt 0.125 0.625
vt 0.375 0.625
vt 0.375 0.6120216
vt 0.125 0.5776905
vt 0.375 0.5776905
vt 0.125 0.5303811
vt 0.375 0.5303811
vt 0.375 0.25
vt 0.375 0.5
vt 0.3770273 0.5
vt 0.3770273 0.25
vt 0.4158188 0.25
vt 0.4158188 0.5
vt 0.4536551 0.25
vt 0.4536551 0.5
vt 0.4896046 0.25
vt 0.4896046 0.5
vt 0.522782 0.25
vt 0.522782 0.5
vt 0.625 0.25
vt 0.625 0.5
vt 0.375 0.1723094
vt 0.375 0.2196189
vt 0.625 0.2196189
vt 0.625 0.1723094
vt 0.3749999 0.1380744
vt 0.625 0.1378944
vt 0.875 0.5125235
vt 0.875 0.5
vt 0.625 0.5
vt 0.625 0.5125235
vt 0.875 0.5165883
vt 0.625 0.5165883
vt 0.875 0.5209928
vt 0.625 0.5209928
vt 0.875 0.5256284
vt 0.625 0.5256284
vt 0.875 0.5303811
vt 0.625 0.5303811
vt 0.875 0.5303811
vt 0.625 0.5303811
vt 0.875 0.5776905
vt 0.625 0.5776905
vt 0.875 0.6121055
vt 0.625 0.6121056
vt 0.375 0.6120216
vt 0.375 0.625
vt 0.125 0.625
vt 0.3749999 0.1380744
vt 0.625 0.6121056
vt 0.625 0.1378944
vt 0.375 0.5776905
vt 0.375 0.6120216
vt 0.625 0.6121056
vt 0.625 0.5776905
vt 0.375 0.5303811
vt 0.625 0.5303811
vt 0.3770273 0.5
vt 0.625 0.5303811
vt 0.625 0.5256284
vt 0.625 0.5209928
vt 0.625 0.5165883
vt 0.625 0.5125235
vt 0.625 0.5
vt 0.522782 0.5
vt 0.4896046 0.5
vt 0.4536551 0.5
vt 0.4158188 0.5
vt 0.875 0.5303811
vt 0.125 0.5303811
vt 0.3770273 0.25
vt 0.875 0.5303811
vt 0.875 0.5256284
vt 0.875 0.5209928
vt 0.875 0.5165883
vt 0.875 0.5125235
vt 0.875 0.5
vt 0.522782 0.25
vt 0.4896046 0.25
vt 0.4536551 0.25
vt 0.4158188 0.25
vn -0.01956273 0.9819514 -0.1881196
vn -0.01156669 0.9972379 -0.0733676
vn -0.003906509 0.9499531 -0.3123682
vn 0 0.9065725 -0.4220499
vn 0 0.9064457 -0.4223224
vn 0 0.9064457 -0.4223224
vn 0 0.9065725 -0.4220499
vn 0 0.9066302 -0.4219263
vn 0 0.9066302 -0.4219263
vn -0.003906509 0.9499531 -0.3123682
vn 0.003906472 0.949944 -0.3123957
vn -0.01956273 0.9819514 -0.1881196
vn 0.01962363 0.9819444 -0.1881488
vn 0.01168863 0.997196 -0.0739161
vn -0.01156669 0.9972379 -0.0733676
vn 0 0.9997953 0.02023395
vn 0 0.9997947 0.02026446
vn 0 0.9991882 0.04028493
vn 0 0.9991832 0.0404068
vn 0 0.9980275 0.06277728
vn 0 0.9980275 0.06277728
vn 0 0.9959912 0.08945151
vn 0 0.9959912 0.08945151
vn 0 0.9923999 0.1230543
vn 0 0.9923999 0.1230543
vn -0.8104861 -0.5713413 -0.1291553
vn -0.9851021 -0.0237135 -0.1703282
vn -0.9506928 -0.2776605 -0.1381589
vn -0.9321399 -0.3267358 -0.1560738
vn -0.1153929 -0.9931847 -0.01638878
vn -0.4499691 -0.8903553 -0.06924714
vn 0 0.9856033 0.1690739
vn 0 0.9923999 0.1230543
vn 0 0.9923999 0.1230543
vn 0 0.9856033 0.1690739
vn 0 0.9707569 0.2400646
vn 0 0.9707569 0.2400646
vn 0 0.928769 0.3706592
vn 0 0.928769 0.3706592
vn 0 0.814191 0.5805971
vn 0 0.814191 0.5805971
vn 0 0.4667838 0.8843715
vn 0 0.4667838 0.8843715
vn 0 0.08368193 0.9964924
vn 0 0.08368193 0.9964924
vn 0 0 1
vn 0 0 1
vn 0 0 1
vn 0 0 1
vn 0.1304096 -0.9912714 -0.01934932
vn 0 -0.9999985 0.001770125
vn 0 -0.9999985 0.001770125
vn -0.1153929 -0.9931847 -0.01638878
vn 0.5155038 -0.8529572 -0.0819752
vn -0.4499691 -0.8903553 -0.06924714
vn 0.8734196 -0.4656264 -0.1425842
vn 0.1304096 -0.9912714 -0.01934932
vn 0.5155038 -0.8529572 -0.0819752
vn 0.9508424 -0.2646892 -0.1607423
vn 0.9851084 -0.02343898 -0.1703293
vn 0.9513745 -0.2751 -0.1385876
vn 0.8445203 -0.5272148 -0.09396784
vn 0.8445203 -0.5272148 -0.09396784
vn 0.8445203 -0.5272148 -0.09396784
vn 0.8445203 -0.5272148 -0.09396784
vn 0.8445203 -0.5272148 -0.09396784
vn 0.8445203 -0.5272148 -0.09396784
vn 0.8445203 -0.5272148 -0.09396784
vn 0.8445203 -0.5272148 -0.09396784
vn 0.8445203 -0.5272148 -0.09396784
vn 0.8445203 -0.5272148 -0.09396784
vn 0.8445203 -0.5272148 -0.09396784
vn -0.9506928 -0.2776605 -0.1381589
vn -0.9851021 -0.0237135 -0.1703282
vn -0.841794 -0.5317445 -0.09290192
vn -0.841794 -0.5317445 -0.09290192
vn -0.841794 -0.5317445 -0.09290192
vn -0.841794 -0.5317445 -0.09290192
vn -0.841794 -0.5317445 -0.09290192
vn -0.841794 -0.5317445 -0.09290192
vn -0.841794 -0.5317445 -0.09290192
vn -0.841794 -0.5317445 -0.09290192
vn -0.841794 -0.5317445 -0.09290192
vn -0.841794 -0.5317445 -0.09290192
vn -0.841794 -0.5317445 -0.09290192
g Cube.002_0
f 3/3/3 2/2/2 1/1/1
f 6/6/6 5/5/5 4/4/4
f 7/7/7 6/6/6 4/4/4
f 7/7/7 4/4/4 8/8/8
f 9/9/9 7/7/7 8/8/8
f 9/9/9 8/8/8 10/10/10
f 11/11/11 9/9/9 10/10/10
f 11/11/11 10/10/10 12/12/12
f 13/13/13 11/11/11 12/12/12
f 14/14/14 11/11/11 13/13/13
f 14/14/14 13/13/13 12/12/12
f 15/15/15 14/14/14 12/12/12
f 14/14/14 15/15/15 16/16/16
f 17/17/17 14/14/14 16/16/16
f 17/17/17 16/16/16 18/18/18
f 19/19/19 17/17/17 18/18/18
f 19/19/19 18/18/18 20/20/20
f 21/21/21 19/19/19 20/20/20
f 21/21/21 20/20/20 22/22/22
f 23/23/23 21/21/21 22/22/22
f 23/23/23 22/22/22 24/24/24
f 25/25/25 23/23/23 24/24/24
f 28/28/28 27/27/27 26/26/26
f 29/29/29 28/28/28 26/26/26
f 29/29/29 26/26/26 30/30/30
f 31/31/31 29/29/29 30/30/30
f 34/34/34 33/33/33 32/32/32
f 35/35/35 34/34/34 32/32/32
f 35/35/35 32/32/32 36/36/36
f 37/37/37 35/35/35 36/36/36
f 37/37/37 36/36/36 38/38/38
f 39/39/39 37/37/37 38/38/38
f 39/39/39 38/38/38 40/40/40
f 41/41/41 39/39/39 40/40/40
f 41/41/41 40/40/40 42/42/42
f 43/43/43 41/41/41 42/42/42
f 42/42/42 44/44/44 43/43/43
f 44/44/44 45/45/45 43/43/43
f 44/44/44 46/46/46 45/45/45
f 46/46/46 47/47/47 45/45/45
f 46/46/46 48/48/48 47/47/47
f 48/48/48 49/49/49 47/47/47
f 52/52/52 51/51/51 50/50/50
f 50/50/50 53/53/53 52/52/52
f 50/50/50 54/54/54 53/53/53
f 54/54/54 55/55/55 53/53/53
f 58/58/58 57/57/57 56/56/56
f 59/59/59 58/58/58 56/56/56
f 59/59/59 56/56/56 60/60/60
f 61/61/61 59/59/59 60/60/60
f 61/61/61 60/60/60 62/62/62
f 62/62/62 63/63/63 61/61/61
f 62/62/62 64/64/64 63/63/63
f 62/62/62 65/65/65 64/64/64
f 62/62/62 66/66/66 65/65/65
f 62/62/62 67/67/67 66/66/66
f 62/62/62 68/68/68 67/67/67
f 62/62/62 69/69/69 68/68/68
f 62/62/62 70/70/70 69/69/69
f 62/62/62 71/71/71 70/70/70
f 62/62/62 72/72/72 71/71/71
f 75/75/75 74/74/74 73/73/73
f 73/73/73 76/76/76 75/75/75
f 76/76/76 77/77/77 75/75/75
f 77/77/77 78/78/78 75/75/75
f 78/78/78 79/79/79 75/75/75
f 79/79/79 80/80/80 75/75/75
f 80/80/80 81/81/81 75/75/75
f 81/81/81 82/82/82 75/75/75
f 82/82/82 83/83/83 75/75/75
f 83/83/83 84/84/84 75/75/75
f 84/84/84 85/85/85 75/75/75
